<?xml version="1.0" encoding="UTF-8"?>
<!DOCTYPE svg PUBLIC "-//W3C//DTD SVG 1.1//EN" "http://www.w3.org/Graphics/SVG/1.1/DTD/svg11.dtd">
<!-- Creator: CorelDRAW 2019 (64 Bit) -->
<svg xmlns="http://www.w3.org/2000/svg" xml:space="preserve" width="512px" height="191px" version="1.1" shape-rendering="geometricPrecision" text-rendering="geometricPrecision" image-rendering="optimizeQuality" fill-rule="evenodd" clip-rule="evenodd"
viewBox="0 0 511.17 190.91"
 xmlns:xlink="http://www.w3.org/1999/xlink">
 <g id="Camada_x0020_1">
  <metadata id="CorelCorpID_0Corel-Layer"/>
  <g id="_2288457081328">
   <g>
    <g>
     <path fill="black" fill-rule="nonzero" d="M323.84 42.78c-2.03,1.51 -4.15,2.52 -5.99,2.52 -4.42,0 -6.82,-3.62 -6.82,-10.25 0,-6.87 3.09,-10.03 7.19,-10.03 1.57,0 3.09,0.51 5.39,1.83l0 -5.99c-2.21,-1.15 -4.65,-1.74 -7.09,-1.74 -7.74,0 -12.77,6.45 -12.77,16.34 0,9.61 5.26,15.74 12.77,15.74 2.99,0 5.2,-0.69 7.32,-2.33l0 -6.09zm5.34 8.01l7.15 0 0 -31.26 -7.15 0 0 31.26zm13.36 0l7.15 0 0 -13.18c2.99,0 3.45,0.55 5.43,7.32l1.71 5.86 7.41 0c-2.67,-6.64 -3.77,-13.64 -6.59,-15.2 3.74,-1.55 5.3,-3.79 5.3,-7.32 0,-5.12 -3.68,-8.74 -10.13,-8.74l-10.28 0 0 31.26zm7.15 -18.58l0 -7.28 2.16 0c2.63,0 3.96,1.05 3.96,3.52 0,2.48 -1.47,3.76 -3.87,3.76l-2.25 0zm37.03 10.57c-2.02,1.51 -4.14,2.52 -5.98,2.52 -4.43,0 -6.82,-3.62 -6.82,-10.25 0,-6.87 3.08,-10.03 7.18,-10.03 1.57,0 3.09,0.51 5.39,1.83l0 -5.99c-2.21,-1.15 -4.65,-1.74 -7.09,-1.74 -7.74,0 -12.76,6.45 -12.76,16.34 0,9.61 5.25,15.74 12.76,15.74 2.99,0 5.21,-0.69 7.32,-2.33l0 -6.09zm4.89 -23.25l0 20.64c0,7.78 4.47,11.03 11.01,11.03 7.46,0 11.01,-4.26 11.01,-11.12l0 -20.55 -7.14 0 0 21.14c0,2.84 -1.11,4.63 -3.87,4.63 -2.54,0 -3.87,-1.79 -3.87,-4.26l0 -21.51 -7.14 0zm27.82 31.26l7.14 0 0 -31.26 -7.14 0 0 31.26zm18.25 0l7.14 0 0 -25.86 7.18 0 0 -5.4 -21.51 0 0 5.4 7.19 0 0 25.86zm15.24 -15.93c0,11.72 6.32,16.34 12.4,16.34 5.34,0 12.39,-3.8 12.39,-16.02 0,-11.71 -6.54,-16.06 -12.39,-16.06 -6.13,0 -12.4,5.12 -12.4,15.74zm7.28 0.28c0,-6.14 1.25,-9.89 5.12,-9.89 4.24,0 5.11,4.49 5.11,9.89 0,7.5 -1.8,9.93 -5.11,9.93 -3.92,0 -5.12,-3.71 -5.12,-9.93z"/>
     <path fill="black" fill-rule="nonzero" d="M306.73 88.5l18.67 0 0 -5.4 -11.56 0 0 -7.78 10.37 0 0 -5.4 -10.37 0 0 -7.28 11.15 0 0 -5.4 -18.26 0 0 31.26zm22.39 -2.06c2.93,1.74 5.23,2.47 7.66,2.47 5.18,0 9.08,-3.75 9.08,-8.74 0,-7.41 -10.13,-11.94 -10.13,-15.65 0,-1.28 1.19,-2.15 2.89,-2.15 1.56,0 2.93,0.5 6.05,2.24l0 -5.86c-2.43,-1.32 -4.59,-1.92 -6.83,-1.92 -5.1,0 -9,3.48 -9,7.97 0,7.59 9.78,11.03 9.78,15.6 0,1.51 -1.2,2.61 -2.89,2.61 -1.89,0 -3.63,-0.87 -6.61,-3.29l0 6.72zm21.56 2.06l7.11 0 0 -12.72 2.99 0c8.71,0 10.37,-5.77 10.37,-9.15 0,-4.44 -3.03,-9.39 -10.33,-9.39l-10.14 0 0 31.26zm7.11 -18.12l0 -7.74 2.3 0c3.07,0 3.94,1.97 3.94,3.89 0,2.29 -0.91,3.85 -4.17,3.85l-2.07 0zm16.47 2.2c0,11.71 6.29,16.33 12.35,16.33 5.32,0 12.34,-3.79 12.34,-16.01 0,-11.72 -6.52,-16.07 -12.34,-16.07 -6.1,0 -12.35,5.13 -12.35,15.75zm7.25 0.27c0,-6.13 1.24,-9.89 5.1,-9.89 4.22,0 5.09,4.49 5.09,9.89 0,7.51 -1.79,9.93 -5.09,9.93 -3.9,0 -5.1,-3.7 -5.1,-9.93zm22.26 15.65l7.11 0 0 -13.18c2.98,0 3.44,0.55 5.41,7.32l1.7 5.86 7.39 0c-2.67,-6.63 -3.77,-13.64 -6.57,-15.19 3.72,-1.56 5.28,-3.8 5.28,-7.32 0,-5.13 -3.67,-8.75 -10.09,-8.75l-10.23 0 0 31.26zm7.11 -18.58l0 -7.28 2.15 0c2.62,0 3.95,1.06 3.95,3.53 0,2.47 -1.47,3.75 -3.85,3.75l-2.25 0zm22.39 18.58l7.11 0 0 -25.86 7.16 0 0 -5.4 -21.43 0 0 5.4 7.16 0 0 25.86zm18.17 0l7.11 0 0 -31.26 -7.11 0 0 31.26zm21.05 0.41l3.31 0 10.05 -31.67 -7.21 0 -4.54 16.11 -0.09 0 -4.82 -16.11 -7.2 0 10.5 31.67zm14 -16.33c0,11.71 6.28,16.33 12.34,16.33 5.32,0 12.34,-3.79 12.34,-16.01 0,-11.72 -6.51,-16.07 -12.34,-16.07 -6.1,0 -12.34,5.13 -12.34,15.75zm7.25 0.27c0,-6.13 1.24,-9.89 5.09,-9.89 4.22,0 5.09,4.49 5.09,9.89 0,7.51 -1.79,9.93 -5.09,9.93 -3.9,0 -5.09,-3.7 -5.09,-9.93z"/>
     <path fill="black" fill-rule="nonzero" d="M306.74 126.06l9.48 0c9.53,0 12.96,-8.7 12.96,-15.88 0,-7.6 -3.66,-15.38 -13.32,-15.38l-9.12 0 0 31.26zm7 -5.27l0 -20.73 2.03 0c4.83,0 6.27,4.58 6.27,10.48 0,6.27 -1.58,10.25 -6.63,10.25l-1.67 0zm20.27 5.27l18.38 0 0 -5.4 -11.38 0 0 -7.78 10.21 0 0 -5.4 -10.21 0 0 -7.28 10.98 0 0 -5.4 -17.98 0 0 31.26zm33.56 0l6.77 0 1.49 -6.5 6.96 0 1.44 6.5 6.77 0 -8.08 -31.45 -7.27 0 -8.08 31.45zm9.25 -11.58l2.44 -11.35 0.09 0 2.4 11.35 -4.93 0zm17.44 11.58l7 0 0 -13.18c2.93,0 3.38,0.54 5.32,7.32l1.68 5.86 7.27 0c-2.62,-6.64 -3.71,-13.64 -6.46,-15.2 3.66,-1.55 5.19,-3.8 5.19,-7.32 0,-5.13 -3.61,-8.74 -9.93,-8.74l-10.07 0 0 31.26zm7 -18.58l0 -7.28 2.12 0c2.57,0 3.88,1.05 3.88,3.52 0,2.47 -1.44,3.76 -3.79,3.76l-2.21 0zm17.92 18.58l18.38 0 0 -5.4 -11.38 0 0 -7.78 10.21 0 0 -5.4 -10.21 0 0 -7.28 10.98 0 0 -5.4 -17.98 0 0 31.26zm23.13 0l7 0 0 -31.26 -7 0 0 31.26zm10.38 0l6.78 0 1.49 -6.5 6.95 0 1.45 6.5 6.77 0 -8.08 -31.45 -7.27 0 -8.09 31.45zm9.26 -11.58l2.44 -11.35 0.09 0 2.39 11.35 -4.92 0z"/>
     <path fill="black" fill-rule="nonzero" d="M324.96 165.2l-12.62 0 2.01 -2.49c3.2,-3.96 5.34,-7.08 6.68,-9.71 1.27,-2.5 1.78,-4.51 1.78,-6.35 0,-2.02 -0.87,-3.75 -2.34,-4.96 -1.51,-1.25 -3.68,-1.98 -6.22,-1.98 -1.4,0 -2.75,0.16 -4.09,0.5 -1.07,0.28 -2.13,0.66 -3.2,1.17l0 2.09c0.47,-0.2 0.93,-0.37 1.39,-0.52 1.36,-0.44 2.67,-0.67 3.9,-0.67 1.93,0 3.61,0.69 4.82,1.83 1.2,1.12 1.91,2.67 1.91,4.41 0,2.19 -1.78,5.78 -4.08,9.44 -2.4,3.82 -5.41,7.81 -7.47,10.27l17.53 0 0 -3.03zm-5.79 -3.15l9.33 0 0 9.33 -26.1 0 0 -2.78 0.59 -0.47c1.1,-0.89 5.51,-6.4 8.83,-11.69 2.04,-3.25 3.63,-6.33 3.63,-7.92 0,-0.92 -0.35,-1.72 -0.93,-2.26 -0.55,-0.52 -1.34,-0.83 -2.27,-0.83 -0.83,0 -1.73,0.16 -2.7,0.47 -1.07,0.35 -2.21,0.88 -3.41,1.56l-2.72 1.56 0 -9.44 0.86 -0.46c1.66,-0.88 3.28,-1.51 4.92,-1.93 1.65,-0.43 3.32,-0.63 5.05,-0.63 3.44,0 6.45,1.05 8.61,2.83 2.19,1.8 3.49,4.33 3.49,7.26 0,2.27 -0.61,4.7 -2.1,7.64 -1.13,2.22 -2.78,4.75 -5.08,7.76zm14.4 -7.85c0,4.87 0.91,8.6 2.66,11.05 1.6,2.23 3.96,3.39 7.03,3.39 3.19,0 5.5,-1.24 7.04,-3.38 1.85,-2.58 2.7,-6.44 2.7,-11.06 0,-4.62 -0.85,-8.5 -2.69,-11.09 -1.52,-2.15 -3.81,-3.4 -6.95,-3.4 -3.12,0 -5.51,1.17 -7.11,3.39 -1.77,2.46 -2.68,6.21 -2.68,11.1zm-0.31 12.73c-2.12,-2.97 -3.23,-7.26 -3.23,-12.73 0,-5.5 1.1,-9.81 3.25,-12.8 2.28,-3.17 5.67,-4.84 10.08,-4.84 4.48,0 7.75,1.8 9.94,4.88 2.22,3.12 3.24,7.57 3.24,12.76 0,5.18 -1.03,9.62 -3.27,12.74 -2.2,3.07 -5.49,4.85 -10.01,4.85 -4.35,0 -7.72,-1.67 -10,-4.86zm4.7 -12.69c0,-3.17 0.07,-5.93 0.58,-8.01 0.67,-2.68 2.05,-4.27 4.72,-4.27 2.58,0 3.98,1.45 4.69,4.07 0.55,2.01 0.66,4.78 0.66,8.17 0,3.87 -0.19,6.65 -0.77,8.53 -0.78,2.52 -2.2,3.66 -4.58,3.66 -2.67,0 -4.05,-1.54 -4.72,-4.18 -0.51,-2.03 -0.58,-4.77 -0.58,-7.97zm4.02 -7.33c-0.43,1.73 -0.48,4.33 -0.48,7.33 0,3.03 0.05,5.58 0.48,7.28 0.28,1.09 0.67,1.72 1.28,1.72 0.53,0 0.9,-0.42 1.18,-1.33 0.48,-1.55 0.63,-4.08 0.63,-7.71 0,-3.2 -0.09,-5.77 -0.55,-7.44 -0.28,-1.07 -0.67,-1.65 -1.26,-1.65 -0.61,0 -1,0.67 -1.28,1.8zm36.3 18.29l-12.63 0 2.02 -2.49c3.19,-3.96 5.34,-7.08 6.67,-9.71 1.27,-2.5 1.79,-4.51 1.79,-6.35 0,-2.02 -0.87,-3.75 -2.35,-4.96 -1.51,-1.25 -3.68,-1.98 -6.22,-1.98 -1.4,0 -2.75,0.16 -4.08,0.5 -1.07,0.28 -2.13,0.66 -3.21,1.17l0 2.09c0.47,-0.2 0.94,-0.37 1.4,-0.52 1.36,-0.44 2.66,-0.67 3.9,-0.67 1.92,0 3.61,0.69 4.82,1.83 1.2,1.12 1.91,2.67 1.91,4.41 0,2.19 -1.79,5.78 -4.09,9.45 -2.39,3.81 -5.4,7.8 -7.47,10.26l17.54 0 0 -3.03zm-5.79 -3.15l9.33 0 0 9.33 -26.11 0 0 -2.78 0.59 -0.47c1.11,-0.89 5.51,-6.4 8.83,-11.69 2.05,-3.25 3.63,-6.33 3.63,-7.92 0,-0.92 -0.35,-1.72 -0.93,-2.26 -0.55,-0.52 -1.34,-0.83 -2.26,-0.83 -0.83,0 -1.74,0.16 -2.7,0.47 -1.07,0.35 -2.22,0.88 -3.41,1.56l-2.72 1.56 0 -9.44 0.86 -0.46c1.65,-0.88 3.28,-1.51 4.91,-1.93 1.66,-0.43 3.33,-0.63 5.05,-0.63 3.45,0 6.45,1.05 8.61,2.83 2.2,1.8 3.5,4.33 3.5,7.26 0,2.27 -0.61,4.7 -2.11,7.64 -1.12,2.22 -2.77,4.75 -5.07,7.76zm15.11 5.45c1.17,0.36 2.21,0.62 3.18,0.81 1.23,0.23 2.35,0.33 3.49,0.33 3.12,0 5.74,-0.83 7.57,-2.23 1.76,-1.35 2.79,-3.28 2.79,-5.53 0,-3 -1.63,-5.08 -4.87,-6.23l-3.85 -1.37 3.78 -1.52c1.52,-0.62 2.61,-1.32 3.28,-2.16 0.64,-0.8 0.94,-1.8 0.94,-3.05 0,-2 -0.92,-3.69 -2.49,-4.87 -1.66,-1.25 -4.07,-1.97 -6.94,-1.97 -1.23,0 -2.27,0.08 -3.37,0.28 -0.87,0.16 -1.83,0.4 -3,0.74l0 2.04c0.41,-0.13 0.81,-0.25 1.2,-0.35l0 0c1.21,-0.31 2.34,-0.46 3.48,-0.46 1.89,0 3.54,0.49 4.74,1.39 1.25,0.94 1.99,2.27 1.99,3.89 -0.02,0.05 -0.01,0.14 -0.01,0.19 -0.06,1.6 -0.84,2.92 -2.21,3.84 -0.96,0.65 -2.2,1.07 -3.67,1.23l0 2.17c1.76,0.15 3.21,0.67 4.3,1.46 1.41,1.01 2.2,2.43 2.29,4.04l0.02 0.3c0,1.79 -0.81,3.29 -2.22,4.35 -1.33,1 -3.17,1.57 -5.34,1.57 -1.17,0 -2.3,-0.14 -3.57,-0.46 -0.48,-0.13 -0.98,-0.28 -1.51,-0.47l0 2.04zm2.45 3.88c-1.45,-0.27 -3.01,-0.69 -4.83,-1.29l-1.16 -0.38 0 -9.23 2.56 1.15c1.38,0.62 2.49,1.03 3.47,1.28 0.9,0.24 1.72,0.33 2.59,0.33 1.31,0 2.37,-0.3 3.06,-0.82 0.61,-0.46 0.96,-1.13 0.96,-1.95l0 -0.15c-0.04,-0.7 -0.38,-1.31 -0.98,-1.74 -0.7,-0.51 -1.78,-0.81 -3.19,-0.81l-0.56 0.01 -1.87 0.1 0 -8.52 1.83 0.07 0.39 0c1.24,0 2.22,-0.24 2.85,-0.67 0.51,-0.34 0.79,-0.83 0.82,-1.43l0 -0.09 -0.01 0c0,-0.64 -0.26,-1.14 -0.72,-1.48 -0.56,-0.42 -1.42,-0.65 -2.47,-0.65 -0.81,0 -1.63,0.1 -2.51,0.33l0 0c-0.94,0.24 -1.97,0.61 -3.15,1.14l-2.56 1.15 0 -9.25 1.2 -0.37c1.83,-0.56 3.27,-0.95 4.63,-1.19 1.4,-0.26 2.64,-0.36 4.08,-0.36 3.73,0 6.93,1 9.22,2.72 2.37,1.78 3.75,4.3 3.75,7.27 0,1.91 -0.52,3.51 -1.6,4.87 -0.51,0.63 -1.13,1.2 -1.87,1.71 2.79,1.78 4.19,4.36 4.19,7.75 0,3.2 -1.49,5.95 -4.02,7.9 -2.46,1.9 -5.89,3.01 -9.88,3.01 -1.37,0 -2.73,-0.13 -4.22,-0.41z"/>
    </g>
   </g>
   <g>
    <path fill="black" d="M214.21 150.51c5.92,-7.38 11.39,-15.21 16.21,-23.65l0.51 0 0 16.99c-1.35,2.23 -2.77,4.45 -4.27,6.66l-12.45 0zm20.32 -31.3c3.11,-6.19 5.88,-12.7 8.25,-19.6l6.93 0c-2.2,7.97 -4.88,15.86 -8.21,23.65l-6.97 0 0 -4.05zm9.44 -23.19c3.18,-10.04 5.53,-20.86 6.86,-32.64 -9.66,2.56 -16.89,8.67 -22.67,18.38 1.75,-10.92 8.28,-17.23 18.22,-23.06 -11.29,-0.89 -23.11,1.19 -33.52,8.68 6.04,-10.5 14.99,-21.97 32.59,-13.59 -10.52,-11.43 -20.04,-12.5 -29.46,-12.63 17.99,-10.28 28.96,-4 36.19,8.95 4.89,-16.96 17.24,-23.39 36.77,-15.03 -14.1,1.38 -25.35,8.01 -32.59,19.99 19.2,-10.62 33.57,-5.56 40.76,12.62 -12.42,-9.39 -26.38,-14.68 -33.23,-8.47 7.34,1.76 12.03,4.9 14.9,8.65 5.46,7.14 6.45,18.73 3.03,28.02 -4.63,-16.09 -16.69,-35.21 -25.37,-29.91 -1.41,10.09 -3.24,20.12 -5.78,30.04l-6.7 0zm-4.06 30.84c-1.65,3.61 -3.43,7.19 -5.38,10.75l0 -10.75 5.38 0z"/>
    <path fill="black" d="M139.55 21.07c31.53,0 60.18,12.34 81.39,32.44 -2.21,1.8 -4.29,4.08 -6.26,6.81 -1.37,1.9 -2.6,3.91 -3.77,5.94l-5.21 9.05 8.48 -6.1c4.66,-3.35 9.74,-5.63 15.08,-6.97 1.2,1.4 2.38,2.83 3.51,4.28 -3.45,3.98 -5.85,8.75 -6.84,14.88l-1.87 11.65 6.03 -10.14c2.2,-3.68 4.68,-6.95 7.57,-9.68 2.57,3.8 4.92,7.76 7.04,11.86 -0.91,3.7 -1.94,7.35 -3.1,10.93l-7.07 0 -3.6 0 -23.06 0 -3.6 0 -23.06 0 -3.6 0 -23.06 0 -3.6 0 -23.07 0 -3.59 0 -23.07 0 -3.59 0 -23.07 0 -3.59 0 -23.07 0 -3.59 0 -14.89 0c17.31,-43.89 60.09,-74.95 110.13,-74.95zm100.84 78.54c-1.72,4.91 -3.67,9.7 -5.86,14.4l0 -14.4 5.86 0zm-9.46 21.62c-0.36,0.68 -0.72,1.36 -1.09,2.03l-21.97 0 0 -23.65 23.06 0 0 21.62zm-3.13 5.63c-4.69,8.06 -10.14,15.87 -16.36,23.5l-0.13 0.15 -3.44 0 0 -23.65 19.93 0zm-19.42 27.24l-0.17 0.2 3.77 -0.2 18.95 0 0 23.65 -23.06 0 0 -23.65 0.51 0zm21 -3.59c0.52,-0.8 1.04,-1.6 1.55,-2.4l0 2.4 -1.55 0zm5.15 -8.31c2.91,-5.03 5.52,-10.15 7.84,-15.34l14.86 0c0.43,4.12 0.65,8.31 0.65,12.55 0,3.74 -0.17,7.44 -0.51,11.1l-22.84 0 0 -8.31zm9.4 -18.94c3.02,-7.19 5.54,-14.53 7.65,-22.04 2.41,7.07 4.17,14.44 5.21,22.04l-12.86 0zm13.05 30.84c-1.01,8.17 -2.86,16.09 -5.45,23.65l-17 0 0 -23.65 22.45 0zm-6.74 27.25c-1.24,3.26 -2.61,6.44 -4.12,9.56l-213.14 0c-1.51,-3.12 -2.88,-6.3 -4.12,-9.56l15.45 0 3.59 0 23.07 0 3.59 0 23.07 0 3.59 0 23.07 0 3.59 0 23.07 0 3.6 0 23.06 0 3.6 0 23.06 0 3.6 0 23.06 0 3.6 0 15.71 0zm-222.68 -3.6c-2.59,-7.56 -4.43,-15.48 -5.44,-23.65l22.19 0 0 23.65 -16.75 0zm-5.83 -27.24c-0.34,-3.66 -0.52,-7.36 -0.52,-11.1 0,-4.24 0.23,-8.43 0.66,-12.55l22.44 0 0 23.65 -22.58 0zm0.58 -27.25c1.12,-8.18 3.07,-16.09 5.77,-23.65l16.23 0 0 23.65 -22 0zm181.96 -23.65l-23.06 0 0 23.65 23.06 0 0 -23.65zm0 27.25l-23.06 0 0 23.65 23.06 0 0 -23.65zm0 27.24l-23.06 0 0 23.65 23.06 0 0 -23.65zm-26.66 -54.49l-23.06 0 0 23.65 23.06 0 0 -23.65zm0 27.25l-23.06 0 0 23.65 23.06 0 0 -23.65zm0 27.24l-23.06 0 0 23.65 23.06 0 0 -23.65zm-26.66 -54.49l-23.07 0 0 23.65 23.07 0 0 -23.65zm0 27.25l-23.07 0 0 23.65 23.07 0 0 -23.65zm0 27.24l-23.07 0 0 23.65 23.07 0 0 -23.65zm-26.66 -54.49l-23.07 0 0 23.65 23.07 0 0 -23.65zm0 27.25l-23.07 0 0 23.65 23.07 0 0 -23.65zm0 27.24l-23.07 0 0 23.65 23.07 0 0 -23.65zm-26.66 -54.49l-23.07 0 0 23.65 23.07 0 0 -23.65zm0 27.25l-23.07 0 0 23.65 23.07 0 0 -23.65zm0 27.24l-23.07 0 0 23.65 23.07 0 0 -23.65zm-26.66 -54.49l-23.07 0 0 23.65 23.07 0 0 -23.65zm0 27.25l-23.07 0 0 23.65 23.07 0 0 -23.65zm0 27.24l-23.07 0 0 23.65 23.07 0 0 -23.65z"/>
    <path fill="black" fill-rule="nonzero" d="M11.38 185.8c-0.16,-0.47 -0.2,-0.97 -0.11,-1.51 0.08,-0.54 0.31,-1.01 0.67,-1.42 0.37,-0.41 0.79,-0.7 1.28,-0.87 0.78,-0.27 1.55,-0.23 2.29,0.13 0.74,0.36 1.25,0.93 1.52,1.71 0.27,0.78 0.23,1.54 -0.13,2.29 -0.36,0.74 -0.93,1.25 -1.71,1.52 -0.5,0.17 -1.01,0.21 -1.55,0.11 -0.54,-0.09 -1.01,-0.33 -1.41,-0.69 -0.4,-0.37 -0.68,-0.79 -0.85,-1.27zm-6.17 -8.74l-0.89 -3.89c-0.18,-0.77 -0.27,-1.35 -0.3,-1.74 -0.02,-0.39 0.04,-0.76 0.17,-1.1 0.14,-0.35 0.35,-0.66 0.64,-0.93 0.29,-0.28 0.65,-0.47 1.06,-0.56 0.46,-0.11 0.9,-0.08 1.33,0.08 0.44,0.15 0.8,0.42 1.08,0.8 0.04,-0.63 0.23,-1.15 0.58,-1.57 0.34,-0.41 0.79,-0.68 1.35,-0.81 0.45,-0.1 0.9,-0.09 1.36,0.02 0.47,0.1 0.87,0.31 1.2,0.61 0.33,0.3 0.58,0.7 0.76,1.21 0.11,0.31 0.31,1.1 0.61,2.35l0.76 3.3 -9.71 2.23zm1.16 -2.34l2.24 -0.51 -0.29 -1.29c-0.18,-0.76 -0.3,-1.23 -0.36,-1.41 -0.12,-0.32 -0.29,-0.56 -0.53,-0.71 -0.24,-0.15 -0.51,-0.19 -0.82,-0.11 -0.3,0.06 -0.52,0.2 -0.67,0.41 -0.15,0.21 -0.21,0.48 -0.17,0.81 0.02,0.2 0.14,0.77 0.35,1.68l0.25 1.13zm3.85 -0.88l2.61 -0.6 -0.42 -1.82c-0.16,-0.7 -0.28,-1.15 -0.37,-1.33 -0.12,-0.28 -0.3,-0.48 -0.55,-0.62 -0.25,-0.13 -0.54,-0.16 -0.89,-0.08 -0.29,0.06 -0.52,0.19 -0.69,0.38 -0.17,0.18 -0.28,0.42 -0.31,0.71 -0.03,0.29 0.06,0.88 0.26,1.77l0.36 1.59zm2.55 -8.75l-9.8 1.79 -1.33 -7.25 1.66 -0.3 0.96 5.26 2.18 -0.39 -0.9 -4.9 1.66 -0.3 0.89 4.89 2.66 -0.48 -1 -5.46 1.65 -0.31 1.37 7.45zm-2.43 -18.14l0.17 2.17 -2.2 1.02 0.3 3.99 2.33 0.65 0.16 2.13 -10.22 -3.1 -0.16 -2.13 9.62 -4.73zm-3.66 3.97l-3.57 1.66 3.78 1.06 -0.21 -2.72zm-0.28 -11.3l0.54 -1.96c1.11,0.26 1.94,0.74 2.49,1.42 0.55,0.68 0.84,1.55 0.88,2.62 0.04,1.32 -0.38,2.42 -1.26,3.3 -0.88,0.88 -2.1,1.34 -3.67,1.39 -1.66,0.05 -2.96,-0.34 -3.9,-1.17 -0.94,-0.83 -1.44,-1.94 -1.48,-3.34 -0.03,-1.22 0.3,-2.22 1,-3 0.41,-0.46 1.01,-0.82 1.8,-1.07l0.54 1.97c-0.52,0.14 -0.92,0.39 -1.2,0.78 -0.29,0.38 -0.43,0.84 -0.41,1.37 0.02,0.74 0.3,1.33 0.85,1.78 0.54,0.44 1.4,0.64 2.59,0.61 1.26,-0.04 2.15,-0.29 2.67,-0.76 0.52,-0.47 0.77,-1.07 0.74,-1.79 -0.01,-0.54 -0.2,-0.99 -0.55,-1.37 -0.35,-0.37 -0.89,-0.63 -1.63,-0.78zm3.72 -3.75l-9.92 -0.76 0.15 -2.01 3.91 0.3 0.3 -3.91 -3.91 -0.3 0.15 -2.01 9.93 0.76 -0.16 2.01 -4.34 -0.33 -0.29 3.91 4.34 0.33 -0.16 2.01zm1.49 -16.1l-8.14 -1.49 -0.53 2.9 -1.66 -0.3 1.42 -7.77 1.66 0.3 -0.53 2.89 8.14 1.49 -0.36 1.98zm1.04 -6.13l-9.7 -2.25 1.67 -7.18 1.64 0.38 -1.21 5.21 2.15 0.5 1.13 -4.85 1.64 0.38 -1.13 4.85 2.63 0.61 1.26 -5.4 1.63 0.38 -1.71 7.37zm2.14 -9.01l-9.44 -3.17 0.62 -1.85 7.63 -1.76 -6.33 -2.13 0.6 -1.76 9.44 3.16 -0.64 1.91 -7.49 1.75 6.2 2.08 -0.59 1.77zm3.14 -9.58l-9.24 -3.69 0.72 -1.81 7.72 -1.34 -6.2 -2.47 0.69 -1.73 9.25 3.69 -0.75 1.87 -7.58 1.32 6.08 2.43 -0.69 1.73zm3.8 -9.24l-9.09 -4.08 0.83 -1.84 9.09 4.08 -0.83 1.84zm-1.41 -4.51l0.72 -1.83c0.64,0.19 1.17,0.2 1.61,0.01 0.44,-0.18 0.79,-0.54 1.07,-1.08 0.29,-0.58 0.39,-1.07 0.29,-1.49 -0.1,-0.41 -0.31,-0.71 -0.63,-0.87 -0.21,-0.11 -0.42,-0.14 -0.63,-0.09 -0.21,0.05 -0.45,0.2 -0.71,0.45 -0.18,0.17 -0.55,0.58 -1.12,1.23 -0.72,0.84 -1.36,1.36 -1.9,1.57 -0.77,0.29 -1.5,0.26 -2.21,-0.1 -0.45,-0.23 -0.81,-0.57 -1.08,-1.02 -0.26,-0.46 -0.37,-0.98 -0.34,-1.57 0.04,-0.58 0.23,-1.22 0.58,-1.9 0.56,-1.11 1.23,-1.82 2.01,-2.13 0.78,-0.31 1.59,-0.27 2.42,0.12l-0.85 1.83c-0.49,-0.16 -0.9,-0.16 -1.23,-0.01 -0.33,0.15 -0.62,0.47 -0.88,0.97 -0.26,0.52 -0.36,0.98 -0.29,1.38 0.04,0.26 0.18,0.44 0.41,0.56 0.21,0.11 0.44,0.11 0.68,0.01 0.3,-0.13 0.78,-0.58 1.43,-1.34 0.64,-0.77 1.19,-1.3 1.61,-1.61 0.44,-0.3 0.9,-0.48 1.41,-0.52 0.5,-0.04 1.03,0.08 1.59,0.37 0.51,0.25 0.91,0.64 1.21,1.14 0.3,0.51 0.43,1.08 0.39,1.71 -0.05,0.62 -0.27,1.32 -0.66,2.09 -0.57,1.13 -1.26,1.86 -2.09,2.19 -0.82,0.34 -1.76,0.32 -2.81,-0.07zm5.46 -16.93c0.27,-0.41 0.64,-0.75 1.12,-1.02 0.48,-0.26 0.99,-0.37 1.54,-0.34 0.55,0.04 1.04,0.19 1.47,0.47 0.7,0.45 1.13,1.08 1.31,1.89 0.17,0.81 0.03,1.56 -0.41,2.25 -0.45,0.7 -1.08,1.13 -1.89,1.31 -0.81,0.17 -1.56,0.03 -2.25,-0.42 -0.44,-0.28 -0.79,-0.66 -1.05,-1.15 -0.25,-0.48 -0.36,-1 -0.31,-1.54 0.04,-0.54 0.2,-1.02 0.47,-1.45zm3.17 -9.82l2.46 -3.13c0.49,-0.62 0.88,-1.06 1.17,-1.33 0.29,-0.26 0.62,-0.45 0.97,-0.56 0.35,-0.11 0.72,-0.14 1.12,-0.09 0.4,0.05 0.77,0.21 1.1,0.48 0.37,0.29 0.63,0.65 0.78,1.09 0.15,0.43 0.17,0.88 0.05,1.34 0.52,-0.37 1.04,-0.55 1.58,-0.54 0.53,0.01 1.03,0.19 1.48,0.55 0.36,0.28 0.64,0.63 0.85,1.07 0.2,0.43 0.3,0.86 0.27,1.31 -0.02,0.45 -0.18,0.9 -0.46,1.35 -0.18,0.29 -0.66,0.94 -1.45,1.95l-2.1 2.67 -7.82 -6.16zm2.55 -0.56l1.8 1.41 0.81 -1.03c0.49,-0.61 0.78,-1 0.88,-1.17 0.18,-0.29 0.26,-0.58 0.22,-0.85 -0.03,-0.28 -0.17,-0.52 -0.42,-0.71 -0.25,-0.19 -0.49,-0.28 -0.75,-0.27 -0.26,0.02 -0.5,0.14 -0.74,0.38 -0.14,0.14 -0.51,0.59 -1.09,1.33l-0.71 0.91zm3.1 2.44l2.1 1.65 1.15 -1.46c0.45,-0.57 0.72,-0.95 0.81,-1.13 0.14,-0.26 0.19,-0.54 0.14,-0.82 -0.06,-0.28 -0.22,-0.52 -0.5,-0.74 -0.23,-0.19 -0.48,-0.29 -0.73,-0.3 -0.25,-0.02 -0.5,0.05 -0.75,0.21 -0.24,0.15 -0.65,0.59 -1.21,1.31l-1.01 1.28zm8.54 -3.45l-7.2 -6.88 5.1 -5.33 1.21 1.17 -3.7 3.86 1.6 1.53 3.44 -3.59 1.22 1.16 -3.44 3.6 1.94 1.86 3.84 -4.01 1.22 1.17 -5.23 5.46zm13.19 -12.63l-1.64 1.42 -2.14 -1.14 -3.01 2.62 0.86 2.25 -1.61 1.4 -3.61 -10.05 1.6 -1.4 9.55 4.9zm-5.38 -0.56l-3.46 -1.88 1.4 3.67 2.06 -1.79zm8.91 -7.02l1.9 -0.73c0.45,1.05 0.56,1.99 0.34,2.84 -0.22,0.85 -0.75,1.6 -1.59,2.26 -1.04,0.82 -2.17,1.14 -3.4,0.96 -1.23,-0.19 -2.32,-0.89 -3.3,-2.13 -1.02,-1.3 -1.48,-2.58 -1.38,-3.83 0.11,-1.25 0.71,-2.31 1.81,-3.17 0.95,-0.75 1.95,-1.08 3,-0.98 0.62,0.05 1.26,0.32 1.94,0.81l-1.27 1.6c-0.41,-0.33 -0.86,-0.5 -1.34,-0.5 -0.48,-0.01 -0.93,0.16 -1.35,0.49 -0.58,0.46 -0.88,1.03 -0.92,1.74 -0.03,0.7 0.32,1.51 1.05,2.44 0.78,0.99 1.51,1.56 2.2,1.7 0.68,0.14 1.31,-0.02 1.88,-0.47 0.42,-0.33 0.68,-0.75 0.77,-1.25 0.09,-0.51 -0.02,-1.1 -0.34,-1.78zm5.14 0.65l-5.35 -8.39 1.7 -1.09 2.11 3.31 3.31 -2.11 -2.11 -3.31 1.7 -1.08 5.35 8.39 -1.7 1.09 -2.34 -3.67 -3.31 2.11 2.34 3.67 -1.7 1.08zm14.15 -8.43l-7.66 -7.29 1.95 -0.98 5.57 5.45 -1.14 -7.68 1.91 -0.96 1.31 10.49 -1.94 0.97zm3.64 -7.29c-0.42,-0.93 -0.63,-1.77 -0.64,-2.52 0,-0.56 0.09,-1.1 0.28,-1.63 0.19,-0.53 0.46,-0.98 0.8,-1.35 0.46,-0.5 1.06,-0.91 1.8,-1.25 1.34,-0.6 2.6,-0.67 3.78,-0.2 1.17,0.47 2.1,1.44 2.77,2.92 0.66,1.47 0.78,2.8 0.36,3.99 -0.42,1.19 -1.3,2.08 -2.63,2.69 -1.35,0.61 -2.61,0.68 -3.78,0.21 -1.17,-0.46 -2.08,-1.41 -2.74,-2.86zm1.86 -0.92c0.47,1.03 1.06,1.7 1.77,2.02 0.72,0.31 1.44,0.31 2.17,-0.02 0.74,-0.34 1.22,-0.87 1.45,-1.61 0.23,-0.74 0.11,-1.64 -0.37,-2.69 -0.47,-1.04 -1.05,-1.71 -1.74,-2.02 -0.69,-0.31 -1.41,-0.29 -2.17,0.06 -0.75,0.34 -1.25,0.87 -1.48,1.6 -0.22,0.73 -0.1,1.62 0.37,2.66zm-1.98 -5.55l0.48 -2.42 1.6 -0.72 2.1 1.25 -1.39 0.63 -1.13 -0.61 -0.25 1.23 -1.41 0.64zm12.6 6.67l-3.25 -9.33 1.91 -0.66 2.69 7.74 4.71 -1.64 0.56 1.59 -6.62 2.3zm7.9 -2.7l-2.69 -9.59 7.09 -1.99 0.46 1.62 -5.16 1.44 0.6 2.13 4.79 -1.34 0.46 1.62 -4.79 1.34 0.73 2.6 5.34 -1.5 0.45 1.62 -7.28 2.05zm8.94 -2.31l-2.24 -9.7 1.97 -0.45 2.24 9.7 -1.97 0.45zm10 -8.69c0.49,-0.06 1,0.01 1.5,0.21 0.51,0.2 0.93,0.52 1.25,0.96 0.32,0.44 0.52,0.92 0.58,1.44 0.1,0.82 -0.1,1.55 -0.61,2.2 -0.51,0.66 -1.17,1.03 -1.99,1.13 -0.82,0.1 -1.56,-0.1 -2.21,-0.61 -0.65,-0.51 -1.03,-1.17 -1.13,-2 -0.06,-0.51 0.01,-1.02 0.22,-1.53 0.21,-0.51 0.53,-0.92 0.98,-1.23 0.44,-0.32 0.91,-0.5 1.41,-0.57zm9.81 5.96l-0.3 -9.96 6.84 -0.2 0.05 1.68 -4.82 0.15 0.07 2.36 4.17 -0.13 0.05 1.69 -4.17 0.12 0.13 4.23 -2.02 0.06zm8.79 -10.04l2.02 0.06 -0.16 5.4c-0.03,0.85 -0.02,1.41 0.02,1.66 0.07,0.41 0.27,0.75 0.58,1 0.31,0.26 0.75,0.4 1.3,0.41 0.57,0.02 1,-0.08 1.29,-0.31 0.29,-0.22 0.47,-0.5 0.54,-0.84 0.07,-0.34 0.12,-0.9 0.14,-1.69l0.16 -5.51 2.02 0.06 -0.16 5.23c-0.03,1.2 -0.11,2.04 -0.23,2.53 -0.13,0.49 -0.34,0.9 -0.64,1.24 -0.3,0.33 -0.7,0.58 -1.19,0.77 -0.49,0.19 -1.13,0.27 -1.92,0.25 -0.94,-0.03 -1.66,-0.16 -2.14,-0.39 -0.48,-0.24 -0.86,-0.54 -1.14,-0.9 -0.27,-0.36 -0.45,-0.73 -0.53,-1.12 -0.11,-0.57 -0.15,-1.42 -0.12,-2.53l0.16 -5.32zm11.96 10.6l1.01 -8.21 -2.92 -0.36 0.2 -1.67 7.84 0.96 -0.2 1.67 -2.92 -0.36 -1.01 8.22 -2 -0.25zm6.27 0.76l1.79 -9.79 7.25 1.32 -0.3 1.66 -5.27 -0.96 -0.4 2.17 4.9 0.9 -0.3 1.65 -4.9 -0.89 -0.49 2.65 5.46 1 -0.3 1.65 -7.44 -1.36zm11.61 2.29l-1.22 -10.5 2.12 0.49 0.8 7.75 4.03 -6.63 2.08 0.49 -5.7 8.9 -2.11 -0.5zm7.63 -3.06c0.31,-0.97 0.72,-1.73 1.23,-2.29 0.37,-0.41 0.81,-0.75 1.31,-1.01 0.49,-0.26 0.99,-0.41 1.5,-0.46 0.67,-0.05 1.39,0.05 2.16,0.3 1.4,0.46 2.37,1.26 2.93,2.4 0.55,1.14 0.57,2.48 0.06,4.03 -0.5,1.53 -1.31,2.59 -2.42,3.18 -1.12,0.59 -2.37,0.66 -3.76,0.2 -1.41,-0.46 -2.39,-1.26 -2.93,-2.39 -0.55,-1.13 -0.58,-2.45 -0.08,-3.96zm1.99 0.58c-0.36,1.07 -0.37,1.97 -0.06,2.68 0.31,0.72 0.85,1.2 1.61,1.45 0.77,0.25 1.48,0.18 2.15,-0.2 0.67,-0.39 1.19,-1.14 1.55,-2.24 0.36,-1.08 0.38,-1.97 0.08,-2.66 -0.3,-0.69 -0.84,-1.16 -1.63,-1.42 -0.79,-0.26 -1.52,-0.2 -2.18,0.18 -0.66,0.38 -1.17,1.12 -1.52,2.21zm2.29 -5.43l1.98 -1.46 1.67 0.55 0.71 2.34 -1.45 -0.48 -0.43 -1.21 -1.01 0.74 -1.47 -0.48zm4.85 13.11l4.05 -9.01 1.83 0.83 -3.35 7.47 4.55 2.04 -0.68 1.54 -6.4 -2.87zm7.73 3.5l4.5 -8.88 6.58 3.33 -0.76 1.5 -4.78 -2.42 -1 1.97 4.44 2.25 -0.76 1.5 -4.44 -2.25 -1.22 2.41 4.95 2.51 -0.76 1.5 -6.75 -3.42zm8.22 4.32l4.97 -8.62 1.75 1 -4.98 8.63 -1.74 -1.01zm13.23 0.09c0.4,0.29 0.73,0.68 0.97,1.17 0.24,0.49 0.33,1 0.27,1.55 -0.06,0.55 -0.24,1.03 -0.54,1.45 -0.48,0.68 -1.13,1.08 -1.95,1.22 -0.81,0.13 -1.55,-0.04 -2.22,-0.51 -0.68,-0.49 -1.09,-1.13 -1.22,-1.95 -0.14,-0.81 0.03,-1.56 0.51,-2.23 0.31,-0.43 0.7,-0.75 1.2,-0.99 0.49,-0.23 1.01,-0.31 1.55,-0.25 0.54,0.07 1.02,0.25 1.43,0.54z"/>
   </g>
   <g id="pessoas">
    <path fill="white" d="M73.75 77.25c0,-0.36 0,-1.3 0.59,-0.5 0.33,0.45 0.65,0.74 1.17,0.96 0.9,0.39 1.28,0.25 2.44,0.25 0.04,0.16 0.05,0.17 -0.08,0.3 -0.2,0.21 -0.91,0.67 -1.32,1.19 -0.93,1.2 -0.8,0.83 -1.67,2.29 -0.08,0.14 -0.29,0.57 -0.47,0.57 -0.45,0 -0.18,-1.09 -0.21,-1.45 0,-0.09 -0.03,-0.13 -0.02,-0.29 0.03,-0.52 0.07,0 -0.02,-0.66 -0.02,-0.2 0.02,-0.14 0.01,-0.38l-0.24 -1.56c-0.08,-0.24 -0.18,-0.38 -0.18,-0.72zm-0.52 2.23c0,0.22 -0.04,0.22 0,0.47l-0.05 2.31c-0.03,0.59 -0.24,1.75 -0.52,2.23 -0.32,0.56 -0.51,0.5 -0.57,1.27 -0.07,0.84 -0.31,0.32 -0.43,1.42 -0.03,0.33 -0.23,1.15 -0.55,1.29 -0.24,0.1 -0.42,0.13 -0.58,0.36 -0.12,0.18 -0.27,0.33 -0.36,0.54 -0.11,0.24 -0.11,0.49 -0.32,0.63 -0.28,0.19 -0.34,0.09 -0.46,0.49 -0.07,0.27 0.01,0.52 0.01,0.85 0,0.2 -0.2,0.24 -0.34,0.33 -0.51,0.36 0.06,0.85 -0.16,1.49 -0.18,0.55 -0.11,0.72 0.23,1.19l0.56 0.62c0.25,0.19 0.48,0.25 0.65,0.53 0.28,0.46 0.47,1.07 0.89,1.43 0.12,0.1 0.21,0.12 0.28,0.29 0.07,0.16 0.07,0.33 0.06,0.55 0,0.49 0.07,0.64 0.15,1.03l0.23 2.09c-0.01,0.75 0.38,1.23 0.38,1.98 0,0.42 0.05,0.73 0.13,1.05 0.08,0.34 0.04,0.73 0.1,1.08 0.04,0.18 0.08,0.3 0.1,0.47 0.01,0.21 -0.02,0.4 0.02,0.6 0.15,0.84 0.36,1.58 0.56,2.36 0.05,0.19 0.07,0.3 0.12,0.45 0.06,0.16 0.11,0.24 0.18,0.39 0.13,0.26 0.23,0.56 0.4,0.79 0.48,0.66 0.36,1.32 1.22,1.75 0.28,0.13 0.48,0.29 0.74,0.44 0.54,0.29 1.16,0.42 1.72,0.65 0.42,0.17 2.14,0.63 2.69,0.8 0.49,0.16 1.68,0.55 1.93,1 0.18,0.33 0.41,0.88 0.66,1.14 0.36,0.36 0.54,-0.06 1.4,0.06 0.61,0.09 0.75,0.59 1.39,1.16 0.3,0.27 0.88,0.61 1.24,0.79 0.31,0.16 0.33,0.25 0.45,0.6 0.19,0.6 0.34,0.88 0.52,1.51 0.09,0.32 0.13,0.47 0.26,0.73 0.35,0.69 0.83,3.23 1.03,4.08 0.07,0.26 0.13,0.53 0.21,0.78 0.07,0.23 0.14,0.58 0.24,0.8 0.26,0.56 0.32,1.08 0.52,1.51 0.43,0.9 0.19,0.85 0.38,1.65 0.07,0.29 0.12,0.53 0.19,0.81 0.07,0.33 0.08,1.8 0.5,2.57 0.24,0.45 0.3,0.91 0.57,1.46 0.32,0.64 0.5,2.04 0.73,2.82 0.11,0.41 0.17,0.86 0.37,1.19 0.3,0.5 0.18,0.67 0.2,1.04 0,0.07 0.03,0.15 0.01,0.28 -0.06,0.72 -0.43,1.23 -0.71,1.84 -0.08,0.17 -0.15,0.28 -0.23,0.43 -0.58,1.09 -0.13,1.85 0.46,2.73 0.13,0.19 0.18,0.34 0.29,0.56 0.15,0.29 0.16,0.22 0.16,0.64 0,0.32 0.06,0.38 0.03,0.74l0.06 1.11c0.01,0.22 -0.04,0.14 -0.04,0.37 0,0.22 0.04,0.15 0.04,0.34 0,0.18 -0.04,0.11 -0.04,0.33 0,0.18 0.04,0.16 0.03,0.32 -0.02,0.32 -0.06,0.83 -0.01,1.16 0.07,0.44 0.02,1.17 0.02,1.64 0,0.32 0.04,0.5 0.05,0.75l0.01 1.1c-0.02,0.19 0.02,0.16 0.04,0.37l0.04 2.41c0,0.67 0.15,0.9 0.19,1.47 0.05,0.69 0.02,0.7 0.48,1.12 0.24,0.21 0.13,0.59 0.21,0.93 0.22,0.98 0.01,1.38 -0.54,2.25l-0.71 1.18c-0.18,0.3 -0.35,1.12 -0.39,1.5 -0.05,0.62 -0.18,1.21 -0.18,1.85 0,0.29 0.06,0.4 0.09,0.62 0.02,0.23 -0.02,0.47 0.01,0.69l0.09 0.63c0,0.29 0.06,0.37 0.09,0.62 0.15,0.99 -0.47,0.32 -0.47,2.26l-0.01 0.47c-0.03,0.25 -0.09,0.27 -0.18,0.43 -0.28,0.52 0.32,0.95 -0.32,2 -0.19,0.32 -0.19,0.64 -0.34,0.93 -0.31,-0.02 -0.44,-0.28 -0.79,-0.13 -0.74,0.33 -0.34,1.38 -0.15,1.92 0.26,0.76 -0.13,0.59 -0.19,1.15 -0.03,0.24 0.02,0.48 -0.03,0.72 -0.07,0.32 -0.2,0.27 -0.27,0.54 -0.07,0.25 0,0.4 -0.17,0.63 -0.39,0.53 -0.63,0.79 -0.9,1.46 -0.09,0.22 -0.17,0.34 -0.26,0.55 -0.39,0.91 -0.55,2.47 -0.55,3.47 0,0.28 0.13,0.46 0.27,0.62 0.23,0.27 0.33,0.59 0.56,0.86l0.07 0.08c0.3,0.36 0.64,0.37 1.13,0.37 0.53,0 1.52,-0.26 1.95,-0.41l0.83 -0.36 1.39 -1.02c0.43,-0.39 0.72,-0.91 0.88,-1.48 0.12,-0.4 -0.07,-0.62 -0.09,-1.03 0,-0.18 0.02,-0.38 0,-0.56 -0.04,-0.48 -0.06,-1.06 0.17,-1.54 0.41,-0.86 0.59,-0.73 1.3,-1.11 0.52,-0.28 1.24,-1.56 1.45,-2.1 0.13,-0.33 0.25,-0.77 0.25,-1.16 0,-0.33 -0.25,-1.4 -0.36,-1.63 -0.36,-0.77 -1.05,-0.43 -1,-1.01 0.04,-0.58 0.14,-1.25 0.35,-1.68 0.2,-0.42 0.55,-0.65 0.63,-0.89 0.19,-0.5 -0.38,-0.07 0.58,-1.5 0.22,-0.32 0.5,-0.61 0.66,-0.99 0.45,-1.1 0.75,-1.36 0.75,-2.65 0,-0.65 -0.11,-0.93 0.14,-1.47 0.12,-0.26 0.12,-0.6 0.24,-0.94 0.07,-0.17 0.14,-0.23 0.21,-0.41l0.34 -0.84c0.2,-0.61 0.38,-1.19 0.59,-1.77 0.4,-1.13 0.45,-1.87 0.7,-2.85 0.12,-0.46 0.2,-0.4 0.65,-0.53l1.91 -0.45c0.47,-0.14 0.75,-0.38 1.14,-0.61 0.42,-0.24 1.45,-1.15 1.83,-1.15l0.14 0c0,0.46 0.12,1.67 0.23,2.09 0.16,0.62 0.24,1.51 0.57,2.03 0.41,0.66 0.26,1.5 0.42,2.18 0.05,0.19 0.19,0.68 0.18,0.83 -0.03,0.23 -0.26,0.48 -0.39,0.64 -0.15,0.22 -0.24,0.45 -0.34,0.69 -0.23,0.53 -0.33,1.15 -0.39,1.7 -0.03,0.32 -0.1,0.57 -0.09,0.95 0.01,0.23 0.04,0.24 0.05,0.47 0.04,1.61 0.52,1.68 0.52,2.18 0,0.12 -0.2,0.21 -0.23,0.47 -0.04,0.25 0.04,0.43 0.04,0.71 0,0.22 -0.1,0.33 -0.08,0.5 0.04,0.26 0.17,0.28 0.17,0.68 0,0.16 -0.23,0.3 -0.23,0.57 0,0.29 0.06,0.4 0.09,0.62 0.02,0.25 -0.05,0.41 -0.05,0.7 0.01,0.56 -0.01,0.87 -0.16,1.3 -0.19,0.52 -0.73,1.78 -0.73,2.25 0,0.28 0.09,0.59 0.09,0.8 0,0.54 -0.58,1.14 -0.36,2.4 0.12,0.7 -0.05,0.68 0.68,1.11 0.36,0.22 0.68,0.46 1.06,0.64 0.5,0.24 0.46,0.68 0.58,1.22 0.06,0.26 0.16,0.73 0.26,0.91 0.08,0.14 0.13,0.21 0.21,0.37 0.24,0.49 0.57,0.53 1.16,0.59 0.17,0.02 0.27,0.06 0.51,0.03 0.17,-0.03 0.31,-0.08 0.53,-0.09 0.72,-0.01 1.34,-0.14 1.98,-0.38 0.14,-0.05 0.26,-0.12 0.39,-0.18 0.69,-0.28 1.46,-0.7 1.46,-1.56l-0.36 -1.06c-0.14,-0.57 -0.47,-0.92 -0.88,-1.25l-0.66 -0.76c-0.17,-0.28 0.11,-0.28 0.11,-0.57 0,-0.25 -0.16,-0.27 -0.22,-0.5l-0.45 -1.82c0,-0.17 0.17,-0.37 0.24,-0.52 0.19,-0.39 0.36,-1.12 -0.08,-1.43 -0.12,-0.08 -0.12,-0.06 -0.29,-0.09 -0.15,-0.02 -0.2,-0.05 -0.34,-0.09 0,-0.67 0.23,-0.93 0.32,-1.53 0.06,-0.4 -0.13,-0.7 0.12,-1.1 0.08,-0.15 0.13,-0.24 0.2,-0.42 0.08,-0.23 0.04,-0.3 0.09,-0.52 0.04,-0.13 0.14,-0.28 0.2,-0.41 0.09,-0.24 0.02,-0.44 0.23,-1 0.06,-0.16 0.1,-0.3 0.14,-0.47 0.06,-0.22 0.1,-0.3 0.16,-0.46 0.36,-0.95 0.43,-1.51 0.6,-2.47l0.18 -1.06c0.12,-0.78 0.08,-1.61 0.08,-2.42 0,-0.65 -0.34,-1.17 -0.17,-2.1 0.09,-0.47 0.12,-0.68 0.09,-1.13 -0.02,-0.21 0.03,-0.28 -0.01,-0.65 -0.04,-0.35 -0.02,-0.74 -0.1,-1.08 -0.14,-0.59 0,-0.7 0.13,-1.24 0.05,-0.24 0.09,-0.46 0.14,-0.66l0.39 -1.17c0,-0.16 -0.09,-0.49 -0.09,-0.81 0,-0.46 0.35,-0.28 1.17,-0.43 0.29,-0.05 0.25,-0.01 0.48,0 0.15,0 0.34,-0.07 0.48,-0.08 0.43,-0.05 1.17,0.08 1.43,-0.32 0.13,-0.2 -0.03,-0.62 -0.09,-0.9 -0.07,-0.37 -0.04,-0.68 -0.09,-1.04 -0.05,-0.36 -0.12,-0.6 -0.2,-0.93 -0.08,-0.37 -0.03,-0.72 -0.13,-1.05 -0.09,-0.31 -0.15,-0.64 -0.21,-0.93 -0.1,-0.49 -0.02,-0.58 -0.01,-1.03 0.02,-0.41 -0.09,-0.64 -0.16,-0.97 -0.08,-0.37 0.01,-0.7 -0.09,-1.09 -0.17,-0.66 -0.32,-1.69 -0.64,-2.24 -0.81,-1.38 -0.34,-1.3 -0.34,-2.13 0,-0.41 0,-0.76 -0.12,-1.15 -0.13,-0.43 -0.15,-0.4 -0.01,-0.83 0.08,-0.25 0.24,-0.95 0.22,-1.17 -0.05,-0.49 -0.35,-0.98 -0.68,-1.31 -0.46,-0.46 -1.05,-0.74 -1.55,-1.15 -0.51,-0.41 -1.09,-0.8 -1.39,-1.4 -0.43,-0.87 -0.43,-1.93 -0.94,-2.79 -0.19,-0.32 -0.2,-0.27 -0.45,-0.49 -0.12,-0.1 -0.13,-0.12 -0.26,-0.22 -0.76,-0.61 1.26,-1.15 1.26,-2.06 0,-0.25 -0.15,-0.41 -0.23,-0.57 -0.08,-0.18 -0.14,-0.49 -0.19,-0.67 -0.06,-0.24 -0.1,-0.43 -0.17,-0.68 -0.07,-0.24 -0.17,-0.38 -0.26,-0.58 -0.16,-0.37 -0.39,-1.57 -0.48,-2.08 -0.05,-0.28 -0.13,-0.39 -0.2,-0.65l-0.51 -2.04c-0.14,-0.54 -0.45,-1.36 -0.7,-1.85 -0.35,-0.67 -0.88,-1.57 -1.08,-2.28 -0.1,-0.37 -0.49,-1.55 -0.7,-1.85 -0.12,-0.19 -0.21,-0.35 -0.3,-0.55 -0.15,-0.32 -0.48,-1.67 -0.52,-2.04 -0.02,-0.28 0,-0.57 -0.04,-0.81 -0.04,-0.33 0.02,-0.46 -0.07,-0.77 -0.08,-0.26 -0.17,-0.35 -0.25,-0.61 -0.14,-0.48 -0.22,-0.88 -0.3,-1.4 -0.08,-0.46 -0.33,-0.92 -0.33,-1.41 0,-0.37 0.19,-0.53 0.19,-0.85 0,-0.17 -0.17,-0.37 -0.24,-0.52 -0.09,-0.17 -0.14,-0.39 -0.18,-0.58l-0.56 -2.47c-0.23,-0.85 -0.44,-0.7 -0.71,-2.31 -0.09,-0.52 -0.16,-0.74 -0.43,-1.09 -0.12,-0.16 -0.21,-0.27 -0.33,-0.42 -0.12,-0.15 -0.15,-0.33 -0.21,-0.55 -0.29,-1.02 -0.16,-1.34 -0.46,-2.61 -0.08,-0.3 -0.52,-2.13 -0.64,-2.38 -0.19,-0.38 -0.29,-0.75 -0.38,-1.19 -0.18,-0.93 -0.5,-1.53 -0.5,-2.52 0,-0.59 0.07,-1.69 -0.02,-2.25 -0.08,-0.54 0.12,-0.73 -0.09,-1.75 -0.21,-1.05 0.03,-2.23 -0.31,-3.29l-0.2 -0.69c-0.13,-0.46 -0.21,-0.97 -0.33,-1.47 -0.05,-0.2 -0.11,-0.48 -0.17,-0.67l-0.22 -0.69c-0.32,-0.82 -0.2,-0.33 -0.43,-1.37 -0.15,-0.7 -0.18,-1.41 -0.38,-2.31l-0.1 -0.55c0,-0.25 0.07,-0.1 -0.03,-0.64 -0.03,-0.17 -0.02,-0.31 -0.03,-0.53 -0.03,-0.33 -0.29,-0.59 -0.29,-0.81 0,-0.57 0.5,-0.5 0.64,-1.44 0.16,-1.09 -0.15,-1.43 0.59,-2.01 0.49,-0.39 1.66,-1.51 1.66,-2.17 0,-0.53 -0.7,-0.54 -1,-0.14 -0.29,0.38 -0.67,0.84 -1.14,1.03 -0.12,0.05 0.06,0.03 -0.18,0.05 0.02,-0.17 0.4,-0.71 0.51,-0.81 0.25,-0.26 0.47,-0.4 0.66,-0.72 0.16,-0.26 0.38,-0.4 0.6,-0.76 0.13,-0.22 0.45,-0.72 0.45,-0.97 0,-0.72 -1,-0.33 -1.25,0.02 -0.06,0.08 -0.1,0.16 -0.16,0.23 -0.06,0.08 -0.11,0.11 -0.18,0.19 -0.33,0.38 -0.89,1.53 -1.29,1.64 0,-0.5 0.29,-0.64 0.59,-1.4 0.18,-0.47 0.48,-0.9 0.76,-1.31 0.22,-0.32 0.49,-0.47 0.49,-0.98 0,-0.52 -0.76,-0.73 -1.15,-0.2 -0.08,0.11 -0.09,0.15 -0.16,0.26l-0.48 0.76c-0.6,0.81 -0.41,0.38 -0.92,1.58 -0.11,0.29 -0.21,0.61 -0.43,0.85 -0.11,0.12 -0.12,0.09 -0.26,0.06 0,-0.62 0.22,-0.9 0.35,-1.49 0.1,-0.44 0.31,-1.16 0.31,-1.58 0,-0.58 -1.01,-0.79 -1.37,0.47 -0.15,0.51 -0.22,0.99 -0.44,1.45 -0.34,0.73 -0.26,0.84 -0.48,1.41 -0.37,0.93 -0.16,1.31 -0.4,1.49 -0.12,-0.08 -0.13,-0.12 -0.17,-0.3 -0.1,-0.41 -0.18,-0.79 -0.43,-1.08 -0.23,-0.26 -0.93,-0.74 -1.29,-0.74 -0.37,0 -0.71,0.13 -0.77,0.45 -0.03,0.13 0.02,0.31 0.1,0.44 0.44,0.7 0.36,0.12 0.71,1.14 0.06,0.19 0.12,0.22 0.17,0.45 0.12,0.55 -0.03,1.12 0.24,1.6 0.16,0.27 0.34,0.5 0.43,0.79 0.12,0.36 0.2,0.56 0.47,0.77 0.28,0.22 0.33,0.36 0.66,0.56 0.47,0.27 0.47,0.83 0.49,1.36 0.02,0.37 0.16,0.68 0.19,1.04 0.03,0.45 0.01,0.64 0.11,1.12 0.03,0.16 0.03,0.36 0.03,0.58 0.01,0.39 0.15,0.65 0.15,1.09 -0.01,0.48 0.09,0.63 0.09,1.13l0.05 1.18c0,0.97 -0.29,0.54 -0.01,1.9 0.06,0.26 0.13,0.5 0.18,0.77 0.11,0.59 0,1.37 0.27,2.47 0.06,0.24 0.15,0.53 0.17,0.77 0.03,0.41 0.02,0.53 0.08,0.86 0.24,1.15 0.16,0.46 0.07,1.27 -0.14,1.19 -0.5,2.54 -0.32,3.72 0.1,0.68 0.02,1.42 0.08,2.18 0.01,0.17 0.07,0.33 0.08,0.48 0.03,0.21 0,0.38 0.04,0.59 0.03,0.21 0.04,0.29 0.08,0.48 0.24,0.97 -0.2,0.6 -0.2,1.58 -0.27,-0.39 -0.52,-1.02 -0.82,-1.46 -0.17,-0.25 -0.23,-0.49 -0.41,-0.72 -0.37,-0.5 -0.48,-0.14 -0.48,-0.99 0,-0.19 0.05,-0.24 0.03,-0.41 -0.01,-0.09 -0.05,-0.3 -0.08,-0.39 -0.1,-0.33 -0.19,-0.31 -0.45,-0.5 -0.27,-0.19 -0.11,-0.34 -0.5,-0.44 -0.58,-0.14 -0.32,-0.12 -0.32,-0.58 0,-0.19 -0.67,-0.49 -1.5,-0.03 -0.06,0.04 -0.7,0.32 -0.72,0.32 -0.27,0 -0.17,-0.56 -0.73,-0.36 -0.23,0.07 -0.33,0.28 -0.45,0.45 -0.06,0.08 -0.09,0.11 -0.14,0.19 -0.35,-0.01 -0.67,-0.12 -0.94,0.15 -0.15,0.16 -0.24,0.18 -0.36,0.35 -0.41,0.6 -0.76,0.97 -1.08,1.66 -0.09,0.19 -0.17,0.27 -0.26,0.45 -0.15,0.33 -0.1,0.74 -0.44,0.93 -0.19,0.11 -0.25,0.13 -0.39,0.32 -0.29,0.38 -0.15,0.62 -0.28,1.09 -0.09,0.33 -0.42,0.52 -0.27,1 0.12,0.37 0.47,0.54 0.47,1 0,0.38 -0.29,0.41 -0.17,1.06 0.07,0.37 0.17,0.85 0.31,1.11 0.72,1.24 0.97,0.92 1.67,1.17 0.32,0.11 0.44,0.52 0.61,0.81 0.11,0.17 0.11,0.31 0.21,0.5 0.1,0.17 0.18,0.27 0.25,0.46 0.16,0.46 0.17,0.55 0.4,1.02 0.16,0.34 0.32,0.62 0.41,1 -0.34,0.23 -0.66,-0.02 -0.9,0.29 -0.09,0.12 -0.13,0.31 -0.23,0.43 -0.38,0.5 -0.8,0.11 -1.3,0.35 -0.29,0.14 -0.17,0.4 -0.46,0.54 -1.08,0.49 -1.69,-0.47 -3.19,0.54 -0.26,0.17 -0.61,0.31 -0.98,0.19 -0.57,-0.2 -0.68,0.02 -1.03,-0.21 -0.43,-0.28 -0.07,-0.46 -1.05,-0.3 -0.26,0.04 -0.48,0.01 -1.11,0.12 -0.48,0.08 -1.32,0.25 -1.62,-0.24l-0.48 -0.89c-0.3,-0.62 -0.63,-1.16 -0.99,-1.75 -0.09,-0.15 -0.15,-0.29 -0.23,-0.44 -0.08,-0.17 -0.16,-0.26 -0.25,-0.46 -0.16,-0.38 -0.54,-1.06 -0.63,-1.39 -0.1,-0.3 -0.63,-1.36 -0.63,-1.5 0,-0.27 0.07,-0.4 0.08,-0.58 0.01,-0.13 -0.06,-0.41 -0.09,-0.55 -0.08,-0.35 -0.16,-0.76 -0.27,-1.09 -0.22,-0.66 -0.28,-1.53 -0.53,-2.17 -0.07,-0.18 -0.12,-0.25 -0.19,-0.47l-0.31 -1.02c-0.07,-0.19 -0.17,-0.29 -0.25,-0.46 -0.32,-0.68 -0.13,-1.21 -0.3,-1.72 -0.37,-1.1 0,-0.81 -0.2,-1.75 -0.09,-0.44 -0.37,-1.05 -0.65,-1.38 -0.42,-0.49 -0.38,-0.34 -0.01,-1.46l0.44 -1.54c0.07,-0.26 0.11,-0.28 0.11,-0.61 -0.01,-0.51 0.18,-0.63 0.24,-1.13 0.12,-1.08 0.08,-0.74 0.46,-1.56l1.21 -2.19c0.28,-0.41 0.61,-0.75 0.86,-1.18l0.98 -1.1c0.48,-0.4 0.82,-0.79 1.45,-1.3 0.12,-0.1 0.19,-0.22 0.31,-0.34l1.86 -1.55c0.38,-0.27 0.79,-0.55 1.09,-0.94 0.11,-0.15 0.22,-0.23 0.33,-0.38 0.18,-0.26 0.43,-0.51 0.59,-0.78l0.52 -0.85c0.26,-0.38 0.83,-1.3 0.99,-1.7 0.15,-0.35 0.32,-0.57 0.46,-0.91 0.08,-0.17 0.12,-0.31 0.19,-0.48l0.39 -1.69c0.09,-0.5 0.11,-3.29 -0.13,-3.83 -0.23,-0.52 -0.23,-1.1 -0.43,-1.61 -0.08,-0.19 -0.15,-0.26 -0.23,-0.43l-0.43 -0.94c-0.05,-0.17 -0.12,-0.29 -0.21,-0.45 -0.11,-0.18 -0.13,-0.29 -0.22,-0.49 -0.06,-0.13 -0.06,-0.11 -0.12,-0.21 -0.28,-0.49 -0.64,-0.93 -1.01,-1.36 -0.21,-0.25 -0.52,-0.4 -0.8,-0.57 -0.31,-0.19 -0.62,-0.29 -0.98,-0.39 -0.69,-0.19 -1.6,-0.3 -2.32,-0.19 -0.48,0.06 -0.69,0.14 -1.05,0.32 -0.35,0.18 -0.64,0.2 -0.95,0.43l-0.8 0.57c-0.64,0.48 -1.32,0.94 -1.89,1.51 -0.8,0.81 -1.51,1.72 -2.05,2.72 -0.98,1.82 -0.65,1.1 -1.13,2.98l-0.29 3.08c0.09,0.58 0.12,1.24 0.26,1.78 0.17,0.59 0,0.96 0.33,1.61 0.22,0.47 0.32,1.04 0.56,1.52 0.2,0.42 0.41,1.65 0.56,2.18 0.09,0.33 0.22,0.78 0.26,1.12l0.1 1.27z"/>
    <path fill="white" d="M186.8 89.21c-1.25,0 -1.55,0.69 -2.25,1.43 -0.11,0.11 -0.16,0.2 -0.23,0.34 -0.11,0.19 -0.14,0.21 -0.25,0.37 -0.22,0.33 -0.31,0.81 -0.52,1.18 -0.32,0.58 -0.57,1.62 -0.57,2.35 0,0.58 0.28,1.2 0.12,1.73 -0.16,0.52 -0.4,0.94 -0.58,1.46 -0.12,0.36 -0.05,0.87 -0.06,1.31 -0.02,0.67 -0.49,1.49 -0.76,1.94 -0.28,0.48 -0.94,1.13 -1.56,1.13 -0.27,0 -0.57,-0.08 -0.76,-0.09 -0.2,-0.01 -0.32,0.09 -0.61,0.09 -0.84,0 -1.66,0.22 -2.36,0.56 -0.33,0.17 -0.69,0.28 -1.03,0.44 -0.56,0.29 -1.4,0.68 -1.82,1.11l-0.52 0.57c-0.44,0.48 -0.92,1.57 -1.1,2.21 -0.11,0.39 -0.27,0.7 -0.41,1.06 -0.16,0.4 -0.41,1.16 -0.69,1.48 -0.22,0.25 -0.4,0.59 -0.64,0.83l-1.53 1.4c-0.09,0.07 -0.11,0.11 -0.2,0.17 -0.33,0.27 -0.63,0.62 -0.87,0.97 -0.27,0.38 -0.52,1.04 -0.69,1.49 -0.4,1.07 -0.32,0.72 -0.7,1.52 -0.04,0.09 -0.06,0.15 -0.1,0.23 -0.3,0.63 -0.55,1.37 -0.32,2.06 0.21,0.64 0.34,0.31 0.15,1.08 -0.25,1.02 -0.18,2.24 -0.34,3.3 -0.11,0.75 0.04,0.84 -0.3,1.93 -0.06,0.19 -0.1,0.33 -0.15,0.55 -0.14,0.61 -0.32,1.16 -0.43,1.8 -0.18,1.08 -0.3,1.9 -0.73,2.9 -1.27,2.94 0.18,3.04 0.76,3.99 0.2,0.33 0.4,0.63 0.74,0.82 0.35,0.2 0.99,0.33 1.42,0.33 0.19,0 0.65,-0.17 0.78,-0.26 0.79,-0.52 0.08,-1.63 -0.07,-1.97 -0.1,-0.22 -0.19,-0.37 -0.04,-0.55 0.39,-0.47 0.77,-0.87 1.01,-1.49 0.34,-0.85 0.43,-1.59 0.27,-2.46 -0.38,-2 -0.22,-3.34 0.58,-5.24l0.82 -1.69c0.51,0.04 1,0.83 1.9,0.15 0.6,-0.45 1,-1.13 1.52,-1.65 0.1,-0.1 0.17,-0.11 0.28,-0.24 0.1,-0.12 0.46,-0.58 0.51,-0.16 0.08,0.67 0.02,1.32 0.12,2.01 0.23,1.58 -0.09,3.35 0.23,5.02 0.23,1.23 0.23,0.86 0.43,1.69 0.15,0.6 0.35,1.04 0.54,1.55 0.09,0.26 0.18,0.49 0.3,0.74 0.52,1.02 0.61,2.28 0.78,3.42 0.06,0.38 0.03,0.63 0.06,1.03 0.02,0.31 0.09,0.63 0.09,0.95 0,1.35 -0.04,2.71 0.18,4.03 0.07,0.44 0.14,0.87 0.29,1.27l0.25 0.79c0.05,0.19 -0.01,0.66 -0.01,0.9 0,0.52 0.26,2.53 0.35,2.96 0.08,0.36 0.07,0.72 0.14,1.1l0.1 0.69c0.03,0.16 0.06,0.22 0.07,0.36 0.07,1 0.27,2.01 0.29,3.02l-0.05 2.46c0,0.25 0.01,0.56 0,0.8 -0.03,0.28 -0.1,0.57 -0.1,0.9 0,0.3 0.06,1.23 0.38,1.23 0.35,0 0.55,-0.35 0.9,-0.38 0.09,0.41 -0.08,1.2 -0.17,1.63 -0.1,0.51 -0.27,1 -0.42,1.47l-0.43 1.46c-0.29,1.16 -0.26,2.14 -0.26,3.34l0.27 2.09c0.12,0.71 0.26,1.28 0.37,1.99 0.07,0.38 0.15,0.64 0.21,0.98 0.06,0.35 0.09,0.69 0.14,1.04l0.19 2.59c0,0.33 -0.05,0.52 -0.08,0.77 -0.07,0.62 -0.07,1.69 -0.42,2.19 -0.27,0.39 -0.43,0.58 -0.56,1.13 -0.16,0.63 -0.42,1.64 -0.19,2.32 0.13,0.4 0.2,0.68 0.57,0.94 0.72,0.5 1.8,0.1 2.49,0.54l0.61 0.43c0.2,0.15 0.32,0.29 0.55,0.44 0.69,0.43 1.5,0.78 2.34,0.66 0.83,-0.11 2.1,0.18 3.67,-0.39 0.82,-0.31 1.42,-0.77 0.92,-1.67 -0.07,-0.12 -0.06,-0.09 -0.14,-0.19 -0.07,-0.08 -0.07,-0.1 -0.15,-0.18 -0.21,-0.25 -0.51,-0.42 -0.78,-0.59l-0.82 -0.5c-0.44,-0.24 -1.09,-0.86 -1.41,-1.29 -0.1,-0.14 -0.17,-0.26 -0.28,-0.38l-0.77 -0.93c-0.2,-0.21 -0.3,-0.32 -0.57,-0.47 -0.2,-0.12 -0.26,-0.15 -0.22,-0.43l0.11 -1.21c0,-0.48 0.1,-0.78 0.1,-1.28 0,-0.32 0.02,-1.66 0.08,-1.95 0.08,-0.38 0.06,-0.83 0.14,-1.24l0.18 -1.84c0.12,-0.78 0.15,-1.67 0.26,-2.48 0.33,-2.33 0.72,-4.61 1.25,-6.89 0.17,-0.74 0.28,-1.51 0.5,-2.23 0.37,-1.16 0.15,-2.58 0.43,-2.93l0.5 -0.54c0.01,-0.02 0.06,-0.08 0.07,-0.08l0.45 -0.44c0.5,-0.48 1.11,-0.6 1.41,-1.29 0.23,-0.53 0.15,-0.56 0.12,-1.16 -0.02,-0.22 0.01,-0.42 -0.02,-0.64 -0.08,-0.47 -0.08,-0.99 -0.08,-1.48 0,-0.51 0.59,-0.76 0.88,-1.11 0.01,0 0.02,-0.01 0.02,-0.02 0.01,-0.01 0.02,-0.02 0.03,-0.03l0.06 -0.08c0.01,0 0.01,-0.01 0.02,-0.02l0.72 -0.7c0.36,-0.31 0.6,-0.51 1.05,-0.7 1,-0.4 0.49,0.15 0.29,0.86 -0.09,0.35 -0.17,0.76 -0.27,1.09l-0.56 2.19c-0.14,0.56 -0.26,1.04 -0.48,1.56l-1.6 3.21c-0.31,0.62 -0.7,1.16 -0.94,1.8 -0.55,1.45 -0.91,1.08 -1.85,2.27 -0.11,0.15 -0.18,0.22 -0.27,0.39 -0.5,1.01 -0.56,1.71 -0.27,2.76 0.22,0.78 0.66,1.47 1.29,1.98 0.6,0.48 1.26,0.99 1.47,1.79 0.07,0.3 0.08,0.64 0.14,0.99 0.17,0.98 0.22,1.61 0.9,2.36 0.34,0.39 0.71,0.75 1.12,1.06 0.2,0.15 0.4,0.31 0.63,0.45l0.71 0.38c0.92,0.36 1.88,0.28 2.29,-0.7 0.28,-0.69 0.11,-1.47 -0.2,-2.1l-0.96 -3.05c-0.18,-0.72 -0.3,-2.77 -0.3,-3.59 0,-0.14 0.03,-0.1 0.03,-0.19 0,-0.9 -0.45,-1.05 -0.15,-1.73 0.05,-0.13 0.05,-0.19 0.1,-0.32 0.16,-0.5 1.16,-2.44 1.46,-2.94l1.24 -2.26c0.46,-0.7 0.9,-1.46 1.28,-2.21l1.04 -1.99c0.07,-0.13 0.1,-0.16 0.17,-0.3 0.19,-0.39 0.33,-0.82 0.56,-1.19 0.31,-0.47 0.68,-1.54 0.92,-2.1l0.65 -1.58c0.19,-0.42 0.39,-0.76 0.52,-1.22 0.25,-0.9 0.74,-1.39 0.74,-2.81 0,-0.77 0.09,-1.8 -0.3,-2.49l-0.61 -0.95c-0.16,-0.17 -0.62,-0.72 -0.68,-0.88 -0.08,-0.2 -0.1,-0.37 -0.18,-0.58 -0.17,-0.42 -0.32,-0.68 -0.42,-1.14 -0.19,-0.92 -0.68,-1.89 -1.61,-2.26 -1.51,-0.6 -1.12,-0.69 -1.94,-1.14 -0.2,-0.11 -0.29,-0.17 -0.45,-0.3 -0.27,-0.2 -0.45,-0.5 -0.81,-0.75 -0.37,-0.27 -1.21,-0.54 -1.37,-0.99 -0.16,-0.45 0.01,-0.81 -0.34,-1.18 -0.07,-0.07 -0.12,-0.11 -0.19,-0.18 -0.23,-0.24 -0.15,-0.58 -0.3,-0.89 -0.43,-0.89 -1.6,-0.23 -1.23,-2.7l0.22 -2 0 -2.7c0,-0.3 -0.08,-0.42 -0.09,-0.66 -0.01,-0.13 0,-0.25 -0.01,-0.37 -0.01,-0.1 -0.05,-0.24 -0.07,-0.36 -0.04,-0.25 0,-0.51 -0.04,-0.76 -0.07,-0.51 -0.08,-1.01 -0.01,-1.52 0.03,-0.21 0.01,-0.56 0.06,-0.79 0.02,-0.13 0.05,-0.22 0.06,-0.32 0.01,-0.16 0,-0.24 0.03,-0.39l0.24 -1.42c0.04,-0.25 0.06,-0.53 0.1,-0.75 0.32,-1.87 0.04,-4.08 -0.96,-5.53 -0.3,-0.44 -0.44,-0.57 -0.68,-0.88 -0.15,-0.2 -0.76,-0.57 -0.76,-0.81 0,-0.08 0.29,-0.5 0.35,-0.59 0.37,-0.49 0.63,-0.2 0.94,-0.96 0.17,-0.43 0.23,-1.07 0.42,-1.51 0.14,-0.35 0.28,-0.25 0.47,-0.47 0.25,-0.29 0.15,-0.33 0.57,-0.2 0.13,0.04 0.2,0.05 0.34,-0.03 0.23,-0.14 0.29,-0.81 0.38,-1.09l0.47 -1.42c0.1,-0.37 0.08,-0.4 0.39,-0.6 0.21,-0.14 0.3,-0.32 0.25,-0.67 -0.04,-0.24 -0.04,-0.65 -0.07,-0.88 -0.09,-0.6 0.07,-0.4 0.21,-0.72 0.19,-0.44 -0.48,-0.62 0.19,-1.22 0.17,-0.16 0.39,-0.14 0.39,-0.46 0,-0.43 -0.41,-0.27 -1.2,-1.22 -0.2,-0.25 -0.26,-0.43 -0.52,-0.66 -0.09,-0.08 -0.65,-0.52 -0.65,-0.58 0,-0.26 0.47,-0.64 -0.23,-0.8 -0.44,-0.11 -0.3,-0.5 -0.87,-0.56 -0.22,-0.02 -0.34,0.07 -0.64,0.03 -0.38,-0.04 -0.8,-0.07 -1.19,-0.18 -0.48,-0.14 -1.09,-0.19 -1.65,-0.19 -0.36,0 -0.51,0.08 -0.79,0.15 -0.26,0.07 -0.54,-0.01 -0.87,-0.01z"/>
    <path fill="white" d="M154.81 106.75c-0.24,-0.16 -0.76,-1.53 -0.76,-1.89 0,-1.29 0.54,-0.54 1.17,-1.2 0.02,-0.02 0.16,-0.16 0.17,-0.17 0.63,-0.42 -0.23,1.78 -0.3,1.99 -0.03,0.09 -0.12,0.92 -0.28,1.27zm-31.34 -23.82c0,1.29 0.19,1.1 0.25,1.55 0.06,0.38 -0.44,-0.14 -0.96,-0.14 -0.3,0 -0.47,0.46 -0.14,0.9 0.12,0.17 0.17,0.17 0.28,0.38 -0.24,0.12 -0.81,0.19 -0.33,0.95 0.36,0.57 1.42,1.04 2.03,1.37 0.37,0.19 0.51,0.65 0.72,0.98 0.2,0.31 0.6,0.54 0.88,0.77 0.56,0.45 1.59,0.53 1.82,0.74l0.4 0.45c0.08,0.08 0.14,0.13 0.21,0.22l1.47 1.88c0.52,0.64 0.93,1.34 1.37,2.04l0.47 0.79c0.21,0.37 0.38,0.74 0.6,1.06 0.08,0.11 0.1,0.11 0.18,0.25 0.06,0.12 0.1,0.18 0.15,0.27 0.13,0.22 0.17,0.32 0.32,0.53l1.62 1.79c0.18,0.13 0.27,0.2 0.44,0.36 0.54,0.51 0.93,0.49 1.38,1.18 0.27,0.42 0.79,1.05 1.15,1.4 0.41,0.4 0.82,0.88 1.25,1.25l2.26 2c0.16,0.12 0.28,0.26 0.44,0.41 0.14,0.14 0.24,0.29 0.36,0.44 0.14,0.17 0.29,0.27 0.19,0.56l-1.35 2.9c-0.11,0.21 -0.2,0.39 -0.3,0.56 -0.27,0.52 -0.54,1.17 -0.83,1.67 -0.22,0.37 -0.38,0.75 -0.6,1.11 -0.12,0.18 -0.22,0.33 -0.33,0.51 -0.33,0.53 -0.46,0.98 -0.46,1.62 0,0.61 0.22,1.01 0.37,1.47l0.39 1.03c0.86,1.81 0.92,1.05 0.94,3.93l-0.24 6.05c0,0.3 -0.03,0.4 -0.05,0.66 -0.01,0.19 -0.04,0.43 -0.07,0.64l-0.31 2.48c0,0.24 0.08,0.38 0.2,0.51 0.16,0.16 0.2,0.24 0.34,0.42 0.15,0.18 0.74,0.54 0.74,0.72 0,0.62 -0.25,2.18 -0.41,2.76l-0.56 3.27c-0.2,1.23 -0.05,1 -0.7,2.18 -0.07,0.13 -0.11,0.18 -0.17,0.3 -0.25,0.53 -0.58,1.03 -0.85,1.56l-2.04 3.69c-0.14,0.22 -0.2,0.43 -0.33,0.66 -0.11,0.22 -0.22,0.35 -0.34,0.6 -0.12,0.25 -0.16,0.42 -0.3,0.65 -0.26,0.43 -0.63,1.72 -0.9,1.99 -0.11,0.11 -0.47,0.23 -0.63,0.31 -0.6,0.27 -0.51,0.61 -0.84,1.09 -0.65,0.93 -0.52,1.04 -0.7,2.14 -0.05,0.29 -0.1,0.58 -0.11,0.88 -0.03,0.67 -0.47,3.08 -0.41,3.37 0.06,0.26 0.18,0.48 0.32,0.63 0.15,0.17 0.39,0.27 0.45,0.5 0.11,0.51 -0.21,2 -0.22,2.63 -0.03,1.18 -0.24,2.15 -0.24,3.6 0,2.03 -0.44,1.08 -0.77,3.06l-0.19 0.75c-0.02,0.09 -0.04,0.28 -0.06,0.41l-0.21 1.26c-0.12,0.69 -0.2,0.89 -0.35,1.54 -0.12,0.52 -0.2,1.11 -0.36,1.57 -0.09,0.25 -0.14,0.42 -0.21,0.74 -0.04,0.14 -0.07,0.26 -0.11,0.36 -0.23,0.5 -0.77,-0.31 -1.1,1.79 -0.09,0.53 -0.29,0.55 -0.77,0.69 -0.26,0.08 -0.52,0.11 -0.78,0.17 -0.34,0.06 -0.49,0.07 -0.57,0.42 0.2,0.23 0.23,0.23 0.66,0.23 -0.02,0.2 -0.19,0.35 -0.19,0.43 0,0.43 0.26,0.33 -0.84,1.09 -0.81,0.57 -2.23,1.22 -2.23,2.36 0,0.31 0.1,0.56 0.25,0.74 0.63,0.77 2.45,0.58 3.43,0.58 0.85,0 1.59,-0.19 2.42,-0.19 0.78,0.01 2.55,-0.27 3.33,-0.53 1,-0.33 1.91,-0.74 1.91,-2.06 0,-0.4 -0.12,-0.61 -0.17,-0.92 -0.07,-0.35 -0.19,-0.53 -0.21,-0.88 -0.01,-0.34 -0.09,-0.61 -0.15,-0.93 -0.36,-1.88 -0.01,-2.83 0.56,-4.58 0.06,-0.2 0.08,-0.33 0.15,-0.5 0.68,-1.68 1.5,-2.63 1.83,-3.47l0.9 -2.41c0.15,-0.5 0.39,-0.94 0.54,-1.44l0.67 -1.98c0.18,-0.58 0.39,-1.53 0.49,-2.15 0.04,-0.21 0.07,-0.36 0.1,-0.57 0.04,-0.29 -0.03,-0.36 0.16,-0.5 0.07,0.29 0.37,0.74 0.62,0.85 0.27,0.1 0.33,-0.03 0.52,0.19 0.13,0.16 0.17,0.25 0.34,0.41 0.14,0.15 0.21,0.21 0.34,0.37l1.58 1.73c0.06,0.07 0.11,0.12 0.17,0.21 0.13,0.16 0.2,0.22 0.34,0.36 0.15,0.16 0.21,0.26 0.36,0.41 0.58,0.59 2.03,2.14 2.39,2.75 0.18,0.3 0.1,0.22 0.15,0.61 0.03,0.23 0.16,0.26 0.29,0.42l0.59 0.88c0.13,0.23 0.21,0.48 0.37,0.72 0.07,0.11 0.08,0.08 0.15,0.22 0.12,0.22 0.13,0.27 0.28,0.48l0.59 0.87c0.11,0.14 0.23,0.24 0.31,0.4 0.15,0.28 0.63,1.37 0.63,1.64 0,0.37 -0.34,0.5 -0.49,0.79 -0.19,0.36 -0.26,0.28 -0.63,0.18 -0.37,-0.09 -0.47,-0.15 -0.82,-0.07 -0.13,0.58 0.54,0.42 0.76,0.75 -0.1,0.13 -0.33,0.22 -0.48,0.33 -0.97,0.72 -1.94,0.79 -3.16,1.51 -0.42,0.25 -0.52,0.48 -0.52,1 0,0.69 0.33,1.23 0.82,1.64 0.68,0.58 1.64,0.53 2.63,0.53 0.58,0 1.01,-0.04 1.56,-0.04l1.46 -0.15c0.7,-0.03 0.86,0.04 1.44,-0.17 0.32,-0.11 0.54,-0.25 0.83,-0.4 0.29,-0.16 0.53,-0.27 0.87,-0.35 0.62,-0.16 0.93,-0.06 1.48,-0.13 0.66,-0.08 1.44,-0.2 2.01,-0.4 0.59,-0.22 1.49,-0.84 1.88,-1.38 0.3,-0.42 0.34,-0.61 0.28,-1.23 -0.05,-0.58 -0.45,-1.16 -0.77,-1.63 -0.09,-0.13 -0.1,-0.12 -0.17,-0.26 -0.32,-0.62 -0.65,-1.22 -1.03,-1.81 -0.12,-0.18 -0.25,-0.29 -0.46,-0.39 -0.59,-0.28 -0.46,-0.14 -0.9,-0.71l-1.62 -2.43c-0.11,-0.18 -0.21,-0.31 -0.32,-0.49 -0.06,-0.1 -0.07,-0.15 -0.13,-0.25l-2.3 -3.85c-0.29,-0.5 -0.53,-1.05 -0.89,-1.52l-1 -1.46c-0.06,-0.09 -0.1,-0.11 -0.17,-0.2 -0.29,-0.39 -0.56,-0.79 -0.88,-1.15 -0.26,-0.29 -0.47,-0.61 -0.73,-0.88 -0.11,-0.1 -0.11,-0.12 -0.2,-0.23 -0.07,-0.09 -0.12,-0.14 -0.2,-0.22 -0.49,-0.48 -1.32,-1.03 -1.78,-1.49 -0.9,-0.89 -1.43,-0.78 -1.43,-2.25 0,-0.32 0.94,-1.78 1.17,-2.24l1.48 -2.82c0.1,-0.22 0.2,-0.33 0.32,-0.54l0.54 -1.2c0.25,-0.58 0.99,-1.49 1.38,-2.07l1.22 -1.76c0.29,-0.4 0.27,-0.34 0.73,-0.59l0.46 -0.39c0.11,-0.12 0.11,-0.09 0.23,-0.2 0.27,-0.23 0.73,-0.93 0.93,-1.24 0.12,-0.17 0.24,-0.33 0.34,-0.52 0.29,-0.57 0.56,-1.23 0.7,-1.89 0.28,-1.29 0.31,-2.77 0.1,-4.06 -0.1,-0.57 -0.25,-0.92 -0.4,-1.45 -0.08,-0.28 -0.18,-0.38 -0.29,-0.61 -0.11,-0.22 -0.07,-0.57 -0.07,-0.87 0,-1.18 0.03,-2.45 -0.1,-3.59 -0.07,-0.55 -0.4,-1.58 -0.63,-2.11 -0.45,-1.06 -0.48,-2.4 -0.29,-3.55 0.06,-0.36 0.1,-0.79 0.2,-1.13 0.25,-0.85 0.43,-2.16 0.7,-3.22 0.05,-0.2 0.08,-0.33 0.13,-0.53 0.04,-0.22 0.08,-0.31 0.14,-0.52 0.73,-2.45 1.03,-1.61 1.17,-1.61 0.16,0 0.63,-0.11 0.75,-0.2 0.13,-0.1 0.32,-0.42 0.43,-0.57 0.39,-0.52 0.5,-0.52 0.75,-1.18 0.1,-0.28 0.16,-0.41 0.39,-0.56 0.14,-0.09 0.17,-0.06 0.24,-0.24 0.14,-0.39 0.15,-0.81 0.31,-1.19 0.07,-0.15 0.13,-0.15 0.22,-0.26 0.56,-0.73 0.4,-2.83 0.41,-3.98 0,-0.3 0.05,-0.53 0.05,-0.9l0.04 -1.42c0.08,-0.94 -0.09,-2.02 -0.04,-2.93 0.05,-1.03 0.44,-2.05 -0.32,-3.08 -0.07,-0.08 -0.12,-0.14 -0.19,-0.23l-0.4 -0.55c-0.42,-0.49 0.11,-0.64 0.11,-1.52 0,-0.62 -0.44,-1.89 -0.69,-2.3 -0.37,-0.63 -0.71,-1.23 -1.22,-1.76 -0.14,-0.14 -0.17,-0.24 -0.33,-0.37 -0.42,-0.35 -0.81,-0.7 -1.29,-0.98 -1.13,-0.69 -1.72,0.34 -1.72,-1.4 0,-0.84 0.42,-1.57 0.66,-2.28 0.07,-0.22 0.15,-0.55 0.24,-0.75 0.35,-0.76 0.48,-1.22 1,-1.92 0.39,-0.52 0.65,-0.96 -0.29,-0.96 -0.16,-0.68 -0.77,-0.61 -1.14,-0.33 -0.44,0.34 -0.57,0.62 -0.78,1.16 -0.13,0.31 -0.27,0.59 -0.39,0.88 -0.15,0.37 -0.4,0.93 -0.72,1.18 -0.12,0.09 -0.25,0.17 -0.38,0.27 -0.23,0.18 -0.46,0.44 -0.57,0.72 -0.07,0.19 -0.12,0.53 -0.28,0.98 -0.61,1.68 0.25,1.78 -0.51,2.33 -0.51,0.38 -1.68,1.07 -2.03,1.51 -0.14,0.17 -0.18,0.21 -0.27,0.44 -0.27,0.68 -0.34,1.41 -0.96,1.88 -0.38,0.29 -1.31,0.34 -0.71,1.35 0.3,0.5 0.03,0.47 -0.1,1.01 -0.12,0.5 -0.31,0.82 -0.33,1.37 -0.02,0.3 0,0.55 -0.1,0.75 -0.2,-0.04 -2.03,-1.1 -2.27,-1.26 -0.48,-0.32 -1.02,-0.57 -1.52,-0.85 -0.14,-0.08 -0.21,-0.13 -0.35,-0.22l-1.15 -0.64c-0.76,-0.44 -0.77,-0.36 -1.18,-1.18 -0.13,-0.26 -0.28,-0.54 -0.43,-0.76 -0.07,-0.12 -0.13,-0.22 -0.21,-0.35 -0.19,-0.31 -0.79,-1.11 -1.06,-1.31 -0.13,-0.11 -0.2,-0.15 -0.32,-0.29l-0.88 -0.87c-0.11,-0.12 -0.19,-0.2 -0.3,-0.31l-0.62 -0.57c-0.21,-0.2 -0.38,-0.38 -0.59,-0.59l-2.19 -2.02c-0.46,-0.41 -1.43,-1.38 -1.79,-1.66l-2.09 -2.06c-0.3,-0.29 -0.56,-0.63 -0.77,-0.98 -0.08,-0.13 -0.17,-0.24 -0.24,-0.38l-0.37 -0.81c-0.3,-0.73 -0.19,-1.74 -0.76,-1.74 -0.26,0 -0.18,0.32 -0.52,0.33 -0.05,-0.19 -0.17,-0.4 -0.29,-0.85 -0.13,-0.54 -0.51,-1.01 -0.78,-0.37 -0.08,0.18 -0.07,0.32 -0.12,0.5 -0.07,0.23 -0.15,0.14 -0.33,0.28 -0.11,0.08 -0.23,0.26 -0.23,0.44z"/>
    <path fill="white" d="M195.36 123.57c0,1.29 -0.02,1.09 0.24,2.32 0.04,0.21 0.1,0.46 0.17,0.68 0.2,0.65 0.47,1.13 0.82,1.68 0.23,0.34 0.15,0.39 0.7,1.01 0.43,0.49 1.33,1.19 1.88,1.47 0.19,0.09 0.38,0.16 0.55,0.26 0.79,0.46 2,0.48 2.92,0.48 1.16,0 2.65,-0.81 3.58,-1.57 0.88,-0.71 0.37,-0.37 0.87,-0.88 0.19,-0.19 0.23,-0.23 0.39,-0.46 0.32,-0.48 0.75,-1.15 0.92,-1.68 0.08,-0.26 0.12,-0.39 0.23,-0.63 0.3,-0.67 0.39,-1.99 0.39,-2.77 0,-0.97 -0.42,-2.55 -0.83,-3.37l-1.4 -1.92c0,-0.01 -0.01,-0.01 -0.02,-0.02 -0.58,-0.53 -0.22,-0.29 -0.94,-0.77 -1.35,-0.9 -2.1,-1.1 -3.85,-1.1 -0.69,0 -1.77,0.27 -2.36,0.62 -0.12,0.07 -0.18,0.08 -0.32,0.15 -0.09,0.04 -0.2,0.09 -0.28,0.14l-0.5 0.35c-0.81,0.57 -1.37,1.21 -1.87,2.06 -0.12,0.19 -0.23,0.32 -0.33,0.52 -0.24,0.46 -0.59,1.4 -0.73,1.92l-0.23 1.51z"/>
    <path fill="white" d="M124.7 67.94c0,1 0.29,1.83 0.72,2.68 0.1,0.2 0.16,0.26 0.28,0.43l1.16 1.26c0.55,0.46 0.23,0.28 1.05,0.69 0.46,0.23 0.31,0.24 0.96,0.42 1.2,0.33 3.16,0.33 4.28,-0.38 0.52,-0.33 0.23,0.05 1.23,-0.8l0.13 -0.11c1.04,-0.89 1.91,-2.54 1.91,-3.9 0,-1.2 -0.01,-2 -0.57,-3.08 -0.08,-0.16 -0.16,-0.24 -0.25,-0.41 -0.11,-0.2 -0.13,-0.26 -0.27,-0.44 -0.61,-0.79 -1.35,-1.44 -2.29,-1.86 -0.93,-0.42 -1.35,-0.55 -2.53,-0.55 -0.8,0 -1.19,0.08 -1.86,0.32 -0.22,0.07 -0.31,0.14 -0.52,0.23 -0.69,0.28 -1.25,0.69 -1.77,1.21l-0.95 1.27 -0.44 1.03c-0.07,0.2 -0.1,0.34 -0.16,0.59 -0.08,0.36 -0.11,0.98 -0.11,1.4z"/>
    <path fill="white" d="M84.43 42.04c0,0.61 0.08,1.11 0.34,1.59l0.21 0.28c1.14,1.12 1.57,1.02 2.99,1.02 0.39,0 0.68,-0.16 0.91,-0.33 0.31,-0.23 0.42,-0.28 0.67,-0.6 0.19,-0.24 0.34,-0.47 0.47,-0.76 0.44,-1.04 0.05,-2.29 -0.71,-3.05 -0.15,-0.16 -0.2,-0.17 -0.37,-0.3 -0.33,-0.23 -0.52,-0.36 -0.94,-0.43 -0.76,-0.13 -0.8,-0.2 -1.81,0.09 -0.53,0.16 -0.56,0.17 -0.9,0.52 -0.38,0.39 -0.86,1.43 -0.86,1.97z"/>
   </g>
  </g>
 </g>
</svg>
