<?xml version="1.0" encoding="UTF-8"?>
<!DOCTYPE svg PUBLIC "-//W3C//DTD SVG 1.1//EN" "http://www.w3.org/Graphics/SVG/1.1/DTD/svg11.dtd">
<!-- Creator: CorelDRAW 2019 (64 Bit) -->
<svg xmlns="http://www.w3.org/2000/svg" xml:space="preserve" width="512px" height="191px" version="1.1" shape-rendering="geometricPrecision" text-rendering="geometricPrecision" image-rendering="optimizeQuality" fill-rule="evenodd" clip-rule="evenodd"
viewBox="0 0 512.04 191.23"
 xmlns:xlink="http://www.w3.org/1999/xlink">
 <g id="Camada_x0020_1">
  <metadata id="CorelCorpID_0Corel-Layer"/>
  <g id="_2253122366144">
   <g>
    <g>
     <path fill="black" fill-rule="nonzero" d="M324.39 42.85c-2.03,1.51 -4.15,2.52 -6,2.52 -4.43,0 -6.83,-3.62 -6.83,-10.27 0,-6.87 3.09,-10.04 7.2,-10.04 1.57,0 3.09,0.51 5.4,1.84l0 -6.01c-2.22,-1.14 -4.66,-1.74 -7.11,-1.74 -7.75,0 -12.78,6.46 -12.78,16.37 0,9.62 5.26,15.77 12.78,15.77 3,0 5.22,-0.69 7.34,-2.34l0 -6.1zm5.35 8.03l7.16 0 0 -31.32 -7.16 0 0 31.32zm13.38 0l7.16 0 0 -13.21c3,0 3.46,0.55 5.44,7.34l1.71 5.87 7.43 0c-2.68,-6.65 -3.78,-13.67 -6.6,-15.23 3.74,-1.55 5.31,-3.8 5.31,-7.33 0,-5.13 -3.69,-8.76 -10.15,-8.76l-10.3 0 0 31.32zm7.16 -18.62l0 -7.29 2.17 0c2.63,0 3.97,1.06 3.97,3.53 0,2.48 -1.48,3.76 -3.88,3.76l-2.26 0zm37.1 10.59c-2.03,1.51 -4.15,2.52 -6,2.52 -4.43,0 -6.83,-3.62 -6.83,-10.27 0,-6.87 3.09,-10.04 7.2,-10.04 1.57,0 3.09,0.51 5.4,1.84l0 -6.01c-2.22,-1.14 -4.66,-1.74 -7.11,-1.74 -7.75,0 -12.78,6.46 -12.78,16.37 0,9.62 5.26,15.77 12.78,15.77 3,0 5.22,-0.69 7.34,-2.34l0 -6.1zm4.89 -23.29l0 20.68c0,7.79 4.48,11.05 11.03,11.05 7.48,0 11.03,-4.27 11.03,-11.14l0 -20.59 -7.15 0 0 21.18c0,2.85 -1.11,4.63 -3.88,4.63 -2.54,0 -3.88,-1.78 -3.88,-4.26l0 -21.55 -7.15 0zm27.87 31.32l7.16 0 0 -31.32 -7.16 0 0 31.32zm18.28 0l7.15 0 0 -25.91 7.2 0 0 -5.41 -21.55 0 0 5.41 7.2 0 0 25.91zm15.27 -15.96c0,11.74 6.32,16.37 12.42,16.37 5.35,0 12.41,-3.81 12.41,-16.05 0,-11.73 -6.55,-16.09 -12.41,-16.09 -6.14,0 -12.42,5.14 -12.42,15.77zm7.29 0.28c0,-6.15 1.25,-9.91 5.13,-9.91 4.24,0 5.12,4.5 5.12,9.91 0,7.51 -1.8,9.94 -5.12,9.94 -3.93,0 -5.13,-3.71 -5.13,-9.94z"/>
     <path fill="black" fill-rule="nonzero" d="M307.25 88.65l18.7 0 0 -5.41 -11.58 0 0 -7.79 10.39 0 0 -5.41 -10.39 0 0 -7.29 11.17 0 0 -5.41 -18.29 0 0 31.31zm22.43 -2.06c2.94,1.74 5.24,2.48 7.67,2.48 5.19,0 9.1,-3.76 9.1,-8.76 0,-7.43 -10.16,-11.97 -10.16,-15.68 0,-1.28 1.2,-2.15 2.9,-2.15 1.56,0 2.94,0.5 6.07,2.24l0 -5.87c-2.44,-1.33 -4.6,-1.92 -6.85,-1.92 -5.1,0 -9.01,3.48 -9.01,7.98 0,7.61 9.79,11.04 9.79,15.63 0,1.51 -1.2,2.61 -2.9,2.61 -1.88,0 -3.63,-0.87 -6.61,-3.3l0 6.74zm21.6 2.06l7.12 0 0 -12.74 2.99 0c8.73,0 10.38,-5.78 10.38,-9.17 0,-4.45 -3.03,-9.4 -10.34,-9.4l-10.15 0 0 31.31zm7.12 -18.15l0 -7.75 2.3 0c3.08,0 3.95,1.97 3.95,3.9 0,2.29 -0.92,3.85 -4.18,3.85l-2.07 0zm16.5 2.2c0,11.74 6.3,16.37 12.36,16.37 5.33,0 12.36,-3.81 12.36,-16.05 0,-11.74 -6.52,-16.09 -12.36,-16.09 -6.11,0 -12.36,5.13 -12.36,15.77zm7.26 0.27c0,-6.14 1.24,-9.9 5.1,-9.9 4.23,0 5.1,4.49 5.1,9.9 0,7.52 -1.79,9.95 -5.1,9.95 -3.9,0 -5.1,-3.71 -5.1,-9.95zm22.29 15.68l7.12 0 0 -13.2c2.99,0 3.45,0.55 5.43,7.33l1.7 5.87 7.4 0c-2.67,-6.64 -3.77,-13.66 -6.58,-15.22 3.73,-1.56 5.29,-3.8 5.29,-7.33 0,-5.14 -3.68,-8.76 -10.11,-8.76l-10.25 0 0 31.31zm7.12 -18.61l0 -7.29 2.16 0c2.62,0 3.96,1.06 3.96,3.53 0,2.48 -1.47,3.76 -3.86,3.76l-2.26 0zm22.43 18.61l7.12 0 0 -25.9 7.17 0 0 -5.41 -21.46 0 0 5.41 7.17 0 0 25.9zm18.2 0l7.12 0 0 -31.31 -7.12 0 0 31.31zm21.1 0.42l3.3 0 10.07 -31.73 -7.22 0 -4.55 16.14 -0.09 0 -4.82 -16.14 -7.22 0 10.53 31.73zm14.01 -16.37c0,11.74 6.3,16.37 12.37,16.37 5.33,0 12.36,-3.81 12.36,-16.05 0,-11.74 -6.53,-16.09 -12.36,-16.09 -6.12,0 -12.37,5.13 -12.37,15.77zm7.26 0.27c0,-6.14 1.25,-9.9 5.11,-9.9 4.22,0 5.1,4.49 5.1,9.9 0,7.52 -1.8,9.95 -5.1,9.95 -3.91,0 -5.11,-3.71 -5.11,-9.95z"/>
     <path fill="black" fill-rule="nonzero" d="M307.26 126.27l9.5 0c9.54,0 12.98,-8.71 12.98,-15.91 0,-7.61 -3.67,-15.4 -13.35,-15.4l-9.13 0 0 31.31zm7.01 -5.27l0 -20.77 2.03 0c4.84,0 6.29,4.59 6.29,10.5 0,6.28 -1.58,10.27 -6.65,10.27l-1.67 0zm20.31 5.27l18.41 0 0 -5.41 -11.4 0 0 -7.79 10.22 0 0 -5.41 -10.22 0 0 -7.29 10.99 0 0 -5.41 -18 0 0 31.31zm33.61 0l6.78 0 1.5 -6.51 6.96 0 1.45 6.51 6.79 0 -8.1 -31.49 -7.28 0 -8.1 31.49zm9.27 -11.6l2.45 -11.37 0.09 0 2.39 11.37 -4.93 0zm17.46 11.6l7.02 0 0 -13.2c2.94,0 3.39,0.55 5.33,7.33l1.68 5.87 7.28 0c-2.62,-6.65 -3.71,-13.66 -6.47,-15.22 3.67,-1.56 5.2,-3.8 5.2,-7.33 0,-5.14 -3.62,-8.76 -9.95,-8.76l-10.09 0 0 31.31zm7.02 -18.61l0 -7.29 2.12 0c2.58,0 3.89,1.05 3.89,3.53 0,2.47 -1.44,3.76 -3.8,3.76l-2.21 0zm17.95 18.61l18.42 0 0 -5.41 -11.4 0 0 -7.79 10.22 0 0 -5.41 -10.22 0 0 -7.29 10.99 0 0 -5.41 -18.01 0 0 31.31zm23.17 0l7.01 0 0 -31.31 -7.01 0 0 31.31zm10.4 0l6.79 0 1.49 -6.51 6.97 0 1.44 6.51 6.79 0 -8.1 -31.49 -7.28 0 -8.1 31.49zm9.27 -11.6l2.45 -11.37 0.09 0 2.39 11.37 -4.93 0z"/>
     <path fill="black" fill-rule="nonzero" d="M325.51 165.48l-12.64 0 2.01 -2.5c3.21,-3.96 5.35,-7.09 6.69,-9.72 1.27,-2.5 1.79,-4.52 1.79,-6.37 0,-2.02 -0.87,-3.75 -2.35,-4.96 -1.51,-1.25 -3.69,-1.99 -6.23,-1.99 -1.4,0 -2.75,0.17 -4.09,0.51 -1.07,0.27 -2.14,0.66 -3.21,1.17l0 2.09c0.47,-0.19 0.93,-0.37 1.39,-0.51 1.37,-0.45 2.68,-0.68 3.91,-0.68 1.93,0 3.62,0.69 4.83,1.83 1.2,1.13 1.91,2.68 1.91,4.42 0,2.19 -1.78,5.79 -4.09,9.46 -2.4,3.82 -5.41,7.82 -7.48,10.28l17.56 0 0 -3.03zm-5.8 -3.15l9.35 0 0 9.34 -26.15 0 0 -2.78 0.59 -0.47c1.11,-0.89 5.52,-6.42 8.85,-11.72 2.04,-3.25 3.63,-6.33 3.63,-7.93 0,-0.92 -0.35,-1.72 -0.93,-2.26 -0.55,-0.52 -1.34,-0.84 -2.27,-0.84 -0.83,0 -1.74,0.17 -2.7,0.48 -1.07,0.35 -2.22,0.88 -3.42,1.56l-2.72 1.56 0 -9.46 0.86 -0.45c1.66,-0.88 3.28,-1.52 4.92,-1.94 1.66,-0.43 3.33,-0.63 5.06,-0.63 3.45,0 6.46,1.05 8.63,2.83 2.19,1.81 3.49,4.35 3.49,7.27 0,2.28 -0.61,4.72 -2.1,7.66 -1.13,2.22 -2.78,4.76 -5.09,7.78zm14.42 -7.87c0,4.88 0.92,8.61 2.67,11.07 1.6,2.23 3.97,3.4 7.04,3.4 3.2,0 5.52,-1.25 7.06,-3.39 1.85,-2.58 2.7,-6.46 2.7,-11.08 0,-4.63 -0.85,-8.51 -2.69,-11.11 -1.53,-2.15 -3.82,-3.41 -6.97,-3.41 -3.13,0 -5.52,1.17 -7.12,3.4 -1.78,2.47 -2.69,6.22 -2.69,11.12zm-0.3 12.76c-2.13,-2.98 -3.24,-7.28 -3.24,-12.76 0,-5.51 1.1,-9.83 3.25,-12.82 2.29,-3.18 5.68,-4.85 10.1,-4.85 4.49,0 7.76,1.8 9.96,4.89 2.22,3.13 3.24,7.59 3.24,12.78 0,5.19 -1.02,9.64 -3.27,12.76 -2.2,3.07 -5.5,4.86 -10.03,4.86 -4.36,0 -7.73,-1.67 -10.01,-4.86zm4.7 -12.72c0,-3.17 0.07,-5.94 0.59,-8.02 0.66,-2.68 2.04,-4.28 4.72,-4.28 2.59,0 3.99,1.45 4.7,4.08 0.55,2.01 0.66,4.78 0.66,8.18 0,3.88 -0.18,6.66 -0.77,8.55 -0.78,2.52 -2.2,3.66 -4.59,3.66 -2.67,0 -4.05,-1.54 -4.72,-4.19 -0.52,-2.03 -0.59,-4.77 -0.59,-7.98zm4.03 -7.34c-0.43,1.74 -0.49,4.33 -0.49,7.34 0,3.03 0.06,5.59 0.49,7.29 0.28,1.09 0.67,1.73 1.28,1.73 0.53,0 0.9,-0.42 1.19,-1.34 0.47,-1.55 0.63,-4.08 0.63,-7.72 0,-3.21 -0.1,-5.78 -0.55,-7.45 -0.29,-1.07 -0.68,-1.66 -1.27,-1.66 -0.6,0 -0.99,0.68 -1.28,1.81zm36.36 18.32l-12.65 0 2.02 -2.5c3.2,-3.96 5.35,-7.09 6.69,-9.72 1.27,-2.5 1.79,-4.52 1.79,-6.37 0,-2.02 -0.88,-3.75 -2.35,-4.96 -1.52,-1.25 -3.69,-1.99 -6.24,-1.99 -1.4,0 -2.75,0.17 -4.09,0.51 -1.07,0.27 -2.13,0.66 -3.21,1.17l0 2.09c0.47,-0.19 0.94,-0.37 1.4,-0.51 1.36,-0.45 2.67,-0.68 3.91,-0.68 1.93,0 3.61,0.69 4.83,1.83 1.2,1.13 1.91,2.68 1.91,4.42 0,2.19 -1.79,5.79 -4.09,9.46 -2.4,3.82 -5.42,7.82 -7.48,10.28l17.56 0 0 -3.03zm-5.8 -3.15l9.34 0 0 9.34 -26.14 0 0 -2.78 0.58 -0.47c1.12,-0.89 5.53,-6.42 8.85,-11.71 2.05,-3.26 3.64,-6.34 3.64,-7.94 0,-0.92 -0.35,-1.72 -0.93,-2.26 -0.55,-0.52 -1.35,-0.84 -2.27,-0.84 -0.83,0 -1.74,0.17 -2.71,0.48 -1.07,0.35 -2.21,0.88 -3.41,1.56l-2.73 1.56 0 -9.46 0.87 -0.45c1.65,-0.88 3.28,-1.52 4.92,-1.94 1.66,-0.43 3.33,-0.63 5.05,-0.63 3.46,0 6.47,1.05 8.63,2.83 2.2,1.81 3.5,4.35 3.5,7.27 0,2.28 -0.61,4.72 -2.11,7.66 -1.13,2.22 -2.78,4.76 -5.08,7.78zm15.13 5.46c1.18,0.35 2.22,0.62 3.19,0.8 1.23,0.23 2.36,0.34 3.5,0.34 3.12,0 5.75,-0.83 7.58,-2.24 1.76,-1.36 2.79,-3.28 2.79,-5.54 0,-3 -1.62,-5.09 -4.87,-6.24l-3.86 -1.37 3.78 -1.53c1.53,-0.61 2.62,-1.32 3.29,-2.16 0.64,-0.8 0.95,-1.8 0.95,-3.05 0,-2.01 -0.92,-3.7 -2.5,-4.88 -1.66,-1.25 -4.07,-1.98 -6.96,-1.98 -1.23,0 -2.26,0.09 -3.37,0.29 -0.87,0.16 -1.83,0.4 -3,0.74l0 2.05c0.41,-0.14 0.81,-0.26 1.2,-0.36l0 0c1.21,-0.31 2.34,-0.46 3.48,-0.46 1.9,0 3.55,0.5 4.75,1.39 1.26,0.94 2,2.27 2,3.9 -0.02,0.05 -0.01,0.14 -0.01,0.19 -0.06,1.6 -0.85,2.92 -2.22,3.85 -0.95,0.64 -2.2,1.07 -3.67,1.23l0 2.17c1.76,0.15 3.21,0.68 4.3,1.46 1.42,1.02 2.21,2.44 2.3,4.06l0.01 0.29c0,1.79 -0.8,3.3 -2.22,4.36 -1.33,1 -3.17,1.57 -5.34,1.57 -1.18,0 -2.3,-0.13 -3.58,-0.46 -0.48,-0.13 -0.99,-0.28 -1.52,-0.47l0 2.05zm2.46 3.88c-1.45,-0.27 -3.02,-0.7 -4.84,-1.29l-1.16 -0.39 0 -9.23 2.56 1.14c1.39,0.62 2.5,1.04 3.48,1.29 0.91,0.23 1.73,0.33 2.6,0.33 1.31,0 2.36,-0.3 3.06,-0.82 0.61,-0.46 0.96,-1.14 0.96,-1.96l0 -0.15c-0.04,-0.7 -0.38,-1.31 -0.98,-1.75 -0.7,-0.5 -1.78,-0.81 -3.19,-0.81l-0.57 0.02 -1.87 0.1 0 -8.54 1.84 0.07 0.38 0c1.25,0.01 2.23,-0.24 2.86,-0.67 0.51,-0.33 0.79,-0.83 0.82,-1.43l0 -0.09 -0.01 0c0,-0.64 -0.26,-1.15 -0.72,-1.49 -0.56,-0.41 -1.42,-0.65 -2.48,-0.65 -0.81,0 -1.62,0.11 -2.51,0.34l0 -0.01c-0.94,0.24 -1.97,0.62 -3.16,1.15l-2.56 1.15 0 -9.27 1.2 -0.37c1.84,-0.56 3.28,-0.94 4.64,-1.19 1.4,-0.26 2.65,-0.36 4.08,-0.36 3.74,0 6.95,1 9.25,2.73 2.37,1.78 3.75,4.3 3.75,7.28 0,1.92 -0.52,3.51 -1.61,4.87 -0.5,0.64 -1.12,1.21 -1.86,1.72 2.79,1.78 4.19,4.37 4.19,7.76 0,3.21 -1.49,5.96 -4.03,7.92 -2.46,1.9 -5.9,3.01 -9.89,3.01 -1.37,0 -2.73,-0.13 -4.23,-0.41z"/>
    </g>
   </g>
   <g>
    <path fill="black" d="M214.58 150.76c5.93,-7.38 11.4,-15.23 16.23,-23.69l0.51 0 0 17.02c-1.35,2.24 -2.78,4.46 -4.27,6.67l-12.47 0zm20.35 -31.35c3.11,-6.2 5.89,-12.72 8.26,-19.63l6.94 0c-2.2,7.98 -4.89,15.89 -8.23,23.69l-6.97 0 0 -4.06zm9.45 -23.23c3.19,-10.05 5.55,-20.9 6.88,-32.69 -9.68,2.56 -16.92,8.68 -22.72,18.41 1.76,-10.94 8.3,-17.26 18.26,-23.1 -11.31,-0.89 -23.15,1.2 -33.58,8.7 6.05,-10.52 15.01,-22.01 32.65,-13.62 -10.54,-11.44 -20.07,-12.52 -29.52,-12.65 18.02,-10.3 29.01,-4.01 36.26,8.96 4.9,-16.98 17.27,-23.42 36.83,-15.05 -14.12,1.38 -25.39,8.02 -32.65,20.02 19.24,-10.64 33.63,-5.57 40.84,12.65 -12.45,-9.41 -26.43,-14.71 -33.29,-8.49 7.35,1.76 12.05,4.91 14.93,8.67 5.47,7.15 6.46,18.76 3.03,28.06 -4.64,-16.12 -16.72,-35.26 -25.42,-29.96 -1.41,10.11 -3.24,20.16 -5.79,30.09l-6.71 0zm-4.06 30.89c-1.65,3.62 -3.44,7.21 -5.39,10.77l0 -10.77 5.39 0z"/>
    <path fill="black" d="M139.78 21.11c31.59,0 60.29,12.36 81.53,32.49 -2.21,1.8 -4.3,4.08 -6.26,6.82 -1.38,1.91 -2.61,3.91 -3.79,5.95l-5.21 9.07 8.49 -6.11c4.67,-3.36 9.76,-5.64 15.11,-6.98 1.2,1.4 2.38,2.83 3.52,4.28 -3.47,3.99 -5.87,8.77 -6.86,14.91l-1.87 11.66 6.04 -10.15c2.2,-3.69 4.68,-6.96 7.58,-9.7 2.58,3.81 4.93,7.78 7.06,11.88 -0.92,3.72 -1.95,7.36 -3.11,10.95l-7.08 0 -3.61 0 -23.1 0 -3.6 0 -23.11 0 -3.6 0 -23.1 0 -3.6 0 -23.11 0 -3.6 0 -23.11 0 -3.6 0 -23.1 0 -3.6 0 -23.11 0 -3.6 0 -14.91 0c17.34,-43.96 60.19,-75.07 110.31,-75.07zm101.02 78.67c-1.72,4.91 -3.68,9.72 -5.87,14.42l0 -14.42 5.87 0zm-9.48 21.66c-0.36,0.68 -0.72,1.35 -1.09,2.03l-22.01 0 0 -23.69 23.1 0 0 21.66zm-3.13 5.63c-4.7,8.08 -10.16,15.9 -16.4,23.54l-0.12 0.15 -3.45 0 0 -23.69 19.97 0zm-19.46 27.29l-0.16 0.21 3.77 -0.21 18.98 0 0 23.69 -23.1 0 0 -23.69 0.51 0zm21.04 -3.6c0.52,-0.79 1.04,-1.59 1.55,-2.39l0 2.39 -1.55 0zm5.16 -8.32c2.92,-5.04 5.52,-10.16 7.85,-15.37l14.88 0c0.44,4.13 0.66,8.33 0.66,12.58 0,3.75 -0.17,7.45 -0.51,11.11l-22.88 0 0 -8.32zm9.41 -18.97c3.03,-7.2 5.55,-14.56 7.67,-22.08 2.41,7.08 4.18,14.47 5.22,22.08l-12.89 0zm13.08 30.89c-1.02,8.19 -2.87,16.11 -5.46,23.69l-17.03 0 0 -23.69 22.49 0zm-6.76 27.3c-1.24,3.26 -2.61,6.45 -4.12,9.57l-213.51 0c-1.51,-3.12 -2.88,-6.31 -4.12,-9.57l15.47 0 3.6 0 23.11 0 3.6 0 23.1 0 3.6 0 23.11 0 3.6 0 23.11 0 3.6 0 23.1 0 3.6 0 23.11 0 3.6 0 23.1 0 3.61 0 15.73 0zm-223.05 -3.61c-2.59,-7.58 -4.44,-15.5 -5.46,-23.69l22.23 0 0 23.69 -16.77 0zm-5.85 -27.29c-0.34,-3.66 -0.51,-7.36 -0.51,-11.11 0,-4.25 0.23,-8.45 0.66,-12.58l22.47 0 0 23.69 -22.62 0zm0.59 -27.29c1.12,-8.19 3.07,-16.12 5.78,-23.69l16.25 0 0 23.69 -22.03 0zm182.27 -23.69l-23.11 0 0 23.69 23.11 0 0 -23.69zm0 27.29l-23.11 0 0 23.69 23.11 0 0 -23.69zm0 27.29l-23.11 0 0 23.69 23.11 0 0 -23.69zm-26.71 -54.58l-23.1 0 0 23.69 23.1 0 0 -23.69zm0 27.29l-23.1 0 0 23.69 23.1 0 0 -23.69zm0 27.29l-23.1 0 0 23.69 23.1 0 0 -23.69zm-26.7 -54.58l-23.11 0 0 23.69 23.11 0 0 -23.69zm0 27.29l-23.11 0 0 23.69 23.11 0 0 -23.69zm0 27.29l-23.11 0 0 23.69 23.11 0 0 -23.69zm-26.71 -54.58l-23.11 0 0 23.69 23.11 0 0 -23.69zm0 27.29l-23.11 0 0 23.69 23.11 0 0 -23.69zm0 27.29l-23.11 0 0 23.69 23.11 0 0 -23.69zm-26.71 -54.58l-23.1 0 0 23.69 23.1 0 0 -23.69zm0 27.29l-23.1 0 0 23.69 23.1 0 0 -23.69zm0 27.29l-23.1 0 0 23.69 23.1 0 0 -23.69zm-26.7 -54.58l-23.11 0 0 23.69 23.11 0 0 -23.69zm0 27.29l-23.11 0 0 23.69 23.11 0 0 -23.69zm0 27.29l-23.11 0 0 23.69 23.11 0 0 -23.69z"/>
    <path fill="black" fill-rule="nonzero" d="M11.4 186.11c-0.16,-0.46 -0.2,-0.97 -0.11,-1.51 0.08,-0.54 0.31,-1.01 0.67,-1.42 0.37,-0.41 0.8,-0.7 1.29,-0.87 0.78,-0.28 1.54,-0.23 2.29,0.13 0.74,0.36 1.25,0.93 1.52,1.71 0.27,0.78 0.23,1.55 -0.13,2.29 -0.36,0.74 -0.93,1.25 -1.72,1.53 -0.49,0.17 -1.01,0.21 -1.55,0.11 -0.54,-0.1 -1.01,-0.33 -1.41,-0.7 -0.4,-0.37 -0.68,-0.79 -0.85,-1.27zm-6.18 -8.75l-0.89 -3.89c-0.18,-0.77 -0.28,-1.35 -0.3,-1.75 -0.02,-0.39 0.03,-0.76 0.17,-1.1 0.13,-0.35 0.34,-0.66 0.64,-0.94 0.29,-0.27 0.65,-0.46 1.06,-0.56 0.46,-0.1 0.9,-0.07 1.34,0.08 0.43,0.16 0.79,0.43 1.08,0.8 0.04,-0.63 0.23,-1.15 0.57,-1.56 0.34,-0.41 0.8,-0.68 1.36,-0.81 0.44,-0.1 0.9,-0.1 1.36,0.01 0.47,0.11 0.87,0.31 1.2,0.61 0.33,0.3 0.59,0.7 0.77,1.21 0.1,0.32 0.31,1.11 0.6,2.36l0.76 3.31 -9.72 2.23zm1.16 -2.34l2.25 -0.52 -0.3 -1.28c-0.17,-0.77 -0.29,-1.24 -0.36,-1.42 -0.12,-0.32 -0.29,-0.56 -0.53,-0.71 -0.23,-0.15 -0.51,-0.19 -0.82,-0.12 -0.3,0.07 -0.52,0.21 -0.67,0.42 -0.15,0.21 -0.21,0.48 -0.17,0.82 0.02,0.2 0.14,0.76 0.35,1.68l0.25 1.13zm3.86 -0.89l2.61 -0.6 -0.42 -1.81c-0.16,-0.71 -0.28,-1.16 -0.37,-1.34 -0.12,-0.28 -0.3,-0.49 -0.55,-0.62 -0.25,-0.14 -0.54,-0.17 -0.89,-0.09 -0.29,0.07 -0.53,0.2 -0.7,0.39 -0.17,0.18 -0.27,0.42 -0.3,0.71 -0.03,0.29 0.05,0.88 0.26,1.78l0.36 1.58zm2.55 -8.76l-9.81 1.79 -1.33 -7.26 1.65 -0.3 0.97 5.27 2.18 -0.4 -0.9 -4.9 1.66 -0.31 0.9 4.91 2.66 -0.49 -1.01 -5.46 1.66 -0.31 1.37 7.46zm-2.43 -18.17l0.16 2.17 -2.19 1.03 0.3 3.99 2.33 0.65 0.16 2.13 -10.24 -3.1 -0.16 -2.13 9.64 -4.74zm-3.67 3.98l-3.57 1.66 3.78 1.07 -0.21 -2.73zm-0.27 -11.32l0.54 -1.97c1.1,0.27 1.93,0.74 2.49,1.42 0.55,0.68 0.84,1.56 0.87,2.63 0.04,1.32 -0.38,2.42 -1.26,3.3 -0.88,0.88 -2.1,1.35 -3.67,1.39 -1.66,0.05 -2.96,-0.34 -3.91,-1.17 -0.94,-0.82 -1.44,-1.94 -1.48,-3.34 -0.03,-1.22 0.3,-2.22 1,-3 0.41,-0.47 1.01,-0.83 1.81,-1.08l0.53 1.98c-0.51,0.13 -0.91,0.39 -1.2,0.77 -0.29,0.39 -0.42,0.85 -0.41,1.38 0.02,0.74 0.31,1.34 0.85,1.78 0.55,0.45 1.41,0.65 2.6,0.61 1.26,-0.03 2.15,-0.29 2.67,-0.76 0.52,-0.47 0.77,-1.06 0.75,-1.79 -0.02,-0.54 -0.2,-0.99 -0.55,-1.37 -0.36,-0.37 -0.9,-0.64 -1.63,-0.78zm3.72 -3.76l-9.94 -0.76 0.15 -2.01 3.92 0.29 0.29 -3.91 -3.91 -0.3 0.15 -2.01 9.95 0.75 -0.16 2.02 -4.34 -0.33 -0.3 3.91 4.34 0.33 -0.15 2.02zm1.49 -16.13l-8.16 -1.49 -0.53 2.91 -1.66 -0.31 1.43 -7.78 1.66 0.3 -0.53 2.89 8.15 1.5 -0.36 1.98zm1.04 -6.14l-9.71 -2.25 1.67 -7.2 1.64 0.38 -1.21 5.23 2.15 0.5 1.13 -4.86 1.65 0.38 -1.13 4.86 2.63 0.61 1.26 -5.41 1.64 0.38 -1.72 7.38zm2.15 -9.03l-9.46 -3.17 0.62 -1.85 7.64 -1.77 -6.33 -2.12 0.59 -1.77 9.46 3.17 -0.65 1.91 -7.5 1.75 6.22 2.08 -0.59 1.77zm3.14 -9.59l-9.26 -3.7 0.72 -1.81 7.73 -1.34 -6.2 -2.47 0.69 -1.74 9.26 3.7 -0.75 1.87 -7.58 1.33 6.09 2.43 -0.7 1.73zm3.81 -9.25l-9.1 -4.09 0.82 -1.84 9.1 4.09 -0.82 1.84zm-1.41 -4.52l0.71 -1.84c0.64,0.19 1.18,0.2 1.62,0.02 0.43,-0.18 0.79,-0.55 1.07,-1.09 0.29,-0.58 0.39,-1.07 0.29,-1.49 -0.1,-0.41 -0.31,-0.71 -0.63,-0.87 -0.21,-0.11 -0.42,-0.14 -0.64,-0.09 -0.2,0.05 -0.44,0.2 -0.71,0.45 -0.18,0.17 -0.55,0.58 -1.11,1.23 -0.73,0.84 -1.36,1.36 -1.91,1.57 -0.77,0.3 -1.5,0.27 -2.21,-0.09 -0.45,-0.23 -0.81,-0.58 -1.08,-1.03 -0.26,-0.46 -0.38,-0.98 -0.34,-1.57 0.04,-0.59 0.23,-1.22 0.58,-1.9 0.56,-1.11 1.23,-1.83 2.01,-2.14 0.78,-0.31 1.59,-0.27 2.43,0.12l-0.85 1.83c-0.5,-0.15 -0.91,-0.16 -1.24,-0.01 -0.33,0.15 -0.62,0.48 -0.88,0.98 -0.26,0.52 -0.36,0.98 -0.29,1.38 0.04,0.26 0.18,0.44 0.41,0.56 0.21,0.11 0.44,0.11 0.68,0.01 0.3,-0.13 0.78,-0.58 1.43,-1.34 0.65,-0.77 1.19,-1.31 1.62,-1.61 0.43,-0.31 0.9,-0.48 1.4,-0.52 0.51,-0.04 1.04,0.08 1.6,0.36 0.51,0.26 0.92,0.64 1.22,1.15 0.3,0.51 0.43,1.08 0.38,1.71 -0.05,0.62 -0.26,1.33 -0.66,2.1 -0.57,1.12 -1.26,1.85 -2.09,2.19 -0.82,0.34 -1.76,0.32 -2.81,-0.07zm5.47 -16.96c0.26,-0.41 0.64,-0.76 1.12,-1.02 0.47,-0.26 0.99,-0.38 1.54,-0.34 0.55,0.03 1.04,0.19 1.47,0.47 0.7,0.45 1.14,1.08 1.31,1.89 0.17,0.81 0.04,1.56 -0.41,2.25 -0.45,0.7 -1.08,1.14 -1.89,1.31 -0.81,0.17 -1.56,0.04 -2.26,-0.41 -0.44,-0.29 -0.78,-0.67 -1.04,-1.15 -0.26,-0.49 -0.36,-1 -0.32,-1.55 0.04,-0.54 0.2,-1.02 0.48,-1.45zm3.17 -9.84l2.47 -3.14c0.49,-0.62 0.87,-1.06 1.17,-1.32 0.29,-0.27 0.61,-0.46 0.96,-0.57 0.36,-0.11 0.73,-0.14 1.13,-0.09 0.4,0.06 0.77,0.22 1.11,0.48 0.36,0.29 0.62,0.66 0.77,1.09 0.15,0.44 0.17,0.89 0.06,1.35 0.51,-0.37 1.04,-0.55 1.57,-0.54 0.54,0.01 1.03,0.19 1.49,0.55 0.36,0.28 0.64,0.63 0.85,1.07 0.2,0.43 0.29,0.87 0.27,1.31 -0.02,0.45 -0.18,0.9 -0.46,1.36 -0.18,0.28 -0.67,0.93 -1.45,1.95l-2.1 2.67 -7.84 -6.17zm2.55 -0.56l1.81 1.42 0.81 -1.04c0.49,-0.61 0.78,-1 0.88,-1.17 0.18,-0.29 0.25,-0.58 0.22,-0.85 -0.03,-0.28 -0.17,-0.52 -0.43,-0.72 -0.24,-0.19 -0.49,-0.27 -0.74,-0.26 -0.26,0.01 -0.51,0.14 -0.74,0.38 -0.15,0.14 -0.51,0.59 -1.09,1.33l-0.72 0.91zm3.11 2.44l2.1 1.66 1.16 -1.47c0.44,-0.57 0.71,-0.94 0.8,-1.12 0.14,-0.27 0.19,-0.54 0.14,-0.82 -0.05,-0.28 -0.21,-0.53 -0.49,-0.75 -0.24,-0.19 -0.48,-0.29 -0.74,-0.3 -0.25,-0.02 -0.5,0.05 -0.74,0.21 -0.25,0.16 -0.66,0.59 -1.22,1.32l-1.01 1.27zm8.55 -3.45l-7.21 -6.89 5.11 -5.34 1.22 1.17 -3.71 3.87 1.6 1.53 3.45 -3.6 1.21 1.17 -3.44 3.6 1.95 1.87 3.84 -4.02 1.22 1.17 -5.24 5.47zm13.21 -12.65l-1.64 1.43 -2.14 -1.15 -3.02 2.62 0.86 2.26 -1.61 1.4 -3.62 -10.07 1.61 -1.4 9.56 4.91zm-5.38 -0.57l-3.47 -1.87 1.41 3.67 2.06 -1.8zm8.92 -7.02l1.91 -0.74c0.44,1.05 0.55,2 0.34,2.85 -0.22,0.85 -0.75,1.6 -1.59,2.27 -1.04,0.82 -2.18,1.13 -3.41,0.95 -1.23,-0.18 -2.33,-0.89 -3.3,-2.13 -1.03,-1.3 -1.49,-2.58 -1.39,-3.83 0.11,-1.26 0.71,-2.31 1.81,-3.18 0.96,-0.75 1.96,-1.08 3.01,-0.99 0.62,0.06 1.26,0.33 1.94,0.82l-1.28 1.6c-0.41,-0.33 -0.85,-0.5 -1.33,-0.5 -0.48,0 -0.93,0.16 -1.35,0.49 -0.58,0.46 -0.89,1.04 -0.93,1.74 -0.03,0.7 0.32,1.52 1.06,2.45 0.77,0.99 1.51,1.56 2.19,1.7 0.69,0.14 1.32,-0.02 1.89,-0.47 0.42,-0.33 0.68,-0.75 0.77,-1.25 0.1,-0.51 -0.02,-1.1 -0.34,-1.78zm5.15 0.65l-5.36 -8.41 1.71 -1.09 2.11 3.31 3.31 -2.11 -2.11 -3.31 1.7 -1.09 5.36 8.41 -1.7 1.09 -2.34 -3.68 -3.32 2.12 2.35 3.67 -1.71 1.09zm14.18 -8.44l-7.68 -7.31 1.95 -0.98 5.59 5.46 -1.15 -7.69 1.91 -0.97 1.32 10.51 -1.94 0.98zm3.64 -7.31c-0.42,-0.93 -0.63,-1.77 -0.64,-2.53 0,-0.55 0.09,-1.1 0.28,-1.63 0.19,-0.53 0.46,-0.98 0.81,-1.35 0.45,-0.5 1.05,-0.91 1.79,-1.25 1.34,-0.6 2.6,-0.67 3.79,-0.2 1.18,0.47 2.1,1.44 2.77,2.92 0.67,1.47 0.79,2.81 0.37,4 -0.43,1.19 -1.31,2.09 -2.64,2.69 -1.35,0.61 -2.62,0.69 -3.79,0.22 -1.17,-0.47 -2.08,-1.42 -2.74,-2.87zm1.86 -0.92c0.47,1.03 1.06,1.7 1.78,2.02 0.72,0.32 1.44,0.31 2.17,-0.02 0.74,-0.33 1.22,-0.87 1.45,-1.61 0.23,-0.74 0.11,-1.64 -0.37,-2.7 -0.47,-1.04 -1.05,-1.71 -1.74,-2.02 -0.69,-0.3 -1.41,-0.29 -2.17,0.06 -0.76,0.34 -1.25,0.88 -1.48,1.6 -0.23,0.73 -0.11,1.62 0.36,2.67zm-1.98 -5.56l0.48 -2.42 1.6 -0.73 2.11 1.25 -1.4 0.63 -1.13 -0.6 -0.25 1.23 -1.41 0.64zm12.62 6.68l-3.25 -9.34 1.91 -0.66 2.69 7.75 4.73 -1.65 0.55 1.6 -6.63 2.3zm7.92 -2.71l-2.7 -9.6 7.1 -2 0.46 1.62 -5.16 1.46 0.6 2.13 4.8 -1.35 0.45 1.62 -4.8 1.35 0.73 2.6 5.36 -1.5 0.45 1.62 -7.29 2.05zm8.95 -2.3l-2.24 -9.72 1.97 -0.46 2.24 9.72 -1.97 0.46zm10.02 -8.71c0.49,-0.06 0.99,0.01 1.5,0.21 0.51,0.19 0.93,0.52 1.25,0.96 0.33,0.44 0.52,0.92 0.58,1.44 0.11,0.82 -0.1,1.56 -0.61,2.21 -0.51,0.65 -1.17,1.03 -1.99,1.13 -0.83,0.1 -1.57,-0.1 -2.22,-0.61 -0.65,-0.51 -1.02,-1.18 -1.12,-2 -0.07,-0.52 0,-1.03 0.21,-1.54 0.21,-0.51 0.53,-0.92 0.98,-1.23 0.45,-0.32 0.92,-0.51 1.42,-0.57zm9.82 5.96l-0.29 -9.97 6.85 -0.2 0.05 1.68 -4.83 0.15 0.07 2.37 4.17 -0.13 0.05 1.69 -4.17 0.12 0.12 4.23 -2.02 0.06zm8.81 -10.05l2.02 0.06 -0.16 5.41c-0.03,0.85 -0.02,1.41 0.02,1.67 0.08,0.41 0.27,0.74 0.58,1 0.32,0.26 0.75,0.39 1.31,0.41 0.56,0.01 0.99,-0.09 1.29,-0.31 0.29,-0.23 0.47,-0.51 0.54,-0.85 0.07,-0.34 0.12,-0.9 0.14,-1.69l0.16 -5.52 2.02 0.06 -0.15 5.24c-0.04,1.2 -0.12,2.04 -0.24,2.54 -0.13,0.49 -0.34,0.9 -0.64,1.23 -0.3,0.33 -0.7,0.59 -1.19,0.78 -0.5,0.19 -1.14,0.27 -1.92,0.25 -0.95,-0.03 -1.67,-0.16 -2.15,-0.4 -0.48,-0.23 -0.86,-0.53 -1.14,-0.89 -0.27,-0.36 -0.45,-0.73 -0.53,-1.12 -0.11,-0.58 -0.15,-1.43 -0.12,-2.54l0.16 -5.33zm11.98 10.62l1.01 -8.23 -2.93 -0.36 0.21 -1.67 7.85 0.96 -0.21 1.68 -2.91 -0.36 -1.01 8.23 -2.01 -0.25zm6.28 0.76l1.79 -9.81 7.27 1.33 -0.31 1.66 -5.27 -0.97 -0.4 2.18 4.9 0.9 -0.3 1.66 -4.91 -0.9 -0.48 2.66 5.46 1 -0.3 1.66 -7.45 -1.37zm11.62 2.3l-1.21 -10.53 2.12 0.5 0.8 7.76 4.04 -6.64 2.09 0.49 -5.72 8.91 -2.12 -0.49zm7.65 -3.08c0.32,-0.96 0.73,-1.73 1.23,-2.29 0.37,-0.41 0.81,-0.75 1.31,-1.01 0.5,-0.26 1,-0.41 1.51,-0.45 0.67,-0.06 1.39,0.04 2.17,0.29 1.39,0.46 2.37,1.26 2.92,2.41 0.56,1.14 0.58,2.48 0.07,4.03 -0.5,1.53 -1.31,2.6 -2.43,3.19 -1.12,0.59 -2.37,0.66 -3.76,0.2 -1.41,-0.46 -2.39,-1.26 -2.94,-2.4 -0.55,-1.13 -0.58,-2.45 -0.08,-3.97zm1.99 0.59c-0.35,1.07 -0.37,1.97 -0.06,2.69 0.32,0.71 0.86,1.2 1.62,1.45 0.77,0.25 1.48,0.18 2.16,-0.21 0.67,-0.39 1.18,-1.13 1.54,-2.23 0.36,-1.09 0.39,-1.98 0.09,-2.67 -0.3,-0.69 -0.85,-1.17 -1.64,-1.43 -0.79,-0.26 -1.52,-0.2 -2.18,0.19 -0.66,0.38 -1.17,1.12 -1.53,2.21zm2.3 -5.44l1.98 -1.46 1.68 0.55 0.71 2.34 -1.46 -0.48 -0.43 -1.21 -1.01 0.74 -1.47 -0.48zm4.86 13.13l4.05 -9.02 1.84 0.82 -3.36 7.49 4.56 2.05 -0.69 1.54 -6.4 -2.88zm7.74 3.5l4.51 -8.89 6.59 3.34 -0.77 1.5 -4.78 -2.42 -1 1.97 4.45 2.26 -0.77 1.5 -4.44 -2.26 -1.23 2.41 4.96 2.52 -0.76 1.5 -6.76 -3.43zm8.23 4.34l4.99 -8.64 1.74 1.01 -4.98 8.64 -1.75 -1.01zm13.25 0.09c0.41,0.29 0.73,0.68 0.97,1.17 0.25,0.49 0.34,1 0.28,1.55 -0.06,0.55 -0.24,1.03 -0.55,1.45 -0.48,0.68 -1.13,1.09 -1.94,1.22 -0.82,0.14 -1.56,-0.03 -2.23,-0.51 -0.68,-0.48 -1.09,-1.13 -1.22,-1.95 -0.14,-0.81 0.03,-1.56 0.51,-2.23 0.31,-0.43 0.7,-0.76 1.2,-0.99 0.5,-0.24 1.02,-0.32 1.56,-0.25 0.54,0.07 1.01,0.25 1.42,0.54z"/>
    <path fill="white" d="M80.88 75.57c-0.2,0.25 -0.37,0.53 -0.55,0.8 -0.05,0.07 -0.06,0.09 -0.11,0.16 -0.16,0.22 -0.53,0.84 -0.79,0.88 -0.52,0.09 -0.39,-0.65 -0.39,-0.89 0.01,-0.21 0.06,-0.32 0.08,-0.52 0.03,-0.36 0.07,-0.71 0.08,-1.07 0,-0.31 -0.01,-0.24 0.03,-0.49 0.11,-0.66 -0.14,-2.27 -0.34,-3 -0.03,-0.1 -0.05,0.15 0.06,-0.1 0.1,-0.26 -0.05,-0.48 0.36,-0.6 0.22,-0.07 0.32,0.21 0.46,0.42 0.1,0.16 0.26,0.41 0.38,0.54 0.27,0.28 1.15,0.88 1.59,0.93 0.23,0.02 0.48,0.11 0.7,0.09 0.65,-0.04 1.35,-0.26 1.4,0.09 0.07,0.42 -0.62,0.57 -1.03,0.97 -0.13,0.13 0.05,0 -0.13,0.08 -0.35,0.17 -1.45,1.28 -1.8,1.71zm-3.78 -11.43c-0.09,1.36 -0.07,2.75 0.34,3.69 0.19,0.42 0.23,0.87 0.38,1.35 0.25,0.83 0.17,0.74 0.32,1.41 0.11,0.5 0.27,1 0.32,1.51 0.06,0.7 0.01,1.39 -0.01,2.09 0,0.21 0.01,0.14 0.04,0.33 0.04,0.28 -0.07,0.7 -0.07,0.93 0,0.57 -0.08,1.57 -0.24,2.12 -0.13,0.44 -0.22,0.88 -0.35,1.32 -0.06,0.2 -0.15,0.33 -0.25,0.5 -0.17,0.27 -0.19,0.28 -0.4,0.44 -0.23,0.18 -0.34,0.77 -0.36,1.06 -0.03,0.72 -0.27,0.26 -0.41,0.77 -0.11,0.39 -0.39,1.75 -0.65,1.87 -0.25,0.12 -0.48,-0.04 -0.75,0.24 -0.61,0.64 -0.5,0.72 -0.56,1.03l-0.13 0.22c-0.13,0.1 -0.51,0.12 -0.61,0.32 -0.31,0.63 0.42,1.2 -0.6,1.37 -0.05,0.25 -0.01,-0.04 -0.09,0.23 -0.09,0.31 0.08,0.52 0.09,0.79 0,0.3 -0.31,0.56 -0.29,0.89 0.03,0.48 0.25,0.58 0.47,0.89 0.12,0.16 0.17,0.34 0.26,0.44 0.65,0.75 0.69,0.11 1.12,1.5 0.1,0.35 0.1,0.21 0.27,0.46 0.01,0.01 0.01,0.03 0.02,0.04 0.01,0.01 0.02,0.03 0.02,0.04 0.06,0.11 -0.01,0 0.06,0.12 0.14,0.23 0.66,0.23 0.45,0.99 -0.11,0.36 -0.01,0.69 0.01,1.09l0.14 1.72c0.06,0.43 -0.05,0.67 0.04,1.17 0.07,0.39 0.17,0.82 0.17,1.21l0.14 2.31c0.06,0.39 0.02,0.78 0.03,1.12 0.03,0.73 0.24,2.16 0.43,2.94 0.05,0.18 0.12,0.31 0.16,0.41l0.35 1.03c0.11,0.2 0.42,0.7 0.48,0.9 0.2,0.61 0.02,0.47 0.47,0.86 0.23,0.21 0.49,0.34 0.76,0.49 0.17,0.09 0.23,0.14 0.39,0.25 0.22,0.16 0.52,0.26 0.76,0.4l3.81 1.5c0.28,0.12 0.58,0.18 0.85,0.35 0.55,0.33 0.77,0.38 1,0.97 0.05,0.14 0.15,0.27 0.21,0.43 0.21,0.55 0.18,0.42 0.5,0.76 0.5,-0.04 0.34,-0.24 0.74,-0.16 0.12,0.03 0.27,0.09 0.35,0.11l0.36 0.04c0.27,0.1 0.43,0.44 0.63,0.65l0.22 0.28c0.23,0.34 0.7,0.64 1,0.9 0.68,0.61 0.75,0.13 0.98,0.91 0.15,0.5 0.32,1.08 0.47,1.61 0.08,0.31 0.1,0.6 0.19,0.89l0.26 0.77c0.07,0.33 0.15,0.56 0.2,0.86 0.06,0.33 0.02,0.5 0.09,0.87 0.05,0.31 0.1,0.62 0.16,0.93 0.06,0.36 0.04,0.56 0.08,0.87 0.05,0.3 0.09,0.62 0.18,0.91l0.68 2.45c0.1,0.32 0.21,0.77 0.2,1.12 -0.02,0.34 0.1,0.91 0.13,1.3 0.04,0.5 0.03,1.18 0.13,1.71 0.06,0.33 0.14,0.49 0.2,0.86 0.1,0.61 0.26,1.11 0.45,1.65l0.18 0.69c0.22,0.79 0.38,1.83 0.48,2.67 0.05,0.34 0.01,0.33 0.08,0.73 0.1,0.49 0.1,0.26 0.29,0.63 0.21,0.42 0.05,0.8 0.05,1.23 0,0.28 0.04,0.1 -0.01,0.28l-0.29 0.93c-0.38,0.68 -0.6,0.56 -1.16,2 -0.13,0.31 -0.03,0.97 0.15,1.28 0.08,0.12 0.13,0.15 0.2,0.3 0.16,0.38 0.24,0.39 0.35,0.64 0.58,1.33 0.21,1.73 0.22,2.33 0,0.33 0.02,0.5 -0.03,0.8l-0.16 2.35c0.02,0.51 0.02,0.34 -0.05,0.67l-0.03 1.61c0.01,0.36 -0.07,0.47 -0.06,0.77 0.01,0.32 0.04,0.5 -0.01,0.8 -0.08,0.37 -0.05,0.83 0.03,1.24 0.02,0.12 -0.02,0.08 -0.04,0.17 -0.06,0.21 0.02,0.54 -0.04,0.8l-0.07 1.47c0.05,0.49 -0.02,1.28 0.21,1.72 0.13,0.26 0.32,0.2 0.48,0.45 0.02,0.21 -0.05,0.42 -0.04,0.64 0.02,0.49 0.13,0.75 0.03,1.16 -0.18,0.73 0.06,0.47 -0.73,1.4 -0.51,0.6 -1.32,2.02 -1.38,2.8l-0.2 1.15c-0.05,0.18 -0.04,0.36 -0.08,0.56 -0.08,0.41 0.06,0.88 0.04,1.31 -0.04,0.72 0.08,1.41 0.02,1.88 -0.01,0.12 -0.02,0.21 -0.05,0.3 -0.08,0.26 -0.36,0.36 -0.44,0.64 -0.05,0.19 -0.04,0.36 -0.07,0.57 -0.03,0.24 -0.09,0.31 -0.08,0.59 0.01,0.91 -0.15,0.47 -0.34,1.04 -0.17,0.5 0.09,0.78 -0.02,1.23 -0.17,0.79 -0.64,0.78 -0.66,1.39 -0.01,0.58 -0.27,0.46 -0.5,0.28 -0.35,-0.26 -0.85,-0.13 -0.96,0.3 -0.14,0.57 0.46,1.52 0.3,2.02 -0.01,0.05 -0.13,0.2 -0.15,0.24 -0.27,0.38 -0.1,0.34 -0.2,0.72 -0.25,0.94 -0.19,0.45 -0.41,0.9 -0.21,0.4 0.12,0.54 -0.4,0.91 -0.36,0.26 -0.61,0.84 -0.84,1.22 -0.73,1.21 -0.54,1.11 -0.92,2.31 -0.03,0.1 -0.06,0.17 -0.07,0.29 0,0.09 0.01,0.09 0.01,0.11l-0.1 0.59c-0.12,1.69 -0.16,0.76 0.22,1.62 0.08,0.18 0.11,0.37 0.22,0.51 0.11,0.14 0.29,0.52 0.47,0.61 0.44,0.19 0.79,0.16 1.32,0.08 0.35,-0.05 0.94,-0.06 1.27,-0.12l1.05 -0.34c0.51,-0.2 -0.08,-0.11 0.3,-0.22 0.47,-0.13 1.02,-0.47 1.34,-0.8 1.38,-1.41 0.82,-1.48 0.96,-2.89 0.02,-0.26 0,-0.33 -0.01,-0.62 0,-0.4 0.25,-1.17 0.49,-1.44 0.13,-0.16 0.17,-0.33 0.27,-0.43 0.17,-0.17 0.28,-0.09 0.54,-0.2l0.5 -0.26c0.37,-0.17 0.77,-0.71 1,-1.04 0.49,-0.67 0.54,-0.8 0.84,-1.51 0.3,-0.7 0.14,-2.49 -0.62,-2.86 -0.2,-0.1 -0.24,0 -0.51,-0.08 -0.15,-0.89 0.35,-2.32 0.9,-2.82 0.65,-0.59 0.18,-0.67 0.4,-1.1 0,0 1.31,-1.57 1.69,-2.24 0.19,-0.33 0.37,-0.68 0.48,-1.04 0.04,-0.14 0.07,-0.18 0.1,-0.31 0.03,-0.12 0.02,-0.18 0.05,-0.3 0.09,-0.32 0.06,-0.65 0.05,-0.99 -0.01,-0.23 -0.01,0 0.03,-0.24 0.04,-0.22 0.01,-0.41 0.07,-0.62 0.09,-0.36 0.23,-0.33 0.32,-0.82 0.1,-0.48 0.42,-0.85 0.64,-1.27l0.44 -1.04c0.06,-0.19 0.13,-0.31 0.21,-0.51l0.65 -1.59c0.22,-0.56 0.28,-1.14 0.49,-1.71 0.11,-0.3 -0.01,-0.51 0.18,-0.68 0.18,-0.16 0.49,-0.16 0.73,-0.2 0.51,-0.08 0.46,-0.12 0.86,-0.25 0.59,-0.18 1.21,-0.17 1.85,-0.4l1.34 -0.76c0.43,-0.29 0.92,-0.69 1.47,-0.63 0.21,0.31 0.08,0.54 0.08,0.88 -0.01,0.31 0.05,0.55 0.03,0.93 -0.07,1.37 0.64,2.67 0.76,4.07 0.04,0.44 0.03,0.13 -0.05,0.49 -0.1,0.47 0.36,1.04 0.19,1.47 -0.12,0.3 -0.69,0.92 -0.91,1.36 -0.13,0.24 -0.2,0.53 -0.29,0.8 -0.13,0.41 -0.16,0.86 -0.28,1.27l-0.06 1.43c0.03,0.19 0.04,0.44 0.06,0.56 0.06,0.47 0.39,1.13 0.44,1.39l-0.43 0.41c0.1,0.59 0.27,0.39 0.03,0.97 -0.27,0.65 0.05,0.45 0.12,0.88 0.06,0.35 -0.3,0.39 -0.38,0.77 -0.04,0.2 0.03,0.34 0.05,0.56 0.03,0.34 -0.1,0.63 -0.12,0.92 -0.01,0.16 0.03,0.37 0,0.52 -0.12,0.65 -0.64,1.83 -0.96,2.37 -0.37,0.62 -0.05,1.45 -0.26,1.87l-0.34 0.82c-0.13,0.38 -0.19,1.65 -0.1,1.95 0.08,0.24 0.46,0.35 0.66,0.47 0.55,0.35 0.54,0.54 1.39,0.92 0.02,0.58 0.07,1.41 0.29,2.03 0.15,0.43 0.29,0.85 0.7,1.02 0.33,0.14 0.93,0.2 1.28,0.15 0.31,-0.03 0.62,-0.04 0.92,-0.02 0.26,0.01 0.66,-0.09 0.92,-0.14 0.89,-0.17 1.6,-0.34 2.27,-0.98 0.68,-0.65 0.12,-1.05 0.09,-1.52 -0.02,-0.24 -0.09,-0.4 -0.12,-0.48 -0.21,-0.48 0,-0.14 -0.38,-0.7 -0.23,-0.33 -0.53,-0.58 -0.78,-0.88 -0.09,-0.12 -0.1,-0.2 -0.22,-0.34 -0.51,-0.56 0.07,-0.37 0.16,-0.67 -0.01,-0.39 -0.24,-0.13 -0.25,-0.67 -0.01,-0.35 -0.23,-1.25 -0.34,-1.59 -0.16,-0.55 0.25,-0.51 0.39,-0.88 0.09,-0.25 0.28,-0.76 0.23,-1 -0.1,-0.46 -0.53,-0.31 -0.86,-0.44 0,0 -0.12,-0.06 -0.14,-0.07 -0.09,-0.07 -0.01,0.01 -0.09,-0.09 0.1,-0.29 0.14,-0.11 0.2,-0.34 0.04,-0.15 0,-0.25 0.06,-0.44 0.07,-0.21 0.18,-0.41 0.26,-0.72 0.14,-0.52 -0.09,-0.83 0.2,-1.19 0.09,-0.11 0.14,-0.18 0.2,-0.3 0.27,-0.46 0.14,-0.42 0.26,-0.77 0.15,-0.42 0.24,0 0.27,-0.71 0.02,-0.39 0.3,-0.78 0.42,-1.09 0.06,-0.16 0.02,-0.18 0.1,-0.36l0.64 -1.65c0.25,-0.66 0.36,-1.45 0.54,-2.15l0.12 -0.73c0.07,-0.25 0.06,-0.59 0.11,-0.83 0.07,-0.38 -0.02,-1.45 -0.03,-1.88 -0.01,-0.4 -0.1,-0.58 -0.01,-0.92 0.04,-0.18 0.02,-0.26 0.06,-0.43 0.04,-0.19 0.09,-0.12 0.14,-0.33l0.04 -1.31c-0.01,-0.21 0.04,-0.18 0.04,-0.39 0.03,-0.8 -0.21,-1.36 0.05,-1.93l0.12 -0.25c0.05,-0.16 0.03,-0.19 0.1,-0.36 0.1,-0.27 0.16,-0.52 0.25,-0.79 0.08,-0.22 0.22,-0.47 0.29,-0.7 0.06,-0.2 -0.02,-0.61 0.02,-0.84l0.07 -0.39c0.15,-0.36 0.91,-0.24 1.22,-0.19 0.28,0.04 0.63,-0.03 0.95,-0.05 0.51,-0.03 1.27,0.2 1.73,-0.13 0,-0.2 -0.13,-0.62 -0.17,-0.93l-0.16 -1.88c-0.01,-0.17 -0.06,-0.32 -0.07,-0.48 -0.01,-0.19 0.03,-0.26 0.03,-0.41 -0.01,-0.6 -0.22,-1.26 -0.21,-1.83 0,-0.32 0.06,-0.46 0.07,-0.8 0.01,-0.38 -0.13,-0.59 -0.15,-0.87 -0.01,-0.25 0.08,-0.52 0.06,-0.79 -0.03,-0.78 -0.19,-2 -0.46,-2.66 -0.11,-0.3 -0.6,-1.1 -0.48,-1.68 0.03,-0.13 0.08,-0.19 0.13,-0.33 0.05,-0.13 0.07,-0.25 0.09,-0.37 0.14,-0.62 -0.19,-1.43 -0.11,-1.84 0.05,-0.23 0.46,-0.97 0.38,-1.49 -0.22,-1.36 -0.87,-1.54 -1.82,-2.33 -1.13,-0.95 -1.22,-1 -1.84,-2.3l-0.31 -1.4c-0.02,-0.12 0.01,-0.23 -0.03,-0.45 -0.05,-0.26 -0.19,-0.6 -0.32,-0.79 -0.28,-0.44 -0.96,-0.69 -0.75,-1.26 0.06,-0.16 0.21,-0.21 0.36,-0.34 0.32,-0.27 0.99,-0.56 1.16,-0.9 0.17,-0.34 -0.35,-1.68 -0.45,-2.24 -0.07,-0.38 -0.19,-0.77 -0.26,-1.24 -0.11,-0.6 -0.3,-1.47 -0.3,-1.97 0,-0.09 0,-0.03 -0.02,-0.13l-0.56 -2.78c-0.08,-0.49 -0.28,-0.71 -0.36,-1.03 -0.15,-0.56 -0.14,-0.45 -0.34,-0.93 -0.16,-0.36 -0.24,-0.63 -0.4,-0.98 -0.18,-0.4 -0.76,-2.54 -1.07,-3.37 -0.06,-0.17 -0.2,-0.3 -0.26,-0.43 -0.14,-0.3 -0.29,-1.54 -0.34,-1.89 -0.06,-0.41 0.07,-0.7 0.02,-1.18 -0.08,-0.77 -0.38,-3 -0.6,-3.8 -0.12,-0.45 -0.26,-0.72 0.04,-1.11 0.47,-0.61 -0.35,-0.45 -0.38,-2.16 -0.01,-0.43 -0.14,-0.84 -0.19,-1.28 -0.08,-0.74 0.16,-0.17 -0.2,-1.06 -0.56,-1.36 -0.28,-0.89 -0.51,-2.23 -0.2,-1.17 -0.49,-1.07 -0.86,-1.99 -0.17,-0.42 -0.01,-0.74 -0.06,-1.15l-0.36 -2.5c-0.08,-0.48 -0.2,-0.84 -0.27,-1.24 -0.27,-1.63 -0.68,-3.09 -0.71,-4.68l0.08 -1.12c0.02,-0.19 0.06,-0.31 0.06,-0.53 0.01,-0.28 0.06,-0.26 0.07,-0.47 0.02,-0.15 -0.02,-0.45 -0.02,-0.59 -0.01,-0.36 0.06,-0.24 0.1,-0.49 0.06,-0.33 -0.14,-0.9 -0.15,-1.27 -0.01,-0.17 -0.06,-0.44 -0.04,-0.6 0.02,-0.21 0.06,-0.25 0.06,-0.52l0.01 -0.43c0.09,-0.54 -0.04,-1.3 -0.16,-1.75 -0.22,-0.83 -0.31,-1.75 -0.45,-2.6 -0.15,-0.87 -0.38,-1.61 -0.52,-2.43 -0.13,-0.8 -0.1,-1.68 -0.25,-2.46 -0.15,-0.78 0.04,-1.17 -0.15,-2.13 -0.1,-0.52 -0.13,-0.61 0.12,-1 0.15,-0.23 0.43,-0.52 0.5,-0.79 0.14,-0.48 0.15,-1.03 0.21,-1.52 0.05,-0.39 0.31,-0.53 0.6,-0.73 0.51,-0.34 0.99,-0.84 1.41,-1.28 0.2,-0.21 0.46,-0.46 0.47,-0.77 0,-0.19 -0.05,-0.26 -0.21,-0.35 -0.06,-0.04 0.09,-0.1 -0.22,-0.07 -0.39,0.04 -0.13,0.08 -0.3,0.21l-0.05 0.03c-0.26,0.2 -0.45,0.45 -0.72,0.63 -0.28,0.2 -0.65,0.62 -1,0.66 -0.26,-0.31 -0.04,-0.55 0.22,-0.78 0.24,-0.23 0.38,-0.45 0.64,-0.68 0.73,-0.65 0.88,-0.95 1.44,-1.59 0.22,-0.24 0.35,-0.46 0.18,-0.84 -0.43,-0.17 -0.71,0.07 -0.97,0.36 -0.36,0.4 -1.16,1.25 -1.38,1.59 -0.17,0.27 -0.47,0.51 -0.72,0.75l-0.2 -0.12c-0.04,-0.42 0.22,-0.67 0.41,-0.99l0.8 -1.35c0.01,-0.01 0.04,-0.06 0.04,-0.06 0.26,-0.41 0.5,-0.67 0.81,-1 0.7,-0.72 0.21,-1.27 -0.34,-1.06 -0.04,0.01 -0.14,0.07 -0.19,0.1l-0.14 0.15c-0.01,0 -0.02,0.02 -0.02,0.02 -0.01,0.01 -0.02,0.02 -0.03,0.03l-1.03 1.38c-0.17,0.19 -0.3,0.46 -0.43,0.69l-0.24 0.5c-0.11,0.22 -0.21,0.37 -0.33,0.58 -0.12,0.21 -0.17,0.41 -0.46,0.48 -0.73,0.03 0.07,-1.38 0.13,-1.77 0.03,-0.14 0.11,-0.3 0.15,-0.46l0.14 -0.5c0.02,-0.08 -0.01,0.02 0.01,-0.07 0.1,-0.38 0.5,-0.91 -0.13,-1.06 -0.14,-0.03 -0.17,-0.01 -0.3,0.06 -0.01,0 -0.02,0.01 -0.03,0.02l-0.6 0.94c-0.05,0.1 -0.04,0.07 -0.08,0.18 -0.16,0.47 -0.05,0.36 -0.25,0.78l-0.41 0.76c-0.13,0.24 -0.08,0.15 -0.14,0.44 -0.04,0.25 -0.24,0.58 -0.35,0.79 -0.26,0.5 -0.14,1.66 -0.52,1.72 -0.59,-0.07 -0.26,-1.37 -0.74,-1.95 -0.47,-0.55 -1.03,-0.81 -1.76,-0.58 -0.1,0.49 0.11,0.71 0.32,0.93 0.49,0.53 0.24,0.3 0.35,0.8 0.21,0.95 0.15,1.86 0.25,2.13l0.44 0.85c0.29,0.47 -0.05,0.76 1,1.47 0.2,0.14 0.43,0.37 0.49,0.72 0.06,0.37 0.02,0.69 0.07,1.11 0.07,0.49 0.06,1.08 0.06,1.57 0.01,0.17 0.03,0.4 0.04,0.55l0.05 0.99c0.02,0.11 0.01,-0.02 0,0.11 0,0.16 -0.01,-0.05 -0.01,0.12 0,0.11 0.01,0.15 0.02,0.26 0.08,0.8 0.01,0.94 0.01,1.53 0.01,0.22 0.04,0.35 0.02,0.54 -0.01,0.19 -0.04,0.29 -0.04,0.49 -0.02,0.48 -0.21,0.93 -0.23,1.37 -0.02,0.54 0.11,1.12 0.2,1.66 0.09,0.51 0.04,0.65 0.06,1.1 0.02,0.39 0.02,0.64 0.09,1.11 0.11,0.7 0.03,1.44 0.14,2.15 0.09,0.59 0.12,0.5 0.02,1.05l-0.31 1.52c-0.12,0.26 -0.09,0.34 -0.16,0.63 -0.08,0.35 0.01,0.58 -0.1,0.83 -0.07,0.18 -0.07,0.26 -0.08,0.48 0,0.31 -0.03,0.68 -0.02,0.98 0.02,0.43 -0.05,0.61 -0.05,1.02 0.02,1.05 0.04,1.97 0.23,3.12 -0.18,0.25 -0.47,0.45 -0.46,0.81 0.01,0.45 0.2,0.83 0.06,1.21 -0.3,-0.01 -0.28,-0.36 -0.36,-0.66 -0.06,-0.22 -0.12,-0.25 -0.17,-0.42 -0.14,-0.45 -0.1,-0.66 -0.39,-1.12 -0.15,-0.23 -0.29,-0.38 -0.36,-0.65 -0.15,-0.67 -0.65,-0.63 -0.7,-1.18 -0.05,-0.47 0,-0.39 0.14,-0.73 0.09,-0.24 0.01,-0.04 -0.06,-0.28 -0.1,-0.35 0.13,-0.52 -0.69,-0.75 0.04,-0.22 0.01,-0.05 0.09,-0.2l0.09 -0.16c-0.27,-0.06 -0.99,-0.11 -1.12,-0.38 -0.15,-0.32 0.39,-0.22 0.57,-0.36 -0.11,-0.19 -0.07,-0.13 -0.56,-0.24 -0.72,-0.15 -1.47,0.56 -2.06,0.48 -0.11,-0.15 -0.06,-0.25 -0.1,-0.53 -0.37,0.01 -0.5,0.11 -0.66,0.32 -0.32,0.41 -0.3,0.61 -0.72,0.25l-0.5 0.07c-0.22,0.51 -0.12,0.14 -0.44,0.39 -0.16,0.15 -0.05,0.08 -0.14,0.25 -0.07,0.16 -0.3,0.3 -0.46,0.53 -0.26,0.35 -0.35,0.3 -0.58,0.79 -0.07,0.14 -0.17,0.3 -0.26,0.43 -0.45,0.62 -0.08,0.92 -0.78,1.22 -0.29,0.12 -0.31,0.09 -0.41,0.34 0,0.01 -0.01,0.02 -0.01,0.03 0,0 -0.04,0.08 -0.05,0.1 -0.18,0.34 -0.03,0.42 -0.17,0.79 -0.15,0.39 -0.72,0.87 -0.15,1.44 0.59,0.59 -0.16,1.07 -0.13,1.48 0.07,0.87 0.27,1.64 0.86,2.19 0.11,0.1 0.23,0.19 0.39,0.24 1.05,0.33 0.85,0.08 1.4,1.42 0.15,0.38 0.24,0.81 0.38,1.13 0.15,0.36 0.73,1.74 0.71,2.07 -0.28,0.19 -0.68,0.06 -1.06,0.13 -0.11,0.2 -0.12,0.38 -0.25,0.52 -0.04,0.04 -0.45,0.32 -0.5,0.35 -0.17,-0.05 -0.2,-0.11 -0.38,-0.12l-0.34 0.04c-0.44,-0.01 -0.58,-0.02 -0.5,0.47 -0.58,0.27 -1.09,0.21 -1.66,0.05 -0.4,-0.11 -1.22,-0.03 -1.66,0.17 -0.3,0.13 -0.38,0.28 -0.78,0.4 -0.32,0.09 -0.55,-0.09 -0.82,-0.14l-0.36 -0.04c-0.16,-0.02 -0.26,-0.04 -0.42,-0.08 -0.28,-0.07 -0.4,-0.31 -0.52,-0.56 -0.44,0.03 -0.75,0.01 -1.22,0.08 -0.38,0.06 -0.21,-0.03 -0.52,-0.06 -0.26,-0.02 -0.43,0.09 -0.6,0.12 -0.11,0.03 -0.89,-0.1 -1,-0.15 -0.36,-0.14 -0.34,-0.45 -0.51,-0.82 -0.09,-0.18 -0.17,-0.22 -0.23,-0.49 -0.09,-0.34 -0.05,-0.25 -0.22,-0.49 -0.13,-0.19 -0.11,-0.26 -0.21,-0.51 -0.09,-0.24 -0.16,-0.25 -0.25,-0.45 -0.09,-0.18 -0.12,-0.32 -0.22,-0.5 -0.11,-0.19 -0.14,-0.28 -0.24,-0.47 -0.19,-0.37 -0.23,-0.5 -0.39,-0.99 -0.13,-0.39 -0.29,-0.62 -0.38,-1.07 -0.1,-0.46 -0.3,-0.63 -0.4,-1.05 -0.21,-0.82 -0.29,-0.43 -0.04,-0.96 0.13,-0.28 -0.04,-0.82 -0.1,-1.19 -0.14,-0.85 -0.29,-1.7 -0.43,-2.55 -0.1,-0.59 -0.25,-0.68 -0.35,-1.12 -0.05,-0.23 -0.2,-0.97 -0.27,-1.16 -0.12,-0.3 -0.41,-0.54 -0.36,-1.05 0.04,-0.42 0.21,-0.46 -0.01,-1.12 -0.37,-1.06 0.14,-0.77 -0.12,-2.18 -0.04,-0.22 -0.34,-0.81 -0.46,-0.97 -0.21,-0.29 -0.52,-0.38 -0.35,-0.79l0.73 -1.72c0.12,-0.3 0.4,-1.14 0.39,-1.44 0,-0.72 0.26,-0.47 0.32,-1.2 0.04,-0.47 0.16,-0.77 0.38,-1.13 0.4,-0.67 0.43,-0.86 0.94,-1.58 0.19,-0.26 0.35,-0.49 0.54,-0.76 0.37,-0.51 0.78,-0.91 1.14,-1.43 0.2,-0.29 0.41,-0.44 0.67,-0.68 0.45,-0.42 0.94,-0.82 1.41,-1.24 0.14,-0.12 0.23,-0.18 0.37,-0.31 0.62,-0.57 2.02,-1.47 2.74,-2.01 2.35,-1.77 4.98,-5.11 5.42,-8.05 0.35,-2.43 -0.22,-5.38 -1.03,-7.21 -1.26,-2.88 -3.7,-4.61 -6.9,-3.34 -2.27,0.9 -4.01,2.23 -5.25,3.91 -1.46,1.97 -2.25,4.42 -2.43,7.2zm16.31 -24.54c1.46,0 2.64,1.18 2.64,2.64 0,1.46 -1.18,2.64 -2.64,2.64 -1.45,0 -2.63,-1.18 -2.63,-2.64 0,-1.46 1.18,-2.64 2.63,-2.64z"/>
    <path fill="white" d="M197.09 95.03c-0.87,-1.34 -0.91,-1.5 -1.53,-2.96 -1.24,-2.9 -4.92,-8.36 -6.81,-11.45 -1.05,-1.7 0.38,-5.57 -0.89,-7.56 -0.31,0.19 -0.44,0.16 -0.78,0.99 -0.16,0.41 -0.18,0.8 -0.34,1.24 -0.35,-0.27 -0.1,0.07 -0.49,-0.59 -0.05,-0.07 -0.27,-0.64 -0.32,-0.77 -0.16,-0.42 -0.35,-0.92 -0.55,-1.44 -0.92,-2.31 -0.48,-2.05 -1.59,-2.54l-0.19 2.37c-0.75,-1.22 -0.49,-1.59 -1.83,-1.64 0.09,1.75 0.64,2.78 0.99,4.41 -0.93,-0.94 -1.16,-2.06 -2.26,-2.52 -0.01,1.54 1.38,4.09 2.09,5.26 1.3,2.16 2.01,1.78 3.01,4.28 1.09,2.74 3.36,7.61 3.95,10.32 -2.15,-1.8 -4.51,-4.62 -6.41,-7.02 -2.4,-3.04 -2.31,-2.01 -2.03,-4.2 0.16,-1.29 -0.8,-3.89 -1.92,-4.42 -0.25,1.52 0.16,1.38 0.22,2.71 -2.8,-1.2 -1.76,-3.46 -4.17,-4.55l1.33 3.4c-1.06,-1.17 -1.81,-1.86 -3.3,-2.71l-0.89 1.12c0.74,1.29 2.11,2.28 2.59,3.39l-3 -1.02c0.76,2.09 1.39,0.77 3.01,2.66 4.27,4.97 0.9,-0.85 6.82,8.89 4.92,8.1 4.57,5.63 6.97,8.74 3.27,4.25 3.58,5.57 6.24,9.47 0.7,1.03 2.08,2.21 2.14,3.23 0.11,2.22 -2.73,3.28 -0.55,8.09 0.61,1.33 1.65,7.89 1.55,8.68 -0.3,2.39 -0.88,1.62 0.06,4 -2.47,1.18 0.06,2.21 -4.04,5.46 -3.03,2.4 -2.28,2.46 -3.25,3.76 -1.96,2.63 -2.91,3.62 -4.85,6.93 -0.78,1.33 -2.53,5.01 -3.54,5.72 -2.28,1.64 -3.07,2.36 -3.65,5.92 -0.39,2.34 -1.92,4.38 -2.96,6.27 -1.14,2.07 -2.35,4.07 -3.48,6.07 -1.07,1.89 -2.22,4.14 -3.36,5.87 -1.87,0.77 -1.25,-0.46 -2.75,1.76 -2.98,4.4 -6.11,4.11 -7.59,5.81 0.39,2.78 4.45,2.14 7.09,1.51 2.58,-0.61 5.92,-0.21 7.91,-1.31 0.84,-3.63 -2.12,-4 1.78,-9.17 0.84,-1.11 1.78,-2.24 2.68,-3.21 1.01,-1.09 2.04,-1.75 3.05,-2.84 2.79,-3 2.91,-5.86 4.1,-7.68 0.98,-1.51 1.51,-1.56 2.2,-3.69 0.52,-1.62 1.54,-2.31 2.79,-3.06 -0.34,3.61 0.72,2.49 1.28,4.94 0.56,2.47 2.63,15.45 1.82,16.26 -2.01,1.99 -0.84,2.94 -2.41,4.13 -1.06,0.8 -3.21,1.54 -3.9,2.44 0.3,3.02 4.55,2.35 6.63,1.7 2.34,-0.74 5.31,-0.71 7.28,-1.98 -0.4,-3.59 -2.77,-4.4 -2.64,-7.57 0.18,-4.52 1.89,-10.41 -0.1,-15.22 -1.12,-2.7 -0.61,-1.5 -0.37,-2.4 1.03,-3.95 -0.87,-3.57 2.58,-7.33 1.89,-2.06 3.9,-3.7 6.55,-6.63 2.84,-3.14 4.82,-3.94 4.19,-8.98 -0.41,-3.28 -1.38,-2.26 0.33,-5.02 1.22,-1.98 1.15,-2.91 1.03,-5.49 -0.17,-4.03 -0.57,-8.07 -1.24,-11.98 -0.44,-2.54 0.34,-3.94 -0.73,-6.04 -1.5,-2.94 -2.17,-2.85 -2.42,-4.25 0.84,-0.24 2.35,-0.93 3.04,-1.46 0.73,-0.56 0.55,-0.52 1.02,-1.22 0.82,-1.22 0.03,-0.62 1.11,-0.98l0.63 4.88c0.11,1.58 0.24,3.14 0.6,4.64 0.68,2.82 2.19,5.49 4.43,6.39 -1.21,-5.54 0.34,-14.59 -3.41,-17.76 -0.96,-0.81 -1.16,-0.49 -1.91,-0.9 -1.45,-0.81 -0.54,-2.55 -3.38,-4.19 -1.54,-0.91 -2.57,-0.67 -4.23,-1.06 -1.42,-0.34 -2.75,-1.58 -3.93,-0.54 -1.15,1.76 1.07,1.03 -1,3.47 -1.2,1.42 -0.65,2.18 -2.11,2.98 -0.31,-0.24 -0.15,-0.08 -0.45,-0.42 -0.01,-0.02 -0.22,-0.29 -0.24,-0.32l-1.3 -2.07zm-33.3 -34.86c-8.62,2.99 -4.09,15.66 4.32,12.85 8.47,-2.83 4.24,-15.83 -4.32,-12.85z"/>
   </g>
  </g>
 </g>
</svg>
