<?xml version="1.0" encoding="UTF-8"?>
<!DOCTYPE svg PUBLIC "-//W3C//DTD SVG 1.1//EN" "http://www.w3.org/Graphics/SVG/1.1/DTD/svg11.dtd">
<!-- Creator: CorelDRAW 2019 (64 Bit) -->
<svg xmlns="http://www.w3.org/2000/svg" xml:space="preserve" width="512px" height="329px" version="1.1" shape-rendering="geometricPrecision" text-rendering="geometricPrecision" image-rendering="optimizeQuality" fill-rule="evenodd" clip-rule="evenodd"
viewBox="0 0 511.4 328.58"
 xmlns:xlink="http://www.w3.org/1999/xlink">
 <g id="Camada_x0020_1">
  <metadata id="CorelCorpID_0Corel-Layer"/>
  <g id="_2288450128544">
   <path fill="black" d="M368.69 259.05c10.19,-12.69 19.6,-26.17 27.9,-40.71l0.88 0 0 29.24c-2.33,3.84 -4.78,7.66 -7.35,11.47l-21.43 0zm34.97 -53.88c5.35,-10.65 10.12,-21.86 14.2,-33.72l11.93 0c-3.78,13.71 -8.41,27.3 -14.14,40.7l-11.99 0 0 -6.98zm16.25 -39.91c5.48,-17.27 9.52,-35.9 11.81,-56.17 -16.63,4.41 -29.08,14.92 -39.03,31.63 3.03,-18.79 14.26,-29.66 31.37,-39.69 -19.44,-1.53 -39.78,2.06 -57.7,14.95 10.4,-18.08 25.8,-37.82 56.1,-23.4 -18.11,-19.66 -34.49,-21.51 -50.71,-21.73 30.96,-17.71 49.85,-6.9 62.29,15.39 8.42,-29.18 29.68,-40.25 63.29,-25.86 -24.27,2.38 -43.63,13.78 -56.1,34.4 33.06,-18.28 57.78,-9.57 70.17,21.73 -21.39,-16.16 -45.41,-25.27 -57.2,-14.59 12.63,3.03 20.7,8.44 25.64,14.9 9.4,12.28 11.11,32.24 5.22,48.22 -7.97,-27.7 -28.73,-60.6 -43.68,-51.48 -2.41,17.38 -5.56,34.63 -9.94,51.7l-11.53 0zm-6.99 53.08c-2.83,6.21 -5.91,12.38 -9.26,18.51l0 -18.51 9.26 0z"/>
   <path fill="black" d="M240.18 36.27c54.27,0 103.58,21.23 140.09,55.84 -3.81,3.09 -7.39,7 -10.77,11.7 -2.36,3.29 -4.49,6.73 -6.5,10.23l-8.96 15.58 14.59 -10.49c8.02,-5.78 16.78,-9.7 25.96,-12 2.07,2.4 4.09,4.86 6.05,7.36 -5.95,6.86 -10.08,15.06 -11.78,25.61l-3.23 20.05 10.39 -17.44c3.78,-6.35 8.05,-11.98 13.03,-16.68 4.42,6.55 8.47,13.36 12.12,20.42 -1.57,6.38 -3.35,12.65 -5.34,18.81l-12.17 0 -6.19 0 -39.7 0 -6.19 0 -39.7 0 -6.19 0 -39.69 0 -6.19 0 -39.7 0 -6.19 0 -39.7 0 -6.19 0 -39.7 0 -6.19 0 -39.69 0 -6.19 0 -25.62 0c29.79,-75.54 103.42,-128.99 189.54,-128.99zm173.57 135.18c-2.96,8.44 -6.32,16.69 -10.09,24.78l0 -24.78 10.09 0zm-16.28 37.21c-0.62,1.16 -1.25,2.33 -1.89,3.49l-37.81 0 0 -40.7 39.7 0 0 37.21zm-5.38 9.68c-8.08,13.88 -17.46,27.32 -28.18,40.45l-0.21 0.26 -5.93 0 0 -40.71 34.32 0zm-33.44 46.89l-0.29 0.35 6.49 -0.35 32.62 0 0 40.71 -39.7 0 0 -40.71 0.88 0zm36.14 -6.18c0.91,-1.37 1.8,-2.75 2.68,-4.12l0 4.12 -2.68 0zm8.87 -14.3c5.02,-8.66 9.49,-17.47 13.5,-26.41l25.56 0c0.75,7.1 1.14,14.31 1.14,21.61 0,6.44 -0.3,12.81 -0.89,19.1l-39.31 0 0 -14.3zm16.18 -32.6c5.2,-12.37 9.54,-25.01 13.17,-37.94 4.15,12.17 7.18,24.86 8.97,37.94l-22.14 0zm22.46 53.08c-1.74,14.07 -4.92,27.69 -9.37,40.71l-29.27 0 0 -40.71 38.64 0zm-11.61 46.9c-2.12,5.6 -4.49,11.09 -7.08,16.45l-366.85 0c-2.6,-5.36 -4.96,-10.85 -7.09,-16.45l26.59 0 6.19 0 39.69 0 6.19 0 39.7 0 6.19 0 39.7 0 6.19 0 39.7 0 6.19 0 39.69 0 6.19 0 39.7 0 6.19 0 39.7 0 6.19 0 27.03 0zm-383.25 -6.19c-4.46,-13.02 -7.63,-26.64 -9.38,-40.71l38.2 0 0 40.71 -28.82 0zm-10.05 -46.89c-0.58,-6.29 -0.88,-12.66 -0.88,-19.1 0,-7.3 0.39,-14.51 1.14,-21.61l38.61 0 0 40.71 -38.87 0zm1.01 -46.9c1.92,-14.08 5.29,-27.69 9.93,-40.7l27.93 0 0 40.7 -37.86 0zm313.18 -40.7l-39.7 0 0 40.7 39.7 0 0 -40.7zm0 46.89l-39.7 0 0 40.71 39.7 0 0 -40.71zm0 46.89l-39.7 0 0 40.71 39.7 0 0 -40.71zm-45.89 -93.78l-39.69 0 0 40.7 39.69 0 0 -40.7zm0 46.89l-39.69 0 0 40.71 39.69 0 0 -40.71zm0 46.89l-39.69 0 0 40.71 39.69 0 0 -40.71zm-45.88 -93.78l-39.7 0 0 40.7 39.7 0 0 -40.7zm0 46.89l-39.7 0 0 40.71 39.7 0 0 -40.71zm0 46.89l-39.7 0 0 40.71 39.7 0 0 -40.71zm-45.89 -93.78l-39.7 0 0 40.7 39.7 0 0 -40.7zm0 46.89l-39.7 0 0 40.71 39.7 0 0 -40.71zm0 46.89l-39.7 0 0 40.71 39.7 0 0 -40.71zm-45.89 -93.78l-39.7 0 0 40.7 39.7 0 0 -40.7zm0 46.89l-39.7 0 0 40.71 39.7 0 0 -40.71zm0 46.89l-39.7 0 0 40.71 39.7 0 0 -40.71zm-45.89 -93.78l-39.69 0 0 40.7 39.69 0 0 -40.7zm0 46.89l-39.69 0 0 40.71 39.69 0 0 -40.71zm0 46.89l-39.69 0 0 40.71 39.69 0 0 -40.71z"/>
   <path fill="black" fill-rule="nonzero" d="M19.59 319.79c-0.28,-0.81 -0.35,-1.67 -0.2,-2.6 0.15,-0.93 0.54,-1.74 1.16,-2.45 0.63,-0.7 1.37,-1.2 2.21,-1.5 1.34,-0.46 2.66,-0.39 3.94,0.23 1.28,0.62 2.15,1.6 2.62,2.94 0.46,1.35 0.39,2.66 -0.23,3.94 -0.62,1.28 -1.61,2.15 -2.95,2.62 -0.85,0.3 -1.73,0.36 -2.66,0.2 -0.93,-0.17 -1.74,-0.57 -2.43,-1.2 -0.69,-0.64 -1.18,-1.36 -1.46,-2.18zm-10.62 -15.05l-1.53 -6.68c-0.31,-1.33 -0.48,-2.32 -0.52,-3 -0.03,-0.68 0.06,-1.31 0.29,-1.9 0.23,-0.6 0.6,-1.13 1.1,-1.6 0.5,-0.48 1.11,-0.8 1.83,-0.96 0.78,-0.18 1.55,-0.14 2.3,0.13 0.74,0.27 1.36,0.73 1.85,1.38 0.07,-1.09 0.4,-1.98 0.99,-2.69 0.59,-0.71 1.37,-1.17 2.33,-1.4 0.77,-0.17 1.54,-0.17 2.35,0.02 0.8,0.19 1.48,0.54 2.05,1.06 0.57,0.51 1.01,1.2 1.32,2.08 0.18,0.55 0.53,1.89 1.04,4.04l1.31 5.69 -16.71 3.83zm2 -4.02l3.85 -0.88 -0.51 -2.21c-0.3,-1.31 -0.5,-2.12 -0.61,-2.43 -0.2,-0.56 -0.51,-0.97 -0.91,-1.23 -0.41,-0.25 -0.88,-0.32 -1.41,-0.2 -0.52,0.12 -0.9,0.36 -1.16,0.72 -0.26,0.36 -0.36,0.83 -0.29,1.4 0.03,0.35 0.23,1.31 0.6,2.89l0.44 1.94zm6.63 -1.52l4.48 -1.03 -0.72 -3.12c-0.28,-1.22 -0.49,-1.98 -0.63,-2.29 -0.21,-0.48 -0.53,-0.84 -0.95,-1.07 -0.43,-0.24 -0.94,-0.29 -1.53,-0.15 -0.51,0.11 -0.9,0.33 -1.2,0.66 -0.29,0.32 -0.47,0.73 -0.52,1.23 -0.06,0.49 0.09,1.51 0.44,3.05l0.63 2.72zm4.37 -15.06l-16.86 3.09 -2.28 -12.48 2.85 -0.52 1.66 9.06 3.74 -0.68 -1.54 -8.43 2.85 -0.53 1.54 8.43 4.57 -0.83 -1.72 -9.4 2.85 -0.52 2.34 12.81zm-4.17 -31.22l0.28 3.73 -3.78 1.77 0.53 6.86 4 1.12 0.27 3.66 -17.59 -5.33 -0.28 -3.66 16.57 -8.15zm-6.3 6.84l-6.14 2.86 6.5 1.83 -0.36 -4.69zm-0.48 -19.45l0.93 -3.38c1.9,0.46 3.33,1.27 4.28,2.44 0.95,1.17 1.45,2.67 1.51,4.51 0.07,2.28 -0.65,4.17 -2.17,5.69 -1.51,1.5 -3.61,2.3 -6.31,2.38 -2.85,0.09 -5.09,-0.58 -6.71,-2.01 -1.63,-1.42 -2.47,-3.34 -2.55,-5.74 -0.06,-2.09 0.51,-3.82 1.71,-5.16 0.71,-0.8 1.75,-1.42 3.11,-1.85l0.92 3.4c-0.88,0.23 -1.57,0.67 -2.06,1.33 -0.5,0.66 -0.73,1.45 -0.7,2.37 0.03,1.27 0.52,2.29 1.46,3.05 0.93,0.77 2.42,1.12 4.46,1.06 2.16,-0.07 3.69,-0.51 4.59,-1.31 0.89,-0.81 1.32,-1.84 1.28,-3.09 -0.02,-0.92 -0.34,-1.7 -0.94,-2.34 -0.61,-0.65 -1.54,-1.1 -2.81,-1.35zm6.41 -6.46l-17.09 -1.3 0.26 -3.46 6.73 0.51 0.51 -6.73 -6.73 -0.51 0.27 -3.46 17.08 1.3 -0.26 3.46 -7.47 -0.57 -0.51 6.73 7.47 0.57 -0.26 3.46zm2.55 -27.7l-14.01 -2.57 -0.92 4.99 -2.85 -0.52 2.45 -13.37 2.85 0.52 -0.91 4.97 14.01 2.56 -0.62 3.42zm1.8 -10.56l-16.7 -3.88 2.87 -12.35 2.83 0.65 -2.09 8.98 3.71 0.86 1.94 -8.35 2.82 0.66 -1.94 8.34 4.52 1.06 2.16 -9.31 2.82 0.66 -2.94 12.68zm3.68 -15.51l-16.25 -5.45 1.07 -3.19 13.13 -3.03 -10.89 -3.65 1.02 -3.05 16.25 5.46 -1.1 3.28 -12.89 3 10.68 3.59 -1.02 3.04zm5.41 -16.48l-15.92 -6.36 1.24 -3.12 13.29 -2.29 -10.67 -4.26 1.19 -2.98 15.92 6.36 -1.29 3.22 -13.04 2.27 10.46 4.18 -1.18 2.98zm6.53 -15.9l-15.64 -7.02 1.43 -3.17 15.63 7.02 -1.42 3.17zm-2.42 -7.76l1.23 -3.16c1.1,0.33 2.02,0.34 2.77,0.03 0.75,-0.32 1.37,-0.94 1.84,-1.88 0.5,-0.99 0.67,-1.84 0.51,-2.55 -0.17,-0.72 -0.53,-1.22 -1.1,-1.51 -0.36,-0.18 -0.72,-0.23 -1.08,-0.15 -0.36,0.08 -0.77,0.34 -1.22,0.77 -0.31,0.3 -0.95,1.01 -1.92,2.12 -1.24,1.44 -2.34,2.34 -3.28,2.7 -1.31,0.51 -2.58,0.45 -3.79,-0.16 -0.78,-0.4 -1.4,-0.99 -1.86,-1.77 -0.45,-0.79 -0.65,-1.68 -0.58,-2.69 0.06,-1.01 0.39,-2.1 0.98,-3.27 0.97,-1.91 2.13,-3.14 3.47,-3.67 1.34,-0.54 2.73,-0.47 4.17,0.2l-1.46 3.15c-0.86,-0.27 -1.57,-0.27 -2.13,-0.02 -0.57,0.26 -1.07,0.82 -1.5,1.68 -0.46,0.89 -0.62,1.68 -0.51,2.37 0.08,0.44 0.31,0.77 0.71,0.97 0.36,0.18 0.75,0.19 1.16,0.01 0.53,-0.22 1.35,-0.99 2.46,-2.31 1.11,-1.32 2.04,-2.23 2.78,-2.76 0.75,-0.52 1.55,-0.82 2.42,-0.9 0.86,-0.07 1.77,0.14 2.74,0.63 0.87,0.44 1.57,1.1 2.09,1.98 0.52,0.87 0.74,1.85 0.66,2.93 -0.08,1.08 -0.46,2.28 -1.13,3.61 -0.98,1.93 -2.18,3.19 -3.6,3.77 -1.41,0.58 -3.02,0.54 -4.83,-0.12zm9.39 -29.14c0.47,-0.72 1.11,-1.31 1.93,-1.76 0.82,-0.45 1.7,-0.65 2.65,-0.59 0.94,0.06 1.79,0.33 2.53,0.82 1.2,0.77 1.95,1.85 2.25,3.24 0.3,1.39 0.06,2.68 -0.71,3.87 -0.77,1.2 -1.85,1.95 -3.24,2.25 -1.39,0.3 -2.69,0.06 -3.88,-0.71 -0.76,-0.49 -1.35,-1.15 -1.8,-1.98 -0.44,-0.83 -0.62,-1.72 -0.54,-2.65 0.07,-0.94 0.34,-1.77 0.81,-2.49zm5.46 -16.92l4.24 -5.38c0.84,-1.07 1.51,-1.83 2,-2.28 0.51,-0.46 1.06,-0.78 1.67,-0.97 0.61,-0.2 1.25,-0.25 1.93,-0.16 0.69,0.1 1.32,0.37 1.9,0.83 0.63,0.49 1.08,1.12 1.33,1.87 0.26,0.75 0.29,1.52 0.1,2.31 0.89,-0.63 1.79,-0.94 2.71,-0.92 0.92,0.01 1.77,0.32 2.55,0.94 0.62,0.48 1.1,1.09 1.46,1.83 0.35,0.75 0.51,1.5 0.47,2.27 -0.04,0.76 -0.31,1.54 -0.8,2.33 -0.3,0.49 -1.13,1.6 -2.49,3.35l-3.61 4.58 -13.46 -10.6zm4.38 -0.96l3.11 2.44 1.4 -1.78c0.83,-1.06 1.33,-1.73 1.5,-2.01 0.31,-0.5 0.44,-1 0.39,-1.47 -0.06,-0.48 -0.31,-0.89 -0.74,-1.23 -0.41,-0.32 -0.84,-0.47 -1.28,-0.45 -0.44,0.03 -0.87,0.24 -1.28,0.65 -0.24,0.25 -0.87,1.01 -1.87,2.29l-1.23 1.56zm5.34 4.2l3.61 2.85 1.99 -2.53c0.77,-0.97 1.23,-1.62 1.38,-1.92 0.25,-0.47 0.33,-0.94 0.24,-1.42 -0.09,-0.48 -0.36,-0.9 -0.84,-1.28 -0.41,-0.32 -0.83,-0.49 -1.27,-0.52 -0.43,-0.03 -0.86,0.1 -1.28,0.36 -0.42,0.27 -1.12,1.03 -2.1,2.27l-1.73 2.19zm14.69 -5.93l-12.38 -11.85 8.77 -9.17 2.1 2.01 -6.38 6.66 2.75 2.63 5.93 -6.19 2.09 2 -5.92 6.19 3.35 3.21 6.6 -6.9 2.1 2 -9.01 9.41zm22.71 -21.74l-2.82 2.45 -3.68 -1.97 -5.19 4.51 1.48 3.88 -2.76 2.4 -6.23 -17.3 2.77 -2.4 16.43 8.43zm-9.25 -0.97l-5.96 -3.23 2.42 6.31 3.54 -3.08zm15.33 -12.07l3.27 -1.27c0.76,1.8 0.96,3.44 0.58,4.9 -0.37,1.45 -1.28,2.75 -2.72,3.89 -1.79,1.41 -3.75,1.96 -5.86,1.64 -2.11,-0.32 -4.01,-1.53 -5.68,-3.66 -1.76,-2.24 -2.55,-4.44 -2.37,-6.59 0.18,-2.15 1.21,-3.97 3.1,-5.45 1.65,-1.3 3.37,-1.87 5.17,-1.7 1.06,0.09 2.17,0.56 3.33,1.4l-2.18 2.75c-0.71,-0.57 -1.48,-0.86 -2.3,-0.86 -0.83,-0.01 -1.6,0.28 -2.32,0.84 -1,0.79 -1.53,1.79 -1.59,2.99 -0.06,1.21 0.54,2.61 1.81,4.22 1.33,1.7 2.6,2.67 3.78,2.91 1.18,0.24 2.26,-0.03 3.24,-0.8 0.73,-0.57 1.17,-1.29 1.33,-2.16 0.15,-0.87 -0.04,-1.89 -0.59,-3.05zm8.85 1.11l-9.21 -14.45 2.92 -1.86 3.63 5.69 5.69 -3.63 -3.62 -5.69 2.92 -1.87 9.22 14.45 -2.93 1.87 -4.03 -6.32 -5.69 3.63 4.03 6.32 -2.93 1.86zm24.35 -14.5l-13.18 -12.55 3.35 -1.69 9.59 9.38 -1.97 -13.21 3.29 -1.66 2.26 18.05 -3.34 1.68zm6.26 -12.56c-0.72,-1.59 -1.08,-3.04 -1.09,-4.34 -0.01,-0.95 0.15,-1.89 0.48,-2.8 0.33,-0.91 0.79,-1.68 1.38,-2.32 0.79,-0.86 1.82,-1.57 3.09,-2.15 2.3,-1.04 4.47,-1.15 6.5,-0.35 2.03,0.81 3.62,2.48 4.77,5.03 1.14,2.53 1.35,4.81 0.62,6.86 -0.72,2.05 -2.23,3.59 -4.53,4.63 -2.32,1.05 -4.49,1.18 -6.51,0.37 -2.01,-0.79 -3.58,-2.44 -4.71,-4.93zm3.21 -1.58c0.8,1.77 1.81,2.93 3.05,3.47 1.23,0.55 2.47,0.53 3.73,-0.03 1.26,-0.57 2.09,-1.5 2.49,-2.77 0.4,-1.27 0.19,-2.81 -0.64,-4.63 -0.81,-1.79 -1.8,-2.95 -2.99,-3.47 -1.18,-0.53 -2.43,-0.5 -3.73,0.09 -1.3,0.59 -2.15,1.51 -2.54,2.76 -0.4,1.26 -0.19,2.78 0.63,4.58zm-3.41 -9.56l0.82 -4.15 2.75 -1.24 3.63 2.14 -2.4 1.08 -1.95 -1.03 -0.43 2.11 -2.42 1.09zm21.68 11.49l-5.58 -16.05 3.28 -1.14 4.63 13.31 8.11 -2.82 0.95 2.74 -11.39 3.96zm13.6 -4.66l-4.64 -16.49 12.22 -3.44 0.78 2.79 -8.87 2.49 1.03 3.67 8.25 -2.32 0.78 2.79 -8.25 2.32 1.26 4.47 9.19 -2.59 0.79 2.79 -12.54 3.52zm15.39 -3.96l-3.85 -16.7 3.38 -0.78 3.86 16.7 -3.39 0.78zm17.21 -14.95c0.85,-0.11 1.71,0.01 2.59,0.35 0.87,0.34 1.58,0.89 2.14,1.65 0.56,0.77 0.9,1.59 1,2.47 0.18,1.42 -0.17,2.69 -1.05,3.81 -0.87,1.12 -2.02,1.76 -3.42,1.94 -1.42,0.17 -2.69,-0.18 -3.81,-1.06 -1.12,-0.87 -1.76,-2.02 -1.94,-3.43 -0.11,-0.89 0.02,-1.77 0.37,-2.64 0.36,-0.88 0.92,-1.58 1.69,-2.12 0.76,-0.55 1.57,-0.87 2.43,-0.97zm16.88 10.24l-0.5 -17.13 11.77 -0.35 0.08 2.89 -8.3 0.25 0.12 4.07 7.18 -0.21 0.09 2.89 -7.18 0.21 0.21 7.28 -3.47 0.1zm15.13 -17.27l3.47 0.11 -0.27 9.28c-0.05,1.47 -0.03,2.43 0.04,2.87 0.13,0.7 0.46,1.28 0.99,1.72 0.55,0.44 1.29,0.67 2.25,0.7 0.97,0.03 1.71,-0.15 2.22,-0.53 0.5,-0.39 0.81,-0.87 0.93,-1.46 0.12,-0.58 0.2,-1.55 0.24,-2.9l0.28 -9.49 3.47 0.11 -0.27 9c-0.06,2.06 -0.2,3.52 -0.41,4.36 -0.21,0.84 -0.58,1.55 -1.1,2.12 -0.51,0.57 -1.19,1.02 -2.04,1.34 -0.85,0.32 -1.95,0.46 -3.3,0.42 -1.63,-0.05 -2.87,-0.27 -3.7,-0.67 -0.83,-0.41 -1.48,-0.92 -1.95,-1.54 -0.47,-0.62 -0.77,-1.26 -0.91,-1.93 -0.2,-0.99 -0.27,-2.44 -0.21,-4.36l0.27 -9.15zm20.59 18.24l1.74 -14.13 -5.04 -0.62 0.36 -2.88 13.49 1.66 -0.35 2.88 -5.02 -0.62 -1.73 14.14 -3.45 -0.43zm10.78 1.31l3.09 -16.86 12.48 2.29 -0.52 2.85 -9.07 -1.66 -0.68 3.74 8.43 1.54 -0.52 2.85 -8.43 -1.54 -0.84 4.57 9.39 1.72 -0.52 2.85 -12.81 -2.35zm19.98 3.95l-2.09 -18.09 3.65 0.85 1.37 13.35 6.94 -11.42 3.59 0.84 -9.81 15.31 -3.65 -0.84zm13.14 -5.28c0.54,-1.66 1.25,-2.98 2.12,-3.94 0.64,-0.71 1.39,-1.29 2.25,-1.74 0.86,-0.45 1.72,-0.71 2.59,-0.78 1.15,-0.1 2.39,0.07 3.72,0.51 2.4,0.79 4.08,2.16 5.03,4.13 0.95,1.96 0.99,4.27 0.12,6.93 -0.87,2.64 -2.26,4.46 -4.18,5.48 -1.91,1.02 -4.07,1.13 -6.46,0.35 -2.43,-0.8 -4.11,-2.17 -5.06,-4.12 -0.94,-1.95 -0.99,-4.22 -0.13,-6.82zm3.42 1c-0.6,1.85 -0.63,3.38 -0.1,4.62 0.55,1.23 1.47,2.07 2.78,2.5 1.32,0.43 2.55,0.31 3.71,-0.36 1.15,-0.67 2.04,-1.95 2.66,-3.84 0.61,-1.87 0.66,-3.4 0.14,-4.59 -0.52,-1.19 -1.46,-2 -2.82,-2.45 -1.35,-0.44 -2.6,-0.34 -3.74,0.32 -1.13,0.66 -2.01,1.92 -2.63,3.8zm3.95 -9.35l3.41 -2.51 2.87 0.95 1.23 4.03 -2.5 -0.82 -0.74 -2.09 -1.74 1.27 -2.53 -0.83zm8.35 22.57l6.96 -15.51 3.17 1.43 -5.78 12.86 7.84 3.52 -1.18 2.64 -11.01 -4.94zm13.3 6.02l7.76 -15.29 11.31 5.74 -1.31 2.59 -8.22 -4.17 -1.72 3.39 7.64 3.88 -1.31 2.58 -7.64 -3.88 -2.1 4.14 8.52 4.33 -1.31 2.58 -11.62 -5.89zm14.14 7.44l8.57 -14.84 3.01 1.73 -8.57 14.85 -3.01 -1.74zm22.78 0.16c0.69,0.5 1.25,1.16 1.66,2.01 0.42,0.84 0.57,1.73 0.47,2.67 -0.1,0.94 -0.41,1.77 -0.93,2.49 -0.83,1.16 -1.94,1.86 -3.34,2.1 -1.41,0.23 -2.68,-0.06 -3.84,-0.88 -1.16,-0.83 -1.86,-1.95 -2.1,-3.35 -0.23,-1.4 0.07,-2.68 0.9,-3.84 0.52,-0.73 1.2,-1.3 2.05,-1.7 0.85,-0.4 1.74,-0.55 2.67,-0.43 0.94,0.12 1.75,0.43 2.46,0.93z"/>
   <path fill="white" d="M138.97 129.85c-0.35,0.43 -0.64,0.92 -0.95,1.38 -0.07,0.11 -0.1,0.15 -0.19,0.27 -0.26,0.37 -0.9,1.43 -1.35,1.51 -0.9,0.15 -0.68,-1.11 -0.67,-1.52 0.01,-0.38 0.11,-0.56 0.14,-0.91 0.04,-0.61 0.12,-1.22 0.13,-1.83 0.01,-0.54 -0.02,-0.41 0.06,-0.85 0.19,-1.13 -0.24,-3.9 -0.58,-5.15 -0.05,-0.17 -0.09,0.26 0.09,-0.18 0.18,-0.43 -0.08,-0.81 0.63,-1.03 0.37,-0.11 0.54,0.37 0.78,0.73 0.18,0.27 0.44,0.71 0.65,0.93 0.47,0.48 1.98,1.51 2.75,1.59 0.39,0.05 0.81,0.19 1.19,0.17 1.12,-0.08 2.32,-0.46 2.41,0.15 0.11,0.73 -1.06,0.98 -1.78,1.67 -0.21,0.21 0.09,-0.01 -0.21,0.13 -0.6,0.29 -2.49,2.2 -3.1,2.94zm-6.5 -19.65c-0.15,2.35 -0.11,4.73 0.6,6.35 0.31,0.73 0.39,1.5 0.64,2.32 0.44,1.43 0.3,1.26 0.55,2.41 0.19,0.87 0.47,1.72 0.55,2.61 0.1,1.19 0.02,2.39 -0.01,3.59 -0.01,0.35 0.01,0.24 0.06,0.56 0.08,0.48 -0.12,1.21 -0.12,1.61 0,0.97 -0.13,2.68 -0.41,3.63 -0.22,0.75 -0.38,1.52 -0.6,2.27 -0.1,0.34 -0.25,0.57 -0.43,0.86 -0.28,0.46 -0.32,0.48 -0.68,0.76 -0.4,0.3 -0.59,1.32 -0.62,1.82 -0.05,1.24 -0.48,0.45 -0.71,1.31 -0.19,0.68 -0.67,3.01 -1.12,3.22 -0.42,0.2 -0.82,-0.07 -1.29,0.42 -1.04,1.09 -0.85,1.24 -0.95,1.78l-0.22 0.37c-0.23,0.16 -0.88,0.2 -1.05,0.54 -0.54,1.09 0.7,2.07 -1.04,2.36 -0.09,0.42 -0.01,-0.07 -0.15,0.4 -0.17,0.52 0.13,0.89 0.14,1.34 0.01,0.52 -0.52,0.97 -0.48,1.55 0.05,0.81 0.42,1 0.8,1.52 0.2,0.27 0.29,0.58 0.45,0.76 1.12,1.28 1.18,0.19 1.92,2.57 0.18,0.6 0.18,0.36 0.46,0.8 0.02,0.02 0.03,0.04 0.04,0.06 0.01,0.02 0.03,0.05 0.04,0.07 0.1,0.19 -0.02,0 0.1,0.2 0.24,0.4 1.14,0.4 0.77,1.7 -0.18,0.63 -0.01,1.2 0.01,1.88l0.25 2.96c0.1,0.73 -0.08,1.15 0.06,2 0.12,0.68 0.3,1.41 0.3,2.09l0.24 3.96c0.1,0.67 0.03,1.34 0.06,1.92 0.05,1.26 0.4,3.73 0.74,5.05 0.07,0.31 0.2,0.55 0.27,0.72l0.6 1.76c0.18,0.36 0.71,1.2 0.83,1.55 0.33,1.05 0.02,0.8 0.8,1.48 0.4,0.35 0.84,0.58 1.3,0.83 0.3,0.17 0.39,0.25 0.67,0.44 0.39,0.28 0.9,0.44 1.31,0.69l6.55 2.57c0.47,0.21 0.99,0.32 1.46,0.6 0.94,0.57 1.32,0.65 1.71,1.68 0.09,0.24 0.26,0.46 0.37,0.74 0.35,0.94 0.31,0.72 0.86,1.3 0.86,-0.08 0.59,-0.41 1.26,-0.27 0.2,0.04 0.47,0.15 0.62,0.18l0.6 0.07c0.46,0.17 0.75,0.75 1.09,1.12l0.38 0.47c0.38,0.6 1.21,1.12 1.71,1.56 1.18,1.04 1.3,0.23 1.69,1.55 0.25,0.87 0.55,1.86 0.81,2.78 0.14,0.52 0.16,1.03 0.32,1.52l0.44 1.32c0.13,0.57 0.27,0.96 0.35,1.48 0.1,0.57 0.05,0.87 0.16,1.51 0.09,0.52 0.17,1.05 0.26,1.58 0.11,0.63 0.08,0.96 0.16,1.51 0.08,0.51 0.14,1.06 0.29,1.55l1.18 4.22c0.18,0.54 0.37,1.32 0.34,1.92 -0.03,0.58 0.17,1.56 0.23,2.23 0.07,0.87 0.05,2.03 0.21,2.94 0.1,0.57 0.25,0.85 0.35,1.48 0.18,1.05 0.44,1.9 0.78,2.83l0.31 1.18c0.37,1.38 0.65,3.16 0.83,4.59 0.07,0.59 0.01,0.58 0.14,1.26 0.15,0.85 0.16,0.45 0.48,1.09 0.37,0.72 0.09,1.37 0.09,2.1 0.01,0.49 0.08,0.19 -0.02,0.49l-0.5 1.6c-0.65,1.16 -1.03,0.96 -1.99,3.43 -0.21,0.53 -0.06,1.66 0.27,2.2 0.12,0.21 0.22,0.27 0.33,0.52 0.28,0.66 0.41,0.67 0.6,1.1 1,2.28 0.37,2.97 0.38,4.01 0.01,0.57 0.03,0.85 -0.05,1.37l-0.27 4.03c0.03,0.88 0.02,0.6 -0.1,1.15l-0.04 2.77c0.02,0.62 -0.13,0.81 -0.11,1.32 0.03,0.56 0.08,0.87 -0.02,1.37 -0.12,0.65 -0.08,1.44 0.06,2.13 0.04,0.22 -0.03,0.15 -0.07,0.31 -0.1,0.35 0.04,0.92 -0.06,1.37l-0.13 2.53c0.09,0.84 -0.03,2.19 0.36,2.96 0.22,0.44 0.56,0.33 0.83,0.77 0.04,0.35 -0.09,0.71 -0.07,1.09 0.03,0.84 0.22,1.29 0.05,2 -0.31,1.25 0.11,0.8 -1.26,2.4 -0.87,1.03 -2.26,3.46 -2.36,4.81l-0.35 1.97c-0.08,0.32 -0.06,0.63 -0.13,0.97 -0.15,0.71 0.1,1.51 0.06,2.26 -0.07,1.22 0.14,2.41 0.04,3.23 -0.02,0.2 -0.04,0.36 -0.08,0.51 -0.14,0.44 -0.62,0.62 -0.76,1.1 -0.1,0.32 -0.06,0.62 -0.12,0.98 -0.06,0.41 -0.16,0.52 -0.15,1.01 0.03,1.55 -0.25,0.81 -0.57,1.78 -0.29,0.86 0.14,1.35 -0.03,2.12 -0.31,1.35 -1.11,1.34 -1.14,2.39 -0.02,1 -0.47,0.78 -0.87,0.48 -0.6,-0.45 -1.46,-0.22 -1.64,0.52 -0.25,0.98 0.8,2.61 0.52,3.47 -0.03,0.08 -0.22,0.35 -0.26,0.4 -0.47,0.66 -0.18,0.6 -0.35,1.25 -0.42,1.61 -0.32,0.77 -0.71,1.54 -0.35,0.7 0.21,0.93 -0.68,1.56 -0.62,0.44 -1.05,1.45 -1.44,2.1 -1.26,2.08 -0.93,1.91 -1.58,3.98 -0.06,0.16 -0.11,0.29 -0.12,0.49 -0.01,0.16 0.01,0.15 0.01,0.19l-0.17 1.01c-0.21,2.91 -0.28,1.32 0.38,2.78 0.14,0.32 0.19,0.64 0.37,0.88 0.19,0.25 0.51,0.9 0.82,1.04 0.75,0.34 1.35,0.28 2.27,0.15 0.59,-0.09 1.61,-0.11 2.17,-0.2l1.8 -0.59c0.89,-0.35 -0.12,-0.2 0.52,-0.38 0.81,-0.23 1.75,-0.81 2.3,-1.37 2.37,-2.44 1.42,-2.55 1.65,-4.97 0.04,-0.45 0,-0.57 -0.01,-1.07 -0.01,-0.69 0.42,-2.01 0.83,-2.47 0.24,-0.27 0.3,-0.57 0.47,-0.74 0.29,-0.29 0.49,-0.16 0.93,-0.34l0.87 -0.44c0.63,-0.3 1.31,-1.24 1.72,-1.8 0.82,-1.14 0.93,-1.37 1.44,-2.59 0.51,-1.2 0.24,-4.29 -1.07,-4.92 -0.35,-0.17 -0.41,0 -0.88,-0.14 -0.25,-1.52 0.61,-3.98 1.55,-4.83 1.12,-1.02 0.31,-1.16 0.69,-1.89 0,-0.01 2.25,-2.71 2.9,-3.85 0.33,-0.57 0.63,-1.18 0.82,-1.8 0.08,-0.24 0.13,-0.3 0.18,-0.53 0.04,-0.21 0.03,-0.31 0.09,-0.51 0.14,-0.55 0.1,-1.13 0.08,-1.71 -0.01,-0.39 -0.03,0.01 0.05,-0.41 0.06,-0.37 0.02,-0.7 0.12,-1.07 0.15,-0.61 0.39,-0.56 0.55,-1.4 0.17,-0.82 0.71,-1.47 1.1,-2.19l0.76 -1.78c0.1,-0.32 0.23,-0.53 0.36,-0.87l1.1 -2.74c0.39,-0.96 0.5,-1.96 0.85,-2.93 0.19,-0.53 -0.01,-0.88 0.32,-1.17 0.3,-0.28 0.83,-0.28 1.24,-0.35 0.88,-0.14 0.79,-0.21 1.48,-0.42 1.02,-0.32 2.09,-0.3 3.18,-0.69l2.31 -1.31c0.73,-0.49 1.57,-1.18 2.52,-1.08 0.36,0.53 0.14,0.93 0.14,1.51 -0.01,0.52 0.08,0.95 0.05,1.59 -0.11,2.36 1.09,4.6 1.31,7 0.06,0.75 0.06,0.22 -0.08,0.85 -0.18,0.81 0.61,1.77 0.32,2.52 -0.2,0.52 -1.18,1.57 -1.57,2.33 -0.22,0.42 -0.34,0.92 -0.49,1.37 -0.22,0.71 -0.27,1.49 -0.49,2.2l-0.09 2.45c0.04,0.32 0.06,0.76 0.09,0.96 0.12,0.81 0.68,1.94 0.76,2.39l-0.73 0.71c0.17,1 0.45,0.66 0.04,1.66 -0.46,1.12 0.09,0.77 0.21,1.51 0.1,0.61 -0.52,0.68 -0.65,1.32 -0.08,0.35 0.05,0.6 0.08,0.97 0.06,0.59 -0.16,1.09 -0.2,1.58 -0.01,0.28 0.04,0.64 0,0.89 -0.21,1.12 -1.1,3.14 -1.65,4.08 -0.63,1.07 -0.09,2.49 -0.45,3.21l-0.58 1.4c-0.23,0.65 -0.33,2.83 -0.17,3.35 0.13,0.42 0.79,0.6 1.12,0.81 0.96,0.6 0.94,0.93 2.4,1.59 0.03,0.99 0.12,2.43 0.49,3.48 0.26,0.74 0.51,1.47 1.2,1.76 0.57,0.24 1.61,0.33 2.21,0.26 0.53,-0.07 1.07,-0.07 1.58,-0.05 0.44,0.02 1.13,-0.14 1.58,-0.22 1.53,-0.3 2.74,-0.59 3.89,-1.69 1.18,-1.12 0.21,-1.82 0.16,-2.62 -0.03,-0.4 -0.15,-0.68 -0.21,-0.83 -0.36,-0.81 0.01,-0.24 -0.65,-1.2 -0.39,-0.57 -0.9,-1 -1.33,-1.51 -0.17,-0.2 -0.18,-0.34 -0.39,-0.58 -0.88,-0.97 0.13,-0.64 0.28,-1.16 -0.02,-0.66 -0.41,-0.22 -0.43,-1.14 -0.02,-0.61 -0.4,-2.16 -0.57,-2.73 -0.29,-0.96 0.41,-0.88 0.65,-1.52 0.16,-0.42 0.48,-1.3 0.4,-1.72 -0.16,-0.78 -0.91,-0.54 -1.47,-0.74 -0.01,-0.01 -0.22,-0.12 -0.24,-0.13 -0.17,-0.12 -0.02,0.02 -0.17,-0.15 0.19,-0.51 0.25,-0.19 0.36,-0.58 0.07,-0.27 -0.01,-0.45 0.1,-0.76 0.12,-0.36 0.31,-0.72 0.45,-1.25 0.24,-0.89 -0.17,-1.41 0.34,-2.05 0.15,-0.18 0.23,-0.3 0.35,-0.5 0.45,-0.79 0.22,-0.73 0.44,-1.33 0.25,-0.72 0.42,0.01 0.46,-1.22 0.03,-0.66 0.52,-1.34 0.72,-1.87 0.1,-0.27 0.03,-0.3 0.18,-0.62l1.09 -2.83c0.44,-1.14 0.62,-2.5 0.94,-3.7l0.2 -1.25c0.12,-0.43 0.1,-1.02 0.18,-1.42 0.13,-0.67 -0.02,-2.49 -0.04,-3.24 -0.02,-0.69 -0.17,-1 -0.03,-1.58 0.08,-0.31 0.05,-0.45 0.11,-0.74 0.08,-0.33 0.16,-0.2 0.24,-0.56l0.08 -2.26c-0.03,-0.36 0.06,-0.3 0.07,-0.67 0.04,-1.37 -0.37,-2.33 0.08,-3.32l0.2 -0.42c0.08,-0.27 0.06,-0.33 0.17,-0.63 0.18,-0.46 0.27,-0.88 0.44,-1.34 0.13,-0.4 0.38,-0.81 0.49,-1.21 0.1,-0.35 -0.02,-1.06 0.04,-1.44l0.11 -0.67c0.27,-0.62 1.58,-0.41 2.1,-0.33 0.48,0.07 1.08,-0.06 1.64,-0.09 0.87,-0.06 2.17,0.35 2.97,-0.22 0,-0.35 -0.23,-1.07 -0.29,-1.61l-0.27 -3.22c-0.02,-0.29 -0.1,-0.56 -0.12,-0.83 -0.03,-0.31 0.05,-0.44 0.04,-0.7 -0.01,-1.02 -0.37,-2.16 -0.36,-3.14 0,-0.55 0.11,-0.8 0.12,-1.38 0.02,-0.66 -0.22,-1.02 -0.25,-1.49 -0.02,-0.43 0.13,-0.89 0.1,-1.36 -0.05,-1.34 -0.34,-3.43 -0.79,-4.57 -0.2,-0.51 -1.04,-1.9 -0.83,-2.88 0.06,-0.24 0.15,-0.34 0.23,-0.58 0.08,-0.22 0.11,-0.42 0.15,-0.62 0.24,-1.08 -0.34,-2.48 -0.19,-3.18 0.08,-0.38 0.79,-1.66 0.65,-2.55 -0.38,-2.34 -1.49,-2.65 -3.12,-4.01 -1.94,-1.62 -2.1,-1.71 -3.16,-3.95l-0.55 -2.4c-0.03,-0.22 0.02,-0.4 -0.05,-0.77 -0.08,-0.46 -0.31,-1.03 -0.53,-1.37 -0.5,-0.75 -1.67,-1.18 -1.3,-2.16 0.1,-0.27 0.37,-0.37 0.63,-0.58 0.55,-0.46 1.7,-0.97 1.98,-1.54 0.29,-0.6 -0.6,-2.89 -0.77,-3.85 -0.12,-0.67 -0.32,-1.33 -0.45,-2.13 -0.18,-1.05 -0.52,-2.53 -0.52,-3.4 0,-0.15 0.01,-0.05 -0.02,-0.22l-0.96 -4.77c-0.14,-0.84 -0.49,-1.23 -0.63,-1.78 -0.25,-0.96 -0.24,-0.77 -0.59,-1.59 -0.26,-0.63 -0.41,-1.08 -0.68,-1.69 -0.32,-0.69 -1.3,-4.36 -1.84,-5.79 -0.11,-0.29 -0.34,-0.51 -0.44,-0.74 -0.24,-0.51 -0.5,-2.63 -0.59,-3.25 -0.11,-0.7 0.12,-1.19 0.04,-2.01 -0.13,-1.34 -0.66,-5.16 -1.04,-6.54 -0.21,-0.78 -0.44,-1.23 0.08,-1.91 0.81,-1.04 -0.6,-0.76 -0.66,-3.7 -0.02,-0.75 -0.23,-1.45 -0.32,-2.2 -0.14,-1.27 0.28,-0.29 -0.35,-1.83 -0.95,-2.33 -0.49,-1.52 -0.88,-3.82 -0.34,-2.02 -0.83,-1.85 -1.48,-3.43 -0.29,-0.72 -0.02,-1.27 -0.09,-1.97l-0.63 -4.31c-0.13,-0.81 -0.33,-1.43 -0.45,-2.12 -0.47,-2.8 -1.17,-5.31 -1.23,-8.04l0.14 -1.92c0.04,-0.33 0.1,-0.54 0.1,-0.91 0.01,-0.49 0.11,-0.46 0.13,-0.81 0.02,-0.26 -0.04,-0.77 -0.05,-1.02 -0.02,-0.62 0.12,-0.42 0.19,-0.85 0.09,-0.55 -0.26,-1.54 -0.27,-2.17 -0.01,-0.29 -0.1,-0.76 -0.07,-1.03 0.03,-0.36 0.11,-0.43 0.11,-0.9l0.01 -0.73c0.16,-0.93 -0.07,-2.23 -0.28,-3.02 -0.37,-1.43 -0.52,-3.01 -0.76,-4.46 -0.25,-1.5 -0.66,-2.76 -0.89,-4.17 -0.23,-1.37 -0.19,-2.9 -0.44,-4.23 -0.26,-1.35 0.08,-2.01 -0.25,-3.66 -0.18,-0.9 -0.23,-1.06 0.2,-1.72 0.26,-0.4 0.74,-0.9 0.87,-1.35 0.22,-0.84 0.24,-1.79 0.35,-2.62 0.09,-0.67 0.54,-0.91 1.04,-1.25 0.86,-0.58 1.7,-1.44 2.42,-2.21 0.34,-0.36 0.78,-0.78 0.8,-1.32 0.01,-0.31 -0.09,-0.44 -0.35,-0.59 -0.12,-0.07 0.15,-0.17 -0.39,-0.12 -0.66,0.07 -0.23,0.13 -0.5,0.35l-0.09 0.06c-0.45,0.33 -0.79,0.76 -1.24,1.08 -0.49,0.35 -1.11,1.07 -1.73,1.13 -0.44,-0.53 -0.05,-0.94 0.38,-1.34 0.42,-0.39 0.65,-0.77 1.11,-1.17 1.26,-1.11 1.5,-1.64 2.46,-2.72 0.38,-0.43 0.61,-0.79 0.32,-1.46 -0.73,-0.28 -1.23,0.13 -1.67,0.62 -0.62,0.69 -1.99,2.16 -2.36,2.74 -0.3,0.47 -0.81,0.87 -1.24,1.28l-0.35 -0.2c-0.06,-0.73 0.37,-1.15 0.7,-1.7l1.38 -2.31c0.01,-0.03 0.07,-0.12 0.07,-0.12 0.45,-0.69 0.85,-1.14 1.39,-1.71 1.2,-1.25 0.37,-2.18 -0.59,-1.83 -0.06,0.02 -0.24,0.12 -0.32,0.18l-0.25 0.25c-0.01,0.01 -0.03,0.03 -0.04,0.05 -0.01,0.01 -0.02,0.03 -0.04,0.05l-1.77 2.36c-0.29,0.32 -0.52,0.8 -0.74,1.19l-0.4 0.87c-0.2,0.37 -0.37,0.62 -0.57,0.98 -0.21,0.37 -0.31,0.7 -0.8,0.83 -1.25,0.05 0.12,-2.37 0.23,-3.04 0.04,-0.25 0.19,-0.52 0.26,-0.8l0.24 -0.86c0.02,-0.13 -0.02,0.04 0.02,-0.11 0.17,-0.66 0.85,-1.57 -0.23,-1.82 -0.25,-0.06 -0.3,-0.02 -0.52,0.1 -0.01,0.01 -0.03,0.02 -0.04,0.03l-1.04 1.63c-0.09,0.17 -0.06,0.1 -0.13,0.31 -0.29,0.79 -0.09,0.6 -0.44,1.32l-0.71 1.32c-0.22,0.41 -0.13,0.24 -0.23,0.76 -0.08,0.43 -0.42,0.98 -0.61,1.35 -0.44,0.86 -0.23,2.85 -0.88,2.95 -1.02,-0.12 -0.45,-2.35 -1.28,-3.34 -0.8,-0.95 -1.76,-1.41 -3.03,-1.01 -0.17,0.84 0.19,1.22 0.55,1.61 0.85,0.9 0.41,0.51 0.61,1.37 0.37,1.64 0.25,3.19 0.43,3.66l0.75 1.45c0.5,0.81 -0.07,1.31 1.72,2.54 0.35,0.24 0.75,0.64 0.85,1.24 0.1,0.63 0.02,1.18 0.12,1.9 0.12,0.85 0.09,1.85 0.1,2.69 0.01,0.3 0.05,0.7 0.06,0.95l0.1 1.7c0.02,0.2 0.01,-0.03 0,0.19 -0.01,0.28 -0.02,-0.08 -0.02,0.21 0,0.19 0.02,0.26 0.04,0.44 0.13,1.37 0,1.61 0.02,2.64 0,0.36 0.05,0.6 0.03,0.93 -0.03,0.31 -0.07,0.49 -0.08,0.84 -0.03,0.82 -0.36,1.59 -0.39,2.35 -0.04,0.92 0.18,1.92 0.34,2.85 0.15,0.88 0.07,1.11 0.11,1.89 0.03,0.67 0.03,1.11 0.15,1.91 0.19,1.21 0.05,2.48 0.24,3.69 0.16,1.01 0.21,0.87 0.04,1.81l-0.55 2.6c-0.2,0.45 -0.15,0.59 -0.27,1.09 -0.14,0.59 0.02,0.99 -0.16,1.43 -0.12,0.31 -0.13,0.45 -0.14,0.81 -0.01,0.54 -0.06,1.18 -0.04,1.69 0.04,0.74 -0.08,1.04 -0.08,1.76 0.03,1.8 0.07,3.39 0.4,5.36 -0.33,0.44 -0.82,0.76 -0.8,1.39 0.02,0.77 0.35,1.43 0.11,2.08 -0.52,-0.02 -0.49,-0.61 -0.63,-1.14 -0.1,-0.38 -0.19,-0.43 -0.29,-0.72 -0.24,-0.78 -0.16,-1.14 -0.66,-1.91 -0.26,-0.41 -0.51,-0.66 -0.62,-1.13 -0.26,-1.15 -1.11,-1.08 -1.21,-2.03 -0.08,-0.81 0.01,-0.67 0.24,-1.25 0.16,-0.4 0.02,-0.08 -0.09,-0.48 -0.17,-0.61 0.22,-0.89 -1.2,-1.29 0.08,-0.38 0.02,-0.08 0.16,-0.34l0.15 -0.28c-0.45,-0.1 -1.69,-0.18 -1.91,-0.65 -0.27,-0.55 0.65,-0.37 0.97,-0.62 -0.19,-0.33 -0.11,-0.23 -0.97,-0.41 -1.23,-0.25 -2.53,0.96 -3.53,0.82 -0.19,-0.26 -0.1,-0.42 -0.18,-0.91 -0.63,0.02 -0.85,0.19 -1.13,0.55 -0.55,0.71 -0.51,1.04 -1.24,0.42l-0.86 0.13c-0.37,0.87 -0.2,0.24 -0.76,0.67 -0.27,0.27 -0.07,0.14 -0.22,0.44 -0.13,0.26 -0.52,0.51 -0.81,0.91 -0.44,0.6 -0.6,0.51 -0.99,1.35 -0.11,0.23 -0.29,0.52 -0.45,0.74 -0.77,1.06 -0.14,1.57 -1.33,2.09 -0.5,0.22 -0.54,0.16 -0.71,0.59 0,0.01 -0.01,0.04 -0.02,0.05 0,0.01 -0.07,0.14 -0.08,0.17 -0.31,0.59 -0.05,0.72 -0.29,1.36 -0.26,0.67 -1.25,1.49 -0.27,2.47 1.03,1.02 -0.27,1.84 -0.21,2.55 0.12,1.48 0.45,2.81 1.47,3.75 0.2,0.19 0.4,0.34 0.68,0.43 1.8,0.55 1.45,0.13 2.39,2.43 0.27,0.66 0.43,1.4 0.66,1.95 0.25,0.62 1.26,2.98 1.23,3.56 -0.5,0.31 -1.18,0.09 -1.83,0.22 -0.18,0.33 -0.21,0.65 -0.43,0.88 -0.07,0.08 -0.78,0.55 -0.86,0.6 -0.3,-0.08 -0.35,-0.18 -0.65,-0.19l-0.58 0.06c-0.76,-0.02 -1.01,-0.04 -0.87,0.81 -0.99,0.47 -1.87,0.35 -2.85,0.08 -0.68,-0.18 -2.1,-0.04 -2.85,0.29 -0.52,0.23 -0.65,0.49 -1.34,0.69 -0.55,0.17 -0.94,-0.14 -1.41,-0.24l-0.62 -0.06c-0.28,-0.04 -0.45,-0.08 -0.72,-0.15 -0.47,-0.12 -0.69,-0.53 -0.89,-0.96 -0.76,0.07 -1.3,0.03 -2.11,0.15 -0.65,0.09 -0.34,-0.07 -0.89,-0.11 -0.45,-0.03 -0.74,0.16 -1.02,0.21 -0.19,0.04 -1.53,-0.18 -1.72,-0.25 -0.62,-0.26 -0.59,-0.78 -0.89,-1.42 -0.14,-0.31 -0.28,-0.39 -0.39,-0.84 -0.15,-0.59 -0.07,-0.42 -0.37,-0.85 -0.22,-0.32 -0.2,-0.44 -0.37,-0.87 -0.15,-0.41 -0.26,-0.44 -0.43,-0.78 -0.15,-0.3 -0.2,-0.54 -0.37,-0.86 -0.19,-0.32 -0.25,-0.47 -0.41,-0.8 -0.32,-0.64 -0.4,-0.86 -0.67,-1.7 -0.23,-0.68 -0.5,-1.07 -0.66,-1.83 -0.17,-0.8 -0.5,-1.09 -0.68,-1.81 -0.36,-1.42 -0.51,-0.74 -0.07,-1.66 0.22,-0.47 -0.07,-1.41 -0.18,-2.04 -0.24,-1.46 -0.49,-2.92 -0.73,-4.38 -0.17,-1.01 -0.43,-1.17 -0.61,-1.92 -0.09,-0.4 -0.33,-1.67 -0.46,-2 -0.21,-0.51 -0.71,-0.93 -0.62,-1.8 0.08,-0.73 0.37,-0.79 -0.02,-1.93 -0.63,-1.82 0.24,-1.32 -0.2,-3.74 -0.07,-0.38 -0.59,-1.39 -0.79,-1.68 -0.36,-0.49 -0.9,-0.63 -0.61,-1.35l1.26 -2.96c0.21,-0.51 0.68,-1.95 0.68,-2.47 -0.01,-1.23 0.44,-0.81 0.55,-2.06 0.07,-0.8 0.27,-1.32 0.64,-1.94 0.69,-1.15 0.74,-1.47 1.62,-2.71 0.33,-0.46 0.6,-0.84 0.93,-1.3 0.63,-0.89 1.33,-1.58 1.96,-2.47 0.35,-0.49 0.71,-0.76 1.14,-1.16 0.79,-0.73 1.62,-1.42 2.43,-2.13 0.24,-0.21 0.4,-0.32 0.64,-0.53 1.07,-0.99 3.46,-2.53 4.7,-3.46 4.05,-3.04 8.57,-8.78 9.31,-13.83 0.61,-4.18 -0.38,-9.26 -1.76,-12.39 -2.18,-4.96 -6.37,-7.92 -11.86,-5.75 -3.9,1.55 -6.89,3.84 -9.03,6.73 -2.5,3.39 -3.85,7.59 -4.17,12.36zm28.04 -42.15c2.5,0 4.53,2.03 4.53,4.53 0,2.5 -2.03,4.53 -4.53,4.53 -2.5,0 -4.53,-2.03 -4.53,-4.53 0,-2.5 2.03,-4.53 4.53,-4.53z"/>
   <path fill="white" d="M338.65 163.28c-1.5,-2.29 -1.56,-2.57 -2.63,-5.08 -2.13,-4.98 -8.45,-14.37 -11.71,-19.67 -1.79,-2.93 0.65,-9.58 -1.53,-13 -0.52,0.33 -0.75,0.27 -1.33,1.71 -0.28,0.7 -0.32,1.37 -0.59,2.13 -0.6,-0.47 -0.18,0.12 -0.84,-1.01 -0.08,-0.14 -0.47,-1.1 -0.55,-1.33 -0.28,-0.72 -0.59,-1.58 -0.95,-2.47 -1.58,-3.98 -0.81,-3.52 -2.73,-4.37l-0.31 4.07c-1.3,-2.1 -0.86,-2.72 -3.15,-2.81 0.15,2.99 1.09,4.77 1.7,7.57 -1.6,-1.61 -2,-3.54 -3.88,-4.32 -0.03,2.65 2.36,7.01 3.58,9.03 2.23,3.71 3.46,3.06 5.17,7.36 1.88,4.71 5.79,13.06 6.79,17.73 -3.68,-3.1 -7.74,-7.93 -11.01,-12.07 -4.12,-5.21 -3.97,-3.45 -3.49,-7.21 0.28,-2.22 -1.37,-6.68 -3.3,-7.6 -0.43,2.61 0.28,2.37 0.38,4.67 -4.81,-2.07 -3.02,-5.95 -7.17,-7.83l2.29 5.84c-1.83,-2.01 -3.11,-3.18 -5.67,-4.65l-1.53 1.93c1.26,2.22 3.63,3.9 4.45,5.81l-5.15 -1.74c1.3,3.58 2.38,1.32 5.17,4.56 7.33,8.54 1.54,-1.45 11.71,15.28 8.46,13.91 7.86,9.67 11.98,15.02 5.63,7.3 6.16,9.57 10.72,16.28 1.2,1.77 3.59,3.78 3.68,5.54 0.19,3.81 -4.69,5.64 -0.94,13.9 1.04,2.29 2.84,13.55 2.67,14.91 -0.53,4.12 -1.52,2.78 0.09,6.87 -4.24,2.04 0.1,3.8 -6.93,9.38 -5.21,4.14 -3.93,4.24 -5.6,6.47 -3.36,4.53 -5,6.22 -8.33,11.91 -1.33,2.28 -4.35,8.6 -6.08,9.83 -3.92,2.81 -5.27,4.05 -6.28,10.18 -0.66,4 -3.29,7.52 -5.07,10.76 -1.97,3.56 -4.04,7 -5.98,10.42 -1.85,3.25 -3.82,7.13 -5.78,10.09 -3.22,1.32 -2.15,-0.79 -4.73,3.03 -5.12,7.56 -10.5,7.06 -13.03,9.99 0.66,4.77 7.64,3.67 12.17,2.6 4.43,-1.06 10.17,-0.38 13.6,-2.27 1.44,-6.24 -3.65,-6.87 3.06,-15.75 1.44,-1.9 3.06,-3.84 4.6,-5.52 1.73,-1.88 3.51,-3 5.24,-4.87 4.79,-5.16 5,-10.07 7.04,-13.21 1.69,-2.59 2.59,-2.68 3.78,-6.33 0.9,-2.78 2.66,-3.96 4.79,-5.26 -0.57,6.21 1.24,4.28 2.21,8.5 0.96,4.23 4.52,26.54 3.13,27.92 -3.46,3.42 -1.44,5.06 -4.15,7.1 -1.82,1.37 -5.51,2.65 -6.7,4.2 0.52,5.19 7.83,4.04 11.4,2.92 4.01,-1.27 9.12,-1.22 12.51,-3.41 -0.69,-6.16 -4.77,-7.55 -4.54,-13.01 0.32,-7.75 3.24,-17.88 -0.17,-26.14 -1.92,-4.64 -1.05,-2.58 -0.64,-4.13 1.78,-6.79 -1.5,-6.13 4.43,-12.59 3.25,-3.54 6.71,-6.35 11.26,-11.4 4.87,-5.39 8.28,-6.77 7.2,-15.42 -0.7,-5.64 -2.37,-3.88 0.56,-8.63 2.1,-3.41 1.98,-4.99 1.78,-9.43 -0.3,-6.93 -0.98,-13.86 -2.14,-20.59 -0.75,-4.36 0.59,-6.77 -1.25,-10.38 -2.58,-5.05 -3.72,-4.89 -4.16,-7.29 1.45,-0.42 4.04,-1.61 5.22,-2.51 1.26,-0.97 0.94,-0.9 1.75,-2.1 1.42,-2.1 0.06,-1.07 1.91,-1.69l1.08 8.39c0.2,2.71 0.42,5.39 1.04,7.98 1.16,4.84 3.77,9.43 7.62,10.98 -2.08,-9.53 0.57,-25.07 -5.87,-30.52 -1.66,-1.39 -1.98,-0.84 -3.28,-1.56 -2.5,-1.38 -0.93,-4.36 -5.8,-7.2 -2.66,-1.55 -4.42,-1.14 -7.27,-1.81 -2.44,-0.58 -4.74,-2.72 -6.75,-0.93 -1.99,3.03 1.83,1.77 -1.73,5.96 -2.07,2.43 -1.11,3.75 -3.62,5.12 -0.53,-0.4 -0.26,-0.14 -0.77,-0.73 -0.02,-0.03 -0.38,-0.49 -0.43,-0.55l-2.22 -3.55zm-57.22 -59.9c-14.81,5.14 -7.03,26.91 7.43,22.08 14.55,-4.86 7.29,-27.2 -7.43,-22.08z"/>
  </g>
 </g>
</svg>
