<?xml version="1.0" encoding="UTF-8"?>
<!DOCTYPE svg PUBLIC "-//W3C//DTD SVG 1.1//EN" "http://www.w3.org/Graphics/SVG/1.1/DTD/svg11.dtd">
<!-- Creator: CorelDRAW 2019 (64 Bit) -->
<svg xmlns="http://www.w3.org/2000/svg" xml:space="preserve" width="512px" height="326px" version="1.1" shape-rendering="geometricPrecision" text-rendering="geometricPrecision" image-rendering="optimizeQuality" fill-rule="evenodd" clip-rule="evenodd"
viewBox="0 0 501.86 319.77"
 xmlns:xlink="http://www.w3.org/1999/xlink">
 <g id="Camada_x0020_1">
  <metadata id="CorelCorpID_0Corel-Layer"/>
  <g id="_2288447410960">
   <g>
    <path fill="#141515" fill-rule="nonzero" d="M8.27 294.41l14.79 -3.52 -1.59 -6.91c-0.39,-1.7 -0.73,-2.57 -1.53,-3.45 -1.29,-1.43 -2.81,-1.58 -4.12,-1.27 -2.84,0.67 -3.03,3.23 -3.08,4.08 -1.02,-1.23 -2.38,-1.58 -3.44,-1.32 -1.3,0.3 -2.64,1.57 -2.75,3.67 -0.05,1.08 0.15,1.91 0.4,2.99l1.32 5.73zm1.42 -5.92c-0.18,-0.81 -0.57,-2.46 1.04,-2.84 1.63,-0.39 2.01,1.28 2.21,2.14l0.33 1.41 -3.24 0.77 -0.34 -1.48zm5.86 -1.6c-0.36,-1.54 -0.77,-3.32 1.03,-3.75 1.76,-0.42 2.19,1.43 2.49,2.73l0.42 1.85 -3.55 0.85 -0.39 -1.68zm-0.81 -22.16l1.36 7.36 -3.59 0.68 -1.27 -6.86 -2.81 0.53 1.28 6.87 -3.03 0.57 -1.33 -7.2 -2.78 0.53 2.04 11.02 14.93 -2.84 -2.06 -11.18 -2.74 0.52zm-13.64 -11.36l0.34 4.45 15.62 5.01 -0.31 -4.06 -3.08 -0.92 -0.53 -6.87 2.91 -1.5 -0.32 -4.12 -14.63 8.01zm9.49 -1.06l0.36 4.74 -6.04 -1.8 5.68 -2.94zm-0.18 -21.8l0.87 1.44c0.69,1.27 1.13,2.62 1.17,4.06 0.09,2.9 -1.5,5.52 -4.49,5.62 -2.78,0.08 -4.68,-2.23 -4.78,-5.44 -0.08,-2.67 1.04,-4.67 1.49,-5.32l-3.49 0.11c-0.45,0.8 -1.26,2.77 -1.17,5.58 0.18,6.26 4.29,9.18 8.12,9.07 3.89,-0.13 7.66,-3.23 7.48,-9.22 -0.06,-1.96 -0.45,-3.78 -1.7,-6.01l-3.5 0.11zm-9.17 -19.88l-0.3 3.86 6.09 0.47 -0.58 7.62 -6.09 -0.47 -0.29 3.87 15.15 1.19 0.29 -3.88 -6.13 -0.48 0.58 -7.62 6.13 0.48 0.3 -3.85 -15.15 -1.19zm3.7 -25l-2.72 14.8 2.81 0.53 1 -5.49 12.14 2.29 0.71 -3.84 -12.14 -2.3 1 -5.46 -2.8 -0.53zm15.38 -11.28l-1.69 7.28 -3.56 -0.85 1.58 -6.8 -2.77 -0.66 -1.58 6.8 -3 -0.72 1.66 -7.13 -2.75 -0.66 -2.54 10.92 14.79 3.54 2.57 -11.07 -2.71 -0.65zm-5.82 -22.12l-1.24 3.58 8.45 3.01 -11.14 4.78 -1.14 3.31 14.34 5.1 1.24 -3.61 -8.87 -3.15 11.65 -4.89 1.05 -3.03 -14.34 -5.1zm7.9 -18.86l-1.55 3.45 8.16 3.77 -11.52 3.74 -1.43 3.19 13.83 6.39 1.56 -3.48 -8.56 -3.95 12.04 -3.81 1.31 -2.92 -13.84 -6.38zm3.79 -7.47l-1.8 3.43 13.42 7.24 1.8 -3.44 -13.42 -7.23zm7.84 -12.09c-2.12,1.6 -3,2.86 -3.6,3.92 -1.92,3.34 -1.15,6.07 0.85,7.25 2.78,1.63 5.09,-0.25 6.84,-1.78 1.6,-1.41 2.31,-2.01 3.18,-1.5 1.17,0.69 0.3,2.27 0.05,2.7 -1.12,1.95 -2.92,2.93 -4.29,3.67l2.83 1.67c0.43,-0.2 2.68,-1.72 3.97,-3.97 1.14,-1.99 2.14,-5.72 -0.91,-7.51 -2.54,-1.5 -4.68,-0.1 -6.24,1.23 -1.77,1.52 -2.98,2.56 -3.77,2.1 -0.14,-0.08 -1.05,-0.7 0.07,-2.65 0.97,-1.71 2.75,-2.88 3.72,-3.54l-2.7 -1.59zm12.66 -20.71l11.88 9.62 4.36 -5.55c1.07,-1.36 1.54,-2.17 1.72,-3.35 0.32,-1.92 -0.51,-3.22 -1.55,-4.07 -2.29,-1.85 -4.38,-0.42 -5.07,0.06 0.32,-1.56 -0.25,-2.86 -1.11,-3.56 -1.04,-0.84 -2.85,-1.12 -4.54,0.09 -0.86,0.63 -1.39,1.3 -2.07,2.16l-3.62 4.6zm5.46 -2.52c0.52,-0.66 1.56,-1.98 2.85,-0.94 1.3,1.06 0.25,2.4 -0.3,3.09l-0.89 1.13 -2.59 -2.1 0.93 -1.18zm4.86 3.68c0.98,-1.24 2.1,-2.67 3.55,-1.5 1.41,1.14 0.24,2.63 -0.58,3.67l-1.17 1.48 -2.85 -2.31 1.05 -1.34zm17.18 -14.07l-5.11 5.39 -2.64 -2.57 4.77 -5.03 -2.06 -2.01 -4.77 5.04 -2.21 -2.16 5 -5.29 -2.04 -1.98 -7.66 8.08 10.96 10.69 7.76 -8.21 -2 -1.95zm0.09 -17.7l-3.19 3.06 5.97 15.48 2.92 -2.8 -1.24 -3.01 4.94 -4.73 2.97 1.35 2.97 -2.84 -15.34 -6.51zm6.77 6.82l-3.4 3.26 -2.42 -5.9 5.82 2.64zm17.3 -13.4l-0.64 1.56c-0.61,1.31 -1.42,2.46 -2.55,3.35 -2.26,1.77 -5.29,2 -7.12,-0.39 -1.7,-2.24 -0.97,-5.16 1.53,-7.12 2.08,-1.63 4.34,-1.89 5.12,-1.9l-2.14 -2.81c-0.91,0.11 -2.95,0.6 -5.14,2.32 -4.88,3.83 -4.8,8.92 -2.46,11.99 2.39,3.13 7.07,4.4 11.74,0.73 1.54,-1.2 2.76,-2.59 3.8,-4.92l-2.14 -2.81zm9.14 -19.5l-3.12 2.22 3.51 5.07 -6.16 4.4 -3.51 -5.07 -3.14 2.23 8.74 12.62 3.13 -2.24 -3.53 -5.1 6.16 -4.4 3.54 5.11 3.11 -2.22 -8.73 -12.62zm23.02 -12.66l-3.65 1.85 0.47 9.6 -7.47 -6.05 -3.68 1.87 13.45 10.64 1.48 -0.75 -0.6 -17.16zm19.62 -0.49c-1.61,-3.68 -6.23,-5.87 -11.14,-3.65 -5.29,2.39 -6.23,7.57 -4.79,10.86 1.62,3.67 6.28,5.8 11.08,3.62 5.4,-2.44 6.29,-7.57 4.85,-10.83zm-3.54 1.7c1.22,2.79 -0.28,5.25 -2.5,6.26 -1.65,0.74 -4.78,1.05 -6.26,-2.32 -1.23,-2.79 -0.03,-5.16 2.46,-6.29 2.7,-1.22 5.15,-0.27 6.3,2.35zm-7.67 -10.47l-3.71 1.68 -0.8 4.57 1.86 -0.84 1.38 -3.17 3.3 1.05 1.89 -0.85 -3.92 -2.44zm26.92 8.57l-7.38 2.42 -3.8 -11.95 -3.64 1.2 4.66 14.67 11.03 -3.61 -0.87 -2.73zm13.03 -3.77l-7.1 2.05 -1 -3.57 6.62 -1.91 -0.78 -2.78 -6.62 1.91 -0.84 -3 6.94 -2.01 -0.77 -2.76 -10.63 3.07 4.16 14.83 10.78 -3.11 -0.76 -2.72zm4.06 -13.8l-3.74 0.87 3.4 15.03 3.73 -0.87 -3.39 -15.03zm34.37 -4.77l-10.44 0.8 1.13 15.38 3.83 -0.3 -0.47 -6.31 6.62 -0.5 -0.21 -2.91 -6.63 0.5 -0.24 -3.24 6.62 -0.51 -0.21 -2.91zm18.91 -0.72l-3.83 0.12 0.22 7.63c0.04,1.36 0.06,1.95 -0.19,2.63 -0.29,0.8 -1.27,2.3 -3.47,2.37 -1.5,0.05 -3.05,-0.68 -3.59,-2.38 -0.3,-0.85 -0.32,-1.75 -0.34,-2.39l-0.23 -7.64 -3.83 0.12 0.25 8.5c0.07,2.48 0.66,3.55 1.29,4.35 2.13,2.63 5.29,2.57 6.47,2.54 2.34,-0.07 4.82,-0.73 6.32,-2.68 1.24,-1.64 1.21,-3.56 1.17,-4.79l-0.24 -8.38zm18.68 1.27l-14.8 -1.13 -0.21 2.89 5.49 0.41 -0.93 12.49 3.85 0.3 0.92 -12.49 5.47 0.41 0.21 -2.88zm12.73 14.18l-7.32 -0.9 0.43 -3.68 6.84 0.84 0.34 -2.88 -6.83 -0.83 0.36 -3.1 7.17 0.88 0.34 -2.85 -10.97 -1.35 -1.82 15.31 11.13 1.37 0.33 -2.81zm19.44 -9.1l-4.01 -0.74 -5.3 7.96 -2.39 -9.39 -4.06 -0.75 4.47 16.71 1.63 0.3 9.66 -14.09zm16.1 12.65c1.06,-3.88 -1.14,-8.56 -6.31,-10.01 -5.59,-1.57 -9.56,1.82 -10.51,5.29 -1.05,3.87 1.21,8.52 6.28,9.95 5.69,1.6 9.6,-1.79 10.54,-5.23zm-3.81 -0.98c-0.8,2.95 -3.5,3.88 -5.84,3.22 -1.74,-0.49 -4.35,-2.28 -3.38,-5.83 0.8,-2.94 3.21,-4 5.83,-3.26 2.86,0.8 4.15,3.11 3.39,5.87zm0.64 -13.02l-3.9 -1.1 -3.48 3.01 1.95 0.55 3.06 -1.56 1.88 2.94 2 0.57 -1.51 -4.41zm15.4 23.91l-7.24 -2.81 4.42 -11.72 -3.58 -1.39 -5.43 14.4 10.82 4.2 1.01 -2.68zm12.46 5.52l-6.73 -3.05 1.49 -3.39 6.29 2.85 1.16 -2.64 -6.29 -2.85 1.25 -2.85 6.59 2.99 1.16 -2.63 -10.1 -4.56 -6.19 14.08 10.24 4.63 1.13 -2.58zm11.79 -8.1l-3.43 -1.74 -6.79 13.8 3.43 1.74 6.79 -13.8z"/>
    <g>
     <circle fill="#141515" cx="346.31" cy="38.87" r="3.51"/>
     <circle fill="#141515" cx="194.91" cy="10.17" r="3.51"/>
     <circle fill="#141515" cx="44.18" cy="108.61" r="3.51"/>
     <circle fill="#141515" cx="20.37" cy="304.12" r="3.51"/>
    </g>
   </g>
   <g>
    <path fill="#141515" d="M121.88 127.61c0,-0.62 0.01,-2.22 1.02,-0.86 0.56,0.76 1.1,1.26 1.99,1.64 1.54,0.66 2.19,0.43 4.17,0.43 0.06,0.27 0.09,0.27 -0.13,0.5 -0.34,0.37 -1.57,1.14 -2.26,2.03 -1.59,2.05 -1.38,1.43 -2.86,3.92 -0.14,0.23 -0.49,0.97 -0.8,0.97 -0.76,0 -0.31,-1.86 -0.35,-2.49 -0.01,-0.14 -0.06,-0.22 -0.04,-0.48 0.06,-0.89 0.12,0 -0.02,-1.13 -0.05,-0.34 0.02,-0.23 0.01,-0.66l-0.41 -2.66c-0.13,-0.41 -0.32,-0.64 -0.32,-1.21zm295.8 192.16c2.71,-5.48 5.17,-11.09 7.37,-16.83l-29.14 0 -5.67 0 -39 0 -5.67 0 -26.2 0c0.12,0.15 0.11,0.1 0.23,0.31 0.86,1.53 -0.17,2.32 -1.57,2.84 -2.68,0.98 -4.84,0.48 -6.26,0.68 -1.44,0.2 -2.82,-0.41 -3.99,-1.14 -0.41,-0.25 -0.6,-0.49 -0.94,-0.75l-1.04 -0.73c-1.19,-0.75 -3.02,-0.06 -4.25,-0.92 -0.13,-0.09 -0.25,-0.19 -0.34,-0.29l-0.96 0 -35.13 0 -0.06 0.02c-0.97,0.35 -2.3,0.55 -3.42,0.7 -0.96,0.12 -1.48,-0.05 -2.53,0.21 -0.58,0.14 -0.99,0.33 -1.5,0.6 -0.48,0.25 -0.86,0.5 -1.4,0.69 -0.99,0.35 -1.27,0.23 -2.46,0.29l-2.49 0.25c-0.95,0.01 -1.67,0.08 -2.67,0.08 -1.69,0 -3.32,0.08 -4.49,-0.91 -0.61,-0.52 -1.08,-1.16 -1.28,-1.93l-17.05 0 0 0.01c0.03,0.61 0.24,0.91 0.34,1.51 0.09,0.52 0.3,0.88 0.3,1.56 0,2.25 -1.55,2.95 -3.25,3.52 -1.35,0.45 -4.36,0.93 -5.7,0.91 -1.41,-0.01 -2.67,0.33 -4.11,0.33 -1.69,0 -4.79,0.31 -5.86,-1 -0.26,-0.31 -0.44,-0.73 -0.44,-1.26 0,-1.95 2.43,-3.06 3.81,-4.02 1.55,-1.09 1.52,-1.16 1.46,-1.56l-0.97 0 -20.8 0 1.01 1.16c0.68,0.56 1.25,1.15 1.49,2.13l0.62 1.8c0,1.48 -1.32,2.2 -2.49,2.68 -0.23,0.09 -0.44,0.21 -0.67,0.3 -1.1,0.42 -2.16,0.62 -3.38,0.65 -0.38,0.01 -0.62,0.11 -0.9,0.15 -0.42,0.06 -0.59,-0.02 -0.89,-0.05 -1,-0.11 -1.56,-0.16 -1.97,-1.01 -0.14,-0.28 -0.22,-0.4 -0.35,-0.62 -0.18,-0.31 -0.35,-1.11 -0.45,-1.57 -0.2,-0.91 -0.14,-1.67 -0.99,-2.07 -0.64,-0.31 -1.19,-0.72 -1.81,-1.09 -1.25,-0.75 -0.95,-0.7 -1.16,-1.91 -0.04,-0.19 -0.06,-0.37 -0.07,-0.55l-6.29 0 -5.67 0 -5.47 0c-0.15,0.15 -0.29,0.26 -0.43,0.34 -1.22,0.65 -1.53,0.43 -2.22,1.89 -0.4,0.83 -0.35,1.8 -0.29,2.63 0.03,0.31 -0.01,0.65 0.01,0.96 0.03,0.69 0.34,1.08 0.15,1.76 -0.28,0.97 -0.77,1.86 -1.51,2.53l-2.38 1.74 -1.4 0.61c-0.73,0.25 -2.43,0.7 -3.33,0.7 -0.83,0 -1.42,-0.02 -1.94,-0.64l-0.11 -0.14c-0.39,-0.46 -0.57,-1 -0.95,-1.46 -0.24,-0.28 -0.47,-0.58 -0.47,-1.07 0,-1.69 0.28,-4.36 0.94,-5.91 0.15,-0.35 0.29,-0.56 0.44,-0.93 0.47,-1.15 0.87,-1.59 1.54,-2.5 0.14,-0.19 0.18,-0.35 0.2,-0.51l-22.38 0 -5.67 0 -39.8 0 -5.67 0 -26.95 0c2.2,5.74 4.66,11.35 7.36,16.83l361.43 0zm-208.85 -208.05c0,1.71 0.51,3.11 1.23,4.57 0.18,0.34 0.27,0.44 0.49,0.73l1.97 2.14c0.94,0.79 0.4,0.5 1.79,1.19 0.78,0.38 0.53,0.41 1.63,0.71 2.06,0.56 5.4,0.57 7.31,-0.65 0.89,-0.56 0.4,0.1 2.11,-1.36l0.22 -0.18c1.77,-1.52 3.25,-4.35 3.25,-6.67 0,-2.03 -0.02,-3.41 -0.96,-5.24 -0.15,-0.28 -0.28,-0.42 -0.44,-0.7 -0.19,-0.36 -0.22,-0.45 -0.45,-0.75 -1.04,-1.35 -2.32,-2.46 -3.92,-3.18 -1.59,-0.71 -2.3,-0.94 -4.31,-0.94 -1.36,0 -2.03,0.14 -3.18,0.54 -0.38,0.13 -0.53,0.25 -0.89,0.4 -1.17,0.48 -2.13,1.18 -3.01,2.07l-1.63 2.16 -0.74 1.76c-0.12,0.34 -0.18,0.58 -0.28,1.01 -0.14,0.62 -0.19,1.66 -0.19,2.39zm-68.72 -44.2c0,1.03 0.14,1.88 0.59,2.72l0.34 0.46c1.95,1.92 2.69,1.74 5.12,1.74 0.66,0 1.15,-0.26 1.55,-0.55 0.52,-0.4 0.72,-0.49 1.15,-1.03 0.32,-0.41 0.58,-0.8 0.79,-1.3 0.76,-1.77 0.08,-3.91 -1.21,-5.21 -0.26,-0.26 -0.34,-0.28 -0.63,-0.5 -0.56,-0.4 -0.89,-0.61 -1.6,-0.73 -1.3,-0.22 -1.37,-0.34 -3.09,0.15 -0.9,0.26 -0.96,0.29 -1.54,0.88 -0.65,0.66 -1.47,2.44 -1.47,3.37zm287.02 229.75c4.51,-12.91 7.73,-26.42 9.5,-40.38l-40.72 0 0 40.38 31.22 0zm-36.89 -40.38l-39 0 0 40.38 39 0 0 -40.38zm-44.67 0l-13.95 0 -0.15 0.22 -2.11 3.85c-0.51,0.85 -2.22,4.15 -2.49,5.01 -0.08,0.23 -0.09,0.34 -0.18,0.55 -0.5,1.17 0.27,1.41 0.26,2.96 0,0.14 -0.04,0.08 -0.04,0.32 0,1.39 0.19,4.9 0.5,6.12l1.65 5.2c0.53,1.08 0.81,2.41 0.33,3.58 -0.7,1.69 -2.34,1.82 -3.9,1.2l-1.21 -0.64c-0.4,-0.24 -0.73,-0.52 -1.08,-0.78 -0.71,-0.53 -1.33,-1.13 -1.92,-1.79 -1.15,-1.29 -1.24,-2.36 -1.52,-4.04 -0.11,-0.6 -0.12,-1.17 -0.25,-1.69 -0.35,-1.36 -1.48,-2.22 -2.51,-3.05 -1.08,-0.87 -1.81,-2.05 -2.19,-3.38 -0.5,-1.79 -0.41,-2.99 0.46,-4.71 0.15,-0.3 0.26,-0.41 0.46,-0.66 1.6,-2.03 2.22,-1.4 3.15,-3.87 0.41,-1.1 1.08,-2.03 1.6,-3.08l0.67 -1.32 -4.86 0 -0.25 0.27c-0.48,0.59 -0.11,3.01 -0.73,4.99 -0.39,1.23 -0.58,2.54 -0.87,3.81 -0.9,3.89 -1.57,7.79 -2.12,11.75 -0.2,1.39 -0.25,2.91 -0.44,4.24l-0.33 3.15c-0.13,0.69 -0.1,1.46 -0.23,2.1 -0.1,0.5 -0.14,2.79 -0.14,3.33 0,0.85 -0.17,1.36 -0.16,2.18l-0.2 2.07c-0.06,0.47 0.04,0.53 0.38,0.73 0.46,0.27 0.64,0.45 0.97,0.81l0.8 0.95 32.6 0 0 -40.38zm-45.32 0l-39.55 0 0 29.9 2.37 3.55c0.74,0.95 0.53,0.71 1.53,1.2 0.36,0.17 0.58,0.35 0.79,0.67 0.65,1 1.2,2.02 1.75,3.08 0.12,0.24 0.15,0.23 0.29,0.44 0.31,0.46 0.67,0.99 0.94,1.54l31.88 0 0 -40.38zm-45.22 0l-9.01 0 -0.84 1.59c-0.39,0.79 -1.99,3.29 -1.99,3.82 0,2.52 0.9,2.33 2.44,3.85 0.79,0.79 2.19,1.72 3.02,2.54 0.14,0.14 0.24,0.23 0.36,0.38 0.14,0.17 0.15,0.22 0.33,0.39 0.45,0.46 0.81,1.01 1.25,1.49 0.55,0.62 1.01,1.3 1.5,1.97 0.13,0.16 0.18,0.2 0.29,0.35l1.71 2.49c0.36,0.48 0.66,1.01 0.94,1.53l0 -20.4zm-33.04 0l-4.97 0 0 39.28c0.06,-0.15 0.1,-0.32 0.15,-0.52 0.12,-0.54 0.21,-0.83 0.36,-1.26 0.28,-0.79 0.42,-1.79 0.62,-2.68 0.26,-1.1 0.4,-1.45 0.6,-2.63l0.36 -2.14c0.04,-0.23 0.07,-0.55 0.1,-0.7l0.32 -1.3c0.57,-3.36 1.33,-1.74 1.32,-5.22 -0.01,-2.46 0.35,-4.12 0.4,-6.13 0.03,-1.07 0.57,-3.63 0.38,-4.48 -0.09,-0.41 -0.5,-0.58 -0.77,-0.86 -0.24,-0.26 -0.44,-0.64 -0.53,-1.07 -0.11,-0.51 0.63,-4.61 0.68,-5.76 0.02,-0.51 0.11,-1.01 0.2,-1.5 0.25,-1.6 0.13,-1.98 0.78,-3.03zm3.41 40.38l24.36 0c0.02,-0.01 0.03,-0.03 0.04,-0.04 -0.38,-0.57 -1.52,-0.29 -1.29,-1.29 0.59,-0.14 0.77,-0.04 1.4,0.13 0.62,0.16 0.75,0.3 1.08,-0.32 0.26,-0.49 0.83,-0.72 0.83,-1.35 0,-0.46 -0.81,-2.31 -1.07,-2.79 -0.15,-0.27 -0.34,-0.44 -0.53,-0.68l-1.02 -1.49c-0.25,-0.35 -0.27,-0.44 -0.47,-0.82 -0.13,-0.23 -0.13,-0.19 -0.26,-0.38 -0.27,-0.4 -0.41,-0.82 -0.64,-1.22l-1 -1.5c-0.22,-0.27 -0.44,-0.32 -0.49,-0.72 -0.08,-0.67 0.05,-0.53 -0.25,-1.04 -0.62,-1.05 -3.09,-3.68 -4.09,-4.7 -0.25,-0.25 -0.34,-0.43 -0.61,-0.69 -0.24,-0.24 -0.36,-0.34 -0.58,-0.63 -0.1,-0.14 -0.18,-0.23 -0.29,-0.35l-2.7 -2.94c-0.22,-0.29 -0.33,-0.39 -0.58,-0.63 -0.28,-0.28 -0.36,-0.45 -0.58,-0.71 -0.31,-0.38 -0.43,-0.15 -0.88,-0.33 -0.43,-0.17 -0.94,-0.95 -1.06,-1.44 -0.33,0.23 -0.21,0.36 -0.28,0.85 -0.05,0.36 -0.1,0.6 -0.16,0.97 -0.18,1.06 -0.53,2.69 -0.84,3.67l-1.14 3.38c-0.25,0.84 -0.68,1.6 -0.92,2.46l-1.55 4.11c-0.56,1.44 -1.95,3.05 -3.11,5.92 -0.12,0.29 -0.15,0.51 -0.26,0.86 -0.47,1.44 -0.86,2.57 -1.06,3.71zm-14.05 -40.38l-11.94 0c0.04,0.23 0.03,0.45 -0.06,0.6 -0.45,0.68 -1.7,0.47 -2.45,0.55 -0.23,0.02 -0.57,0.14 -0.81,0.13 -0.4,-0.01 -0.33,-0.08 -0.82,0.01 -1.4,0.25 -2.01,-0.05 -2.01,0.74 0,0.53 0.16,1.1 0.16,1.37l-0.66 1.99c-0.08,0.35 -0.15,0.73 -0.24,1.13 -0.22,0.92 -0.46,1.11 -0.22,2.12 0.14,0.58 0.1,1.25 0.17,1.84 0.07,0.64 -0.02,0.76 0.01,1.12 0.06,0.76 0.01,1.13 -0.14,1.92 -0.3,1.59 0.28,2.48 0.28,3.59 0,1.38 0.07,2.8 -0.14,4.13l-0.3 1.8c-0.29,1.65 -0.42,2.6 -1.03,4.22 -0.1,0.28 -0.16,0.42 -0.26,0.78 -0.08,0.29 -0.14,0.54 -0.24,0.81 -0.36,0.96 -0.24,1.3 -0.4,1.7 -0.1,0.23 -0.28,0.48 -0.34,0.71 -0.09,0.37 -0.02,0.49 -0.16,0.88 -0.11,0.31 -0.19,0.46 -0.34,0.71 -0.42,0.68 -0.1,1.2 -0.21,1.89 -0.15,1.02 -0.53,1.46 -0.53,2.61 0.23,0.06 0.32,0.11 0.57,0.15 0.29,0.05 0.29,0.01 0.49,0.16 0.75,0.52 0.48,1.77 0.15,2.44 -0.05,0.08 -0.11,0.18 -0.17,0.28l21.64 0 0 -40.38zm-39.1 7.89l0 32.49 6.95 0c0.27,-0.98 0.87,-2.39 1.11,-3.08 0.26,-0.73 0.29,-1.25 0.29,-2.21 0,-0.5 0.12,-0.77 0.07,-1.19 -0.04,-0.38 -0.15,-0.57 -0.15,-1.06 0,-0.46 0.4,-0.7 0.4,-0.97 0,-0.68 -0.22,-0.72 -0.29,-1.16 -0.04,-0.28 0.13,-0.49 0.13,-0.86 0,-0.47 -0.13,-0.78 -0.07,-1.2 0.06,-0.44 0.39,-0.6 0.39,-0.82 0,-0.85 -0.81,-0.96 -0.88,-3.71 -0.01,-0.39 -0.07,-0.4 -0.09,-0.8 -0.02,-0.65 0.1,-1.08 0.16,-1.62 0.1,-0.94 0.26,-2.01 0.65,-2.9 0.19,-0.41 0.33,-0.81 0.6,-1.18 0.21,-0.28 0.61,-0.71 0.65,-1.1 0.03,-0.25 -0.22,-1.08 -0.3,-1.41 -0.27,-1.16 -0.02,-2.59 -0.72,-3.71 -0.56,-0.9 -0.7,-2.41 -0.97,-3.47 -0.18,-0.73 -0.39,-2.78 -0.39,-3.57l-0.24 0c-0.65,0 -2.41,1.55 -3.12,1.97 -0.67,0.39 -1.14,0.79 -1.95,1.03l-2.23 0.53zm-17.13 -7.89l-28.14 0 0 40.38 22.99 0c-0.24,-0.88 -0.31,-1.89 0.58,-2.28 0.59,-0.26 0.81,0.18 1.34,0.22 0.26,-0.49 0.26,-1.05 0.59,-1.59 1.08,-1.79 0.05,-2.52 0.54,-3.41 0.16,-0.28 0.25,-0.32 0.31,-0.74l0.01 -0.79c0,-3.33 1.05,-2.17 0.8,-3.87 -0.06,-0.42 -0.16,-0.55 -0.16,-1.05l-0.14 -1.07c-0.07,-0.38 0.01,-0.79 -0.03,-1.18 -0.04,-0.38 -0.15,-0.57 -0.15,-1.06 0,-1.1 0.22,-2.1 0.32,-3.15 0.05,-0.66 0.36,-2.07 0.65,-2.58l1.22 -2c0.94,-1.48 1.29,-2.17 0.91,-3.84 -0.13,-0.58 0.06,-1.24 -0.34,-1.59 -0.8,-0.71 -0.74,-0.73 -0.83,-1.92 -0.06,-0.96 -0.32,-1.36 -0.32,-2.5l-0.08 -4.12c-0.02,-0.36 -0.08,-0.3 -0.06,-0.63l-0.01 -1.23zm8.42 40.38l3.04 0 0 -19.76 -0.01 0.04c-0.43,0.91 -0.25,1.4 -0.25,2.5 0,2.21 -0.5,2.65 -1.27,4.53 -0.27,0.64 -0.76,1.14 -1.13,1.69 -1.64,2.43 -0.67,1.7 -0.98,2.56 -0.15,0.41 -0.74,0.8 -1.08,1.51 -0.36,0.75 -0.53,1.88 -0.61,2.87 -0.07,1 1.09,0.42 1.72,1.73 0.15,0.31 0.46,1.57 0.57,2.33zm-42.23 -40.38l-39.8 0 0 40.38 39.8 0 0 -40.38zm-45.47 0l-38.53 0c1.77,13.96 4.99,27.47 9.5,40.38l29.03 0 0 -40.38zm361.43 -5.67c0.63,-6.48 0.96,-13.04 0.96,-19.68 0,-7.06 -0.38,-14.05 -1.1,-20.92l-24.58 0c-3.43,7.62 -7.15,15.12 -11.15,22.34 -1.45,2.61 -3.24,6.15 -5.49,9.92l0 8.34 41.36 0zm-53.35 -40.6l-31.66 0c-0.06,0.22 -0.13,0.42 -0.21,0.6 -0.19,0.41 -0.25,0.63 -0.39,1.07 -0.09,0.3 -0.24,0.63 -0.42,0.97l0 37.96 5.25 -0.01c6.18,-8.62 13.79,-18.74 19.53,-27.62 2.9,-4.48 5.49,-8.75 7.9,-12.97zm-54.1 0l-4.12 0c0.04,0.06 0.08,0.12 0.11,0.19 0.25,0.52 0.12,1.11 0.51,1.51 0.12,0.13 0.21,0.19 0.33,0.32 0.59,0.62 0.3,1.24 0.57,2.01 0.27,0.77 1.71,1.23 2.35,1.68 0.61,0.43 0.92,0.95 1.37,1.29 0.28,0.22 0.43,0.32 0.78,0.51 1.4,0.76 0.73,0.92 3.3,1.94 1.6,0.63 2.43,2.28 2.76,3.86 0.16,0.78 0.42,1.22 0.71,1.95 0.14,0.35 0.17,0.64 0.31,0.98 0.1,0.28 0.88,1.22 1.16,1.51l1.03 1.62c0.67,1.17 0.52,2.93 0.52,4.24 0,2.44 -0.83,3.26 -1.26,4.8 -0.22,0.79 -0.57,1.36 -0.89,2.09l-1.1 2.69c-0.41,0.96 -1.05,2.78 -1.57,3.59 -0.41,0.62 -0.63,1.36 -0.96,2.03 -0.12,0.24 -0.17,0.29 -0.3,0.51l-0.67 1.28 10.81 0 0 -32.22c-1.23,0.65 -2.58,1.12 -3.74,1.12 -1.57,0 -3.64,-0.04 -4.98,-0.82 -0.28,-0.17 -0.62,-0.29 -0.93,-0.44 -0.95,-0.48 -2.48,-1.67 -3.22,-2.51 -0.93,-1.05 -0.8,-1.13 -1.18,-1.72 -0.61,-0.94 -1.07,-1.75 -1.42,-2.87 -0.11,-0.37 -0.2,-0.79 -0.28,-1.14zm-9.44 40.6l3.37 0c0.1,-0.37 0.19,-0.74 0.29,-1.14l0.94 -3.74c0.17,-0.57 0.31,-1.28 0.48,-1.86 0.34,-1.22 1.2,-2.15 -0.5,-1.47 -0.78,0.32 -1.17,0.67 -1.79,1.2l-1.23 1.18c-0.01,0.02 -0.03,0.04 -0.04,0.05l-0.11 0.13c-0.01,0.01 -0.02,0.03 -0.03,0.04 -0.02,0.02 -0.03,0.04 -0.04,0.05 -0.51,0.6 -1.51,1.02 -1.51,1.88 0,0.85 0.01,1.73 0.14,2.53 0.05,0.38 0.01,0.72 0.03,1.1l0 0.05zm-26.21 -40.6l-10.24 0c-0.16,1.38 -0.06,2.79 0.25,4.48 0.28,1.48 0.13,2.75 -0.44,4.19 -0.42,1.05 -1.07,1.75 -1.74,2.54 -0.25,0.3 -0.09,0.56 0.07,0.94 0.25,0.58 1.47,2.47 0.13,3.37 -0.23,0.15 -1.01,0.43 -1.35,0.43 -0.73,0 -1.82,-0.22 -2.41,-0.56 -0.57,-0.33 -0.93,-0.84 -1.27,-1.4 -0.98,-1.63 -3.46,-1.8 -1.29,-6.81 0.74,-1.71 0.94,-3.11 1.25,-4.95 0.13,-0.79 0.33,-1.5 0.52,-2.23l-16.95 0 0 40.6 39.55 0 0 -3.7 -0.1 -0.64c-0.1,-0.65 -0.09,-1.25 -0.23,-1.87 -0.15,-0.73 -0.6,-4.17 -0.6,-5.05 0,-0.42 0.11,-1.22 0.02,-1.54l-0.43 -1.35c-0.25,-0.68 -0.37,-1.42 -0.5,-2.17 -0.37,-2.25 -0.3,-4.57 -0.29,-6.88 0,-0.55 -0.12,-1.08 -0.16,-1.61 -0.05,-0.69 -0.01,-1.12 -0.1,-1.76 -0.29,-1.96 -0.44,-4.1 -1.33,-5.85 -0.21,-0.41 -0.36,-0.81 -0.52,-1.25 -0.32,-0.88 -0.66,-1.63 -0.91,-2.64 -0.35,-1.42 -0.34,-0.79 -0.74,-2.89 -0.09,-0.46 -0.15,-0.93 -0.19,-1.4zm-59.3 0l-17.85 0 0 40.6 9.08 0c0.12,-0.3 0.24,-0.56 0.35,-0.74 0.23,-0.4 0.3,-0.69 0.5,-1.11 0.2,-0.43 0.4,-0.65 0.59,-1.02 0.21,-0.4 0.33,-0.75 0.56,-1.13l3.48 -6.29c0.47,-0.91 1.02,-1.76 1.45,-2.66 0.1,-0.21 0.17,-0.29 0.29,-0.51 1.1,-2.02 0.85,-1.62 1.19,-3.73l0.97 -5.57c0.26,-0.99 0.69,-3.66 0.69,-4.71 0,-0.31 -1.01,-0.93 -1.26,-1.24 -0.24,-0.31 -0.31,-0.43 -0.58,-0.72 -0.21,-0.22 -0.34,-0.46 -0.34,-0.86l0.52 -4.24c0.06,-0.35 0.1,-0.77 0.13,-1.09 0.04,-0.44 0.08,-0.62 0.08,-1.13l0.15 -3.85zm14.08 40.6l6.08 0 0 -8.21 -0.17 0.15c-0.78,0.43 -0.75,0.33 -1.25,1.01l-2.08 3c-0.67,1 -1.92,2.54 -2.35,3.54l-0.23 0.51zm-37.6 -40.6l-23.55 0c0.02,0.05 0.04,0.1 0.06,0.14 0.15,0.35 0.33,0.58 0.45,1 0.12,0.43 0.18,0.75 0.29,1.16 0.09,0.31 0.19,0.84 0.32,1.14 0.13,0.28 0.39,0.55 0.39,0.98 0,1.55 -3.45,2.47 -2.15,3.52 0.22,0.17 0.25,0.2 0.44,0.37 0.43,0.38 0.44,0.29 0.77,0.84 0.87,1.47 0.87,3.26 1.61,4.76 0.51,1.02 1.5,1.68 2.37,2.39 0.85,0.69 1.86,1.18 2.64,1.96 0.56,0.56 1.08,1.4 1.16,2.23 0.04,0.38 -0.23,1.57 -0.38,2.01 -0.23,0.72 -0.2,0.68 0.02,1.41 0.2,0.67 0.22,1.26 0.22,1.96 0,1.42 -0.82,1.27 0.56,3.63 0.56,0.94 0.81,2.7 1.1,3.82 0.17,0.67 0.02,1.24 0.15,1.86 0.13,0.58 0.31,0.97 0.29,1.66 -0.03,0.77 -0.16,0.92 0.01,1.76 0.11,0.5 0.2,1.06 0.35,1.58 0.04,0.14 0.07,0.28 0.09,0.42l12.79 0 0 -40.6zm-62.59 0l-21.78 0 0 40.6 27.98 0c0,-0.37 0.03,-0.75 0.05,-1.03 0.01,-0.26 -0.06,-0.25 -0.06,-0.55 0,-0.38 0.07,-0.24 0.07,-0.56 0,-0.33 -0.07,-0.19 -0.07,-0.57 0,-0.39 0.09,-0.26 0.07,-0.63l-0.1 -1.91c0.05,-0.62 -0.05,-0.72 -0.05,-1.25 0,-0.72 -0.01,-0.6 -0.27,-1.1 -0.18,-0.37 -0.27,-0.63 -0.49,-0.96 -1.01,-1.49 -1.78,-2.79 -0.78,-4.65 0.13,-0.25 0.25,-0.45 0.39,-0.74 0.47,-1.03 1.1,-1.91 1.21,-3.14 0.02,-0.21 -0.02,-0.36 -0.02,-0.47 -0.03,-0.64 0.17,-0.93 -0.35,-1.78 -0.34,-0.56 -0.43,-1.34 -0.63,-2.03 -0.39,-1.34 -0.69,-3.73 -1.24,-4.81 -0.47,-0.94 -0.56,-1.72 -0.98,-2.49 -0.71,-1.31 -0.72,-3.83 -0.85,-4.38 -0.12,-0.49 -0.2,-0.89 -0.31,-1.39 -0.33,-1.36 0.07,-1.29 -0.65,-2.82 -0.35,-0.74 -0.45,-1.61 -0.89,-2.58 -0.1,-0.21 -0.18,-0.49 -0.25,-0.76zm-27.45 0l-39.8 0 0 40.6 39.8 0 0 -40.6zm-45.47 0l-39.04 0c-0.72,6.87 -1.09,13.86 -1.09,20.92 0,6.64 0.33,13.2 0.96,19.68l39.17 0 0 -40.6zm360.61 -5.67c-1.68,-12.64 -4.56,-24.91 -8.51,-36.69 -1.74,6.44 -3.56,12.36 -5.99,19.08 -2.13,5.89 -4.44,11.78 -6.92,17.61l21.42 0zm-30.64 -41.17l-9.9 0 0 23.23c0.99,-2.14 1.98,-4.34 2.99,-6.61 2.2,-4.93 4.69,-10.84 6.91,-16.62zm8.68 -26.6c-3.17,-5.87 -6.61,-11.57 -10.33,-17.08 -0.97,0.62 -1.85,1.17 -2.14,1.36 -6.29,4.94 -9.91,11.17 -11.32,13.36 -2.4,3.68 -5.19,9.86 -7.12,14.22 -1.75,-13.42 0.06,-28.26 8.94,-38.98 0.98,-1.04 1.75,-1.88 2.39,-2.59 4.32,-4.44 4.29,-4.29 8.3,-7.48 -4.05,-0.32 -8.03,0.29 -13.12,1.64 -21.35,5 -33.66,18.5 -36.92,21.49 0,-10.29 11.02,-30.49 22.02,-37 -35.93,-33.25 -85.28,-54.79 -138.22,-54.79 -85.09,0 -157.83,52.54 -187.27,126.78l26.14 0 5.67 0 33.84 0c-0.13,-0.08 -0.26,-0.16 -0.4,-0.26l-0.94 -1.08c-0.59,-0.79 -0.71,-1.08 -0.39,-2.02 0.37,-1.09 -0.61,-1.93 0.27,-2.55 0.23,-0.15 0.57,-0.22 0.57,-0.56 0,-0.56 -0.14,-0.98 0,-1.45 0.19,-0.68 0.29,-0.51 0.78,-0.84 0.35,-0.23 0.36,-0.66 0.54,-1.07 0.15,-0.36 0.4,-0.61 0.62,-0.91 0.27,-0.4 0.58,-0.45 0.99,-0.62 0.55,-0.24 0.88,-1.64 0.94,-2.21 0.2,-1.86 0.6,-0.99 0.72,-2.42 0.11,-1.31 0.43,-1.21 0.98,-2.17 0.48,-0.82 0.83,-2.8 0.88,-3.8l0.09 -3.95c-0.06,-0.42 0,-0.42 0,-0.8l-0.18 -2.17c-0.06,-0.58 -0.28,-1.34 -0.44,-1.9 -0.26,-0.91 -0.61,-3.01 -0.96,-3.72 -0.4,-0.81 -0.56,-1.8 -0.95,-2.59 -0.55,-1.12 -0.27,-1.74 -0.55,-2.76 -0.25,-0.91 -0.29,-2.05 -0.44,-3.02l0.48 -5.26c0.82,-3.21 0.26,-1.99 1.93,-5.09 0.93,-1.71 2.13,-3.27 3.5,-4.65 0.97,-0.97 2.13,-1.76 3.23,-2.58l1.37 -0.97c0.52,-0.39 1.02,-0.42 1.61,-0.73 0.62,-0.31 0.97,-0.44 1.79,-0.55 1.23,-0.17 2.78,0 3.97,0.33 0.61,0.17 1.14,0.34 1.67,0.67 0.47,0.29 1,0.55 1.36,0.97 0.62,0.74 1.24,1.48 1.73,2.32 0.09,0.16 0.1,0.14 0.2,0.36 0.15,0.34 0.18,0.53 0.37,0.84 0.16,0.26 0.27,0.48 0.37,0.76l0.72 1.61c0.14,0.28 0.27,0.41 0.4,0.74 0.34,0.87 0.33,1.85 0.73,2.73 0.42,0.93 0.37,5.69 0.22,6.55l-0.67 2.88c-0.11,0.28 -0.19,0.52 -0.31,0.82 -0.24,0.58 -0.54,0.95 -0.78,1.55 -0.29,0.69 -1.26,2.25 -1.7,2.91l-0.88 1.45c-0.27,0.44 -0.7,0.87 -1.02,1.32 -0.17,0.25 -0.37,0.39 -0.56,0.65 -0.51,0.66 -1.2,1.13 -1.86,1.61l-3.17 2.64c-0.2,0.21 -0.32,0.41 -0.54,0.59 -1.06,0.85 -1.65,1.52 -2.47,2.21l-1.67 1.87c-0.42,0.74 -0.99,1.32 -1.46,2.01l-2.06 3.74c-0.65,1.4 -0.6,0.82 -0.8,2.67 -0.09,0.85 -0.41,1.05 -0.41,1.93 0,0.56 -0.06,0.59 -0.18,1.03l-0.76 2.63c-0.62,1.91 -0.69,1.65 0.03,2.49 0.48,0.56 0.94,1.62 1.1,2.37 0.35,1.59 -0.29,1.09 0.34,2.97 0.25,0.76 0.05,1.54 0.34,2.48l3.34 0 20.41 0c0.02,-0.08 0.05,-0.16 0.09,-0.23 0.15,-0.32 0.28,-0.46 0.43,-0.78 0.54,-1.17 1.14,-1.81 1.84,-2.83 0.21,-0.29 0.37,-0.33 0.62,-0.59 0.47,-0.47 1.01,-0.28 1.6,-0.26 0.09,-0.14 0.14,-0.19 0.24,-0.33 0.2,-0.29 0.39,-0.64 0.76,-0.77 0.97,-0.34 0.79,0.61 1.26,0.61 0.03,0 1.12,-0.47 1.23,-0.54 1.42,-0.79 2.56,-0.27 2.56,0.06 0,0.77 -0.46,0.75 0.54,0.99 0.67,0.16 0.4,0.41 0.86,0.75 0.43,0.32 0.59,0.28 0.76,0.85 0.05,0.16 0.13,0.5 0.15,0.67 0.03,0.28 -0.06,0.37 -0.06,0.69 0,1.46 0.18,0.84 0.81,1.69l0.02 0.02 2.26 0c-0.02,-0.28 0,-0.52 -0.03,-0.81 -0.03,-0.26 -0.13,-0.54 -0.15,-0.82 -0.1,-1.31 0.04,-2.56 -0.14,-3.73 -0.31,-2.02 0.32,-4.32 0.55,-6.34 0.16,-1.38 0.29,-0.21 -0.11,-2.17 -0.11,-0.57 -0.09,-0.77 -0.14,-1.47 -0.03,-0.41 -0.19,-0.91 -0.29,-1.32 -0.47,-1.87 -0.28,-3.2 -0.47,-4.21 -0.08,-0.46 -0.2,-0.87 -0.3,-1.32 -0.48,-2.31 0.01,-1.58 0.01,-3.23l-0.08 -2.02c0.01,-0.85 -0.16,-1.11 -0.16,-1.93 0,-0.75 -0.23,-1.19 -0.25,-1.86 0,-0.38 0,-0.72 -0.05,-0.99 -0.17,-0.81 -0.13,-1.14 -0.19,-1.91 -0.04,-0.6 -0.29,-1.15 -0.32,-1.78 -0.04,-0.9 -0.04,-1.85 -0.83,-2.31 -0.58,-0.34 -0.66,-0.59 -1.14,-0.96 -0.45,-0.35 -0.59,-0.71 -0.79,-1.31 -0.16,-0.5 -0.47,-0.89 -0.73,-1.36 -0.46,-0.81 -0.22,-1.78 -0.42,-2.72 -0.08,-0.39 -0.18,-0.44 -0.29,-0.76 -0.59,-1.75 -0.46,-0.77 -1.2,-1.95 -0.15,-0.23 -0.23,-0.53 -0.18,-0.75 0.1,-0.55 0.69,-0.78 1.31,-0.78 0.61,0 1.81,0.83 2.2,1.27 0.44,0.5 0.57,1.15 0.73,1.84 0.08,0.3 0.1,0.38 0.29,0.52 0.42,-0.31 0.06,-0.96 0.69,-2.55 0.38,-0.96 0.24,-1.15 0.82,-2.4 0.37,-0.79 0.5,-1.61 0.75,-2.47 0.62,-2.16 2.34,-1.79 2.34,-0.81 0,0.71 -0.36,1.95 -0.53,2.69 -0.23,1.01 -0.6,1.5 -0.6,2.55 0.25,0.06 0.27,0.1 0.45,-0.1 0.37,-0.41 0.53,-0.96 0.74,-1.45 0.85,-2.05 0.54,-1.31 1.57,-2.71l0.81 -1.29c0.11,-0.18 0.14,-0.26 0.28,-0.44 0.67,-0.91 1.96,-0.55 1.96,0.35 0,0.86 -0.47,1.12 -0.84,1.66 -0.48,0.7 -0.99,1.44 -1.31,2.24 -0.5,1.29 -1,1.53 -1,2.39 0.7,-0.19 1.65,-2.15 2.2,-2.8 0.12,-0.14 0.21,-0.19 0.32,-0.33 0.09,-0.12 0.16,-0.25 0.26,-0.39 0.44,-0.6 2.14,-1.26 2.14,-0.03 0,0.42 -0.55,1.28 -0.77,1.65 -0.37,0.62 -0.75,0.85 -1.03,1.31 -0.32,0.53 -0.69,0.78 -1.12,1.21 -0.18,0.18 -0.83,1.1 -0.87,1.4 0.42,-0.04 0.1,0 0.32,-0.09 0.79,-0.34 1.45,-1.11 1.94,-1.77 0.5,-0.67 1.7,-0.66 1.7,0.24 0,1.13 -2,3.04 -2.84,3.7 -1.26,0.99 -0.73,1.58 -1,3.44 -0.23,1.61 -1.08,1.48 -1.08,2.46 0,0.38 0.44,0.82 0.48,1.37 0.02,0.38 0,0.63 0.06,0.91 0.16,0.93 0.04,0.67 0.05,1.1l0.16 0.94c0.35,1.52 0.4,2.75 0.66,3.94 0.39,1.77 0.18,0.94 0.73,2.34l0.37 1.17c0.1,0.33 0.21,0.81 0.29,1.15 0.21,0.84 0.35,1.71 0.57,2.49l0.35 1.19c0.56,1.81 0.15,3.83 0.52,5.61 0.35,1.74 0.01,2.07 0.16,2.99 0.14,0.95 0.03,2.82 0.03,3.84 0,1.69 0.54,2.72 0.85,4.31 0.15,0.74 0.32,1.37 0.64,2.02 0.12,0.22 0.38,1.2 0.62,2.15l38.32 0 5.67 0 3.47 0 -0.11 -0.19c-0.75,-1.19 -1.45,-2.39 -2.33,-3.48l-2.51 -3.21c-0.11,-0.14 -0.23,-0.24 -0.36,-0.37l-0.68 -0.77c-0.39,-0.35 -2.16,-0.49 -3.1,-1.26 -0.49,-0.39 -1.17,-0.78 -1.51,-1.31 -0.37,-0.58 -0.6,-1.36 -1.22,-1.69 -1.06,-0.55 -2.85,-1.36 -3.47,-2.33 -0.82,-1.3 0.15,-1.42 0.56,-1.62 -0.19,-0.36 -0.27,-0.35 -0.48,-0.64 -0.55,-0.75 -0.28,-1.53 0.24,-1.53 0.89,0 1.74,0.88 1.64,0.23 -0.11,-0.77 -0.43,-0.45 -0.43,-2.65 0,-0.3 0.21,-0.61 0.39,-0.75 0.32,-0.23 0.44,-0.08 0.57,-0.48 0.09,-0.31 0.07,-0.53 0.2,-0.84 0.46,-1.1 1.11,-0.3 1.34,0.61 0.21,0.79 0.4,1.14 0.49,1.46 0.58,-0.02 0.44,-0.57 0.88,-0.57 0.98,0 0.79,1.73 1.3,2.98l0.64 1.38c0.11,0.24 0.27,0.43 0.4,0.65 0.36,0.6 0.81,1.17 1.31,1.67l3.58 3.52c0.62,0.47 2.27,2.13 3.05,2.83l3.74 3.45c0.35,0.35 0.65,0.65 1,1.01l1.05 0.96c0.2,0.2 0.33,0.33 0.53,0.53l1.49 1.48c0.21,0.25 0.33,0.31 0.56,0.5 0.11,0.09 0.26,0.24 0.43,0.43l17.23 0 0.02 -0.06c0.16,-0.4 0.23,-0.46 0.46,-0.75 0.6,-0.76 2.59,-1.94 3.47,-2.58 1.3,-0.95 -0.17,-1.11 0.87,-3.97 0.28,-0.78 0.37,-1.37 0.49,-1.69 0.18,-0.48 0.56,-0.91 0.96,-1.22 0.22,-0.18 0.45,-0.3 0.66,-0.47 0.54,-0.42 0.96,-1.37 1.22,-2.01 0.2,-0.49 0.45,-0.97 0.67,-1.51 0.36,-0.91 0.57,-1.39 1.33,-1.97 0.63,-0.48 1.67,-0.59 1.94,0.57 1.61,0 1.17,0.74 0.5,1.63 -0.89,1.2 -1.12,1.98 -1.71,3.29 -0.15,0.33 -0.29,0.89 -0.42,1.28 -0.4,1.2 -1.11,2.45 -1.11,3.88 0,2.97 1,1.21 2.93,2.38 0.81,0.49 1.49,1.09 2.2,1.68 0.27,0.22 0.33,0.4 0.57,0.64 0.27,0.28 0.51,0.58 0.74,0.88l37.55 0 5.67 0 2.38 0c-0.01,-0.14 -0.02,-0.28 -0.02,-0.42 0,-1.24 0.43,-3.02 0.98,-4.01 0.35,-0.64 0.51,-1.46 0.89,-2.02 0.18,-0.28 0.24,-0.31 0.41,-0.63 0.13,-0.25 0.22,-0.39 0.4,-0.58 1.2,-1.27 1.72,-2.44 3.85,-2.44 0.56,0 1.03,0.14 1.47,0.02 0.49,-0.12 0.75,-0.26 1.35,-0.26 0.95,0 2.01,0.09 2.83,0.32 0.66,0.19 1.38,0.24 2.03,0.32 0.51,0.06 0.71,-0.1 1.09,-0.06 0.97,0.11 0.72,0.77 1.48,0.95 1.2,0.28 0.4,0.93 0.4,1.38 0,0.1 0.95,0.84 1.11,0.98 0.43,0.4 0.53,0.7 0.88,1.13 1.34,1.62 2.04,1.34 2.04,2.08 0,0.54 -0.37,0.52 -0.67,0.78 -1.13,1.02 0.02,1.33 -0.32,2.09 -0.1,0.21 -0.19,0.29 -0.27,0.37l17.34 0 5.67 0 39 0 5.67 0 11.99 0c0.63,-1.8 1.21,-3.54 1.73,-5.2 2.32,-7.42 3.78,-11.83 4.86,-15.73zm-366.94 26.6c-4.75,13.14 -8.16,26.91 -10.07,41.17l38.36 0 0 -41.17 -28.29 0zm33.96 0l0 41.17 39.8 0 0 -23.16c-0.03,-0.06 -0.06,-0.13 -0.08,-0.21 -0.1,-0.26 -0.12,-0.45 -0.21,-0.77 -0.35,-1.33 -0.69,-2.6 -0.96,-4.03 -0.07,-0.35 -0.01,-0.67 -0.03,-1.02 -0.03,-0.29 -0.11,-0.5 -0.17,-0.81 -0.1,-0.59 -0.03,-1.26 -0.17,-1.84 -0.13,-0.54 -0.23,-1.07 -0.22,-1.79 0,-1.29 -0.66,-2.1 -0.65,-3.38l-0.4 -3.56c-0.05,-0.24 -0.09,-0.42 -0.13,-0.6l-36.78 0zm45.47 0l0 6.84c0.24,0.53 0.49,1.08 0.57,1.33 0.17,0.56 0.81,1.73 1.08,2.38 0.15,0.34 0.28,0.5 0.43,0.78 0.13,0.26 0.23,0.49 0.39,0.75 0.61,1 1.18,1.92 1.69,2.99l0.83 1.51c0.5,0.83 1.94,0.55 2.75,0.41 1.07,-0.19 1.46,-0.13 1.89,-0.2 1.68,-0.28 1.06,0.03 1.8,0.52 0.59,0.38 0.79,0 1.76,0.34 0.63,0.22 1.23,-0.02 1.67,-0.31 2.56,-1.73 3.59,-0.09 5.44,-0.93 0.5,-0.23 0.3,-0.67 0.79,-0.91 0.85,-0.42 1.56,0.25 2.22,-0.6 0.16,-0.21 0.24,-0.54 0.39,-0.74 0.41,-0.53 0.95,-0.1 1.53,-0.49 -0.15,-0.65 -0.42,-1.13 -0.7,-1.72 -0.38,-0.79 -0.4,-0.95 -0.68,-1.74 -0.12,-0.32 -0.26,-0.49 -0.42,-0.78 -0.17,-0.32 -0.18,-0.55 -0.36,-0.86 -0.29,-0.49 -0.5,-1.18 -1.04,-1.38 -1.2,-0.42 -1.63,0.12 -2.85,-1.99 -0.25,-0.43 -0.42,-1.26 -0.53,-1.89 -0.21,-1.11 0.29,-1.16 0.29,-1.82 0,-0.69 -0.46,-0.99 -0.71,-1.49l-18.23 0zm0 24.13l0 17.04 20.44 0c-0.31,-1.36 -0.65,-2.66 -0.94,-3.22 -0.22,-0.44 -0.29,-0.7 -0.45,-1.24 -0.3,-1.09 -0.56,-1.57 -0.89,-2.58 -0.19,-0.6 -0.23,-0.76 -0.75,-1.02 -0.63,-0.31 -1.62,-0.9 -2.12,-1.35 -1.09,-0.97 -1.34,-1.84 -2.37,-1.98 -1.48,-0.21 -1.79,0.51 -2.39,-0.11 -0.43,-0.44 -0.83,-1.37 -1.13,-1.94 -0.42,-0.77 -2.45,-1.44 -3.3,-1.71 -0.94,-0.3 -3.87,-1.07 -4.59,-1.37 -0.49,-0.2 -1,-0.35 -1.51,-0.52zm59.43 17.04l24.94 0 0 -41.17 -37.24 0c0.05,0.21 0.11,0.45 0.18,0.71 0.1,0.36 0.16,0.66 0.36,0.92 0.21,0.27 0.36,0.45 0.57,0.73 0.45,0.6 0.57,0.96 0.72,1.85 0.47,2.76 0.84,2.49 1.22,3.95l0.96 4.2c0.06,0.34 0.15,0.7 0.3,0.99 0.13,0.26 0.41,0.6 0.41,0.89 0,0.56 -0.33,0.83 -0.33,1.45 0,0.84 0.44,1.64 0.57,2.42 0.14,0.88 0.28,1.57 0.51,2.39 0.13,0.44 0.29,0.58 0.42,1.03 0.16,0.53 0.06,0.76 0.14,1.32 0.05,0.41 0.02,0.9 0.07,1.38 0.06,0.63 0.63,2.93 0.87,3.48 0.16,0.34 0.31,0.61 0.52,0.93 0.35,0.53 1.02,2.53 1.19,3.16 0.34,1.21 1.25,2.75 1.84,3.89 0.44,0.84 0.96,2.24 1.2,3.16l0.58 2.32zm30.61 -41.17l0 41.17 18.07 0 0.03 -0.8c-0.02,-4.91 -0.12,-3.62 -1.6,-6.71l-0.66 -1.75c-0.26,-0.79 -0.64,-1.47 -0.64,-2.51 0,-1.09 0.22,-1.86 0.79,-2.76 0.2,-0.31 0.36,-0.57 0.57,-0.88 0.38,-0.6 0.64,-1.26 1.01,-1.89 0.51,-0.85 0.97,-1.96 1.43,-2.84 0.16,-0.31 0.33,-0.61 0.5,-0.96l2.31 -4.96c0.18,-0.48 -0.08,-0.65 -0.32,-0.95 -0.2,-0.26 -0.38,-0.51 -0.62,-0.75 -0.26,-0.26 -0.47,-0.49 -0.75,-0.71l-3.85 -3.41c-0.74,-0.62 -1.44,-1.44 -2.14,-2.13 -0.6,-0.6 -1.49,-1.67 -1.96,-2.39 -0.77,-1.17 -1.43,-1.14 -2.35,-2.01 -0.3,-0.27 -0.44,-0.38 -0.75,-0.62l-1.95 -2.14 -7.12 0zm27.19 0l-10.14 0 0.08 0.04 1.97 1.1c0.24,0.15 0.35,0.25 0.59,0.38 0.86,0.48 1.77,0.91 2.59,1.44 0.43,0.28 3.54,2.08 3.89,2.16 0.17,-0.35 0.14,-0.78 0.16,-1.29 0.04,-0.93 0.37,-1.48 0.57,-2.33 0.2,-0.83 0.6,-0.87 0.29,-1.5zm16.49 9.09l0 2.88c0.15,-0.45 1.56,-4.07 0.5,-3.37 -0.02,0.01 -0.25,0.25 -0.29,0.29 -0.07,0.08 -0.14,0.14 -0.21,0.2zm0 23.36l0 8.72 18 0c0.18,-1.67 0.14,-3.48 0.51,-5.02 0.33,-1.32 0.1,-0.77 -0.26,-1.86 -0.4,-1.18 0.03,-2.43 0.55,-3.5 0.06,-0.14 0.1,-0.24 0.17,-0.39 0.64,-1.38 0.5,-0.77 1.2,-2.6 0.29,-0.78 0.71,-1.89 1.16,-2.55 0.42,-0.6 0.93,-1.19 1.5,-1.65 0.14,-0.11 0.18,-0.17 0.34,-0.29l2.61 -2.4c0.41,-0.4 0.71,-0.98 1.09,-1.41 0.48,-0.55 0.9,-1.85 1.18,-2.53 0.24,-0.61 0.52,-1.14 0.7,-1.8 0.31,-1.1 1.13,-2.95 1.87,-3.78l0.89 -0.96c0.72,-0.73 2.15,-1.41 3.11,-1.89 0.57,-0.29 1.19,-0.48 1.75,-0.75 0.95,-0.48 2.05,-0.81 3.18,-0.93l0 -6.86 -35.07 0c0.02,0.13 0.03,0.25 0.03,0.36 0,1.51 -0.91,1.76 -0.19,2.61l0.68 0.93c0.12,0.16 0.22,0.26 0.33,0.4 1.29,1.75 0.64,3.49 0.55,5.26 -0.08,1.54 0.21,3.4 0.08,5l-0.08 2.42c0,0.62 -0.08,1.02 -0.08,1.53 -0.03,1.96 0.25,5.54 -0.71,6.79 -0.16,0.2 -0.25,0.19 -0.36,0.45 -0.29,0.65 -0.3,1.37 -0.55,2.03 -0.11,0.3 -0.16,0.25 -0.4,0.4 -0.39,0.26 -0.49,0.49 -0.67,0.95 -0.43,1.13 -0.62,1.13 -1.28,2.03 -0.18,0.25 -0.51,0.8 -0.73,0.96 -0.16,0.13 -0.75,0.28 -1.1,0.33zm25.07 8.72l8.33 0c-0.02,-0.51 -0.06,-1 -0.13,-1.49 -0.18,-1.18 -0.08,-2.29 -0.21,-3.44 -0.07,-0.71 -0.69,0.08 -0.87,0.28 -0.18,0.21 -0.3,0.24 -0.47,0.41 -0.89,0.89 -1.58,2.04 -2.6,2.81 -1.53,1.15 -2.37,-0.19 -3.24,-0.26l-0.81 1.69zm20.15 -41.17l0 5.16c0.07,-0.09 0.13,-0.18 0.18,-0.27 0.46,-0.76 1.27,-2.17 1.29,-3.31 0.02,-0.51 -0.03,-1.08 0,-1.58l-1.47 0zm17.93 41.17l5.82 0 0.14 -0.88c0.23,-0.9 0.82,-2.5 1.24,-3.28 0.18,-0.34 0.37,-0.56 0.56,-0.89 0.86,-1.44 1.81,-2.55 3.19,-3.51l0.85 -0.59c0.14,-0.1 0.33,-0.18 0.48,-0.25 0.24,-0.11 0.34,-0.13 0.56,-0.26 1,-0.59 2.84,-1.06 4.01,-1.06 2.18,0 3.45,0.19 4.87,0.88l0 -31.33 -18.78 0 -0.42 1.28c-0.15,0.47 -0.25,1.63 -0.65,1.86 -0.24,0.14 -0.35,0.11 -0.58,0.04 -0.71,-0.21 -0.54,-0.14 -0.96,0.34 -0.34,0.38 -0.57,0.21 -0.81,0.8 -0.32,0.77 -0.42,1.85 -0.72,2.59 -0.52,1.3 -0.98,0.8 -1.6,1.63 -0.11,0.16 -0.59,0.87 -0.59,1.02 0,0.4 1.03,1.03 1.29,1.37 0.41,0.54 0.66,0.76 1.16,1.5 1.7,2.49 2.19,6.25 1.64,9.44 -0.07,0.37 -0.1,0.86 -0.18,1.28l-0.4 2.42c-0.05,0.27 -0.03,0.4 -0.06,0.67 -0.01,0.17 -0.06,0.32 -0.1,0.54 -0.08,0.4 -0.05,1 -0.1,1.35 -0.12,0.87 -0.1,1.74 0.02,2.59 0.07,0.44 -0.01,0.89 0.06,1.31 0.04,0.2 0.11,0.44 0.12,0.61 0.03,0.21 0,0.42 0.02,0.63 0.03,0.42 0.16,0.62 0.16,1.13l0 4.6 -0.24 2.17zm27.39 -41.17l0 36.88 0.06 0.07c0.52,1.02 1.03,2.73 1.27,4.22l34.48 0c1.09,-2.04 2.15,-4.08 3.19,-6.14l0 -35.03 -39 0z"/>
    <path fill="#141515" d="M423.9 156.9l-0.04 0.07 0.04 -0.07zm-25.78 -45.25l-0.04 0.07 0.04 -0.07zm48.44 -14.07l-0.04 0.08 0.04 -0.08zm-45.58 -37.76c0.13,-0.13 -0.07,0.07 0,0zm24.3 20.56c-1.05,-1.73 -2.28,-4.42 -3.23,-5.7 -1.87,-2.54 -3.17,-4.21 -5.48,-6.41 -4.02,-3.81 -9.35,-7.12 -14.72,-8.59 -6.19,-1.69 -13.23,-1.21 -19.42,0.28 -2.74,0.65 -13.54,4.19 -15.82,7.06 5.85,-0.21 10.07,0.31 15.84,1.23 3.77,0.61 9.38,2.56 12.79,4.27 4.65,2.34 6.87,3.68 11.06,6.71 2.03,1.47 8.62,6.92 9.02,9.16 -0.76,-0.25 -2.66,-1.07 -3.38,-1.44 -2.37,-1.19 -7.81,-2.86 -10.19,-3.18 -6.28,-0.82 -9.89,-0.36 -15.82,1.5 -10.31,3.24 -17.39,12.9 -22.75,21.23l-2.11 4.27c0.16,-0.08 0.19,-0.08 0.34,-0.13 1.26,-0.4 9.69,-5.78 11,-6.52 8.38,-4.72 17.99,-6.36 27.39,-7.65 5.45,-0.75 11.63,-0.49 17.13,-0.22 -0.7,1.08 -2.53,2.32 -3.63,3.01 -0.81,0.54 -3.21,1.74 -4.23,2.41 -6.46,4.31 -8.56,6.55 -13.58,12.53 -4.69,4.93 -6.76,12 -9.17,21.22l0.2 0.05c0.18,0.02 1.29,-2.07 1.51,-2.38 6.04,-9.31 9,-14.04 19.29,-20.32 0.69,-0.44 1.84,-1.3 2.44,-1.63 3.41,-1.89 11.37,-6.82 14.6,-6.74 -2.27,18.93 -4.88,33.76 -10.59,52.03 -0.17,0.57 -0.35,1.12 -0.52,1.68l10.98 0 0 0c1.83,-7.18 3.57,-13.99 5.08,-21.5 0.91,-4.52 3.77,-25.68 4.93,-27.4 5.36,-4.6 16.48,2.95 20.31,6.72 11.21,11 16.95,28.28 22.13,42.72 0.11,-0.07 2.09,-9.15 2.23,-10.06 0.46,-3.04 1.12,-7.28 1.1,-10.32 -0.06,-12.44 -5.1,-26.07 -15.91,-33.1 -3.95,-2.56 -8.01,-5.02 -12.59,-6.38 -1.67,-0.5 -2.94,-1.07 -4.83,-1.53 1.12,-1.73 4.65,-2.87 6.63,-3.38 7.85,-2.03 15.91,-0.2 23.3,2.62 9.07,3.47 17.51,9.1 25.25,14.88 -2.31,-8.03 -9.03,-17.86 -15.69,-22.95 -12.77,-9.76 -27.79,-8.36 -41.87,-2.84 -2.28,0.89 -4.34,1.71 -6.43,3 -0.64,0.4 -4.72,3.12 -3.4,0.27 1.01,-2.19 6.78,-9.09 8.68,-11.02 10.65,-10.86 21.39,-16.95 36.49,-19.96 2.65,-0.53 7.16,-0.6 8.29,-0.83 -6.08,-3.24 -11.61,-4.99 -18.62,-5.91 -9.04,-1.18 -20.99,0.59 -27.98,6.85 -5.7,5.11 -9.1,9.62 -12.14,16.59 -0.74,1.69 -1.5,3.74 -2.21,5.52 -0.71,1.77 -0.57,2.16 -1.7,0.28zm-13.91 83.4c-1.95,5.64 -4.04,11 -6.59,16.74 -3.01,6.74 -5.86,12.87 -8.87,18.81l0 5.62 12.87 0c2.41,-5.69 4.65,-11.42 6.73,-17.16 3.03,-8.4 5.12,-15.53 7.28,-24.01l-11.42 0zm-21.52 46.84c-2.42,4.26 -5.03,8.56 -7.95,13.08 -5.72,8.85 -12.3,18.92 -18.46,27.52l20.43 0c2.47,-3.13 4.58,-6.38 6.37,-9.4l0 -31.2 -0.39 0zm6.06 21.05c3.72,-6.83 7.19,-13.88 10.4,-21.05l-10.4 0 0 21.05z"/>
   </g>
  </g>
 </g>
</svg>
