<?xml version="1.0" encoding="UTF-8"?>
<!DOCTYPE svg PUBLIC "-//W3C//DTD SVG 1.1//EN" "http://www.w3.org/Graphics/SVG/1.1/DTD/svg11.dtd">
<!-- Creator: CorelDRAW 2019 (64 Bit) -->
<svg xmlns="http://www.w3.org/2000/svg" xml:space="preserve" width="428px" height="512px" version="1.1" shape-rendering="geometricPrecision" text-rendering="geometricPrecision" image-rendering="optimizeQuality" fill-rule="evenodd" clip-rule="evenodd"
viewBox="0 0 426.81 511.52"
 xmlns:xlink="http://www.w3.org/1999/xlink">
 <g id="Camada_x0020_1">
  <metadata id="CorelCorpID_0Corel-Layer"/>
  <g id="_2288591917584">
   <g>
    <path fill="black" d="M307.71 216.2c8.5,-10.59 16.35,-21.84 23.28,-33.97l0.74 0 0 24.4c-1.95,3.21 -3.99,6.39 -6.14,9.57l-17.88 0zm29.18 -44.96c4.47,-8.89 8.45,-18.25 11.85,-28.15l9.96 0c-3.16,11.45 -7.02,22.78 -11.8,33.97l-10.01 0 0 -5.82zm13.56 -33.32c4.58,-14.41 7.95,-29.96 9.86,-46.88 -13.88,3.68 -24.27,12.46 -32.57,26.4 2.52,-15.68 11.9,-24.75 26.18,-33.12 -16.22,-1.28 -33.2,1.72 -48.16,12.48 8.68,-15.09 21.54,-31.57 46.83,-19.53 -15.12,-16.41 -28.79,-17.95 -42.33,-18.14 25.84,-14.78 41.6,-5.76 51.98,12.85 7.04,-24.36 24.78,-33.59 52.83,-21.59 -20.25,1.99 -36.42,11.5 -46.82,28.72 27.59,-15.26 48.22,-7.99 58.56,18.13 -17.85,-13.49 -37.9,-21.09 -47.74,-12.18 10.54,2.53 17.28,7.05 21.41,12.44 7.84,10.25 9.26,26.9 4.35,40.24 -6.66,-23.11 -23.98,-50.57 -36.45,-42.96 -2.02,14.5 -4.65,28.9 -8.31,43.14l-9.62 0zm-5.83 44.31c-2.36,5.18 -4.93,10.33 -7.73,15.44l0 -15.44 7.73 0z"/>
    <path fill="black" d="M200.46 30.27c45.29,0 86.44,17.72 116.91,46.6 -3.18,2.58 -6.16,5.85 -8.98,9.77 -1.97,2.74 -3.75,5.62 -5.43,8.54l-7.48 13 12.18 -8.76c6.69,-4.82 14,-8.09 21.66,-10.01 1.73,2.01 3.42,4.05 5.05,6.14 -4.97,5.73 -8.41,12.57 -9.83,21.38l-2.69 16.73 8.67 -14.56c3.15,-5.29 6.71,-9.99 10.87,-13.91 3.69,5.46 7.07,11.15 10.11,17.04 -1.31,5.32 -2.79,10.55 -4.45,15.69l-10.16 0 -5.16 0 -33.14 0 -5.16 0 -33.13 0 -5.17 0 -33.13 0 -5.17 0 -33.13 0 -5.16 0 -33.14 0 -5.16 0 -33.13 0 -5.17 0 -33.13 0 -5.17 0 -21.38 0c24.86,-63.04 86.32,-107.65 158.2,-107.65zm144.85 112.82c-2.47,7.05 -5.27,13.93 -8.42,20.68l0 -20.68 8.42 0zm-13.58 31.05c-0.52,0.98 -1.05,1.95 -1.58,2.92l-31.56 0 0 -33.97 33.14 0 0 31.05zm-4.5 8.09c-6.74,11.58 -14.57,22.79 -23.51,33.75l-0.18 0.22 -4.95 0 0 -33.97 28.64 0zm-27.9 39.13l-0.24 0.29 5.41 -0.29 27.23 0 0 33.97 -33.14 0 0 -33.97 0.74 0zm30.16 -5.16c0.76,-1.15 1.5,-2.29 2.24,-3.44l0 3.44 -2.24 0zm7.4 -11.93c4.19,-7.23 7.93,-14.58 11.27,-22.04l21.33 0c0.63,5.92 0.95,11.94 0.95,18.03 0,5.37 -0.25,10.69 -0.74,15.94l-32.81 0 0 -11.93zm13.51 -27.21c4.34,-10.33 7.96,-20.88 10.99,-31.66 3.46,10.15 5.99,20.74 7.48,31.66l-18.47 0zm18.74 44.3c-1.45,11.74 -4.1,23.11 -7.82,33.97l-24.43 0 0 -33.97 32.25 0zm-9.69 39.14c-1.77,4.68 -3.74,9.26 -5.91,13.73l-306.17 0c-2.16,-4.47 -4.14,-9.05 -5.91,-13.73l22.18 0 5.17 0 33.13 0 5.17 0 33.13 0 5.16 0 33.14 0 5.16 0 33.13 0 5.17 0 33.13 0 5.17 0 33.13 0 5.16 0 33.14 0 5.16 0 22.56 0zm-319.86 -5.17c-3.72,-10.86 -6.37,-22.23 -7.82,-33.97l31.87 0 0 33.97 -24.05 0zm-8.38 -39.13c-0.49,-5.25 -0.74,-10.57 -0.74,-15.94 0,-6.09 0.33,-12.11 0.95,-18.03l32.22 0 0 33.97 -32.43 0zm0.84 -39.14c1.6,-11.75 4.41,-23.11 8.28,-33.97l23.31 0 0 33.97 -31.59 0zm261.38 -33.97l-33.13 0 0 33.97 33.13 0 0 -33.97zm0 39.14l-33.13 0 0 33.97 33.13 0 0 -33.97zm0 39.13l-33.13 0 0 33.97 33.13 0 0 -33.97zm-38.3 -78.27l-33.13 0 0 33.97 33.13 0 0 -33.97zm0 39.14l-33.13 0 0 33.97 33.13 0 0 -33.97zm0 39.13l-33.13 0 0 33.97 33.13 0 0 -33.97zm-38.3 -78.27l-33.13 0 0 33.97 33.13 0 0 -33.97zm0 39.14l-33.13 0 0 33.97 33.13 0 0 -33.97zm0 39.13l-33.13 0 0 33.97 33.13 0 0 -33.97zm-38.29 -78.27l-33.14 0 0 33.97 33.14 0 0 -33.97zm0 39.14l-33.14 0 0 33.97 33.14 0 0 -33.97zm0 39.13l-33.14 0 0 33.97 33.14 0 0 -33.97zm-38.3 -78.27l-33.13 0 0 33.97 33.13 0 0 -33.97zm0 39.14l-33.13 0 0 33.97 33.13 0 0 -33.97zm0 39.13l-33.13 0 0 33.97 33.13 0 0 -33.97zm-38.3 -78.27l-33.13 0 0 33.97 33.13 0 0 -33.97zm0 39.14l-33.13 0 0 33.97 33.13 0 0 -33.97zm0 39.13l-33.13 0 0 33.97 33.13 0 0 -33.97z"/>
    <path fill="black" fill-rule="nonzero" d="M16.35 266.89c-0.24,-0.67 -0.29,-1.39 -0.17,-2.17 0.13,-0.77 0.45,-1.45 0.97,-2.04 0.53,-0.59 1.14,-1 1.84,-1.25 1.13,-0.39 2.22,-0.33 3.29,0.19 1.07,0.52 1.8,1.34 2.19,2.45 0.39,1.13 0.33,2.23 -0.19,3.29 -0.52,1.07 -1.34,1.8 -2.46,2.19 -0.71,0.24 -1.45,0.3 -2.22,0.16 -0.78,-0.14 -1.45,-0.47 -2.03,-1 -0.58,-0.53 -0.98,-1.13 -1.22,-1.82zm-8.86 -12.56l-1.28 -5.57c-0.26,-1.11 -0.4,-1.94 -0.43,-2.5 -0.03,-0.57 0.05,-1.1 0.24,-1.59 0.19,-0.5 0.5,-0.94 0.92,-1.34 0.41,-0.4 0.93,-0.66 1.53,-0.8 0.65,-0.15 1.29,-0.11 1.91,0.11 0.62,0.23 1.14,0.61 1.55,1.15 0.05,-0.9 0.33,-1.65 0.82,-2.24 0.49,-0.59 1.14,-0.98 1.95,-1.17 0.64,-0.14 1.29,-0.14 1.95,0.02 0.67,0.16 1.24,0.45 1.72,0.88 0.48,0.43 0.84,1.01 1.1,1.74 0.15,0.45 0.45,1.58 0.87,3.37l1.09 4.75 -13.94 3.19zm1.67 -3.35l3.21 -0.74 -0.42 -1.84c-0.25,-1.09 -0.43,-1.77 -0.52,-2.03 -0.17,-0.47 -0.42,-0.81 -0.76,-1.02 -0.34,-0.22 -0.73,-0.27 -1.18,-0.17 -0.43,0.1 -0.75,0.3 -0.96,0.6 -0.22,0.3 -0.3,0.69 -0.25,1.17 0.04,0.29 0.2,1.09 0.51,2.41l0.37 1.62zm5.53 -1.27l3.74 -0.86 -0.6 -2.6c-0.24,-1.02 -0.41,-1.66 -0.53,-1.92 -0.17,-0.4 -0.44,-0.7 -0.79,-0.89 -0.36,-0.2 -0.78,-0.24 -1.28,-0.12 -0.42,0.09 -0.75,0.27 -1,0.54 -0.24,0.27 -0.39,0.62 -0.44,1.03 -0.04,0.41 0.08,1.26 0.37,2.55l0.53 2.27zm3.65 -12.57l-14.07 2.58 -1.91 -10.42 2.38 -0.43 1.38 7.56 3.13 -0.57 -1.29 -7.03 2.38 -0.44 1.29 7.04 3.81 -0.7 -1.44 -7.84 2.38 -0.44 1.96 10.69zm-3.49 -26.05l0.24 3.11 -3.15 1.48 0.43 5.72 3.34 0.94 0.23 3.05 -14.68 -4.45 -0.23 -3.05 13.82 -6.8zm-5.25 5.71l-5.13 2.38 5.43 1.52 -0.3 -3.9zm-0.4 -16.24l0.78 -2.82c1.58,0.38 2.77,1.06 3.57,2.04 0.79,0.97 1.21,2.23 1.26,3.76 0.05,1.9 -0.55,3.48 -1.81,4.75 -1.26,1.26 -3.02,1.92 -5.27,1.99 -2.38,0.07 -4.25,-0.49 -5.6,-1.68 -1.36,-1.19 -2.07,-2.79 -2.13,-4.79 -0.05,-1.75 0.43,-3.19 1.43,-4.31 0.59,-0.67 1.46,-1.18 2.6,-1.54l0.76 2.83c-0.73,0.19 -1.31,0.56 -1.72,1.11 -0.41,0.56 -0.61,1.21 -0.59,1.98 0.04,1.06 0.44,1.91 1.22,2.55 0.78,0.64 2.02,0.93 3.73,0.88 1.8,-0.05 3.08,-0.42 3.83,-1.09 0.74,-0.68 1.1,-1.53 1.07,-2.57 -0.02,-0.77 -0.29,-1.43 -0.79,-1.97 -0.51,-0.53 -1.28,-0.91 -2.34,-1.12zm5.34 -5.39l-14.26 -1.09 0.22 -2.89 5.62 0.43 0.43 -5.62 -5.62 -0.42 0.22 -2.89 14.26 1.08 -0.22 2.89 -6.23 -0.47 -0.43 5.62 6.23 0.47 -0.22 2.89zm2.13 -23.12l-11.69 -2.14 -0.76 4.16 -2.38 -0.43 2.04 -11.17 2.38 0.44 -0.76 4.15 11.69 2.14 -0.52 2.85zm1.5 -8.81l-13.93 -3.24 2.4 -10.31 2.35 0.55 -1.74 7.49 3.1 0.72 1.61 -6.97 2.36 0.55 -1.62 6.96 3.78 0.88 1.8 -7.76 2.35 0.54 -2.46 10.59zm3.08 -12.95l-13.57 -4.55 0.9 -2.66 10.96 -2.53 -9.09 -3.05 0.85 -2.53 13.56 4.55 -0.92 2.74 -10.76 2.5 8.92 2.99 -0.85 2.54zm4.51 -13.75l-13.28 -5.31 1.04 -2.6 11.08 -1.91 -8.9 -3.56 0.99 -2.48 13.28 5.3 -1.07 2.69 -10.88 1.89 8.73 3.49 -0.99 2.49zm5.45 -13.27l-13.05 -5.86 1.19 -2.64 13.05 5.85 -1.19 2.65zm-2.02 -6.48l1.03 -2.64c0.92,0.28 1.68,0.29 2.31,0.03 0.63,-0.26 1.14,-0.78 1.54,-1.57 0.42,-0.82 0.56,-1.53 0.42,-2.13 -0.14,-0.6 -0.44,-1.01 -0.91,-1.25 -0.3,-0.16 -0.6,-0.2 -0.91,-0.13 -0.3,0.07 -0.64,0.28 -1.01,0.64 -0.26,0.25 -0.79,0.84 -1.6,1.77 -1.04,1.2 -1.96,1.95 -2.74,2.25 -1.1,0.43 -2.15,0.38 -3.17,-0.13 -0.65,-0.33 -1.17,-0.83 -1.55,-1.48 -0.38,-0.65 -0.54,-1.4 -0.49,-2.24 0.06,-0.85 0.33,-1.75 0.83,-2.73 0.81,-1.6 1.77,-2.62 2.89,-3.07 1.12,-0.44 2.27,-0.39 3.48,0.17l-1.22 2.63c-0.71,-0.22 -1.31,-0.23 -1.78,-0.01 -0.47,0.21 -0.89,0.68 -1.25,1.39 -0.38,0.75 -0.52,1.41 -0.42,1.98 0.06,0.37 0.25,0.64 0.59,0.81 0.3,0.16 0.62,0.16 0.97,0.01 0.44,-0.18 1.12,-0.82 2.05,-1.92 0.93,-1.1 1.71,-1.87 2.32,-2.31 0.63,-0.44 1.3,-0.69 2.02,-0.75 0.72,-0.06 1.48,0.12 2.29,0.53 0.73,0.37 1.31,0.92 1.74,1.65 0.43,0.73 0.62,1.54 0.55,2.44 -0.06,0.9 -0.38,1.91 -0.94,3.01 -0.82,1.62 -1.82,2.67 -3,3.15 -1.18,0.49 -2.53,0.45 -4.04,-0.1zm7.84 -24.32c0.39,-0.6 0.93,-1.09 1.61,-1.47 0.69,-0.37 1.42,-0.54 2.21,-0.49 0.79,0.05 1.49,0.28 2.12,0.68 1,0.65 1.62,1.55 1.87,2.71 0.25,1.16 0.05,2.24 -0.59,3.23 -0.64,1 -1.55,1.63 -2.71,1.88 -1.16,0.25 -2.24,0.05 -3.23,-0.6 -0.63,-0.4 -1.13,-0.95 -1.5,-1.65 -0.37,-0.69 -0.52,-1.43 -0.46,-2.21 0.06,-0.78 0.29,-1.47 0.68,-2.08zm4.55 -14.12l3.54 -4.49c0.71,-0.89 1.26,-1.52 1.68,-1.91 0.42,-0.38 0.88,-0.64 1.39,-0.81 0.5,-0.15 1.04,-0.2 1.61,-0.12 0.57,0.08 1.1,0.31 1.59,0.69 0.52,0.41 0.9,0.93 1.11,1.56 0.22,0.63 0.24,1.27 0.08,1.93 0.74,-0.53 1.49,-0.78 2.26,-0.77 0.77,0.01 1.48,0.27 2.13,0.78 0.52,0.41 0.92,0.92 1.22,1.53 0.29,0.62 0.43,1.25 0.39,1.89 -0.03,0.64 -0.26,1.29 -0.66,1.95 -0.26,0.41 -0.95,1.34 -2.08,2.79l-3.02 3.83 -11.24 -8.85zm3.66 -0.8l2.59 2.04 1.17 -1.49c0.7,-0.88 1.12,-1.44 1.26,-1.68 0.26,-0.42 0.37,-0.83 0.32,-1.23 -0.05,-0.39 -0.25,-0.73 -0.61,-1.02 -0.35,-0.27 -0.71,-0.39 -1.07,-0.37 -0.37,0.02 -0.73,0.2 -1.07,0.54 -0.2,0.2 -0.72,0.84 -1.56,1.91l-1.03 1.3zm4.46 3.51l3.02 2.37 1.65 -2.1c0.64,-0.82 1.03,-1.36 1.16,-1.61 0.2,-0.39 0.27,-0.78 0.2,-1.18 -0.08,-0.4 -0.31,-0.76 -0.71,-1.07 -0.34,-0.27 -0.69,-0.42 -1.05,-0.44 -0.37,-0.02 -0.73,0.08 -1.08,0.31 -0.35,0.22 -0.93,0.85 -1.74,1.88l-1.45 1.84zm12.26 -4.95l-10.33 -9.89 7.32 -7.65 1.75 1.67 -5.32 5.56 2.29 2.19 4.95 -5.17 1.74 1.68 -4.94 5.16 2.8 2.68 5.51 -5.76 1.75 1.68 -7.52 7.85zm18.95 -18.15l-2.35 2.05 -3.07 -1.65 -4.33 3.76 1.24 3.24 -2.31 2.01 -5.2 -14.44 2.31 -2.01 13.71 7.04zm-7.72 -0.81l-4.97 -2.69 2.02 5.26 2.95 -2.57zm12.8 -10.07l2.73 -1.06c0.64,1.51 0.8,2.87 0.48,4.09 -0.31,1.21 -1.07,2.3 -2.27,3.25 -1.5,1.17 -3.13,1.63 -4.89,1.37 -1.76,-0.27 -3.34,-1.29 -4.74,-3.06 -1.47,-1.87 -2.13,-3.7 -1.98,-5.5 0.15,-1.79 1.01,-3.31 2.59,-4.55 1.37,-1.09 2.81,-1.56 4.31,-1.42 0.89,0.08 1.82,0.47 2.78,1.17l-1.82 2.3c-0.59,-0.48 -1.23,-0.72 -1.92,-0.72 -0.69,-0.01 -1.33,0.23 -1.93,0.7 -0.84,0.66 -1.28,1.49 -1.33,2.5 -0.05,1 0.46,2.17 1.51,3.51 1.12,1.42 2.17,2.23 3.15,2.43 0.99,0.2 1.89,-0.02 2.71,-0.66 0.61,-0.48 0.98,-1.08 1.11,-1.8 0.13,-0.73 -0.03,-1.58 -0.49,-2.55zm7.39 0.93l-7.69 -12.06 2.44 -1.56 3.03 4.75 4.75 -3.03 -3.03 -4.75 2.44 -1.56 7.69 12.06 -2.44 1.56 -3.36 -5.27 -4.75 3.03 3.36 5.27 -2.44 1.56zm20.32 -12.11l-11 -10.47 2.79 -1.41 8.01 7.82 -1.65 -11.02 2.75 -1.38 1.88 15.06 -2.78 1.4zm5.23 -10.48c-0.61,-1.33 -0.91,-2.54 -0.92,-3.62 -0.01,-0.8 0.13,-1.58 0.4,-2.34 0.28,-0.76 0.66,-1.4 1.15,-1.94 0.66,-0.71 1.52,-1.3 2.58,-1.78 1.93,-0.87 3.73,-0.97 5.43,-0.3 1.69,0.67 3.02,2.07 3.98,4.2 0.95,2.11 1.12,4.02 0.52,5.72 -0.61,1.71 -1.87,3 -3.78,3.86 -1.94,0.88 -3.75,0.99 -5.43,0.32 -1.68,-0.67 -2.99,-2.04 -3.93,-4.12zm2.67 -1.31c0.67,1.47 1.51,2.44 2.54,2.89 1.03,0.46 2.07,0.45 3.12,-0.03 1.05,-0.48 1.74,-1.24 2.08,-2.31 0.33,-1.06 0.15,-2.35 -0.53,-3.86 -0.68,-1.5 -1.51,-2.46 -2.5,-2.9 -0.99,-0.44 -2.03,-0.41 -3.12,0.08 -1.08,0.49 -1.79,1.26 -2.12,2.3 -0.33,1.05 -0.15,2.32 0.53,3.83zm-2.84 -7.98l0.68 -3.47 2.3 -1.04 3.02 1.79 -2 0.91 -1.63 -0.87 -0.35 1.76 -2.02 0.92zm18.09 9.58l-4.66 -13.39 2.74 -0.95 3.86 11.11 6.77 -2.36 0.8 2.29 -9.51 3.3zm11.35 -3.88l-3.87 -13.77 10.19 -2.87 0.66 2.33 -7.41 2.08 0.86 3.06 6.89 -1.94 0.65 2.33 -6.88 1.94 1.05 3.73 7.67 -2.16 0.65 2.33 -10.46 2.94zm12.85 -3.31l-3.22 -13.94 2.82 -0.65 3.22 13.94 -2.82 0.65zm14.36 -12.48c0.71,-0.09 1.43,0.01 2.16,0.29 0.72,0.29 1.32,0.75 1.79,1.38 0.46,0.64 0.74,1.33 0.83,2.07 0.15,1.18 -0.15,2.23 -0.88,3.17 -0.73,0.94 -1.68,1.47 -2.85,1.62 -1.19,0.14 -2.25,-0.15 -3.18,-0.88 -0.93,-0.73 -1.47,-1.69 -1.62,-2.87 -0.09,-0.74 0.01,-1.47 0.31,-2.2 0.3,-0.73 0.77,-1.32 1.4,-1.77 0.64,-0.46 1.32,-0.72 2.04,-0.81zm14.09 8.55l-0.43 -14.3 9.83 -0.29 0.07 2.42 -6.93 0.2 0.1 3.4 5.99 -0.18 0.07 2.42 -5.99 0.17 0.18 6.07 -2.89 0.09zm12.62 -14.41l2.9 0.08 -0.23 7.75c-0.04,1.23 -0.02,2.03 0.04,2.39 0.1,0.59 0.38,1.07 0.83,1.44 0.45,0.37 1.07,0.57 1.87,0.59 0.81,0.02 1.43,-0.13 1.85,-0.45 0.42,-0.32 0.68,-0.72 0.78,-1.21 0.1,-0.49 0.16,-1.3 0.2,-2.43l0.23 -7.91 2.9 0.08 -0.23 7.52c-0.05,1.72 -0.16,2.93 -0.34,3.64 -0.17,0.7 -0.48,1.29 -0.91,1.77 -0.43,0.48 -1,0.85 -1.71,1.11 -0.71,0.27 -1.63,0.39 -2.76,0.36 -1.36,-0.04 -2.38,-0.23 -3.08,-0.57 -0.69,-0.33 -1.23,-0.76 -1.63,-1.28 -0.39,-0.51 -0.64,-1.05 -0.76,-1.61 -0.16,-0.82 -0.22,-2.04 -0.17,-3.64l0.22 -7.63zm17.19 15.22l1.45 -11.8 -4.21 -0.51 0.3 -2.4 11.26 1.38 -0.29 2.4 -4.19 -0.51 -1.45 11.79 -2.87 -0.35zm9 1.09l2.57 -14.07 10.42 1.91 -0.44 2.38 -7.56 -1.39 -0.58 3.13 7.04 1.28 -0.44 2.38 -7.03 -1.29 -0.7 3.82 7.84 1.43 -0.43 2.38 -10.69 -1.96zm16.67 3.29l-1.74 -15.09 3.04 0.71 1.15 11.14 5.79 -9.53 2.99 0.7 -8.19 12.78 -3.04 -0.71zm10.96 -4.4c0.46,-1.39 1.05,-2.48 1.77,-3.29 0.54,-0.59 1.17,-1.07 1.88,-1.45 0.72,-0.37 1.44,-0.59 2.16,-0.65 0.97,-0.08 2,0.06 3.11,0.42 2.01,0.66 3.4,1.81 4.2,3.45 0.79,1.64 0.82,3.57 0.1,5.79 -0.73,2.2 -1.89,3.72 -3.49,4.57 -1.6,0.85 -3.4,0.95 -5.4,0.29 -2.02,-0.66 -3.43,-1.81 -4.21,-3.44 -0.79,-1.62 -0.83,-3.52 -0.12,-5.69zm2.86 0.84c-0.5,1.54 -0.53,2.82 -0.08,3.85 0.45,1.03 1.22,1.73 2.32,2.08 1.1,0.37 2.13,0.26 3.09,-0.29 0.96,-0.56 1.7,-1.63 2.22,-3.21 0.51,-1.56 0.55,-2.83 0.12,-3.82 -0.43,-1 -1.22,-1.68 -2.35,-2.05 -1.13,-0.37 -2.18,-0.28 -3.12,0.26 -0.95,0.55 -1.68,1.61 -2.2,3.18zm3.3 -7.81l2.84 -2.09 2.4 0.79 1.02 3.36 -2.09 -0.68 -0.61 -1.74 -1.45 1.06 -2.11 -0.7zm6.97 18.84l5.8 -12.94 2.65 1.18 -4.82 10.74 6.54 2.94 -0.99 2.2 -9.18 -4.12zm11.1 5.02l6.47 -12.75 9.44 4.79 -1.09 2.15 -6.86 -3.48 -1.44 2.83 6.38 3.24 -1.09 2.16 -6.38 -3.24 -1.76 3.46 7.11 3.6 -1.09 2.16 -9.69 -4.92zm11.8 6.21l7.15 -12.39 2.51 1.45 -7.15 12.39 -2.51 -1.45zm19.01 0.14c0.58,0.41 1.04,0.97 1.39,1.67 0.34,0.7 0.47,1.45 0.39,2.23 -0.09,0.78 -0.35,1.48 -0.78,2.08 -0.69,0.97 -1.62,1.56 -2.79,1.75 -1.17,0.2 -2.24,-0.05 -3.2,-0.73 -0.97,-0.7 -1.56,-1.63 -1.75,-2.8 -0.2,-1.16 0.05,-2.23 0.74,-3.2 0.44,-0.61 1.01,-1.09 1.72,-1.42 0.71,-0.34 1.45,-0.46 2.23,-0.36 0.78,0.1 1.46,0.36 2.05,0.78z"/>
   </g>
   <g>
    <path fill="#141515" fill-rule="nonzero" d="M57.86 326.21c-2.92,2.17 -5.96,3.61 -8.61,3.61 -6.35,0 -9.79,-5.19 -9.79,-14.72 0,-9.86 4.43,-14.4 10.32,-14.4 2.25,0 4.43,0.72 7.74,2.63l0 -8.61c-3.17,-1.65 -6.68,-2.5 -10.19,-2.5 -11.11,0 -18.33,9.27 -18.33,23.47 0,13.81 7.55,22.61 18.33,22.61 4.3,0 7.48,-0.98 10.53,-3.35l0 -8.74zm7.67 11.5l10.26 0 0 -44.9 -10.26 0 0 44.9zm19.19 0l10.26 0 0 -18.93c4.3,0 4.96,0.79 7.81,10.52l2.45 8.41 10.65 0c-3.84,-9.53 -5.43,-19.59 -9.46,-21.82 5.36,-2.24 7.61,-5.46 7.61,-10.52 0,-7.37 -5.3,-12.56 -14.56,-12.56l-14.76 0 0 44.9zm10.26 -26.69l0 -10.45 3.11 0c3.77,0 5.69,1.51 5.69,5.06 0,3.55 -2.12,5.39 -5.56,5.39l-3.24 0zm53.21 15.19c-2.92,2.17 -5.96,3.61 -8.61,3.61 -6.35,0 -9.79,-5.19 -9.79,-14.72 0,-9.86 4.43,-14.4 10.32,-14.4 2.25,0 4.43,0.72 7.74,2.63l0 -8.61c-3.17,-1.65 -6.68,-2.5 -10.19,-2.5 -11.11,0 -18.33,9.27 -18.33,23.47 0,13.81 7.55,22.61 18.33,22.61 4.3,0 7.48,-0.98 10.53,-3.35l0 -8.74zm7.01 -33.4l0 29.65c0,11.18 6.42,15.84 15.82,15.84 10.72,0 15.81,-6.11 15.81,-15.97l0 -29.52 -10.26 0 0 30.37c0,4.08 -1.58,6.64 -5.55,6.64 -3.64,0 -5.56,-2.56 -5.56,-6.11l0 -30.9 -10.26 0zm39.97 44.9l10.26 0 0 -44.9 -10.26 0 0 44.9zm26.2 0l10.26 0 0 -37.14 10.33 0 0 -7.76 -30.91 0 0 7.76 10.32 0 0 37.14zm21.91 -22.88c0,16.83 9.07,23.47 17.8,23.47 7.68,0 17.8,-5.45 17.8,-23.01 0,-16.83 -9.39,-23.07 -17.8,-23.07 -8.8,0 -17.8,7.36 -17.8,22.61zm10.46 0.4c0,-8.81 1.78,-14.2 7.34,-14.2 6.09,0 7.35,6.44 7.35,14.2 0,10.78 -2.58,14.27 -7.35,14.27 -5.62,0 -7.34,-5.33 -7.34,-14.27z"/>
    <path fill="#141515" fill-rule="nonzero" d="M33.27 391.89l26.83 0 0 -7.76 -16.61 0 0 -11.18 14.89 0 0 -7.75 -14.89 0 0 -10.46 16.01 0 0 -7.76 -26.23 0 0 44.91zm32.17 -2.96c4.21,2.5 7.51,3.55 11,3.55 7.45,0 13.05,-5.39 13.05,-12.56 0,-10.65 -14.56,-17.16 -14.56,-22.48 0,-1.84 1.71,-3.09 4.15,-3.09 2.24,0 4.22,0.72 8.7,3.22l0 -8.42c-3.5,-1.9 -6.59,-2.76 -9.82,-2.76 -7.32,0 -12.92,5 -12.92,11.44 0,10.92 14.04,15.85 14.04,22.42 0,2.17 -1.72,3.75 -4.15,3.75 -2.71,0 -5.21,-1.25 -9.49,-4.74l0 9.67zm30.97 2.96l10.22 0 0 -18.28 4.28 0c12.52,0 14.9,-8.28 14.9,-13.15 0,-6.38 -4.35,-13.48 -14.83,-13.48l-14.57 0 0 44.91zm10.22 -26.04l0 -11.11 3.29 0c4.42,0 5.67,2.83 5.67,5.59 0,3.29 -1.32,5.52 -6,5.52l-2.96 0zm23.66 3.16c0,16.83 9.03,23.47 17.73,23.47 7.64,0 17.72,-5.46 17.72,-23.01 0,-16.83 -9.35,-23.08 -17.72,-23.08 -8.77,0 -17.73,7.37 -17.73,22.62zm10.41 0.39c0,-8.81 1.78,-14.2 7.32,-14.2 6.06,0 7.31,6.45 7.31,14.2 0,10.79 -2.57,14.27 -7.31,14.27 -5.61,0 -7.32,-5.33 -7.32,-14.27zm31.96 22.49l10.22 0 0 -18.94c4.28,0 4.94,0.79 7.78,10.52l2.44 8.42 10.61 0c-3.83,-9.54 -5.41,-19.59 -9.43,-21.83 5.34,-2.23 7.58,-5.46 7.58,-10.52 0,-7.36 -5.27,-12.56 -14.5,-12.56l-14.7 0 0 44.91zm10.22 -26.69l0 -10.46 3.1 0c3.75,0 5.67,1.51 5.67,5.07 0,3.54 -2.11,5.39 -5.54,5.39l-3.23 0zm32.16 26.69l10.22 0 0 -37.15 10.28 0 0 -7.76 -30.78 0 0 7.76 10.28 0 0 37.15zm26.1 0l10.22 0 0 -44.91 -10.22 0 0 44.91zm30.25 0.59l4.75 0 14.43 -45.5 -10.35 0 -6.52 23.15 -0.13 0 -6.92 -23.15 -10.35 0 15.09 45.5zm20.1 -23.47c0,16.83 9.03,23.47 17.73,23.47 7.65,0 17.73,-5.46 17.73,-23.01 0,-16.83 -9.36,-23.08 -17.73,-23.08 -8.76,0 -17.73,7.37 -17.73,22.62zm10.41 0.39c0,-8.81 1.79,-14.2 7.32,-14.2 6.06,0 7.32,6.45 7.32,14.2 0,10.79 -2.57,14.27 -7.32,14.27 -5.6,0 -7.32,-5.33 -7.32,-14.27z"/>
    <path fill="#141515" fill-rule="nonzero" d="M33.28 445.83l13.63 0c13.69,0 18.61,-12.49 18.61,-22.81 0,-10.91 -5.25,-22.09 -19.13,-22.09l-13.11 0 0 44.9zm10.06 -7.56l0 -29.78 2.92 0c6.94,0 9.02,6.57 9.02,15.06 0,9 -2.27,14.72 -9.54,14.72l-2.4 0zm29.13 7.56l26.4 0 0 -7.76 -16.35 0 0 -11.17 14.66 0 0 -7.76 -14.66 0 0 -10.45 15.76 0 0 -7.76 -25.81 0 0 44.9zm48.19 0l9.74 0 2.14 -9.33 9.99 0 2.07 9.33 9.73 0 -11.61 -45.16 -10.44 0 -11.62 45.16zm13.3 -16.63l3.51 -16.31 0.13 0 3.43 16.31 -7.07 0zm25.04 16.63l10.06 0 0 -18.93c4.22,0 4.86,0.79 7.65,10.52l2.4 8.41 10.45 0c-3.76,-9.53 -5.32,-19.59 -9.28,-21.82 5.26,-2.24 7.46,-5.46 7.46,-10.52 0,-7.37 -5.19,-12.56 -14.27,-12.56l-14.47 0 0 44.9zm10.06 -26.69l0 -10.45 3.05 0c3.7,0 5.58,1.51 5.58,5.06 0,3.55 -2.08,5.39 -5.45,5.39l-3.18 0zm25.75 26.69l26.41 0 0 -7.76 -16.35 0 0 -11.17 14.66 0 0 -7.76 -14.66 0 0 -10.45 15.76 0 0 -7.76 -25.82 0 0 44.9zm33.22 0l10.05 0 0 -44.9 -10.05 0 0 44.9zm14.92 0l9.73 0 2.14 -9.33 9.99 0 2.07 9.33 9.73 0 -11.61 -45.16 -10.44 0 -11.61 45.16zm13.29 -16.63l3.51 -16.31 0.13 0 3.44 16.31 -7.08 0z"/>
    <path fill="#141515" fill-rule="nonzero" d="M59.47 502.06l-18.14 0 2.89 -3.58c4.6,-5.68 7.67,-10.17 9.59,-13.95 1.83,-3.58 2.57,-6.48 2.57,-9.12 0,-2.9 -1.25,-5.38 -3.37,-7.12 -2.17,-1.79 -5.29,-2.85 -8.94,-2.85 -2,0 -3.94,0.24 -5.86,0.73 -1.54,0.39 -3.07,0.95 -4.61,1.67l0 3.01c0.68,-0.29 1.35,-0.53 2.01,-0.75 1.95,-0.63 3.83,-0.96 5.6,-0.96 2.77,0 5.19,0.98 6.93,2.62 1.71,1.62 2.74,3.84 2.74,6.34 0,3.14 -2.57,8.31 -5.87,13.57 -3.44,5.48 -7.77,11.21 -10.73,14.74l25.19 0 0 -4.35zm-8.32 -4.52l13.4 0 0 13.39 -37.5 0 0 -3.98 0.85 -0.68c1.59,-1.27 7.92,-9.2 12.69,-16.79 2.93,-4.68 5.21,-9.09 5.21,-11.38 0,-1.32 -0.5,-2.46 -1.34,-3.25 -0.79,-0.74 -1.92,-1.19 -3.25,-1.19 -1.19,0 -2.49,0.23 -3.88,0.68 -1.53,0.5 -3.18,1.26 -4.9,2.24l-3.91 2.24 0 -13.56 1.24 -0.66c2.37,-1.26 4.71,-2.18 7.06,-2.78 2.38,-0.61 4.78,-0.9 7.25,-0.9 4.96,0 9.27,1.51 12.37,4.06 3.15,2.6 5.02,6.23 5.02,10.43 0,3.27 -0.87,6.75 -3.02,10.97 -1.62,3.19 -3.99,6.83 -7.29,11.16zm20.67 -11.29c0,7.01 1.32,12.36 3.84,15.88 2.29,3.2 5.68,4.87 10.09,4.87 4.59,0 7.91,-1.79 10.12,-4.86 2.66,-3.7 3.87,-9.25 3.87,-15.89 0,-6.63 -1.22,-12.2 -3.86,-15.92 -2.19,-3.09 -5.47,-4.89 -9.99,-4.89 -4.48,0 -7.91,1.68 -10.21,4.87 -2.55,3.54 -3.86,8.92 -3.86,15.94zm-0.43 18.3c-3.05,-4.27 -4.65,-10.44 -4.65,-18.3 0,-7.89 1.59,-14.09 4.67,-18.37 3.28,-4.57 8.14,-6.96 14.48,-6.96 6.44,0 11.13,2.58 14.28,7 3.18,4.49 4.65,10.89 4.65,18.33 0,7.45 -1.47,13.83 -4.69,18.31 -3.16,4.4 -7.88,6.96 -14.38,6.96 -6.25,0 -11.08,-2.39 -14.36,-6.97zm6.74 -18.23c0,-4.55 0.11,-8.53 0.85,-11.51 0.95,-3.84 2.93,-6.13 6.77,-6.13 3.71,0 5.72,2.08 6.74,5.84 0.78,2.89 0.94,6.87 0.94,11.73 0,5.57 -0.26,9.56 -1.1,12.27 -1.12,3.61 -3.16,5.25 -6.58,5.25 -3.83,0 -5.81,-2.22 -6.77,-6.01 -0.74,-2.92 -0.85,-6.85 -0.85,-11.44zm5.79 -10.53c-0.62,2.49 -0.7,6.21 -0.7,10.53 0,4.35 0.08,8.01 0.7,10.45 0.39,1.56 0.95,2.48 1.83,2.48 0.76,0 1.29,-0.6 1.7,-1.92 0.69,-2.22 0.9,-5.86 0.9,-11.08 0,-4.59 -0.13,-8.28 -0.78,-10.68 -0.42,-1.53 -0.98,-2.37 -1.82,-2.37 -0.87,0 -1.43,0.96 -1.83,2.59zm52.13 26.27l-18.13 0 2.89 -3.58c4.59,-5.68 7.67,-10.17 9.59,-13.95 1.82,-3.58 2.56,-6.48 2.56,-9.12 0,-2.9 -1.25,-5.38 -3.37,-7.12 -2.17,-1.79 -5.28,-2.85 -8.93,-2.85 -2.01,0 -3.95,0.24 -5.87,0.73 -1.53,0.39 -3.06,0.95 -4.6,1.67l0 3.01c0.67,-0.29 1.34,-0.53 2,-0.75 1.95,-0.63 3.83,-0.96 5.6,-0.96 2.77,0 5.19,0.98 6.93,2.62 1.72,1.62 2.74,3.84 2.74,6.34 0,3.14 -2.56,8.31 -5.86,13.57 -3.44,5.48 -7.77,11.21 -10.73,14.74l25.18 0 0 -4.35zm-8.32 -4.52l13.4 0 0 13.39 -37.49 0 0 -3.98 0.84 -0.68c1.6,-1.27 7.92,-9.2 12.69,-16.79 2.93,-4.68 5.21,-9.09 5.21,-11.38 0,-1.32 -0.5,-2.46 -1.33,-3.25 -0.79,-0.74 -1.93,-1.19 -3.26,-1.19 -1.19,0 -2.49,0.23 -3.87,0.68 -1.54,0.5 -3.18,1.26 -4.9,2.24l-3.91 2.24 0 -13.56 1.24 -0.66c2.37,-1.26 4.7,-2.18 7.05,-2.78 2.38,-0.61 4.78,-0.9 7.26,-0.9 4.95,0 9.27,1.51 12.37,4.06 3.15,2.6 5.02,6.23 5.02,10.43 0,3.27 -0.88,6.75 -3.02,10.97 -1.63,3.19 -4,6.83 -7.3,11.16zm21.71 7.83c1.68,0.51 3.18,0.89 4.57,1.15 1.76,0.33 3.38,0.48 5.01,0.48 4.48,0 8.25,-1.18 10.88,-3.2 2.52,-1.95 4,-4.71 4,-7.95 0,-4.31 -2.33,-7.29 -6.99,-8.95l-5.53 -1.96 5.42 -2.19c2.2,-0.89 3.76,-1.89 4.72,-3.1 0.92,-1.15 1.35,-2.58 1.35,-4.37 0,-2.89 -1.31,-5.31 -3.57,-7.01 -2.39,-1.79 -5.85,-2.83 -9.98,-2.83 -1.76,0 -3.25,0.12 -4.84,0.41 -1.25,0.22 -2.62,0.57 -4.31,1.06l0 2.93c0.6,-0.2 1.17,-0.37 1.73,-0.51l0 0.01c1.76,-0.45 3.39,-0.66 4.99,-0.66 2.73,0 5.1,0.71 6.81,1.99 1.81,1.35 2.86,3.26 2.86,5.59 -0.02,0.07 -0.01,0.2 -0.01,0.27 -0.09,2.3 -1.21,4.2 -3.17,5.52 -1.38,0.93 -3.16,1.54 -5.27,1.77l0 3.11c2.52,0.22 4.6,0.97 6.17,2.1 2.03,1.46 3.17,3.49 3.29,5.81l0.02 0.42c0,2.57 -1.15,4.73 -3.18,6.25 -1.91,1.44 -4.55,2.26 -7.66,2.26 -1.69,0 -3.31,-0.2 -5.14,-0.67 -0.69,-0.18 -1.41,-0.39 -2.17,-0.66l0 2.93zm3.52 5.57c-2.08,-0.39 -4.33,-1 -6.94,-1.86l-1.66 -0.55 0 -13.24 3.67 1.64c1.99,0.89 3.58,1.48 4.99,1.85 1.3,0.33 2.47,0.47 3.73,0.47 1.88,0 3.39,-0.43 4.38,-1.18 0.88,-0.66 1.38,-1.63 1.38,-2.81l0 -0.21c-0.05,-1 -0.54,-1.88 -1.4,-2.51 -1.01,-0.72 -2.56,-1.16 -4.58,-1.16l-0.81 0.02 -2.69 0.14 0 -12.24 2.64 0.1 0.55 0c1.79,0.01 3.19,-0.34 4.1,-0.95 0.72,-0.49 1.14,-1.2 1.17,-2.06l0 -0.13 -0.01 0c0,-0.91 -0.38,-1.64 -1.03,-2.13 -0.81,-0.6 -2.04,-0.93 -3.56,-0.93 -1.18,0 -2.35,0.15 -3.6,0.47l0 0.01c-1.38,0.35 -2.86,0.89 -4.53,1.64l-3.67 1.64 0 -13.29 1.72 -0.53c2.64,-0.81 4.7,-1.35 6.66,-1.71 2,-0.36 3.79,-0.51 5.85,-0.51 5.36,0 9.96,1.43 13.25,3.91 3.4,2.55 5.39,6.17 5.39,10.45 0,2.74 -0.75,5.02 -2.31,6.98 -0.72,0.91 -1.61,1.72 -2.68,2.46 4.01,2.56 6.01,6.27 6.01,11.13 0,4.6 -2.13,8.55 -5.77,11.36 -3.53,2.72 -8.46,4.31 -14.19,4.31 -1.96,0 -3.91,-0.18 -6.06,-0.58z"/>
   </g>
  </g>
  <g id="pessoas">
   <path fill="white" d="M105.93 110.97c0,-0.52 0.01,-1.87 0.86,-0.72 0.47,0.64 0.93,1.06 1.67,1.38 1.3,0.56 1.85,0.36 3.52,0.36 0.04,0.23 0.07,0.23 -0.12,0.43 -0.28,0.3 -1.31,0.96 -1.89,1.7 -1.34,1.73 -1.16,1.2 -2.41,3.3 -0.12,0.2 -0.42,0.82 -0.68,0.82 -0.64,0 -0.26,-1.57 -0.29,-2.09 -0.01,-0.12 -0.05,-0.19 -0.04,-0.41 0.06,-0.75 0.1,0 -0.02,-0.95 -0.03,-0.29 0.02,-0.2 0.02,-0.55l-0.35 -2.24c-0.11,-0.35 -0.27,-0.55 -0.27,-1.03zm-0.74 3.19c0,0.32 -0.05,0.33 0,0.68l-0.07 3.33c-0.05,0.84 -0.34,2.51 -0.74,3.2 -0.47,0.8 -0.74,0.72 -0.83,1.82 -0.1,1.21 -0.44,0.47 -0.61,2.04 -0.05,0.47 -0.33,1.66 -0.79,1.85 -0.34,0.15 -0.6,0.19 -0.83,0.53 -0.18,0.25 -0.39,0.46 -0.53,0.76 -0.15,0.35 -0.15,0.71 -0.45,0.91 -0.41,0.27 -0.5,0.13 -0.66,0.7 -0.11,0.4 0.01,0.76 0.01,1.23 0,0.28 -0.29,0.33 -0.48,0.47 -0.74,0.52 0.08,1.22 -0.23,2.14 -0.27,0.79 -0.17,1.04 0.33,1.7l0.79 0.91c0.36,0.27 0.7,0.35 0.94,0.75 0.41,0.66 0.67,1.54 1.28,2.05 0.17,0.15 0.3,0.19 0.4,0.42 0.1,0.23 0.1,0.48 0.09,0.79 -0.01,0.7 0.09,0.92 0.21,1.49l0.33 2.99c-0.01,1.08 0.56,1.77 0.55,2.85 0,0.6 0.08,1.05 0.19,1.51 0.12,0.48 0.06,1.05 0.14,1.55 0.05,0.26 0.12,0.43 0.14,0.68 0.02,0.29 -0.03,0.56 0.03,0.85 0.22,1.21 0.51,2.28 0.81,3.4 0.07,0.26 0.09,0.43 0.17,0.65 0.09,0.23 0.16,0.33 0.26,0.55 0.18,0.38 0.33,0.81 0.57,1.13 0.68,0.96 0.51,1.9 1.76,2.51 0.4,0.2 0.68,0.42 1.06,0.64 0.77,0.43 1.66,0.61 2.46,0.94 0.61,0.25 3.08,0.9 3.87,1.15 0.71,0.22 2.42,0.78 2.77,1.44 0.26,0.47 0.6,1.26 0.96,1.62 0.51,0.53 0.77,-0.08 2.01,0.1 0.87,0.12 1.08,0.85 1.99,1.67 0.43,0.38 1.26,0.87 1.79,1.13 0.44,0.23 0.47,0.36 0.63,0.86 0.28,0.85 0.49,1.26 0.75,2.17 0.13,0.46 0.19,0.68 0.38,1.05 0.51,0.99 1.19,4.63 1.48,5.85 0.09,0.39 0.18,0.78 0.29,1.13 0.11,0.33 0.22,0.83 0.36,1.14 0.37,0.82 0.45,1.55 0.74,2.18 0.61,1.28 0.28,1.22 0.55,2.37 0.1,0.42 0.17,0.75 0.26,1.16 0.11,0.47 0.13,2.59 0.72,3.7 0.35,0.64 0.43,1.3 0.83,2.09 0.46,0.91 0.71,2.92 1.04,4.05 0.17,0.58 0.24,1.24 0.53,1.71 0.44,0.71 0.27,0.96 0.29,1.5 0,0.09 0.04,0.21 0.02,0.39 -0.09,1.04 -0.62,1.78 -1.02,2.65 -0.11,0.24 -0.21,0.41 -0.33,0.62 -0.84,1.57 -0.18,2.66 0.66,3.91 0.19,0.28 0.26,0.5 0.42,0.81 0.21,0.42 0.22,0.32 0.22,0.93 0,0.45 0.08,0.53 0.05,1.05l0.08 1.6c0.02,0.32 -0.06,0.21 -0.06,0.54 0,0.31 0.06,0.2 0.06,0.47 0,0.27 -0.06,0.16 -0.06,0.48 0,0.25 0.06,0.24 0.05,0.46 -0.03,0.46 -0.08,1.19 -0.01,1.67 0.09,0.62 0.03,1.67 0.03,2.35 0,0.46 0.05,0.72 0.07,1.09l0.01 1.57c-0.02,0.27 0.04,0.23 0.05,0.53l0.07 3.46c0,0.97 0.21,1.3 0.27,2.11 0.07,1 0.03,1.02 0.7,1.61 0.33,0.3 0.18,0.86 0.28,1.34 0.32,1.41 0.03,1.99 -0.76,3.24l-1.03 1.68c-0.25,0.43 -0.5,1.62 -0.55,2.17 -0.08,0.88 -0.27,1.73 -0.27,2.65 0,0.41 0.1,0.58 0.13,0.89 0.04,0.33 -0.03,0.68 0.03,1l0.11 0.9c0,0.42 0.09,0.53 0.14,0.88 0.21,1.43 -0.68,0.46 -0.68,3.26l-0.01 0.67c-0.04,0.35 -0.12,0.38 -0.26,0.62 -0.4,0.74 0.46,1.36 -0.45,2.87 -0.28,0.46 -0.28,0.93 -0.5,1.34 -0.44,-0.04 -0.63,-0.4 -1.13,-0.18 -1.06,0.46 -0.49,1.97 -0.22,2.75 0.37,1.09 -0.18,0.85 -0.27,1.64 -0.04,0.35 0.03,0.71 -0.04,1.05 -0.11,0.45 -0.29,0.39 -0.4,0.76 -0.09,0.37 0.01,0.58 -0.24,0.92 -0.56,0.76 -0.9,1.13 -1.29,2.1 -0.12,0.31 -0.24,0.48 -0.37,0.78 -0.56,1.31 -0.79,3.56 -0.79,4.98 0,0.41 0.19,0.66 0.39,0.9 0.33,0.38 0.47,0.84 0.8,1.23l0.1 0.11c0.44,0.53 0.93,0.54 1.63,0.54 0.75,0 2.18,-0.37 2.8,-0.59l1.18 -0.51 2 -1.47c0.62,-0.56 1.04,-1.3 1.27,-2.12 0.17,-0.58 -0.1,-0.9 -0.12,-1.49 -0.02,-0.26 0.01,-0.55 -0.01,-0.81 -0.05,-0.69 -0.09,-1.51 0.24,-2.21 0.59,-1.23 0.85,-1.04 1.87,-1.59 0.74,-0.4 1.78,-2.24 2.09,-3.01 0.18,-0.48 0.36,-1.11 0.36,-1.68 0,-0.46 -0.36,-2 -0.52,-2.33 -0.53,-1.1 -1.51,-0.62 -1.45,-1.46 0.07,-0.83 0.21,-1.78 0.52,-2.41 0.28,-0.6 0.78,-0.93 0.9,-1.27 0.27,-0.73 -0.55,-0.11 0.83,-2.16 0.31,-0.46 0.72,-0.88 0.95,-1.42 0.65,-1.58 1.07,-1.95 1.07,-3.82 0,-0.92 -0.15,-1.33 0.21,-2.1 0.17,-0.38 0.16,-0.87 0.34,-1.35 0.1,-0.25 0.2,-0.33 0.3,-0.59l0.49 -1.21c0.29,-0.88 0.54,-1.7 0.84,-2.55 0.59,-1.61 0.66,-2.67 1.01,-4.08 0.17,-0.66 0.3,-0.58 0.94,-0.76l2.74 -0.65c0.68,-0.2 1.07,-0.54 1.64,-0.87 0.59,-0.35 2.08,-1.66 2.63,-1.66l0.2 0c0,0.67 0.17,2.4 0.33,3.01 0.22,0.89 0.34,2.16 0.81,2.92 0.6,0.94 0.38,2.15 0.61,3.12 0.07,0.28 0.28,0.98 0.26,1.19 -0.04,0.33 -0.38,0.69 -0.55,0.93 -0.23,0.3 -0.35,0.64 -0.51,0.99 -0.33,0.75 -0.46,1.64 -0.55,2.44 -0.05,0.45 -0.15,0.81 -0.13,1.36 0.01,0.34 0.06,0.34 0.07,0.68 0.07,2.31 0.75,2.4 0.75,3.12 0,0.19 -0.29,0.31 -0.34,0.69 -0.05,0.36 0.07,0.61 0.07,1.01 0,0.31 -0.15,0.48 -0.11,0.72 0.05,0.38 0.24,0.41 0.24,0.98 0,0.22 -0.34,0.43 -0.34,0.81 0,0.42 0.1,0.57 0.13,0.89 0.04,0.36 -0.06,0.59 -0.06,1.01 0,0.81 -0.03,1.24 -0.24,1.86 -0.27,0.76 -1.05,2.56 -1.05,3.23 0,0.41 0.14,0.86 0.14,1.16 0,0.77 -0.84,1.64 -0.53,3.44 0.18,1.02 -0.07,0.98 0.98,1.6 0.52,0.31 0.99,0.66 1.53,0.92 0.71,0.34 0.66,0.98 0.83,1.75 0.09,0.38 0.23,1.05 0.38,1.32 0.11,0.19 0.18,0.29 0.29,0.52 0.35,0.71 0.82,0.76 1.67,0.85 0.24,0.02 0.38,0.09 0.74,0.04 0.24,-0.04 0.43,-0.12 0.76,-0.12 1.03,-0.03 1.91,-0.2 2.84,-0.55 0.19,-0.08 0.37,-0.18 0.56,-0.26 0.99,-0.4 2.1,-1 2.1,-2.25l-0.52 -1.52c-0.2,-0.82 -0.68,-1.32 -1.26,-1.79l-0.95 -1.09c-0.25,-0.41 0.15,-0.4 0.15,-0.82 0,-0.35 -0.22,-0.38 -0.31,-0.71l-0.64 -2.62c0,-0.24 0.24,-0.53 0.34,-0.75 0.28,-0.56 0.51,-1.61 -0.12,-2.05 -0.17,-0.12 -0.18,-0.09 -0.41,-0.13 -0.21,-0.04 -0.29,-0.08 -0.49,-0.13 0,-0.97 0.33,-1.34 0.45,-2.2 0.09,-0.58 -0.18,-1.01 0.17,-1.59 0.13,-0.2 0.2,-0.33 0.29,-0.59 0.12,-0.34 0.06,-0.43 0.14,-0.75 0.05,-0.18 0.2,-0.4 0.28,-0.59 0.14,-0.34 0.03,-0.63 0.34,-1.43 0.09,-0.23 0.13,-0.44 0.2,-0.68 0.09,-0.31 0.14,-0.43 0.23,-0.66 0.51,-1.37 0.61,-2.17 0.86,-3.55l0.25 -1.52c0.17,-1.12 0.12,-2.32 0.12,-3.48 0,-0.93 -0.49,-1.68 -0.24,-3.02 0.13,-0.66 0.17,-0.97 0.12,-1.61 -0.02,-0.31 0.05,-0.41 -0.01,-0.94 -0.06,-0.5 -0.03,-1.07 -0.14,-1.56 -0.21,-0.84 0,-1 0.18,-1.78 0.08,-0.34 0.14,-0.65 0.21,-0.95l0.56 -1.68c0,-0.22 -0.14,-0.7 -0.14,-1.15 0,-0.66 0.51,-0.42 1.69,-0.63 0.41,-0.07 0.35,-0.01 0.69,0 0.21,0.01 0.48,-0.09 0.68,-0.11 0.63,-0.07 1.68,0.11 2.06,-0.46 0.19,-0.29 -0.04,-0.89 -0.12,-1.29 -0.11,-0.54 -0.06,-0.99 -0.14,-1.49 -0.08,-0.52 -0.17,-0.87 -0.28,-1.35 -0.12,-0.52 -0.05,-1.03 -0.19,-1.5 -0.14,-0.44 -0.21,-0.92 -0.3,-1.34 -0.15,-0.7 -0.03,-0.83 -0.01,-1.47 0.02,-0.59 -0.14,-0.92 -0.24,-1.4 -0.11,-0.53 0.01,-1.01 -0.13,-1.57 -0.25,-0.94 -0.46,-2.42 -0.92,-3.22 -1.17,-1.98 -0.48,-1.86 -0.48,-3.05 0,-0.59 -0.01,-1.09 -0.18,-1.65 -0.18,-0.62 -0.22,-0.59 -0.02,-1.19 0.12,-0.37 0.35,-1.37 0.32,-1.69 -0.07,-0.7 -0.5,-1.41 -0.98,-1.88 -0.66,-0.65 -1.5,-1.06 -2.22,-1.65 -0.73,-0.6 -1.57,-1.15 -1.99,-2.01 -0.62,-1.26 -0.63,-2.77 -1.36,-4 -0.28,-0.47 -0.28,-0.39 -0.65,-0.71 -0.16,-0.15 -0.19,-0.17 -0.36,-0.32 -1.1,-0.88 1.8,-1.65 1.8,-2.96 0,-0.36 -0.22,-0.59 -0.32,-0.82 -0.12,-0.25 -0.2,-0.7 -0.27,-0.96 -0.1,-0.35 -0.15,-0.62 -0.25,-0.98 -0.1,-0.35 -0.25,-0.55 -0.38,-0.84 -0.23,-0.52 -0.56,-2.25 -0.69,-2.98 -0.06,-0.4 -0.18,-0.55 -0.28,-0.93l-0.74 -2.93c-0.2,-0.78 -0.64,-1.95 -1.01,-2.66 -0.5,-0.96 -1.26,-2.26 -1.54,-3.28 -0.15,-0.53 -0.71,-2.22 -1.01,-2.66 -0.17,-0.26 -0.3,-0.5 -0.43,-0.78 -0.21,-0.47 -0.69,-2.4 -0.74,-2.93 -0.04,-0.4 -0.01,-0.82 -0.06,-1.17 -0.06,-0.47 0.02,-0.66 -0.11,-1.11 -0.11,-0.37 -0.25,-0.49 -0.35,-0.86 -0.2,-0.69 -0.32,-1.27 -0.44,-2.01 -0.1,-0.66 -0.47,-1.33 -0.47,-2.04 0,-0.52 0.27,-0.75 0.27,-1.22 0,-0.25 -0.24,-0.53 -0.34,-0.75 -0.13,-0.24 -0.2,-0.55 -0.26,-0.83l-0.8 -3.54c-0.33,-1.22 -0.64,-1 -1.03,-3.32 -0.13,-0.75 -0.23,-1.06 -0.61,-1.56 -0.17,-0.23 -0.3,-0.39 -0.47,-0.61 -0.18,-0.22 -0.22,-0.48 -0.31,-0.78 -0.42,-1.48 -0.22,-1.94 -0.66,-3.75 -0.11,-0.44 -0.74,-3.07 -0.92,-3.43 -0.27,-0.55 -0.41,-1.08 -0.54,-1.7 -0.26,-1.34 -0.72,-2.21 -0.72,-3.63 0,-0.85 0.1,-2.43 -0.03,-3.23 -0.12,-0.78 0.17,-1.05 -0.13,-2.51 -0.31,-1.51 0.04,-3.2 -0.44,-4.73l-0.29 -1c-0.19,-0.66 -0.3,-1.39 -0.48,-2.1 -0.07,-0.29 -0.16,-0.69 -0.25,-0.97l-0.3 -0.98c-0.47,-1.18 -0.29,-0.48 -0.62,-1.97 -0.22,-1.01 -0.26,-2.03 -0.55,-3.32l-0.14 -0.79c-0.01,-0.36 0.09,-0.14 -0.05,-0.92 -0.04,-0.24 -0.02,-0.45 -0.05,-0.77 -0.03,-0.46 -0.4,-0.84 -0.4,-1.15 0,-0.82 0.71,-0.72 0.91,-2.08 0.23,-1.56 -0.22,-2.05 0.85,-2.89 0.7,-0.55 2.38,-2.16 2.38,-3.11 0,-0.76 -1,-0.77 -1.43,-0.21 -0.41,0.56 -0.96,1.21 -1.63,1.49 -0.19,0.08 0.08,0.05 -0.27,0.07 0.03,-0.25 0.58,-1.02 0.73,-1.17 0.37,-0.36 0.68,-0.57 0.95,-1.02 0.23,-0.39 0.55,-0.58 0.87,-1.1 0.18,-0.31 0.65,-1.04 0.65,-1.39 0,-1.03 -1.44,-0.48 -1.81,0.03 -0.09,0.11 -0.14,0.22 -0.22,0.32 -0.09,0.12 -0.16,0.16 -0.26,0.28 -0.47,0.55 -1.27,2.2 -1.86,2.36 0,-0.73 0.42,-0.93 0.85,-2.01 0.26,-0.68 0.69,-1.3 1.09,-1.89 0.32,-0.46 0.71,-0.67 0.71,-1.4 0,-0.76 -1.09,-1.06 -1.65,-0.29 -0.11,0.15 -0.14,0.22 -0.24,0.37l-0.68 1.09c-0.86,1.17 -0.6,0.55 -1.32,2.27 -0.17,0.42 -0.31,0.88 -0.62,1.22 -0.15,0.18 -0.17,0.14 -0.38,0.09 0,-0.89 0.31,-1.3 0.5,-2.14 0.15,-0.63 0.45,-1.67 0.45,-2.27 0,-0.83 -1.44,-1.14 -1.97,0.68 -0.21,0.73 -0.32,1.41 -0.63,2.08 -0.49,1.05 -0.37,1.21 -0.69,2.02 -0.53,1.34 -0.23,1.89 -0.58,2.15 -0.16,-0.12 -0.18,-0.18 -0.24,-0.44 -0.14,-0.58 -0.25,-1.13 -0.62,-1.55 -0.33,-0.37 -1.34,-1.07 -1.85,-1.07 -0.52,0 -1.02,0.19 -1.11,0.66 -0.03,0.19 0.03,0.43 0.16,0.63 0.62,1 0.51,0.17 1.01,1.64 0.09,0.27 0.17,0.32 0.24,0.64 0.17,0.8 -0.03,1.61 0.35,2.29 0.23,0.4 0.48,0.72 0.62,1.15 0.17,0.5 0.28,0.8 0.67,1.1 0.4,0.31 0.47,0.52 0.96,0.81 0.66,0.38 0.66,1.19 0.7,1.94 0.02,0.53 0.23,0.99 0.26,1.5 0.05,0.65 0.02,0.92 0.16,1.61 0.05,0.23 0.04,0.51 0.05,0.83 0.01,0.56 0.21,0.93 0.21,1.56 -0.01,0.69 0.14,0.92 0.13,1.63l0.07 1.7c0,1.39 -0.41,0.78 -0.01,2.72 0.08,0.38 0.18,0.73 0.25,1.11 0.16,0.86 0,1.97 0.4,3.54 0.08,0.35 0.21,0.77 0.24,1.12 0.04,0.59 0.02,0.76 0.12,1.24 0.33,1.65 0.23,0.66 0.1,1.82 -0.2,1.7 -0.73,3.64 -0.47,5.34 0.15,0.98 0.04,2.04 0.12,3.14 0.02,0.24 0.1,0.47 0.12,0.69 0.03,0.3 0,0.53 0.05,0.83 0.04,0.31 0.06,0.42 0.12,0.69 0.34,1.4 -0.29,0.87 -0.29,2.27 -0.39,-0.55 -0.74,-1.46 -1.17,-2.09 -0.25,-0.36 -0.34,-0.7 -0.6,-1.04 -0.53,-0.71 -0.68,-0.19 -0.68,-1.42 0,-0.27 0.07,-0.35 0.04,-0.58 -0.01,-0.14 -0.08,-0.43 -0.12,-0.56 -0.15,-0.48 -0.28,-0.45 -0.64,-0.72 -0.39,-0.28 -0.16,-0.5 -0.72,-0.63 -0.84,-0.21 -0.46,-0.18 -0.46,-0.84 0,-0.27 -0.96,-0.71 -2.15,-0.04 -0.1,0.05 -1.01,0.45 -1.04,0.45 -0.39,0 -0.24,-0.8 -1.06,-0.52 -0.31,0.11 -0.47,0.41 -0.64,0.66 -0.08,0.11 -0.12,0.15 -0.2,0.27 -0.5,-0.01 -0.95,-0.18 -1.34,0.22 -0.22,0.22 -0.36,0.25 -0.52,0.5 -0.6,0.86 -1.1,1.4 -1.56,2.38 -0.12,0.27 -0.24,0.39 -0.36,0.65 -0.22,0.47 -0.15,1.06 -0.64,1.34 -0.27,0.16 -0.36,0.18 -0.56,0.45 -0.41,0.56 -0.21,0.89 -0.4,1.57 -0.13,0.47 -0.6,0.74 -0.38,1.43 0.17,0.54 0.67,0.78 0.67,1.44 0,0.55 -0.42,0.6 -0.25,1.53 0.1,0.53 0.24,1.22 0.45,1.59 1.03,1.78 1.39,1.32 2.4,1.68 0.46,0.16 0.63,0.75 0.87,1.16 0.15,0.26 0.16,0.46 0.31,0.72 0.13,0.25 0.25,0.39 0.35,0.66 0.24,0.66 0.25,0.79 0.57,1.46 0.24,0.5 0.46,0.9 0.59,1.45 -0.49,0.33 -0.94,-0.03 -1.28,0.41 -0.13,0.17 -0.2,0.45 -0.33,0.62 -0.56,0.72 -1.16,0.16 -1.88,0.51 -0.41,0.2 -0.23,0.57 -0.66,0.76 -1.55,0.71 -2.42,-0.67 -4.58,0.79 -0.37,0.24 -0.87,0.44 -1.4,0.26 -0.82,-0.29 -0.98,0.03 -1.48,-0.29 -0.62,-0.41 -0.11,-0.67 -1.52,-0.44 -0.36,0.07 -0.69,0.02 -1.59,0.17 -0.68,0.12 -1.89,0.36 -2.32,-0.34l-0.7 -1.27c-0.43,-0.9 -0.91,-1.68 -1.42,-2.52 -0.13,-0.22 -0.21,-0.41 -0.32,-0.63 -0.13,-0.24 -0.24,-0.37 -0.36,-0.66 -0.23,-0.55 -0.78,-1.53 -0.92,-2 -0.13,-0.44 -0.9,-1.96 -0.9,-2.16 0,-0.38 0.1,-0.57 0.12,-0.83 0.01,-0.18 -0.08,-0.58 -0.13,-0.78 -0.12,-0.51 -0.23,-1.09 -0.39,-1.58 -0.31,-0.94 -0.41,-2.2 -0.76,-3.11 -0.1,-0.26 -0.18,-0.36 -0.28,-0.67l-0.44 -1.47c-0.1,-0.28 -0.25,-0.41 -0.36,-0.65 -0.46,-0.98 -0.19,-1.74 -0.44,-2.49 -0.53,-1.58 0.01,-1.16 -0.28,-2.5 -0.13,-0.63 -0.52,-1.52 -0.93,-1.99 -0.6,-0.71 -0.55,-0.49 -0.02,-2.1l0.64 -2.21c0.1,-0.37 0.15,-0.4 0.15,-0.87 0,-0.74 0.27,-0.91 0.35,-1.62 0.17,-1.56 0.12,-1.07 0.67,-2.25l1.74 -3.15c0.39,-0.59 0.87,-1.07 1.22,-1.69l1.41 -1.58c0.69,-0.57 1.18,-1.14 2.08,-1.86 0.18,-0.15 0.28,-0.32 0.45,-0.5l2.67 -2.22c0.55,-0.4 1.13,-0.79 1.56,-1.36 0.17,-0.21 0.33,-0.33 0.48,-0.54 0.27,-0.37 0.63,-0.74 0.85,-1.11l0.75 -1.22c0.36,-0.55 1.19,-1.87 1.43,-2.45 0.2,-0.5 0.45,-0.81 0.66,-1.31 0.1,-0.25 0.16,-0.44 0.26,-0.69l0.56 -2.42c0.13,-0.72 0.16,-4.73 -0.19,-5.51 -0.33,-0.75 -0.33,-1.57 -0.61,-2.3 -0.11,-0.28 -0.22,-0.39 -0.34,-0.62l-0.6 -1.36c-0.09,-0.24 -0.18,-0.42 -0.32,-0.64 -0.15,-0.26 -0.18,-0.42 -0.31,-0.71 -0.08,-0.18 -0.09,-0.16 -0.17,-0.3 -0.41,-0.71 -0.93,-1.33 -1.45,-1.95 -0.3,-0.36 -0.75,-0.58 -1.14,-0.82 -0.45,-0.27 -0.89,-0.42 -1.41,-0.56 -1,-0.28 -2.31,-0.43 -3.34,-0.28 -0.7,0.1 -0.99,0.2 -1.51,0.47 -0.5,0.25 -0.91,0.28 -1.36,0.61l-1.15 0.82c-0.93,0.69 -1.9,1.35 -2.71,2.17 -1.16,1.16 -2.17,2.47 -2.95,3.91 -1.41,2.61 -0.94,1.58 -1.63,4.28l-0.4 4.43c0.13,0.82 0.16,1.78 0.37,2.55 0.24,0.85 -0.01,1.37 0.46,2.32 0.32,0.66 0.46,1.49 0.8,2.18 0.3,0.6 0.59,2.36 0.81,3.13 0.14,0.47 0.32,1.11 0.37,1.6l0.15 1.82z"/>
   <path fill="white" d="M268.34 128.15c-1.8,0 -2.23,0.98 -3.24,2.05 -0.15,0.16 -0.23,0.28 -0.34,0.49 -0.14,0.27 -0.19,0.3 -0.35,0.53 -0.31,0.47 -0.45,1.16 -0.74,1.7 -0.47,0.84 -0.83,2.33 -0.83,3.38 0,0.83 0.41,1.72 0.18,2.48 -0.23,0.75 -0.57,1.35 -0.83,2.1 -0.18,0.51 -0.08,1.24 -0.1,1.87 -0.02,0.97 -0.7,2.15 -1.08,2.79 -0.41,0.69 -1.36,1.62 -2.25,1.62 -0.38,0 -0.81,-0.12 -1.09,-0.12 -0.28,-0.01 -0.45,0.12 -0.87,0.12 -1.2,0.01 -2.4,0.32 -3.4,0.82 -0.47,0.23 -0.99,0.39 -1.47,0.63 -0.81,0.4 -2.01,0.98 -2.62,1.59l-0.75 0.81c-0.62,0.7 -1.31,2.26 -1.57,3.18 -0.16,0.56 -0.39,1.01 -0.59,1.52 -0.23,0.57 -0.59,1.67 -0.99,2.13 -0.32,0.36 -0.57,0.84 -0.92,1.19l-2.2 2.01c-0.13,0.11 -0.17,0.16 -0.29,0.25 -0.47,0.39 -0.9,0.88 -1.26,1.39 -0.38,0.55 -0.73,1.49 -0.98,2.14 -0.58,1.54 -0.46,1.03 -1,2.19 -0.06,0.12 -0.09,0.21 -0.15,0.33 -0.43,0.9 -0.79,1.95 -0.46,2.95 0.3,0.91 0.49,0.45 0.22,1.56 -0.36,1.46 -0.27,3.21 -0.49,4.74 -0.15,1.07 0.06,1.2 -0.43,2.76 -0.08,0.28 -0.15,0.48 -0.22,0.79 -0.2,0.88 -0.46,1.68 -0.61,2.59 -0.26,1.55 -0.43,2.73 -1.06,4.17 -1.82,4.22 0.27,4.36 1.09,5.73 0.29,0.47 0.59,0.9 1.07,1.17 0.5,0.29 1.42,0.48 2.03,0.48 0.29,0 0.94,-0.24 1.13,-0.37 1.13,-0.75 0.11,-2.34 -0.1,-2.83 -0.14,-0.32 -0.27,-0.54 -0.06,-0.79 0.56,-0.67 1.11,-1.26 1.46,-2.14 0.48,-1.22 0.61,-2.28 0.38,-3.53 -0.54,-2.87 -0.31,-4.8 0.84,-7.54l1.17 -2.42c0.73,0.06 1.44,1.19 2.73,0.21 0.86,-0.64 1.44,-1.61 2.19,-2.36 0.14,-0.14 0.24,-0.17 0.4,-0.35 0.15,-0.17 0.66,-0.83 0.73,-0.23 0.11,0.96 0.02,1.9 0.17,2.89 0.33,2.27 -0.13,4.81 0.33,7.21 0.33,1.77 0.33,1.24 0.62,2.43 0.22,0.86 0.5,1.49 0.77,2.22 0.14,0.38 0.26,0.71 0.44,1.06 0.75,1.47 0.87,3.28 1.12,4.92 0.08,0.54 0.04,0.91 0.08,1.48 0.03,0.45 0.14,0.9 0.13,1.36 0,1.94 -0.06,3.9 0.25,5.79 0.11,0.63 0.21,1.26 0.42,1.82l0.37 1.14c0.07,0.27 -0.02,0.95 -0.02,1.3 0,0.74 0.37,3.63 0.51,4.25 0.11,0.52 0.1,1.03 0.19,1.57l0.15 1c0.04,0.22 0.08,0.31 0.1,0.52 0.11,1.44 0.39,2.88 0.41,4.34l-0.07 3.53c0,0.36 0.03,0.8 0,1.15 -0.03,0.4 -0.13,0.82 -0.13,1.29 0,0.42 0.08,1.77 0.54,1.77 0.5,0 0.79,-0.5 1.29,-0.55 0.14,0.59 -0.12,1.73 -0.24,2.34 -0.15,0.73 -0.39,1.44 -0.61,2.11l-0.62 2.1c-0.41,1.66 -0.36,3.07 -0.36,4.79l0.38 3.01c0.17,1.02 0.37,1.84 0.54,2.86 0.08,0.54 0.21,0.91 0.29,1.41 0.08,0.49 0.14,0.99 0.21,1.49l0.27 3.73c0,0.46 -0.07,0.74 -0.11,1.1 -0.11,0.88 -0.1,2.42 -0.61,3.13 -0.39,0.57 -0.62,0.85 -0.81,1.63 -0.22,0.91 -0.59,2.36 -0.27,3.34 0.19,0.57 0.29,0.98 0.82,1.35 1.04,0.72 2.58,0.14 3.58,0.77l0.88 0.61c0.28,0.23 0.45,0.43 0.79,0.64 0.98,0.62 2.15,1.12 3.36,0.96 1.19,-0.17 3.01,0.25 5.27,-0.57 1.17,-0.44 2.04,-1.11 1.32,-2.4 -0.1,-0.17 -0.09,-0.12 -0.21,-0.27 -0.1,-0.12 -0.1,-0.14 -0.21,-0.26 -0.3,-0.35 -0.73,-0.61 -1.11,-0.85l-1.19 -0.72c-0.63,-0.33 -1.56,-1.23 -2.02,-1.85 -0.15,-0.2 -0.25,-0.38 -0.4,-0.55l-1.12 -1.33c-0.28,-0.3 -0.42,-0.46 -0.81,-0.68 -0.29,-0.17 -0.38,-0.22 -0.32,-0.62l0.17 -1.74c-0.01,-0.68 0.13,-1.11 0.13,-1.83 0,-0.46 0.03,-2.38 0.12,-2.8 0.11,-0.54 0.09,-1.19 0.2,-1.78l0.27 -2.64c0.16,-1.12 0.2,-2.4 0.37,-3.57 0.47,-3.34 1.03,-6.62 1.78,-9.89 0.25,-1.07 0.41,-2.17 0.73,-3.21 0.53,-1.67 0.22,-3.71 0.62,-4.2l0.71 -0.79c0.02,-0.02 0.09,-0.1 0.1,-0.1l0.65 -0.64c0.71,-0.68 1.59,-0.86 2.02,-1.85 0.33,-0.77 0.22,-0.81 0.17,-1.66 -0.02,-0.32 0.02,-0.61 -0.02,-0.93 -0.11,-0.68 -0.11,-1.42 -0.11,-2.13 0,-0.73 0.84,-1.08 1.26,-1.58 0.01,-0.01 0.02,-0.03 0.03,-0.04 0.01,-0.01 0.02,-0.03 0.03,-0.04l0.1 -0.11c0,-0.01 0.02,-0.03 0.03,-0.04l1.03 -1c0.52,-0.44 0.86,-0.74 1.51,-1 1.43,-0.58 0.7,0.2 0.42,1.23 -0.14,0.5 -0.26,1.09 -0.4,1.57l-0.79 3.15c-0.2,0.8 -0.37,1.48 -0.69,2.23l-2.31 4.62c-0.44,0.88 -1,1.66 -1.35,2.58 -0.78,2.08 -1.3,1.55 -2.65,3.26 -0.16,0.21 -0.26,0.31 -0.39,0.56 -0.73,1.45 -0.81,2.46 -0.38,3.96 0.31,1.13 0.93,2.11 1.84,2.84 0.87,0.71 1.82,1.43 2.11,2.58 0.11,0.43 0.12,0.91 0.21,1.42 0.24,1.41 0.31,2.31 1.29,3.4 0.49,0.55 1.01,1.06 1.61,1.51 0.29,0.22 0.57,0.45 0.91,0.65l1.02 0.54c1.31,0.52 2.69,0.41 3.28,-1.01 0.41,-0.98 0.17,-2.1 -0.28,-3.01l-1.39 -4.38c-0.26,-1.03 -0.42,-3.98 -0.42,-5.15 0,-0.21 0.03,-0.15 0.03,-0.27 0.01,-1.3 -0.64,-1.51 -0.21,-2.49 0.08,-0.18 0.08,-0.27 0.15,-0.47 0.23,-0.72 1.66,-3.5 2.09,-4.22l1.78 -3.24c0.67,-1.01 1.3,-2.09 1.84,-3.18l1.5 -2.85c0.1,-0.19 0.15,-0.23 0.25,-0.43 0.27,-0.56 0.46,-1.18 0.8,-1.71 0.44,-0.68 0.98,-2.21 1.32,-3.02l0.93 -2.27c0.27,-0.61 0.57,-1.09 0.75,-1.76 0.36,-1.29 1.06,-1.98 1.06,-4.03 0,-1.11 0.13,-2.59 -0.43,-3.57l-0.88 -1.37c-0.22,-0.24 -0.88,-1.03 -0.97,-1.26 -0.12,-0.3 -0.14,-0.54 -0.26,-0.83 -0.25,-0.62 -0.46,-0.99 -0.6,-1.64 -0.28,-1.33 -0.98,-2.72 -2.32,-3.25 -2.17,-0.86 -1.6,-0.99 -2.78,-1.64 -0.29,-0.16 -0.42,-0.24 -0.66,-0.42 -0.37,-0.29 -0.63,-0.73 -1.15,-1.09 -0.54,-0.38 -1.75,-0.77 -1.98,-1.42 -0.23,-0.65 0.02,-1.17 -0.48,-1.69 -0.1,-0.11 -0.17,-0.16 -0.28,-0.27 -0.33,-0.33 -0.21,-0.83 -0.42,-1.27 -0.63,-1.28 -2.31,-0.34 -1.77,-3.89l0.31 -2.87 0 -3.87c0,-0.43 -0.1,-0.6 -0.13,-0.95 -0.01,-0.18 0.01,-0.36 -0.01,-0.53 -0.01,-0.14 -0.07,-0.34 -0.1,-0.51 -0.06,-0.36 0,-0.74 -0.05,-1.1 -0.11,-0.73 -0.12,-1.46 -0.02,-2.18 0.04,-0.3 0.02,-0.81 0.08,-1.14 0.04,-0.19 0.08,-0.31 0.09,-0.46 0.02,-0.22 0.01,-0.34 0.05,-0.56l0.34 -2.04c0.06,-0.36 0.09,-0.76 0.14,-1.07 0.47,-2.69 0.06,-5.86 -1.37,-7.95 -0.43,-0.63 -0.64,-0.81 -0.98,-1.27 -0.22,-0.28 -1.09,-0.81 -1.09,-1.15 0,-0.12 0.41,-0.73 0.5,-0.86 0.52,-0.7 0.9,-0.28 1.35,-1.37 0.25,-0.62 0.33,-1.54 0.6,-2.18 0.21,-0.5 0.4,-0.35 0.68,-0.67 0.36,-0.41 0.21,-0.47 0.82,-0.29 0.18,0.06 0.28,0.08 0.48,-0.04 0.33,-0.19 0.42,-1.16 0.55,-1.56l0.67 -2.05c0.14,-0.52 0.13,-0.57 0.57,-0.85 0.3,-0.2 0.42,-0.47 0.35,-0.97 -0.05,-0.35 -0.05,-0.92 -0.1,-1.26 -0.13,-0.86 0.1,-0.57 0.3,-1.03 0.28,-0.64 -0.68,-0.9 0.27,-1.76 0.25,-0.22 0.56,-0.2 0.56,-0.66 0,-0.62 -0.58,-0.38 -1.71,-1.75 -0.3,-0.36 -0.38,-0.61 -0.75,-0.95 -0.12,-0.12 -0.93,-0.74 -0.93,-0.83 0,-0.38 0.67,-0.92 -0.33,-1.16 -0.64,-0.15 -0.44,-0.7 -1.25,-0.8 -0.32,-0.03 -0.49,0.1 -0.92,0.05 -0.55,-0.06 -1.15,-0.1 -1.71,-0.26 -0.69,-0.2 -1.58,-0.27 -2.38,-0.27 -0.51,0 -0.72,0.12 -1.13,0.22 -0.37,0.09 -0.77,-0.02 -1.24,-0.02z"/>
   <path fill="white" d="M222.37 153.34c-0.34,-0.23 -1.08,-2.2 -1.08,-2.72 0,-1.84 0.78,-0.77 1.68,-1.71 0.03,-0.03 0.22,-0.24 0.24,-0.25 0.9,-0.6 -0.33,2.56 -0.42,2.85 -0.05,0.13 -0.18,1.34 -0.42,1.83zm-45.01 -34.22c0,1.86 0.27,1.58 0.36,2.23 0.08,0.55 -0.63,-0.19 -1.38,-0.19 -0.44,0 -0.67,0.66 -0.21,1.29 0.18,0.24 0.25,0.24 0.41,0.54 -0.34,0.17 -1.16,0.27 -0.47,1.36 0.52,0.82 2.03,1.5 2.92,1.97 0.52,0.27 0.72,0.93 1.03,1.41 0.28,0.45 0.86,0.78 1.27,1.11 0.79,0.65 2.28,0.76 2.61,1.06l0.57 0.64c0.11,0.11 0.21,0.2 0.3,0.32l2.11 2.7c0.75,0.92 1.34,1.93 1.97,2.93l0.68 1.14c0.29,0.52 0.54,1.07 0.87,1.52 0.11,0.16 0.13,0.16 0.24,0.36 0.1,0.17 0.15,0.25 0.23,0.39 0.18,0.31 0.23,0.46 0.46,0.76l2.32 2.56c0.26,0.2 0.38,0.3 0.63,0.53 0.78,0.73 1.34,0.7 1.98,1.69 0.4,0.6 1.14,1.5 1.65,2.01 0.59,0.58 1.18,1.27 1.81,1.8l3.23 2.87c0.24,0.18 0.41,0.37 0.63,0.59 0.21,0.2 0.36,0.41 0.53,0.63 0.2,0.25 0.42,0.4 0.27,0.81l-1.95 4.17c-0.14,0.29 -0.28,0.55 -0.41,0.8 -0.4,0.75 -0.78,1.68 -1.21,2.4 -0.31,0.52 -0.53,1.08 -0.86,1.58 -0.16,0.27 -0.31,0.49 -0.47,0.75 -0.48,0.76 -0.67,1.41 -0.67,2.32 0,0.87 0.33,1.45 0.54,2.11l0.56 1.48c1.24,2.6 1.33,1.51 1.35,5.65l-0.34 8.69c0,0.42 -0.04,0.57 -0.07,0.94 -0.03,0.27 -0.06,0.63 -0.1,0.92l-0.44 3.57c0,0.34 0.11,0.54 0.28,0.73 0.23,0.24 0.29,0.34 0.49,0.6 0.21,0.26 1.06,0.78 1.06,1.04 0,0.89 -0.37,3.13 -0.59,3.97l-0.81 4.69c-0.28,1.77 -0.07,1.44 -1,3.13 -0.1,0.19 -0.16,0.26 -0.25,0.44 -0.35,0.75 -0.82,1.47 -1.22,2.24l-2.92 5.29c-0.2,0.32 -0.3,0.62 -0.47,0.95 -0.17,0.32 -0.33,0.5 -0.5,0.86 -0.17,0.36 -0.23,0.6 -0.43,0.94 -0.37,0.62 -0.9,2.47 -1.28,2.85 -0.17,0.17 -0.69,0.34 -0.92,0.44 -0.85,0.39 -0.73,0.89 -1.21,1.58 -0.93,1.33 -0.74,1.49 -1,3.07 -0.07,0.42 -0.15,0.84 -0.16,1.26 -0.04,0.97 -0.67,4.43 -0.58,4.85 0.08,0.36 0.25,0.69 0.45,0.91 0.22,0.23 0.57,0.37 0.65,0.71 0.16,0.72 -0.3,2.87 -0.32,3.78 -0.04,1.69 -0.34,3.09 -0.34,5.16 0.01,2.93 -0.63,1.56 -1.11,4.4l-0.26 1.09c-0.04,0.12 -0.06,0.39 -0.09,0.58l-0.3 1.81c-0.18,0.99 -0.3,1.28 -0.51,2.21 -0.17,0.75 -0.29,1.59 -0.52,2.26 -0.13,0.36 -0.21,0.6 -0.31,1.06 -0.04,0.2 -0.09,0.37 -0.15,0.52 -0.32,0.71 -1.11,-0.45 -1.58,2.56 -0.12,0.77 -0.41,0.8 -1.1,1 -0.38,0.11 -0.74,0.16 -1.13,0.24 -0.49,0.1 -0.7,0.11 -0.82,0.6 0.29,0.33 0.34,0.34 0.96,0.34 -0.03,0.29 -0.28,0.5 -0.28,0.61 0,0.62 0.37,0.47 -1.21,1.58 -1.16,0.8 -3.2,1.74 -3.2,3.38 0,0.45 0.15,0.8 0.36,1.06 0.9,1.11 3.52,0.84 4.94,0.84 1.21,0 2.27,-0.28 3.46,-0.27 1.13,0.01 3.66,-0.39 4.8,-0.77 1.42,-0.47 2.74,-1.07 2.74,-2.96 0,-0.57 -0.18,-0.88 -0.26,-1.31 -0.09,-0.51 -0.26,-0.77 -0.29,-1.28 -0.02,-0.49 -0.13,-0.87 -0.22,-1.33 -0.52,-2.7 -0.01,-4.07 0.8,-6.57 0.1,-0.3 0.13,-0.48 0.23,-0.73 0.97,-2.41 2.14,-3.77 2.62,-4.98l1.29 -3.46c0.21,-0.72 0.57,-1.36 0.78,-2.07l0.96 -2.84c0.26,-0.83 0.56,-2.2 0.71,-3.1 0.05,-0.3 0.09,-0.51 0.14,-0.81 0.05,-0.41 -0.05,-0.52 0.23,-0.72 0.1,0.42 0.53,1.07 0.89,1.22 0.38,0.15 0.48,-0.04 0.74,0.27 0.19,0.23 0.25,0.36 0.49,0.6 0.21,0.2 0.3,0.29 0.49,0.53l2.27 2.48c0.09,0.1 0.16,0.18 0.25,0.29 0.18,0.24 0.28,0.33 0.49,0.53 0.22,0.22 0.3,0.37 0.5,0.58 0.85,0.86 2.93,3.08 3.45,3.96 0.25,0.43 0.14,0.31 0.21,0.87 0.04,0.34 0.23,0.38 0.41,0.61l0.85 1.26c0.19,0.34 0.31,0.7 0.53,1.03 0.11,0.16 0.11,0.13 0.22,0.32 0.17,0.32 0.18,0.4 0.4,0.69l0.85 1.25c0.16,0.2 0.33,0.35 0.45,0.57 0.22,0.41 0.9,1.97 0.9,2.36 0,0.53 -0.48,0.72 -0.7,1.13 -0.27,0.53 -0.38,0.4 -0.9,0.27 -0.54,-0.14 -0.68,-0.23 -1.18,-0.11 -0.2,0.84 0.77,0.61 1.08,1.09 -0.13,0.18 -0.47,0.3 -0.68,0.46 -1.39,1.03 -2.79,1.14 -4.55,2.18 -0.6,0.36 -0.74,0.69 -0.74,1.43 0,0.99 0.47,1.76 1.17,2.36 0.99,0.83 2.36,0.76 3.79,0.76 0.84,0 1.44,-0.05 2.24,-0.06l2.1 -0.21c1,-0.05 1.23,0.05 2.07,-0.24 0.45,-0.16 0.78,-0.37 1.18,-0.58 0.43,-0.23 0.77,-0.39 1.26,-0.51 0.88,-0.22 1.32,-0.08 2.13,-0.18 0.94,-0.12 2.06,-0.29 2.88,-0.58 0.85,-0.31 2.14,-1.2 2.7,-1.98 0.43,-0.6 0.49,-0.87 0.41,-1.76 -0.08,-0.85 -0.66,-1.68 -1.12,-2.35 -0.12,-0.18 -0.14,-0.17 -0.24,-0.37 -0.46,-0.9 -0.93,-1.75 -1.48,-2.6 -0.17,-0.26 -0.36,-0.42 -0.66,-0.56 -0.84,-0.41 -0.66,-0.21 -1.29,-1.02l-2.34 -3.5c-0.15,-0.26 -0.29,-0.44 -0.45,-0.7 -0.08,-0.15 -0.1,-0.21 -0.19,-0.35l-3.29 -5.53c-0.43,-0.73 -0.78,-1.51 -1.29,-2.18l-1.43 -2.1c-0.1,-0.13 -0.14,-0.16 -0.25,-0.3 -0.42,-0.56 -0.8,-1.13 -1.26,-1.65 -0.37,-0.41 -0.68,-0.87 -1.06,-1.26 -0.14,-0.14 -0.15,-0.18 -0.27,-0.33 -0.11,-0.13 -0.19,-0.2 -0.3,-0.31 -0.71,-0.7 -1.89,-1.48 -2.55,-2.14 -1.29,-1.29 -2.05,-1.13 -2.05,-3.24 0,-0.45 1.35,-2.56 1.67,-3.22l2.13 -4.05c0.14,-0.31 0.29,-0.47 0.45,-0.77l0.79 -1.72c0.36,-0.85 1.42,-2.14 1.98,-2.98l1.75 -2.53c0.42,-0.57 0.39,-0.49 1.05,-0.85l0.66 -0.56c0.16,-0.17 0.16,-0.13 0.33,-0.28 0.39,-0.34 1.04,-1.34 1.34,-1.78 0.16,-0.25 0.34,-0.48 0.48,-0.75 0.42,-0.82 0.8,-1.77 1.01,-2.72 0.41,-1.86 0.45,-3.98 0.14,-5.83 -0.14,-0.82 -0.36,-1.32 -0.57,-2.08 -0.11,-0.4 -0.26,-0.55 -0.42,-0.87 -0.15,-0.32 -0.1,-0.83 -0.1,-1.26 0,-1.69 0.05,-3.52 -0.14,-5.15 -0.1,-0.79 -0.58,-2.28 -0.9,-3.04 -0.65,-1.51 -0.7,-3.45 -0.42,-5.09 0.09,-0.53 0.14,-1.15 0.28,-1.62 0.36,-1.22 0.62,-3.11 1.01,-4.63 0.07,-0.29 0.12,-0.48 0.18,-0.77 0.06,-0.31 0.12,-0.44 0.21,-0.73 1.04,-3.52 1.48,-2.33 1.68,-2.33 0.23,0 0.91,-0.16 1.07,-0.29 0.19,-0.13 0.47,-0.6 0.62,-0.81 0.56,-0.75 0.72,-0.75 1.08,-1.7 0.15,-0.4 0.23,-0.59 0.56,-0.8 0.2,-0.13 0.25,-0.09 0.34,-0.34 0.21,-0.56 0.21,-1.17 0.46,-1.71 0.09,-0.22 0.17,-0.21 0.3,-0.38 0.81,-1.05 0.58,-4.06 0.6,-5.72 0,-0.43 0.07,-0.76 0.07,-1.28l0.06 -2.04c0.11,-1.35 -0.13,-2.91 -0.06,-4.21 0.07,-1.49 0.62,-2.95 -0.47,-4.42 -0.09,-0.13 -0.17,-0.21 -0.27,-0.34l-0.58 -0.79c-0.6,-0.71 0.16,-0.92 0.16,-2.19 0,-0.88 -0.63,-2.72 -0.98,-3.3 -0.54,-0.91 -1.02,-1.76 -1.75,-2.52 -0.2,-0.21 -0.25,-0.36 -0.48,-0.54 -0.6,-0.5 -1.17,-1 -1.85,-1.41 -1.63,-0.99 -2.47,0.49 -2.47,-2.01 0,-1.2 0.6,-2.25 0.94,-3.26 0.11,-0.33 0.22,-0.8 0.35,-1.08 0.5,-1.1 0.69,-1.76 1.44,-2.77 0.56,-0.75 0.93,-1.37 -0.43,-1.37 -0.22,-0.98 -1.09,-0.89 -1.63,-0.48 -0.64,0.48 -0.81,0.89 -1.12,1.66 -0.18,0.45 -0.39,0.85 -0.56,1.27 -0.22,0.53 -0.58,1.34 -1.03,1.69 -0.18,0.14 -0.36,0.24 -0.56,0.39 -0.33,0.26 -0.65,0.63 -0.8,1.03 -0.1,0.28 -0.18,0.76 -0.41,1.42 -0.88,2.41 0.36,2.55 -0.73,3.35 -0.74,0.54 -2.42,1.53 -2.92,2.17 -0.2,0.24 -0.26,0.29 -0.39,0.63 -0.38,0.97 -0.48,2.02 -1.38,2.7 -0.55,0.41 -1.88,0.48 -1.01,1.94 0.43,0.72 0.03,0.67 -0.15,1.44 -0.17,0.72 -0.44,1.18 -0.48,1.97 -0.02,0.43 0.01,0.79 -0.13,1.08 -0.3,-0.06 -2.92,-1.58 -3.27,-1.82 -0.69,-0.44 -1.46,-0.81 -2.19,-1.21 -0.2,-0.11 -0.29,-0.19 -0.49,-0.31l-1.66 -0.93c-1.09,-0.63 -1.11,-0.52 -1.69,-1.7 -0.18,-0.36 -0.4,-0.76 -0.62,-1.09 -0.1,-0.16 -0.19,-0.31 -0.31,-0.5 -0.26,-0.45 -1.13,-1.58 -1.51,-1.88 -0.19,-0.16 -0.29,-0.21 -0.46,-0.42l-1.26 -1.25c-0.17,-0.17 -0.28,-0.28 -0.44,-0.44l-0.89 -0.82c-0.3,-0.29 -0.55,-0.55 -0.85,-0.85l-3.14 -2.9c-0.66,-0.59 -2.05,-1.98 -2.57,-2.38l-3.01 -2.97c-0.42,-0.41 -0.8,-0.89 -1.11,-1.4 -0.11,-0.19 -0.24,-0.34 -0.33,-0.55l-0.54 -1.16c-0.43,-1.05 -0.27,-2.5 -1.09,-2.5 -0.38,0 -0.26,0.46 -0.75,0.47 -0.07,-0.26 -0.23,-0.56 -0.41,-1.22 -0.2,-0.77 -0.74,-1.44 -1.13,-0.52 -0.11,0.26 -0.09,0.45 -0.17,0.71 -0.1,0.33 -0.21,0.21 -0.48,0.41 -0.15,0.11 -0.32,0.37 -0.32,0.62z"/>
   <path fill="white" d="M280.63 177.51c0,1.84 -0.02,1.56 0.34,3.32 0.06,0.31 0.14,0.67 0.24,0.98 0.29,0.94 0.68,1.63 1.19,2.41 0.32,0.5 0.22,0.57 0.99,1.45 0.63,0.71 1.91,1.72 2.71,2.12 0.27,0.13 0.55,0.23 0.79,0.37 1.13,0.66 2.87,0.69 4.19,0.69 1.67,0 3.81,-1.16 5.15,-2.25 1.26,-1.03 0.52,-0.54 1.25,-1.27 0.27,-0.27 0.33,-0.32 0.56,-0.66 0.45,-0.69 1.08,-1.65 1.32,-2.41 0.11,-0.37 0.17,-0.56 0.32,-0.9 0.45,-0.98 0.57,-2.87 0.57,-3.99 0,-1.39 -0.6,-3.66 -1.2,-4.84l-2 -2.75c-0.01,-0.01 -0.03,-0.03 -0.04,-0.04 -0.82,-0.76 -0.31,-0.41 -1.34,-1.1 -1.94,-1.29 -3.02,-1.59 -5.54,-1.59 -0.99,0 -2.53,0.4 -3.38,0.9 -0.18,0.11 -0.27,0.12 -0.47,0.21 -0.12,0.06 -0.29,0.14 -0.4,0.21l-0.72 0.51c-1.16,0.8 -1.96,1.73 -2.68,2.95 -0.17,0.28 -0.32,0.46 -0.47,0.74 -0.35,0.66 -0.85,2.01 -1.05,2.77l-0.33 2.17z"/>
   <path fill="white" d="M179.12 97.6c0,1.44 0.43,2.62 1.04,3.85 0.15,0.29 0.23,0.37 0.41,0.61l1.66 1.8c0.79,0.67 0.34,0.42 1.51,1 0.66,0.33 0.44,0.35 1.37,0.6 1.73,0.47 4.55,0.48 6.15,-0.54 0.75,-0.48 0.34,0.08 1.78,-1.15l0.18 -0.15c1.49,-1.28 2.74,-3.66 2.74,-5.61 0,-1.72 -0.01,-2.88 -0.81,-4.42 -0.12,-0.23 -0.24,-0.35 -0.36,-0.59 -0.17,-0.3 -0.19,-0.38 -0.39,-0.63 -0.87,-1.14 -1.95,-2.07 -3.3,-2.68 -1.33,-0.59 -1.93,-0.78 -3.62,-0.78 -1.15,0 -1.71,0.11 -2.68,0.45 -0.32,0.11 -0.45,0.21 -0.75,0.33 -0.99,0.41 -1.79,1 -2.53,1.74l-1.38 1.82 -0.62 1.49c-0.1,0.28 -0.15,0.49 -0.23,0.85 -0.13,0.52 -0.17,1.39 -0.17,2.01z"/>
   <path fill="white" d="M121.28 60.39c0,0.87 0.11,1.59 0.49,2.29l0.29 0.39c1.64,1.61 2.26,1.46 4.31,1.46 0.56,0 0.97,-0.21 1.3,-0.46 0.44,-0.33 0.61,-0.41 0.97,-0.86 0.27,-0.35 0.49,-0.68 0.67,-1.1 0.64,-1.49 0.07,-3.29 -1.02,-4.38 -0.22,-0.22 -0.28,-0.24 -0.53,-0.42 -0.47,-0.34 -0.75,-0.52 -1.35,-0.62 -1.09,-0.19 -1.15,-0.29 -2.6,0.13 -0.76,0.22 -0.8,0.24 -1.29,0.74 -0.56,0.55 -1.24,2.05 -1.24,2.83z"/>
  </g>
 </g>
</svg>
