<?xml version="1.0" encoding="UTF-8"?>
<!DOCTYPE svg PUBLIC "-//W3C//DTD SVG 1.1//EN" "http://www.w3.org/Graphics/SVG/1.1/DTD/svg11.dtd">
<!-- Creator: CorelDRAW 2019 (64 Bit) -->
<svg xmlns="http://www.w3.org/2000/svg" xml:space="preserve" width="512px" height="286px" version="1.1" shape-rendering="geometricPrecision" text-rendering="geometricPrecision" image-rendering="optimizeQuality" fill-rule="evenodd" clip-rule="evenodd"
viewBox="0 0 464.64 259.33"
 xmlns:xlink="http://www.w3.org/1999/xlink">
 <g id="Camada_x0020_1">
  <metadata id="CorelCorpID_0Corel-Layer"/>
  <g id="_2785243898256">
   <rect id="ret" fill="none" width="464.64" height="259.33"/>
   <g>
    <path id="campo" fill="black" d="M284.62 70.7c-1.27,0 -1.55,0.25 -3.02,0.25 0.73,-1.09 2.66,-3.44 2.76,-4.72l0.26 4.47zm-14.59 -8.45c0.69,-1.02 1.23,-2.05 2.27,-2.73 0.57,0.84 1.05,1.67 1.68,2.55 1.97,2.74 1.8,2.33 0.62,4.45 -0.37,0.66 -0.71,1.05 -1.3,1.45 -0.5,-0.94 -1.11,-1.84 -1.71,-2.79l-1.56 -2.93zm14.33 -6.71l0.26 0c0,3.23 0.24,2.08 0.1,5.97 -0.03,0.87 0.15,0.9 0.15,1.73 0,0.99 -0.44,-0.3 -1.42,0.83 -0.35,0.4 -0.76,1.23 -1.05,1.71 -0.6,0.98 -1.46,2.62 -2.31,3.18 -0.77,-1.14 -1.49,-2.34 -2.26,-3.48l3.22 -4.76c0.46,-0.57 0.77,-1 1.55,-1.2 0.02,0.07 1.76,4.01 1.76,0.99 0,-1.41 -1.04,-1.42 -0.92,-2.44 0.11,-0.91 0.92,-0.59 0.92,-2.53zm-17.6 1.24c0,-1.03 1.29,-2.58 2.27,-3.23 2.05,3.84 2.31,2.81 0.72,4.94 -0.52,0.7 -0.52,1.02 -1.48,1.27 -0.21,-0.78 -1.51,-2.52 -1.51,-2.98zm9.56 6.46c-0.68,-1.27 -2.7,-4.3 -3.02,-5.46 0.39,-0.58 0.67,-0.75 1.15,-1.35l2.29 -2.71c0.68,-0.83 0.34,-1.06 1.59,-1.16 0.68,2.52 3.41,3.29 1.77,5.46l-3.78 5.22zm-16.09 -1.49c-0.99,-0.26 -3.53,-5.27 -3.36,-5.8 0.08,-0.24 3.25,-4.39 4.36,-5.13l2.53 3.99c0.54,1.17 -0.62,2.06 -1.85,4.13 -0.35,0.58 -0.52,0.86 -0.9,1.35 -0.51,0.68 -0.55,0.47 -0.78,1.46zm-10.31 -6.96c0.93,-1.06 1.56,-2.26 2.26,-2.73 0.55,0.4 1.88,2.75 1.85,3.18 -0.02,0.37 -0.68,1.45 -0.88,1.75 -0.46,0.72 -0.58,1.05 -1.47,1.28 -0.27,-1.12 -1.22,-2.46 -1.76,-3.48zm-7.04 6.71l-0.5 0c-0.19,-0.69 -3.27,-5.77 -3.27,-6.71 0,-0.52 1.96,-2.78 2.4,-3.33 0.52,-0.65 0.73,-0.87 1.23,-1.53 0.49,-0.65 0.77,-1.18 1.4,-1.6 0.61,0.45 3.26,5.21 3.26,5.72 0,0.69 -0.16,0.42 -0.53,0.96 -0.22,0.34 -0.33,0.52 -0.58,0.92 -0.8,1.29 -3.17,4.7 -3.41,5.57zm-8.8 -10.93l0.75 0c0.67,2.48 2.52,1.94 0.56,5.02 -0.41,0.65 -0.71,1.04 -1.31,1.44 -0.28,-1.19 -1.53,-2.65 -1.66,-3.34 -0.23,-1.19 1.32,-1.88 1.66,-3.12zm-7.29 -3.73c0.3,1.11 2.76,4.87 2.76,5.72 0,0.55 -2.57,4.69 -3.16,5.57 -0.47,0.69 -0.9,1.08 -1.11,1.88l-0.5 0c-0.18,-0.73 -0.43,-1.14 -0.77,-1.73 -0.51,-0.88 -2.63,-4.53 -2.28,-5.55l3.58 -4.61c0.51,-0.71 0.53,-1.03 1.48,-1.28zm-11.82 4.97c0,-0.71 1.49,-2.63 2.01,-2.98 0.72,0.52 1.76,2.91 1.76,3.23 0,0.91 -1.47,3.09 -2.01,3.48 -0.42,-0.62 -1.76,-2.84 -1.76,-3.73zm66.63 -3.23c0.59,0.43 1.65,2.32 2.26,3.23 0.73,-0.29 0.11,0.02 0.76,-0.99l0 2.23c-0.04,0.02 -0.12,-0.03 -0.13,0.02 -0.02,0.04 -0.12,0.01 -0.14,0.01 -1.24,0.18 -2.07,1.55 -2.25,2.21 -1.04,-0.08 -0.56,0.13 -1.13,-0.62 -0.71,-0.91 -1.08,-2.44 -1.89,-3.36 0.72,-1.05 1.45,-2.02 2.52,-2.73zm2.76 1.74c-0.09,-0.47 0.32,-0.88 0.16,-0.16 0,0.02 0.01,1.03 -0.16,0.16zm-12.06 4.72c-1.15,-0.3 -1.32,-1.33 -2.27,-2.73 0.88,-1.3 3.61,-4.84 5.03,-5.22 0.86,1.6 1.23,1.66 1.26,2.98 -0.57,0.21 -0.21,0.05 -0.6,0.41 -0.1,0.09 -0.49,0.54 -0.59,0.66 -0.71,0.89 -2.58,2.95 -2.83,3.9zm-75.68 -5.22c0.64,-0.94 1.74,-1.85 2.01,-2.98l0.75 0c0.24,1.02 1.51,2.85 1.51,3.48 0,0.78 -1.73,2.44 -2.01,3.48 -0.6,-0.44 -1.63,-2.8 -2.26,-3.98zm68.38 -3.23c2.2,4.1 2.89,3.77 1.3,5.76 -0.91,1.14 -0.78,1.25 -1.55,1.45 -0.28,-1.05 -1.62,-2.85 -2.03,-3.98 -0.34,-0.9 0,-1.11 0.7,-1.81 0.57,-0.55 0.97,-1.01 1.58,-1.42zm-148.34 5.97c0.21,-2.43 1.01,-4.92 1.01,-7.46l8.29 2.98c-0.61,0.83 0.12,0.17 -0.84,0.66l-3.56 1.7c-1.19,0.55 -3.79,2.03 -4.9,2.12zm139.04 0.99c-1.35,-0.36 -2.01,-2.76 -2.01,-3.23 0,-1.02 3.66,-3.88 4.02,-5.22 0.72,0.19 0.81,0.49 1.17,1.09 0.35,0.61 0.55,1.09 0.84,1.65 -1.11,1.64 -3.77,4.65 -4.02,5.71zm27.41 -6.21c0,-0.7 0.57,-0.96 1,-1.24 0.3,1.25 0.25,1.92 0.25,3.48 -0.45,-0.33 -1.25,-1.52 -1.25,-2.24zm-102.84 0.25c0.73,-1.08 1.37,-2.87 2.77,-3.23 0.31,0.65 1.47,3.35 1.36,3.88 -0.03,0.12 -1.8,2.91 -2.37,3.32l-1.76 -3.97zm65.37 -1l2.52 -2.48c0.45,0.84 0.83,1.57 1.3,2.44 2.57,4.76 0.27,2.73 -0.55,5.76 -1.03,-0.27 -0.84,-0.67 -1.84,-2.65l-1.43 -3.07zm-71.15 6.46l2 0.3 1.83 -2.97c0.45,-0.71 0.01,-0.56 0.95,-0.8l0.44 1.54c0.29,0.61 0.45,0.91 0.7,1.55 0.63,1.56 0.52,1.83 2.63,1.88 1.04,-1.54 1.68,-3.2 2.76,-3.48 0.24,1.01 0.88,1.88 1.29,2.95 0.5,1.25 0.63,1.77 2.49,1.77l-1.93 -5.3c-0.27,-0.57 -0.62,-1.18 -0.48,-1.81 0.22,-1 3.62,-5.04 4.42,-5.57l2.76 5.97 -3.5 5.51c-0.81,1.57 -0.28,1.7 0.99,1.7 1.13,0 2.22,-3.37 3.52,-4.23 0.6,0.44 1.76,2.49 1.76,3.48 0,0.86 -0.19,0.96 -0.25,1.74 -0.52,-0.01 -3.28,-0.23 -3.93,-0.35l-7.66 -1.12c-1.56,-0.16 -2.26,-0.4 -3.89,-0.63l-11.14 -1.91c-1.16,-0.2 -2.51,-0.68 -3.81,-0.71 0.27,-0.98 2.64,-2.17 3.52,-2.24 0.37,1.54 0.73,2.09 2.52,2.24 0,-1.92 -0.76,-1.7 -0.76,-3.73 1.07,-0.28 1.58,-0.99 2.46,-1.55 7.73,-4.81 0.47,3.88 0.31,5.77zm53.55 -7.95c0,-0.73 1.97,-2.37 2.52,-2.73 0.54,0.79 0.87,1.42 1.34,2.4 1.47,3.05 1.55,2.64 0.22,4.61 -0.52,0.78 -0.59,1.18 -1.56,1.44 -0.07,-0.77 -0.77,-2.1 -1.18,-2.82 -0.32,-0.56 -1.34,-2.25 -1.34,-2.9zm9.31 6.96l-1.51 -3.23c0.77,-1.14 1.51,-2.24 2.45,-3.29 1.01,-1.11 1.98,-2.63 3.08,-2.92 0.51,0.95 1.02,1.81 1.51,2.73 -1.22,1.39 -4.51,6.03 -5.53,6.71zm46.01 -7.46l0.07 0.08c0,-0.01 -0.1,-0.05 -0.07,-0.08zm-119.18 1.5c-0.46,-1.9 0.26,-3.15 2.26,-4.48 0.11,1.23 0.75,1.77 1.01,2.74 -0.57,0.59 -0.61,0.42 -1.5,1 -0.58,0.37 -0.83,0.66 -1.77,0.74zm56.32 4.22l-0.5 0c-0.89,-3.79 -2.57,-2.1 -0.22,-5.18 0.81,-1.06 2.8,-3.95 3.99,-4.26 1.53,2.86 1.99,2.65 -0.93,6.04l-2.34 3.4zm-65.37 -6.71c0.74,-0.49 4.09,-2.02 5.03,-2.24 1.65,3.4 1.12,2.86 -1.48,7.01 -0.56,0.89 -0.53,0.65 -0.28,1.69 -0.98,0.26 -0.68,0.91 -3.24,0.22 -1.84,-0.48 -9.3,-1.39 -10.09,-2.45 0.88,-0.21 2.01,-0.85 2.77,-1.25 0.35,1.29 1.26,1.69 3.52,1.74 0.43,-0.64 1.68,-2.35 2.26,-2.73 0.79,3.35 1.47,3.73 3.27,3.73 -0.03,-1.21 -0.45,-1.84 -0.81,-2.93 -0.19,-0.56 -0.69,-2.22 -0.95,-2.79zm105.6 2.73c-0.34,-1.25 -1.22,-1.75 -1.26,-3.23 1.38,-0.36 1.39,-1.62 2.77,-1.98 0.44,1.87 2.54,2.53 -1.51,5.21zm-50.29 -3.97l2.72 -2.54c0.17,0.3 0.23,0.51 0.35,0.75l1.04 2.2c1.71,3.63 1.35,3.12 0.18,4.81 -0.45,0.65 -0.46,1.15 -1.52,1.24 -0.19,-0.82 -0.28,-0.92 -0.62,-1.63l-2.15 -4.83zm-14.58 -3.73c1.01,4.28 3.19,3.59 1.06,6.77 -0.52,0.77 -0.59,1.18 -1.56,1.43 -0.79,-3.34 -3.42,-4.65 -1.46,-6.66 0.61,-0.62 1.05,-1.3 1.96,-1.54zm-75.93 2.98l0 0zm123.7 1.99c-0.23,-0.98 -0.77,-1.75 -1,-2.73 0.6,-0.89 1.64,-2.15 2.76,-2.24 0.17,0.62 0.93,1.86 1.26,2.49 -1.23,0.81 -1.44,2.35 -3.02,2.48zm-41.23 4.72l-0.5 0c-0.08,-0.86 -0.21,-0.9 -0.5,-1.5 -0.05,-0.12 -0.64,-1.48 -0.66,-1.59 -0.22,-1.26 4.77,-6.61 5.68,-6.85 1.78,3.33 1.39,2.42 -2.26,7.46 -0.63,0.87 -1.44,1.3 -1.76,2.48zm-16.85 -2.73c-0.13,-1.52 -1.12,-2.18 -1.25,-3.73 1.31,-0.87 3.87,-2.6 5.53,-2.98 0.2,0.73 0.1,0.4 0.5,0.99 -0.68,1 -3.56,5.4 -4.78,5.72zm-22.88 -3.73c-0.24,-0.49 -0.36,-0.89 -0.5,-1.49 0.47,-0.22 1.47,-0.62 2.01,-0.75 -0.2,0.75 -0.96,1.84 -1.51,2.24zm71.91 3.73c-0.9,-0.6 -2.25,-3.59 -2.51,-4.72l2.57 -2.93c0.62,-0.6 0.9,-0.71 1.51,-1.24 0.6,-0.53 0.78,-0.86 1.45,-1.3 3.21,4.73 1.92,4.12 -0.97,7.74 -0.48,0.59 -1.57,2.1 -2.05,2.45zm-8.3 -3.73c-0.98,-2.02 -2.03,-3.12 1.51,-5.47 0.44,0.65 1.18,2.28 1.26,3.23 -0.77,0.21 -0.29,0.01 -0.78,0.47 -0.73,0.68 -0.79,1.46 -1.99,1.77zm-85.73 -0.5c0,-1.92 0.23,-2.01 1.19,-3.04 0.74,-0.8 1.28,-1.9 2.08,-2.42 0.33,1.41 1.09,1.83 1.25,3.72l-2.04 0.96c-0.77,0.38 -1.48,0.7 -2.48,0.78zm-4.28 -5.96c0.45,1.64 1.26,1.7 1.26,4.47 0,1.11 -1.55,3.01 -2.26,3.48 -0.28,-0.57 -1.5,-3.91 -1.42,-4.43 0.08,-0.53 1.92,-3.15 2.42,-3.52zm80.71 8.45c-0.23,-0.98 -0.69,-1.68 -1.13,-2.61 -1.85,-3.91 -1.34,-3.11 1.44,-5.53 0.99,-0.86 1.65,-1.85 2.71,-2.55 0.83,1.22 0.92,1.06 1.66,2.84 0.88,2.09 0.53,1.64 -2.45,5.33 -0.65,0.81 -1.42,1.99 -2.23,2.52zm-37.71 -8.45c0.41,0.76 0.63,1.47 1,2.24 -0.66,0.34 -3.18,2.24 -3.41,1.02 -0.11,-0.65 1.88,-2.91 2.41,-3.26zm-50.04 -2.98c0.38,4.44 3.36,3.85 0.49,8.68 -0.97,1.64 -1.76,2.75 0.52,2.75 0.65,0 0.73,-0.35 1.03,-0.72l1.23 -1.27c0.51,2.16 0.49,1.85 1.26,2.98 -1.18,0.1 -1.7,0.66 -4.53,-0.24 -0.97,-0.31 -1.79,-0.55 -2.9,-0.86 -1.11,-0.31 -4.84,-1.18 -5.65,-1.88l1.77 0c0.3,-0.58 0.84,-1.38 1,-1.99l0.5 0c0.07,0.27 0.51,1.9 0.63,2.12 0.28,0.53 1.05,0.96 1.74,1.01 1.37,0.11 0.62,-0.87 -0.19,-3.54 -0.8,-2.6 -1.02,-2.2 1.52,-5.63 0.57,-0.76 0.61,-1.16 1.58,-1.41zm39.98 10.68c-0.66,-2.78 -2.85,-3.77 0.95,-6.02 0.95,-0.56 2.15,-0.91 3.32,-1.18 0.2,0.73 0.11,0.4 0.51,0.99 -0.83,1.22 -3.83,5.53 -4.78,6.21zm39.73 -3.72c-0.25,-0.92 -0.98,-1.84 -1.01,-3.24 0.93,-0.33 0.06,0.07 0.74,-0.51 0.18,-0.15 0.45,-0.42 0.65,-0.59 0.54,-0.47 0.85,-0.79 1.38,-1.13 0.29,1.24 1.33,2.01 0.67,3.13 -0.48,0.8 -1.53,2.1 -2.43,2.34zm-9.81 2.23c-0.2,-0.75 -1.76,-3.58 -1.76,-4.97 0,-0.09 2.39,-2.23 2.7,-2.55 0.99,-0.99 1.8,-1.78 3.59,-1.92 0.47,0.89 0.79,1.86 1.25,2.73 -0.85,1.26 -1.77,2.32 -2.73,3.51 -0.97,1.22 -2.07,2.94 -3.05,3.2zm-46.26 -5.22c0.11,-1.32 1.71,-2.68 2.5,-3.73 0.49,-0.64 0.4,-0.76 1.27,-0.99 0.46,0.87 0.54,1.62 1,2.49l-2.37 1.13c-0.88,0.36 -1.72,0.65 -2.4,1.1zm-7.29 -2.98c0,-0.11 0.77,-1.12 0.94,-1.3 0.61,-0.65 0.83,-0.54 1.07,-1.43l0.75 0c0.19,0.81 1.51,3.88 1.51,4.97 0,0 -0.98,1.34 -1.15,1.6 -0.51,0.77 -0.57,1.05 -1.62,1.13 -0.14,-1.72 -1.5,-3.65 -1.5,-4.97zm36.45 3.23c-0.22,-0.45 -0.95,-2.66 -1,-3.23 1.56,-1.04 2,-1.72 3.89,-2.37 0.9,-0.31 0.89,-0.22 1.64,-0.61 0.43,0.89 0.75,2.16 1,3.23 -0.9,0.6 -1.47,1.1 -2.56,1.69 -0.99,0.53 -1.97,0.82 -2.97,1.29zm-40.48 -7.7c1.91,3.56 0.92,4.44 -1.25,7.21 -0.44,0.57 -0.38,0.58 -1.01,0.99 -0.27,-0.55 -0.65,-1.67 -0.85,-2.4 -0.65,-2.39 0.17,-2.93 2.16,-5.01 0.75,-0.79 0.13,-0.5 0.95,-0.79zm71.66 6.21c-2.61,-4.87 0.77,-2.66 1.01,-5.47 5.52,0 38.86,6.53 47.77,8.7 5.55,1.35 10.99,2.51 16.41,4.41 1.44,0.5 2.41,0.95 3.95,1.31 -0.32,0.2 0.05,0.12 -0.53,0.18l-2.23 -0.18c0.07,0.84 0.19,0.91 0.5,1.49 -0.6,0.39 -0.71,0.74 -1.2,1.3 -0.43,0.5 -0.8,0.84 -1.31,1.18 -0.57,-0.83 -1.25,-1.62 -1.51,-2.73 0.77,-1.14 1.12,-0.34 1.25,-1.99 -1.49,-0.03 -3.1,-0.88 -4.52,-0.99 0.05,2.2 1.11,0.82 -1.43,3.8 -1.53,1.8 -1.94,2.81 -3.1,2.91 -0.36,-1.35 -1.66,-2.5 -2.01,-3.98 0.81,-1.19 2.64,-2.08 3.02,-3.48 -3.68,-1.74 -3.27,0.1 -4.78,0.5 -0.89,-1.31 -0.16,-1.64 -3.13,-2.38 -0.7,-0.17 -1.8,-0.51 -2.05,-0.45 -0.63,0.13 -0.96,0.85 -1.86,1.09 -0.16,-1.93 -3.51,-3.36 -1.94,-0.34 0.33,0.65 0.78,1.65 0.94,2.33 -0.49,0.32 -3.82,4.19 -4.03,4.97l-0.75 0c-0.29,-1.21 -1.66,-3.6 -2.26,-4.72 1.61,-1.83 3.91,-3.45 4.02,-4.73 -0.59,-0.27 -2.72,-0.6 -3.31,-0.3 -1.01,0.53 -0.98,1.67 -2.47,1.8 -0.24,-0.87 -0.88,-1.48 -1.01,-2.99 -1.11,-0.25 -2.37,-0.48 -3.52,-0.74 -0.56,0.82 -0.93,1.7 -2.01,1.99 -1.15,-0.84 -0.76,-2.2 -2.18,-2.82 -0.32,-0.14 -3.79,-0.91 -4.11,-0.91 -1.67,0 -2.71,3.06 -4.52,3.48 -0.26,-0.54 -0.88,-1.93 -1.01,-2.49 0.55,-0.81 1,-0.77 1.26,-1.74 -0.8,-0.18 -0.78,-0.32 -1.7,-0.55 -0.56,-0.14 -1.43,-0.29 -2.07,-0.44 -0.44,0.65 -0.26,0.33 -0.61,1.14 -0.54,1.25 -0.51,1 -1.58,1.92 -0.63,0.54 -0.2,0.43 -1.08,0.67 -1.62,-3.03 -1.14,-4.18 -2.46,-4.78 -3.98,-1.8 -4.48,1.8 -7.85,4.03zm-6.79 -1.99c-0.49,-0.72 -0.6,-1.22 -1,-1.99 1.06,-0.55 2.2,-0.93 3.26,-1.49 0.61,1.13 0.43,1.71 -2.26,3.48zm-72.91 -6.21l1.62 4.89c0.23,1.07 -1.53,3.44 -2.38,4.06 -0.28,-1.21 -1.15,-3.15 -1.55,-4.95 -0.31,-1.39 -0.2,-1.33 0.54,-2.27 0.72,-0.92 0.67,-1.16 1.77,-1.73zm25.89 5.96c-0.27,-1.17 -0.7,-2.2 -1,-3.48 0.69,-0.72 2.03,-2.22 3.02,-2.48 0.14,1.75 1.2,2.03 0.26,3.48 -0.21,0.32 -1.99,2.29 -2.28,2.48zm-34.94 1c-0.48,-0.99 -1.01,-3.06 -1.01,-4.48 0,-0.89 2.79,-3.74 3.52,-4.22 0.17,1.97 1.68,3.17 0.47,4.93 -0.48,0.71 -0.86,1.1 -1.38,1.88 -0.28,0.42 -0.4,0.65 -0.68,1.06 -0.59,0.83 -0.21,0.57 -0.92,0.83zm65.12 -2.24c-0.73,-0.48 -0.92,-0.9 -1.01,-1.99 0.79,-0.41 2.09,-0.97 3.27,-0.99 -0.38,1.4 -1.88,1.58 -2.26,2.98zm-24.14 -0.5c0.34,-1.26 3.67,-4.43 4.78,-4.72 0.06,0.79 0.47,1.91 0.75,2.49 -1.68,0.88 -3.85,1.35 -5.53,2.23zm-13.83 1.5c-0.15,-0.32 -1.51,-4.05 -1.51,-4.23 0,-0.77 3.34,-3.77 4.02,-4.22 0.94,1.92 1.6,3.52 0.6,4.79 -0.79,1.01 -2.22,3.07 -3.11,3.66zm-6.79 -2.49c-0.66,-0.48 -0.48,-0.52 -0.8,-1.45 -0.78,-2.35 -0.65,-2.47 0.61,-3.71 0.58,-0.59 0.63,-0.84 1.45,-1.05 0.26,1.11 1.19,2.54 0.73,3.44 -0.46,0.91 -1.68,1.63 -1.99,2.77zm-5.78 -9.2c0.2,0.84 0.48,1.71 0.76,2.49 0.75,2.11 0.41,2.55 -1.75,5.24 -0.5,0.62 -0.12,0.49 -1.02,0.72 -1.02,-4.32 -2.45,-4.38 0.05,-6.9 0.82,-0.82 0.92,-1 1.96,-1.55zm65.12 5.22l-8.55 3.73 2.45 -2.54c-0.06,-1.44 -1.74,-0.95 2.27,-2.24 1.01,-0.33 3.02,-1.34 4.08,-1.43 -0.77,1.14 -0.96,1.15 -0.25,2.48zm-75.18 -3.72c0,-0.38 2.13,-2.24 2.52,-2.49 0.51,2.17 1.51,2.79 -0.1,4.88 -0.49,0.64 -0.84,1.12 -1.66,1.33 -0.12,-1.33 -0.76,-2.36 -0.76,-3.72zm-9.05 19.13c-2.09,-0.04 -1.28,-1.7 -0.3,-5.77l5.25 -18.66c0.01,-0.04 0.05,-0.12 0.08,-0.17 0,0.93 0.04,1.97 0.19,2.55 1.2,4.8 0.23,0.7 -2.05,6.55 -3.9,10.01 1.75,7.49 -1.61,13.07 -0.56,0.93 -0.65,1.38 -1.81,1.69 0.19,0.33 0.14,0.27 0.25,0.74zm5.03 -24.6c0.02,-0.91 0.21,-1.38 0.5,-1.99 7.54,0 14.91,0.22 22.2,1.17l6.37 0.67c2.03,0.32 4.48,0.43 6.38,0.89l16.07 2.76c4.53,0.9 7.78,2.97 11.94,-0.42 0.05,-0.05 0.21,-0.19 0.27,-0.23l0.28 -0.22c0.73,-0.59 1.02,-0.57 1.11,-1.64 -1.4,-0.66 -4.72,-1.19 -6.53,-1.5l-21.3 -3.29c-8.29,-1.15 -21.88,-3.7 -29.52,-2.19 -2.39,0.47 -4.34,0.92 -6.51,1.51 -2.53,0.69 -3.71,0.98 -5.02,3.25 -2.04,3.51 -3.17,7.86 -4.45,11.76 -1.59,4.86 -4.86,22.16 -4.86,27.49l-30.77 16.07c-6.32,3.42 -16.4,9.57 -22.04,13.26 -0.52,0.34 -1.06,0.77 -1.64,1.11l-3.69 2.32c-2.86,1.91 -6.01,3.69 -8.78,5.73l-13.83 9.69c-3.97,2.86 -9.72,7.23 -13.24,10.28l-4.61 4.13c-0.6,0.48 -0.98,0.92 -1.54,1.47l-2.93 2.81c-0.02,0.02 -0.37,0.32 -0.41,0.35l-5.71 5.29c-1.07,1.06 -2.67,1.77 -2.7,3.29 0.85,0.41 2.1,0.78 3.09,1.17l6.05 2.48c1.05,0.49 1.9,0.81 3.02,1.23 7.17,2.7 13.94,6.22 21.25,8.58l2.9 1.35c3.7,2.28 7.85,3.52 12.18,5.11 0.56,0.21 6.06,2.1 6.39,2.05 0.89,-0.14 0.35,-0.65 0.09,-1.21l-1.96 -4.31c-0.63,-1.34 -1.68,-4.86 -2.82,-5.67 -1.26,-0.9 -9.86,-4.27 -11.93,-5.1l-18.4 -7.42c0.16,-1.84 4.39,-5.13 5.82,-6.43 3.72,-3.39 7.69,-6.46 11.47,-9.78l9.4 -7.36c6.92,-5.36 14.17,-10.22 21.49,-15.05 1.03,-0.68 1.89,-1.25 2.86,-1.89l20.86 -12.93c0.98,-0.56 1.95,-1.16 2.98,-1.78 4.09,-2.44 8.56,-4.42 12.57,-6.96 0.56,-0.35 1.09,-0.66 1.6,-0.9 0.68,-0.31 1.12,-0.47 1.72,-0.79 0,2.35 -0.34,3.78 -0.49,5.73 -0.17,2.22 -0.23,3.88 -0.26,6.21 -0.03,3.09 -0.33,1.98 -0.02,5.97 0.14,1.8 -0.31,6.8 3.81,2.5 2.13,-2.23 1.46,-4.7 1.48,-7.73 0.02,-4.3 -0.05,-8.77 0.24,-12.69 0.28,-3.91 0.64,-3.09 4.58,-5.16 0.81,-0.43 1.29,-0.71 2.14,-1.12 1.54,-0.76 2.89,-1.43 4.36,-2.16l8.8 -4.22c2.05,-1.02 2.32,-1.42 5.11,-0.59l10.73 2.33c-2,2.94 -13.12,7.61 -14.08,11.18 1.72,0.9 8.17,0.74 9.98,-0.07 3.23,-1.46 10.86,-8.61 13.21,-9.07 0.81,-0.16 1.84,-0.07 2.56,0.09 1.11,0.24 1.1,0.25 2.37,0.39 1.36,0.16 3.51,0.63 4.88,0.89l18.72 3.61c5.47,1.04 14.33,2.92 19.68,2.92 -0.13,-1.62 -2.29,-3.2 -3.44,-4.05 -1.19,-0.88 -3.35,-2.27 -5.11,-2.41 0,-1.73 0.87,-4.04 2.52,-4.48 0.25,0.92 0.92,1.78 1.3,2.7 0.36,0.88 0.64,2.34 1.53,2.75 0.48,0.22 1.1,0.36 1.3,-0.07 0.18,-0.36 -0.26,-0.97 -0.5,-1.5 -0.53,-1.21 -2.38,-4.73 -2.5,-5.71 -0.12,-1 3.65,-4.83 4.4,-5.87 0.41,-0.58 0.43,-0.83 1.01,-1.24 1.18,0.85 2.13,4.07 2.78,5.45 0.88,1.89 -0.04,2.26 -2.08,5.43 -0.74,1.16 -1.63,2.36 -1.96,3.78 2.29,1.2 2.61,-0.34 4.51,-3.49 0.41,-0.69 0.82,-1.48 1.52,-1.73 0.27,0.5 0.49,1 0.75,1.49 0.26,0.49 0.7,1.01 0.86,1.43 0.61,1.58 -0.81,1.5 -0.85,3.54 1.72,0.4 1.09,0.69 2.51,-0.25 0.31,0.58 0.08,0.52 0.64,0.9 0.24,0.17 0.94,0.39 1.25,0.23 0.7,-0.34 -0.29,-1.59 -0.55,-2.23 -0.41,-1.02 -0.05,-1.19 0.49,-2.05 0.33,-0.52 0.35,-0.61 0.7,-1.05 0.36,-0.46 0.31,-0.59 0.99,-0.77 0.11,1.32 2.37,4.77 3.09,6.14 0.8,1.53 2.53,1.57 3.56,-0.06 1.17,-1.87 2.13,-4.65 3.91,-5.83 0.68,0.49 1.19,1.73 1.62,2.65 0.68,1.46 -0.02,1.77 -0.76,2.92 -2.07,3.2 0.52,3.39 1.55,1.79 0.62,-0.96 0,-0.85 1.11,-1.15 0.41,1.51 1.27,2.7 3.02,2.74 -0.17,-2.06 -1.28,-2.44 -1.67,-3.84 -0.58,-2.08 1.05,-2.51 1.42,-3.87 0.97,0.65 2.3,3.53 3.03,4.71 0.26,0.43 0.5,0.77 0.76,1.26 0.99,1.83 -1.38,2.59 2.16,2.88 2.17,0.17 0.35,-0.59 0.81,-1.89 0.57,-1.57 2.86,-4.53 3.93,-6.08 0.51,-0.73 0.24,-0.64 1.12,-0.88 0.89,3.77 3.2,1.48 0.09,6.3l-1.02 1.76c-0.74,1.42 0.46,2.4 1.77,1.23 0.97,-0.88 1.33,-2.59 2.43,-3.32 0.38,0.55 0.48,0.72 0.85,1.4 0.09,0.18 0.28,0.51 0.35,0.64 0.32,0.58 2.28,3.77 2.89,2.39 0.33,-0.74 -3.06,-4.79 -3.08,-5.92 -0.02,-0.98 1.58,-2.99 2.51,-3.23 0.28,1.18 0.89,1.84 1.46,2.78l0.79 1.45c0.28,0.51 0.5,0.98 0.77,1.48 -2.14,3.16 -3.09,4.23 0,4.23 0.46,-0.69 0.54,-1.27 1.26,-1.74 0.58,0.39 1.94,3.1 2.79,2.27 0.52,-0.52 -0.69,-2.01 -0.99,-2.56l-0.56 -0.97c-0.46,-1.1 0.94,-2.48 1.57,-3.41 0.59,-0.87 1.76,-2.77 2.47,-3.28 2.88,4.26 2.16,3.26 -0.52,7.69 -0.58,0.96 -1.39,1.5 -1.49,2.74 0.97,0.08 0.99,0.25 2.26,0.25 0.57,-1.06 0.92,-1.61 1.61,-2.63 0.32,-0.48 0.48,-0.73 0.82,-1.18 0.44,-0.61 0.4,-0.83 1.34,-0.91 0.2,0.83 0.52,1.14 0.96,1.79 0.39,0.59 0.71,1.18 1.01,1.73 0.52,0.99 1.18,3.11 2.81,2.69 0.79,-0.52 2.01,-2.18 2.26,-3.23 0.68,0.18 0.63,0.31 0.99,0.76l1.38 2.37c0.37,0.53 0.54,0.57 0.9,1.1 -12.19,0 -24.04,-1.81 -36.17,-3.27 -0.56,-0.07 -1.22,-0.26 -1.9,-0.36l-14.84 -2.48c-1.31,-0.37 -2.55,-0.64 -3.88,-0.89 -1.99,-0.37 -4.29,-0.99 -6.49,-0.38 -0.32,0.09 -1.29,0.52 -1.74,0.77 -1.18,0.67 -2.33,1.1 -2.36,2.63l4.08 0.93c2.13,0.62 4.1,0.75 6.37,1.16l37.58 5.35c2.94,0.42 6.57,0.5 9.56,0.75 4.79,0.39 11.08,-0.98 14.31,-0.98l-0.05 2.19c-0.26,1.28 -0.79,1.2 -2.01,1.74l-36.67 19.41c-0.78,0.45 -1.2,0.74 -2.08,1.18l-19.83 11.47c-1.05,0.64 -3.13,1.54 -3.47,2.78 1.58,0.36 3.35,0.24 5.28,0.25 4.63,0 4.7,-0.73 8.53,-3l5.43 -3.09c6.92,-3.64 13.54,-7.43 20.57,-10.98 3.15,-1.58 21.42,-11.11 23.3,-11.27 -0.06,2.72 -1.26,5.74 -1.26,8.45l-14.73 7.07c-3.92,2.18 -8.11,3.84 -12.03,6l-7.33 3.69c-1.25,0.69 -2.95,1.28 -3.97,2.29 -0.38,0.39 -0.2,0.02 -0.41,0.59 1.86,0.88 4.34,-0.1 5.52,-0.76 4.85,-2.7 10.62,-5.37 15.68,-7.86l4.58 -2.19c0.94,-0.43 1.56,-0.71 2.38,-1.12 1.84,-0.91 7.52,-4.06 9.56,-4.23 -0.75,3.17 -2.74,8.18 -2.53,11.2l0.37 1.37c0.45,0.99 0.87,1.93 1.65,2.61 0.26,0.23 -0.13,0.01 0.44,0.34 0.21,0.12 0.02,0.08 0.44,0.17 1.03,0.2 1.31,-0.87 1.72,-1.94 1.3,-3.39 2.76,-10.44 2.93,-14 0.14,-2.81 1.1,-2.64 3.27,-3.72 5.04,-2.51 13.98,-5.94 19.46,-7.86l17.41 -6.4c5.96,-2.12 11.89,-4.27 18.03,-6.03 3.94,-1.13 8.85,-2.17 11.84,-5.2 0.36,-0.37 1.39,-1.57 1.06,-2.21 -0.32,-0.61 -0.01,-0.34 -0.89,-0.17 -3.16,0.59 -6.55,1.51 -9.69,2.66 -4.66,1.72 -10.31,3.28 -15.37,5.18l-19.81 7.51c-6.22,2.18 -12.16,4.97 -18.16,7.65 -0.5,0.23 -0.71,0.31 -1.22,0.54l-2.45 1.05c-0.85,0.39 -1.53,0.83 -2.47,1.04 0,-2.91 0.76,-5.24 0.76,-8.2 5.51,-2.88 23.75,-10.91 29,-12.83l4.96 -2.06c0.65,-0.23 0.94,-0.34 1.63,-0.62l6.61 -2.67c7.96,-3.17 15.98,-6.05 24.2,-8.63l10.64 -3.4c4.57,-1.31 12.69,-3.92 16.53,-7.03 1.76,-1.43 3.11,-2.92 4.87,-4.38 0.98,-0.81 1.51,-1.52 2.48,-2.27 0.72,-0.55 3.58,-2.49 3.84,-3.19 0.66,-1.82 -0.68,-2 -2.06,-1.52 -0.7,0.24 -1.31,0.41 -1.91,0.61l-6.95 2.33c-4.66,1.65 -9.48,2.97 -14.11,4.69l-28.84 10.76c-6.03,2.37 -12.13,4.83 -18,7.55l-9.58 4.45c-3.25,1.44 -20.51,10.03 -22.56,10.51 0,-7.62 0.2,-20.54 -1.08,-28.26 -0.16,-0.95 0.08,-2.34 -0.8,-2.62 -0.93,-0.3 -0.52,0.53 -2.39,-0.94 -1.35,-1.05 -3,-2.08 -4.52,-2.99l-5.74 -3.27c-0.47,-0.26 -0.85,-0.5 -1.31,-0.7 -2.65,-1.15 -5.41,-1.96 -8.34,-2.68 -6.12,-1.51 -12.4,-2.38 -18.47,-3.86l-6.13 -1.16c-6.27,-1.45 -12.54,-2.27 -18.85,-3.73 0.04,-0.04 0.11,-0.15 0.14,-0.11 0.02,0.05 0.11,-0.08 0.14,-0.1 1.35,-0.9 10.91,-4.33 12.66,-4.89l9.87 -3.41c4.59,-1.63 11.38,-3.89 16.22,-4.85 2.89,-0.57 6.29,0.2 9.04,0.89l25.38 5.98c11.99,3.37 24.11,6.58 35.25,12.12 1.3,0.65 2.3,1.16 3.44,1.82 4.27,2.45 6.93,3.98 12.05,3.23 1.27,-0.18 3.25,-0.49 4.28,-0.99 -0.04,-2.18 -2.96,-2.81 -4.65,-3.59 -0.83,-0.38 -1.29,-0.57 -2.08,-0.93 -0.54,-0.24 -1.25,-0.57 -1.87,-0.89l-22.95 -8.87c-11.9,-3.81 -24.1,-7.1 -36.44,-9.47 -6.6,-1.26 -12.39,-2.68 -20.27,-2.6 -1.12,0.01 -1.45,0.13 -2.43,0.33 -0.67,0.13 -1.99,0.23 -2.66,0.36l-30.85 9.26c-3.09,1.12 -10.11,4.07 -12.53,4.77 -1.92,0.56 -3.52,-0.05 -5.32,-0.05 0.55,-0.74 1.34,-0.88 2.26,-1.24 0.93,-0.36 1.72,-0.66 2.73,-1.03 0.76,-0.28 1.83,-0.64 2.59,-0.92 1,-0.36 1.84,-0.7 2.76,-1l10.88 -3.66c7.37,-2.57 14.55,-4.86 22.11,-7.22 3.82,-1.19 7.49,-2.44 11.44,-3.11 3.05,-0.51 7.03,-0.45 10.35,-0.46 1.61,-0.01 2.06,0.25 3.51,0.26 2.46,0.03 4.66,0.03 7.01,0.28 0.79,0.08 2.2,0.17 3.2,0.32l16.81 1.77c2.29,0.34 4.15,0.64 6.38,0.9 6.1,0.72 12.32,2.13 18.39,3.45l8.65 2.13c1.08,0.31 1.93,0.56 2.93,0.84 0.99,0.27 1.64,0.5 2.71,0.8 0.85,0.23 1.94,0.48 2.95,0.8 7.42,2.39 14.42,4.86 21.64,7.7 5.61,2.21 10.36,5.2 16.71,5.12 2.55,-0.03 5.59,-0.31 8.21,-0.83 0.49,-0.09 0.8,-0.26 1.53,-0.47 1.29,-0.37 1.59,-0.37 2.32,-1.44 -0.44,-0.46 -0.5,-0.5 -1.17,-0.84 -7.41,-3.8 -16.89,-7.34 -24.86,-9.97l-6.13 -1.9c-5.4,-1.68 -12.4,-3.76 -17.95,-4.87l-22.41 -4.19c-6.52,-1.38 -13.21,-1.42 -18.64,-2.2 -2.7,-0.39 -5.15,-0.1 -7.8,-0.49 -2.87,-0.43 -11.93,-0.26 -15.56,-0.78 -5.78,-0.84 -18.54,-0.47 -23.88,0.27 -5,0.7 -9.06,1.58 -13.35,2.97l-31.04 10.07c-8.83,2.63 -17.42,5.87 -26.02,9.07l-2.97 1.04c-0.6,0.22 -1.21,0.35 -1.69,0.57 -0.54,-2.01 -3.63,-0.84 -4.77,-0.74 -0.2,-0.74 -0.1,-0.4 -0.51,-1l-2.01 0c0.07,0.79 2.2,4.86 -2.26,5.22 -0.19,-0.81 -1.19,-2.79 -1.01,-3.48 0.65,-0.95 1.41,-1 1.51,-2.23 -1.27,-0.3 -3.1,-0.63 -4.52,-0.75 0,1.39 0.15,1.31 -0.62,2.13l-2.01 1.98c-0.09,0.08 -0.38,0.36 -0.39,0.37 -0.68,0.71 -0.86,1.39 -2.01,1.49 -0.33,-1.39 -1.03,-2.54 0.04,-3.69 1.14,-1.24 1.58,-0.87 2.47,-2.53 -1.3,-0.61 -2.31,-0.59 -3.67,-0.41 -1.3,0.17 -0.64,-0.74 -2.38,-0.61 -1.73,0.12 -0.44,0.82 -0.23,3.26 -0.98,0.65 -1.52,1.91 -2.77,2.24 -0.41,-1.73 -1.98,-4.32 0.5,-4.97l0 -1c-1.45,-0.03 -3.87,-0.86 -4.77,-0.5 -0.5,0.48 0.62,0.79 -1.33,2.92 -0.79,0.85 -1.52,1.69 -2.44,2.3 -0.44,-0.88 -0.76,-2.16 -1.01,-3.23 0.76,-0.5 1.75,-1.26 2.01,-2.23 -0.73,-0.35 -4.42,-0.97 -5.53,-1 0.01,0.63 1.23,2.66 -2.26,4.97 -0.08,-0.86 -0.53,-1.64 -0.7,-2.55 -0.31,-1.63 -0.09,-1.23 -0.06,-2.67 -1.05,-0.24 -2.37,-0.65 -3.52,-0.74l-3.52 3.73c-0.09,-1.14 -0.55,-1.51 -0.6,-2.82 -0.05,-1.29 0.5,-1.35 -1.46,-1.62 -1.72,-0.23 -1.86,-0.06 -2.67,0.76 -0.64,0.65 -1.17,1.51 -1.8,1.94 -0.52,-1.06 -0.5,-2.18 -1.01,-3.23l-1.51 0 -0.5 1.24zm79.2 96.18c3.97,0 3.67,0.89 7.29,-1.49l9.56 -6.46c1.22,-0.87 4.78,-2.97 5.49,-3.8 0.28,-0.33 0.95,-1.42 0.04,-1.42 -7.42,0 -11.24,4.11 -16.65,7.65l-5.84 3.92c-0.6,0.41 -1.25,0.62 -1.33,1.17 -0.16,1.05 0.74,0.43 1.44,0.43zm-24.14 12.67c0,0.59 0.77,2.55 1.01,2.99 2.07,-0.48 10.42,-5.52 12.94,-6.84 4.4,-2.3 3.65,-1.99 3.65,-5.84 -1.41,0.03 -7.52,3.86 -8.9,4.62 -0.46,0.25 -8.7,4.71 -8.7,5.07zm3.77 10.69c0,1.43 0.54,2.75 1.01,3.73 1.2,-0.28 4.7,-2.62 5.82,-3.45 0.71,-0.52 1.27,-0.81 1.98,-1.27 5.62,-3.69 4.77,-1.81 4.77,-7.96 -1.78,0.15 -5.32,3.11 -7,4.27 -1.14,0.77 -2.22,1.34 -3.34,2.16 -0.56,0.4 -3.24,2.01 -3.24,2.52zm-59.59 11.43c0,4.13 -0.37,2.93 7.58,1.52 1.56,-0.27 2.1,-0.09 2.71,-1.3 1.88,-3.7 -0.51,-2.39 -8.79,-1.73 -1.19,0.1 -1.5,0.31 -1.5,1.51zm0 13.92c0,2.16 -0.17,2.66 0.26,4.47 2.5,0 2.88,0.36 3.63,-1.62 0.49,-1.29 1.36,-2.69 1.39,-4.09l-5.02 0c-0.14,0.55 -0.26,0.57 -0.26,1.24zm62.86 -14.91c0,0.67 0.12,0.68 0.25,1.24 1.38,-0.11 4.18,-2.26 5.28,-2.98 0.83,-0.54 1.48,-1.12 2.37,-1.64 1.11,-0.65 2.16,-0.59 2.16,-2.09 0,-2.27 -1.69,-0.46 -4.88,1.64 -0.73,0.48 -5.18,2.91 -5.18,3.83z"/>
    <path id="ano" fill="black" d="M104.85 231c0,9.32 -0.73,7.63 2.55,9.16 0.91,0.42 2.24,1.05 3.23,1.28l0 2.48c-1.47,-0.12 -5.73,-2.36 -7.52,-3.01 -0.94,-0.34 -1.63,-0.69 -2.62,-1.13l-7.46 -3.07c-2.32,-1.01 -2.26,-0.5 -2.26,-2.23 0,-0.68 0.32,-0.66 0.84,-0.91l1.74 -0.76c0.27,-0.12 0.51,-0.2 0.72,-0.29 0.43,-0.18 0.9,-0.4 1.38,-0.61 0.91,-0.41 1.55,-0.65 2.46,-1.05 0.99,-0.44 1.61,-0.76 2.59,-1.17 1.81,-0.77 3.3,-1.41 5.05,-2.22l5.08 -2.19 0 2.74c-0.88,0.07 -2.19,0.79 -3.09,1.17 -0.74,0.31 -2.69,1 -2.69,1.81zm-13.83 -34.3c0,-1.21 -0.17,-1.74 0.75,-1.74l18.86 0c0,2.7 0.26,2.28 -1.12,3.37 -0.8,0.65 0.52,-0.42 -0.28,0.23 -3.44,2.81 -9.79,8.65 -12.8,10.95 -0.74,0.56 -0.63,0.14 -0.89,1.11 1.03,0.57 12.96,0.25 15.09,0.25l0 2.24 -19.61 0c0,-2.4 -0.08,-2.09 3.59,-5.15l8.87 -7.63c0.89,-0.69 2.63,-1.97 2.87,-2.88l-12.07 0c-1.26,0 -3.26,0.4 -3.26,-0.75zm10.81 -14.91c-2.3,0 -3.46,0.13 -5.71,-1.07 -0.56,-0.3 -0.87,-0.51 -1.39,-0.86 -0.04,-0.03 -0.56,-0.39 -0.59,-0.41 -3.48,-2.89 -4.4,-8.88 -2.29,-12.99 2.97,-5.79 9.99,-7.23 15.23,-3.53l0.42 0.33c6.75,5.73 3.21,18.53 -5.67,18.53zm-46.77 -45.73c0,0.81 2.31,5.42 2.78,6.46l8.79 19.14 15.84 -4.22 0 94.44c0,2.37 -0.49,5.71 0.75,5.71l34.7 0c0.58,0 0.75,-0.17 0.75,-0.74l0 -138.18 -29.67 0c-0.26,0 -3.57,1.77 -4.19,2.07l-25.52 13.04c-0.67,0.36 -4.23,1.79 -4.23,2.28zm37.97 34.3c0,2.08 -0.13,2.61 0.83,4.65 2.85,6.07 12.15,5.5 14.26,-0.42 0.88,-2.44 0.97,-4.03 0,-6.47 -2.1,-5.27 -10.46,-6.97 -14.14,-0.55 -0.26,0.45 -0.95,2.23 -0.95,2.79zm2.26 64.62c2.42,1.26 3.85,1.61 5.79,2.51 1.92,0.9 1.5,0.69 1.5,-5 0,-1.14 -0.97,-0.65 -1.59,-0.36 -0.74,0.35 -1.21,0.59 -1.9,0.89 -1.15,0.51 -3.08,0.99 -3.8,1.96z"/>
    <path id="arena" fill="black" d="M429.69 142.77l6.03 16.66c0.26,0.85 0.69,1.67 0.76,2.48l-14.08 0c1.34,-2.5 6.15,-18.31 7.29,-19.14zm-35.45 46.23l16.59 5.96c1.03,0 1.07,-1.67 1.76,-3.72l4.02 -12.43 26.15 0 4.75 14.19c0.28,1.07 0.34,1.12 0.78,1.96 1.15,-0.09 3.03,-0.92 4.17,-1.34 1.4,-0.53 2.58,-0.97 3.99,-1.53l8.19 -3.09 -2.23 -6.75c-0.34,-0.91 -0.53,-1.43 -0.85,-2.39l-4.46 -12.24c-0.15,-0.46 -0.18,-0.63 -0.35,-1.15l-16.22 -45.1c-0.56,-1.51 -1.13,-4.2 -2.04,-4.2l-17.85 0c-0.94,0 -1.32,2.21 -1.99,4.01l-19.58 53.95c-0.77,2.59 -4.7,12.31 -4.83,13.87zm-123.2 -71.58l0 74.56 52.55 0 0 -15.9c0,-0.58 -0.18,-0.75 -0.76,-0.75l-33.44 0 0 -15.66 22.88 0c0.58,0 0.76,-0.17 0.76,-0.74l0 -15.41c0,-0.57 -0.18,-0.75 -0.76,-0.75l-22.88 0 0 -8.94 34.2 0 0 -16.41c0,-0.57 -0.18,-0.74 -0.76,-0.74l-51.04 0c-0.58,0 -0.75,0.17 -0.75,0.74zm-50.04 32.31l0 -15.9 16.35 0c0.96,0 2.85,0.91 3.67,1.84 0.03,0.03 0.08,0.09 0.11,0.13 2.02,2.47 3.03,13.81 -3.04,14.42 -1.6,0.16 -16.08,0.63 -16.78,0.06 -0.39,-0.31 -0.31,0.35 -0.31,-0.55zm-18.35 -32.06l0 74.31 18.35 0 0 -23.86c0,-1.14 1.42,-0.74 4.28,-0.74 0.8,0 2.47,2.47 3.01,3.23l15.41 19.31c0.8,1.07 3.57,4.7 4.46,5.29l3.6 -1.91c1.29,-0.75 10.1,-5.69 10.73,-6.54 -0.4,-1.7 -14.87,-19.39 -15.34,-21.12 1.52,-0.35 4.66,-2.02 5.83,-2.94 6.69,-5.26 7.75,-12.5 7.75,-21.17 0,-3.79 -0.46,-7.25 -1.38,-10.32 -0.49,-1.61 -1.19,-2.91 -1.84,-4.14 -3.55,-6.64 -11.98,-10.14 -19.66,-10.14l-34.45 0c-0.57,0 -0.75,0.17 -0.75,0.74zm-40.73 25.1c0.81,0.59 1.4,3.22 1.94,4.55 0.66,1.67 1.21,3.32 1.8,4.93l3.55 9.66 -14.08 0 5.14 -14.31c0.31,-0.82 0.61,-1.69 0.86,-2.38l0.57 -1.66c0.06,-0.17 0.15,0.08 0.22,-0.79zm-35.2 45.98c0.92,0.61 14.37,5.69 16.26,6.09 1.39,0.29 1.25,-0.51 2.04,-3.16l2.69 -8.52c0.47,-1.54 1.01,-2.77 1.39,-4.35l26.14 0 4.19 12.26c1.52,5.09 0.85,4.31 5.73,2.51 0.8,-0.29 1.24,-0.46 2.01,-0.75 2.73,-1.03 8.59,-3.02 10.2,-4.08l-10.63 -29.5c-3.35,-8.8 -6.48,-18.59 -9.81,-27.34l-4.41 -12.29c-0.35,-0.85 -0.71,-1.41 -0.8,-2.45l-19.1 0c-0.11,1.27 -1.11,3.15 -1.55,4.44l-9.67 26.72c-0.6,1.62 -1.11,2.98 -1.67,4.57 -0.31,0.86 -0.47,1.35 -0.78,2.21l-8.96 24.69c-0.54,1.45 -1.04,2.84 -1.6,4.38 -0.54,1.46 -1.07,3.32 -1.67,4.57zm202.9 -69.34c0,1.59 0.13,2.63 0.29,4.19l1.18 8.27c0.15,1.35 0.04,3.28 0.04,4.69l-0.02 53.7c-0.01,0.93 -0.2,1.72 0.77,1.72l17.6 0 0 -33.3c0.74,0.26 1.04,0.83 1.66,1.84l4.34 6.4c4.36,5.81 11.19,16.25 15.82,23.13 0.36,0.52 1.17,1.93 1.82,1.93l16.34 0 0 -74.31c0,-0.57 -0.17,-0.74 -0.75,-0.74l-16.85 0c-0.97,0 -0.78,0.79 -0.78,1.71l0.03 39.54c-1.11,-0.39 -6.53,-9.81 -7.06,-10.67l-12.01 -18.95c-0.64,-0.98 -1.01,-1.77 -1.7,-2.79 -0.69,-1.01 -1.03,-1.6 -1.62,-2.62l-5.27 -8.21c-1.35,0.11 -2.41,0.63 -3.52,0.99l-6.79 2.24c-1.14,0.42 -2.45,0.74 -3.52,1.24z"/>
    <path id="original" fill="black" d="M322.58 204.9c0,2.8 1.26,7.52 1.26,11.93l0 40.27c2.38,0.55 9.42,0.24 12.32,0.24 1.5,0 1,-2.85 1,-5.22l0 -18.88c0.48,0.34 1.9,2.4 2.25,2.99l13.83 20.13c0.44,0.57 0.77,0.98 1.77,0.98l9.56 0c0.77,0 1.51,-0.23 1.51,-0.99l0 -52.69c0,-0.76 -0.74,-0.99 -1.51,-0.99 -2.88,0 -9.67,-0.31 -12.07,0.25l0 29.57c-0.55,-0.39 -0.88,-1.15 -1.24,-1.75l-2.42 -3.82c-0.49,-0.81 -0.78,-1.22 -1.26,-1.99 -0.87,-1.41 -1.58,-2.44 -2.42,-3.82l-12.27 -19.68c-1.06,0.02 -1.34,0.28 -2.6,0.65 -1.01,0.3 -1.7,0.56 -2.65,0.87 -0.83,0.27 -1.83,0.65 -2.6,0.9 -0.99,0.32 -2.46,0.55 -2.46,1.05zm-117.67 22.12l-10.56 0c-0.58,0 -0.75,-0.17 -0.75,-0.74l0 -10.44c0,-0.57 0.17,-0.75 0.75,-0.75 2.38,0 9.41,-0.15 11.37,0.2 3.78,0.68 3.22,4.29 3.22,7.51 0,2.66 -1.56,4.22 -4.03,4.22zm-24.64 -24.1l0 54.18c2.01,0.46 11.32,0.46 13.33,0l-0.02 -15.93c-0.02,-1.99 -0.23,-1.72 3.04,-1.72 0.84,0 3.67,4.13 4.21,4.78l8 9.99c0.48,0.61 3.89,5.11 4.13,5.11 1.06,0 6.2,-3.3 7.81,-4.21 0.94,-0.54 1.79,-1 2.75,-1.5 -0.11,-1.34 -4.53,-6.72 -5.39,-7.85l-5.67 -7.56c1.66,-0.87 2.07,-0.78 4.02,-2.24 5.21,-3.88 5.78,-8.74 5.78,-15.66 0,-7.84 -2.59,-13.37 -9.91,-16.29 -2.14,-0.86 -4.62,-1.35 -7.44,-1.35 -3.23,0 -23.16,-0.32 -24.64,0.25zm70.4 11.93l0 30.07c0,1.59 0.77,3.9 1.22,5.01 0.69,1.69 1.4,2.69 2.61,3.87 1.28,1.25 1.83,1.86 3.64,2.62 6.81,2.88 14.32,1.32 20.95,-1.55l4.52 -2c0.6,0.4 0.87,0.79 1.33,1.42l3.7 4.55 9.8 -4.73c-0.1,-1.27 -1.91,-4.06 -2.67,-5.55 -1.74,-3.38 -2.13,-2.58 -2.1,-6.13l0 -12.18c0,-1.13 0.45,-3.47 -0.76,-3.47l-23.38 0 0 11.43c0,0.57 0.17,0.74 0.75,0.74l9.81 0c0,2.23 0.34,2.28 -2.14,3.61 -3.55,1.9 -5.83,3.1 -10.43,3.1 -1.72,0 -3.52,-1.09 -3.52,-2.73l0 -26.1c0,-5.95 15.25,-0.95 18.92,0.43 3.84,1.45 2.63,1.81 4.41,-1.22 0.52,-0.88 0.88,-1.7 1.35,-2.65 0.85,-1.73 1.82,-3.56 2.72,-5.25 -1.27,-0.85 -3.32,-1.61 -4.81,-2.21l-7.98 -2.54c-9.17,-2.07 -21.54,-3.7 -26.56,6.11 -0.53,1.05 -1.38,3.91 -1.38,5.35zm-97.55 30.81c-2.65,0 -9.3,0.1 -9.3,-3.97l0 -23.36c0,-1.53 1.16,-2.74 2.42,-3.33 4.26,-2.02 13.92,-1.83 13.92,3.82l0 22.37c0,3.43 -3.53,4.47 -7.04,4.47zm20.62 -4.47l0 -21.62c0,-6.48 -1.37,-11.79 -7.21,-15 -5.35,-2.93 -12.62,-3.32 -18.73,-2.69 -5.69,0.59 -11.87,2.2 -14.97,7.32 -0.41,0.67 -0.75,1.11 -1.04,1.71 -0.86,1.77 -0.94,2.28 -1.28,4.22l-0.02 24.57c0,6.03 -0.11,8.98 3.83,12.86 3.66,3.6 7,4.12 11.94,5.1 1.77,0.35 8.21,0.41 10.32,0.12 3.21,-0.44 7.05,-1.54 9.53,-3.01 4.73,-2.79 7.63,-7.84 7.63,-13.58zm225.27 -5.72l-9.05 0c0.03,-1.31 0.65,-2.39 1.01,-3.48l2.51 -6.96c0.32,-1.06 0.74,-2.67 1.51,-3.23 0.09,1.04 0.8,2.54 1.19,3.56 0.47,1.24 0.77,2.25 1.25,3.48 0.5,1.24 0.81,2.18 1.27,3.47 0.71,2.01 1.64,3.16 0.31,3.16zm-29.92 19.39l9.39 3.4c1.02,0.4 2.04,0.98 3.19,1.07 0.42,-0.86 0.59,-1.75 0.91,-2.82l1.91 -5.82c0.19,-0.65 0.66,-2.45 0.95,-3.04l18.85 0c0.46,1.92 1.4,4.03 1.96,5.77 0.6,1.88 1.25,4.39 2.07,5.91 1.05,-0.24 1.93,-0.65 2.97,-1.03 1.69,-0.62 7.72,-2.7 8.84,-3.44 -0.1,-1.2 -1.74,-5.14 -2.2,-6.52l-4.68 -13.02c-0.82,-2.26 -1.46,-4.42 -2.34,-6.63 -0.2,-0.5 -0.42,-0.98 -0.58,-1.42 -0.21,-0.56 -0.32,-1.09 -0.54,-1.7l-7.12 -19.8c-0.32,-0.91 -0.74,-2.85 -1.64,-2.85l-12.32 0c-1.32,0 -1.59,2.75 -2.23,4.26 -0.25,0.58 -0.4,0.87 -0.64,1.61 -2.56,7.76 -6.64,18.35 -9.55,26.34l-7.2 19.73zm54.82 -51.94l-0.01 51.69c-0.03,3.3 -0.35,2.75 3.02,2.73l34.95 0c0.55,-2.34 0.25,-8.64 0.25,-11.43 0,-1.19 -2.37,-0.75 -3.52,-0.74 -2.73,0 -20.64,0.28 -21.14,-0.23 -0.58,-0.56 -0.23,-6.87 -0.23,-8.22 0,-11.27 0,-22.54 0,-33.8 -1.75,-0.41 -11.93,-0.54 -13.32,0zm-193.85 0c-0.14,0.55 -0.26,0.57 -0.26,1.24l0 52.19c0,0.76 0.74,0.99 1.51,0.99l10.81 0c0.78,0 1.51,-0.23 1.51,-0.99l0 -52.69c0,-0.76 -0.73,-0.99 -1.51,-0.99 -1.99,0 -10.77,-0.25 -12.06,0.25zm71.4 0.74l0 52.69c0,0.58 0.42,0.99 1.01,0.99l11.56 0c0.59,0 1.01,-0.41 1.01,-0.99l0 -52.69c0,-0.76 -0.74,-0.99 -1.51,-0.99l-11.06 0c-0.59,0 -1.01,0.41 -1.01,0.99z"/>
    <path id="de" fill="black" d="M127.98 125.87l0 -4.72c3.39,0 3.01,-0.52 3.01,4.72 0,0.67 -0.12,0.69 -0.25,1.25 -1.22,0 -2.76,-0.1 -2.76,-1.25zm-3.02 -5.71l0 9.94c1.52,0 2.2,0.4 2.51,-0.75 2.33,1.22 6.54,1.58 6.54,-2.98 0,-8.5 0.3,-8.2 -9.05,-8.2l0 1.99zm10.06 -1.25c0,2.76 -0.3,8.86 0.25,11.19 1.51,0 3.01,0 4.52,0 3.79,0 3.77,0.63 3.77,-2.24 0,-1.22 -1.98,-0.74 -5.28,-0.74l0 -1.99c4.04,0 3.52,0.45 3.52,-2.24 0,-1.08 -1.06,-0.74 -3.52,-0.74l0 -1c6.05,0 5.28,0.58 5.28,-2.24 0,-0.57 -0.17,-0.74 -0.75,-0.74l-7.04 0c-0.58,0 -0.75,0.17 -0.75,0.74z"/>
   </g>
  </g>
 </g>
</svg>
