<?xml version="1.0" encoding="UTF-8"?>
<!DOCTYPE svg PUBLIC "-//W3C//DTD SVG 1.1//EN" "http://www.w3.org/Graphics/SVG/1.1/DTD/svg11.dtd">
<!-- Creator: CorelDRAW 2019 (64 Bit) -->
<svg xmlns="http://www.w3.org/2000/svg" xml:space="preserve" width="512px" height="260px" version="1.1" shape-rendering="geometricPrecision" text-rendering="geometricPrecision" image-rendering="optimizeQuality" fill-rule="evenodd" clip-rule="evenodd"
viewBox="0 0 490.42 249.57"
 xmlns:xlink="http://www.w3.org/1999/xlink">
 <g id="Camada_x0020_1">
  <metadata id="CorelCorpID_0Corel-Layer"/>
  <g id="_2263312594656">
   <g>
    <polygon id="n" fill="#FA0557" stroke="#FF0055" stroke-width="0.81" stroke-miterlimit="22.9256" points="0.4,3.39 34.58,3.39 116.4,122.97 116.4,3.39 150.58,3.39 150.58,172.93 150.58,183.26 116.4,183.26 116.23,183.26 34.58,63.93 34.58,139.78 0.4,137.51 "/>
    <path id="b" fill="#FA0557" stroke="#FF0055" stroke-width="0.81" stroke-miterlimit="22.9256" d="M264.33 3.39l34.18 0c27.99,0 60.92,-2.72 77.22,23.64 6.52,10.55 8.77,23.83 4.99,38.55 -3.02,11.75 -9.69,19.91 -17.52,25.15 11.51,8.14 17,17.62 19.08,27.47 4.6,21.85 -1.32,37.58 -13.48,48.07 -11.26,9.71 -27.88,14.92 -46.45,16.33 -7.94,0.59 -15.89,0.44 -23.84,0.44 0,-11.39 0,-22.78 0,-34.18 8.36,0 16.72,0 25.09,0 13.49,0 26.99,-4.69 26.99,-20.78 0,-11.48 -10.46,-20.79 -19.9,-20.79 -14.63,0 -29.26,0 -43.89,0l-22.47 0 0 -75.43 0 -28.47zm34.18 30.64l0 39.08 31.34 0c9.44,0 20.74,-8.75 20.74,-19.54 0,-10.79 -10.46,-19.54 -19.9,-19.54 -11.44,0 -20.74,0 -32.18,0z"/>
    <path id="t" fill="#FA0557" stroke="#FF0055" stroke-width="0.81" stroke-miterlimit="22.9256" d="M456.96 71.75l0 111.51 -34.18 0 0 -111.51 34.18 0zm33.06 -34.18l0 0 -100.3 0 0 -0.01 3.26 -34.17 93.78 0 3.26 34.18z"/>
    <path id="dois" fill="#FA0557" stroke="#FF0055" stroke-width="0.81" stroke-miterlimit="22.9256" d="M206.81 0.4c20.37,0 37.4,12.35 45.51,28.85 12.35,25.13 0.71,43.37 -13.1,63.7 -11.6,17.07 -26.88,37.03 -39,54.74l58.22 0 0 34.18 -101.97 0 0 -28.22 1.04 -1.58 1.05 -1.59 1.05 -1.58 0.8 -1.21 53.75 -81.2c3.43,-5.18 7.4,-10.23 9.01,-16.33 0.95,-3.6 1,-7.51 -1.54,-11.11 -10.34,-14.67 -35.1,-10.86 -35.1,11.67 0,1.04 0.07,2.05 0.22,3.05l-30.17 0c-0.06,-1.01 -0.09,-2.02 -0.09,-3.05 0,-27.79 22.53,-50.32 50.32,-50.32z"/>
   </g>
   <path id="text" fill="#FF0055" fill-rule="nonzero" d="M0.41 206.9l19 0c3.77,0 6.57,0.14 8.42,0.41 1.86,0.28 3.5,0.86 4.96,1.73 1.46,0.88 2.68,2.04 3.65,3.49 0.98,1.45 1.46,3.09 1.46,4.9 0,1.95 -0.59,3.75 -1.79,5.38 -1.19,1.64 -2.82,2.86 -4.86,3.68 2.88,0.75 5.09,2.02 6.65,3.81 1.55,1.8 2.33,3.91 2.33,6.34 0,1.91 -0.5,3.76 -1.51,5.57 -1,1.8 -2.38,3.24 -4.12,4.33 -1.74,1.07 -3.89,1.73 -6.44,1.99 -1.59,0.14 -5.45,0.24 -11.57,0.28l-16.18 0 0 -41.91zm9.62 6.97l0 9.65 6.28 0c3.73,0 6.05,-0.04 6.96,-0.14 1.64,-0.17 2.93,-0.67 3.87,-1.49 0.94,-0.83 1.41,-1.92 1.41,-3.26 0,-1.3 -0.41,-2.34 -1.22,-3.15 -0.81,-0.81 -2.01,-1.3 -3.61,-1.47 -0.95,-0.09 -3.68,-0.14 -8.18,-0.14l-5.51 0zm0 16.62l0 11.24 8.89 0c3.45,0 5.65,-0.09 6.58,-0.26 1.43,-0.23 2.59,-0.79 3.49,-1.67 0.89,-0.9 1.35,-2.08 1.35,-3.57 0,-1.27 -0.34,-2.34 -1.04,-3.21 -0.69,-0.88 -1.69,-1.53 -3,-1.93 -1.31,-0.4 -4.15,-0.6 -8.52,-0.6l-7.75 0zm38.3 18.32l0 -41.91 35.18 0 0 7.08 -25.55 0 0 9.31 23.75 0 0 7.08 -23.75 0 0 11.36 26.48 0 0 7.08 -36.11 0zm87.07 0l-10.36 0 -4.1 -9.54 -19.06 0 -3.95 9.54 -10.18 0 18.45 -41.91 10.17 0 19.03 41.91zm-17.58 -16.62l-6.61 -15.51 -6.41 15.51 13.02 0zm53.1 1.17l9.29 2.51c-1.43,4.62 -3.8,8.04 -7.12,10.29 -3.32,2.23 -7.52,3.35 -12.62,3.35 -6.32,0 -11.5,-1.9 -15.58,-5.7 -4.05,-3.81 -6.09,-9.01 -6.09,-15.61 0,-6.98 2.05,-12.4 6.13,-16.26 4.08,-3.87 9.45,-5.8 16.11,-5.8 5.82,0 10.54,1.52 14.17,4.56 2.17,1.79 3.79,4.37 4.87,7.73l-9.49 1.99c-0.57,-2.16 -1.74,-3.88 -3.52,-5.14 -1.79,-1.26 -3.96,-1.88 -6.5,-1.88 -3.53,0 -6.4,1.11 -8.59,3.34 -2.2,2.23 -3.29,5.84 -3.29,10.83 0,5.29 1.08,9.07 3.24,11.31 2.17,2.25 4.98,3.37 8.44,3.37 2.55,0 4.76,-0.71 6.59,-2.14 1.84,-1.44 3.16,-3.68 3.96,-6.75zm17.53 15.45l0 -41.91 9.63 0 0 16.51 18.71 0 0 -16.51 9.62 0 0 41.91 -9.62 0 0 -18.32 -18.71 0 0 18.32 -9.63 0zm77.05 0l0 -34.83 -14.07 0 0 -7.08 37.7 0 0 7.08 -14.01 0 0 34.83 -9.62 0zm29.85 0l0 -41.91 35.18 0 0 7.08 -25.55 0 0 9.31 23.76 0 0 7.08 -23.76 0 0 11.36 26.48 0 0 7.08 -36.11 0zm44.27 0l0 -41.91 9.31 0 19.56 28.09 0 -28.09 8.89 0 0 41.91 -9.61 0 -19.26 -27.55 0 27.55 -8.89 0zm47.93 0l0 -41.91 9.31 0 19.56 28.09 0 -28.09 8.89 0 0 41.91 -9.61 0 -19.26 -27.55 0 27.55 -8.89 0zm47.59 0l0 -41.91 9.62 0 0 41.91 -9.62 0zm16.25 -13.58l9.36 -0.82c0.56,2.76 1.69,4.78 3.4,6.08 1.72,1.3 4.03,1.94 6.94,1.94 3.07,0 5.4,-0.58 6.96,-1.73 1.56,-1.15 2.34,-2.49 2.34,-4.04 0,-0.99 -0.33,-1.83 -0.98,-2.53 -0.66,-0.69 -1.81,-1.3 -3.44,-1.81 -1.12,-0.35 -3.66,-0.95 -7.65,-1.83 -5.12,-1.13 -8.71,-2.52 -10.78,-4.17 -2.91,-2.31 -4.36,-5.13 -4.36,-8.45 0,-2.14 0.69,-4.15 2.05,-6.01 1.37,-1.87 3.34,-3.28 5.92,-4.26 2.57,-0.97 5.67,-1.46 9.32,-1.46 5.94,0 10.42,1.16 13.42,3.49 3.01,2.33 4.58,5.44 4.73,9.33l-9.62 0.29c-0.41,-2.16 -1.29,-3.72 -2.62,-4.66 -1.34,-0.95 -3.36,-1.43 -6.03,-1.43 -2.77,0 -4.94,0.51 -6.5,1.53 -1,0.65 -1.51,1.52 -1.51,2.61 0,0.99 0.48,1.84 1.43,2.55 1.2,0.9 4.13,1.84 8.79,2.82 4.66,0.96 8.1,1.98 10.32,3.01 2.23,1.04 3.98,2.46 5.24,4.26 1.26,1.81 1.89,4.03 1.89,6.68 0,2.4 -0.75,4.65 -2.26,6.75 -1.52,2.09 -3.65,3.65 -6.42,4.67 -2.76,1.02 -6.22,1.53 -10.34,1.53 -6.01,0 -10.62,-1.22 -13.84,-3.67 -3.22,-2.44 -5.13,-6 -5.76,-10.67z"/>
  </g>
 </g>
</svg>
