<?xml version="1.0" encoding="UTF-8"?>
<!DOCTYPE svg PUBLIC "-//W3C//DTD SVG 1.1//EN" "http://www.w3.org/Graphics/SVG/1.1/DTD/svg11.dtd">
<!-- Creator: CorelDRAW 2019 (64 Bit) -->
<svg xmlns="http://www.w3.org/2000/svg" xml:space="preserve" width="512px" height="325px" version="1.1" shape-rendering="geometricPrecision" text-rendering="geometricPrecision" image-rendering="optimizeQuality" fill-rule="evenodd" clip-rule="evenodd"
viewBox="0 0 519.5 329.33"
 xmlns:xlink="http://www.w3.org/1999/xlink">
 <g id="Camada_x0020_1">
  <metadata id="CorelCorpID_0Corel-Layer"/>
  <g id="_2616755084240">
   <path fill="#FA0557" d="M0 93.44l0 1.03 0 0.93c0.29,9.99 3.39,21.1 14.14,22.78 2.2,0.37 1.17,0.28 2.79,1.58 3.39,2.71 16.35,5.32 24.45,9.43l25.77 12.6c6.48,3.27 19.87,10.27 28.42,10.27 1.91,0 3.09,-6.35 3.09,-7.93 -2.65,-0.19 -30.78,-10.27 -33.87,-11.48 -12.37,-4.95 -24.44,-11.39 -36.96,-16.25 -0.88,-0.28 -1.91,-0.65 -2.65,-0.93l-6.92 -4.57c-1.47,-0.94 -3.24,-2.43 -3.68,-4.2 2.5,-3.37 7.51,-1.59 10.45,-1.78 3.54,-0.28 2.21,-0.37 5.16,1.59 2.94,2.05 6.62,3.17 10.01,4.48 7.51,3.17 25.62,15.22 37.55,20.72 6.18,2.9 19.14,9.8 26.65,5.88 -1.91,-8.12 -10.01,-7 -17.38,-9.42l-9.12 -4.11c-11.34,-6.35 -22.83,-13.54 -33.58,-20.73 -1.91,-1.21 -7.07,-4.01 -8.24,-5.5 15.61,0 25.47,6.72 37.69,14 7.07,4.2 26.36,17.36 34.16,17.36 -2.5,-10.92 -8.24,-5.79 -21.94,-15.03 -7.8,-5.13 -31.51,-22.03 -33.13,-29.03 3.24,0.75 5.01,0.94 7.81,2.34 5.59,2.52 9.42,7.84 15.16,9.89 5.45,1.96 10.46,7 15.02,10.55 2.36,1.96 10.31,8.96 12.67,8.96 4.56,0 -0.44,-7.28 -2.06,-8.96 -2.65,-2.89 -4.72,-6.91 -8.1,-9.06 -4.27,-2.8 -2.8,-1.68 -5.75,-5.69 -7.21,-9.71 -20.17,-17.92 -20.17,-31.46 6.63,1.59 9.87,5.42 13.4,10.36l26.51 39.68c0.73,1.21 0.44,1.12 1.62,1.49l1.62 0.19c0.58,-0.1 0.58,-0.56 0.58,-1.12l-1.17 -4.58c-3.83,-15.31 -11.49,-54.05 -3.83,-68.51 7.36,4.94 5.74,30.99 5.74,41.07 0,5.23 0.74,9.8 1.77,14.09 5.45,-3.64 3.68,-6.34 5.74,-12.41 0.74,-2.33 1.77,-4.39 2.65,-6.54l8.25 -19.6c1.03,-2.52 3.68,-10.92 6.77,-11.76 3.98,17.18 -11.93,33.88 -11.93,51.15 8.54,-4.48 16.2,-18.76 24,-23.99 6.48,-4.38 1.77,-0.84 6.34,-6.9 1.17,-1.5 3.24,-2.99 5.3,-3.46 0,7.56 -4.57,7.75 -6.33,12.14 -2.07,5.22 -7.07,9.89 -11.34,13.35 -6.92,5.5 -11.78,13.34 -17.38,20.07 -1.32,1.49 -5.45,5.22 -5.89,6.44 -0.29,1.12 -1.18,4.2 -1.32,5.32 2.65,-0.66 23.56,-15.5 28.12,-18.21 2.5,-1.49 4.71,-2.89 7.07,-4.29 6.92,-4.01 17.37,-9.05 25.62,-9.71 -2.8,5.7 -5.01,8.68 -11.63,12.23 -5.3,2.8 -11.19,5.32 -16.64,7.56 -10.01,4.11 -18.55,9.34 -27.68,14.66 -1.62,1.02 -2.51,1.02 -3.54,2.61 7.95,0 13.84,-0.84 21.5,-2.8 4.57,-1.12 16.05,-3.73 21.2,-2.52 0.45,-0.84 0.3,-0.56 0.45,-1.77 4.27,0 2.2,-0.66 7.06,0.09 0.45,5.23 -0.88,4.67 -5.44,5.41 -5.6,1.03 -10.61,2.62 -16.35,4.02 -2.35,0.65 -23.71,5.04 -25.77,6.81 6.33,0 13.4,0.19 19.14,-0.65 7.96,-1.12 16.35,-1.12 24.45,-1.12 4.27,0 6.48,1.03 9.72,1.77 -1.92,2.62 -11.34,3.74 -14.73,4.3 -2.65,0.46 -5.3,0.84 -8.24,1.02 -2.07,0.1 -2.21,0.38 -4.27,0.38 -1.62,0.09 -3.39,-0.1 -4.86,0.09 -10.75,0.84 -20.77,0.75 -31.22,2.33 -1.33,0.19 -2.8,0.56 -4.12,0.66 0.73,1.12 0.14,0.46 1.32,0.93 0,0 2.21,0.37 2.21,0.37 17.38,1.59 34.16,0.75 51.1,3.55 4.12,0.75 8.24,1.31 11.63,3.36l3.39 1.96c-4.42,1.03 -9.28,2.24 -14.14,2.24 -10.75,0 -20.62,-2.05 -30.33,-3.17 -9.58,-1.12 -12.52,0 -22.39,-2.71 -1.62,-0.37 -5.3,-1.4 -6.77,-2.05 -0.44,2.14 -1.62,5.23 -1.77,7.47 8.1,0 15.61,0.93 23.42,1.3 11.33,0.56 44.91,5.32 53.74,8.31 3.83,1.31 5.75,2.05 7.51,5.32 -7.21,4.86 -25.77,1.12 -32.69,-0.28 -14.72,-2.99 -29.15,-6.81 -43.44,-10.92 -5,-1.4 -6.47,-2.43 -11.63,-2.43 -1.32,0 -1.32,1.12 -1.32,1.22 -1.03,1.4 -1.62,1.3 -1.77,3.17 2.8,0.09 9.86,2.33 12.52,2.99 8.09,2.24 16.49,4.2 24.44,6.81 1.91,0.56 3.83,1.31 6.04,1.96 2.35,0.65 3.68,1.31 5.89,1.96 11.48,3.83 22.38,8.96 33.72,13.07 4.71,1.59 7.51,2.05 8.68,7.19 -9.13,4.39 -24,-2.06 -31.07,-5.04 -8.68,-3.55 -15.9,-9.06 -24.59,-12.04 -6.03,-1.96 -4.27,-0.56 -11.04,-3.92 -1.91,-1.03 -3.09,-1.69 -5.15,-2.34 -3.98,-1.21 -7.22,-2.52 -11.19,-3.83 -4.57,-1.49 -7.07,-1.96 -13.11,-1.96 0.44,4.76 4.86,6.54 9.13,7.75l21.2 7.75c1.03,0.47 1.92,1.12 2.8,1.68 10.01,6.81 20.91,13.16 31.66,18.58 4.56,2.24 19.44,9.24 21.65,12.32 -10.75,0 -19,-3.27 -26.51,-6.63 -7.36,-3.27 -14.72,-7.19 -21.64,-11.39 -8.25,-4.95 -35.05,-22.31 -43.44,-22.59 0,7.56 1.47,6.35 7.8,9.34 7.51,3.45 25.47,14 32.25,18.48l13.4 8.59c6.33,3.82 11.78,7.28 18.4,10.64 7.51,3.73 3.98,3.73 8.1,6.53 2.8,1.87 6.78,3.18 10.61,3.92 7.8,1.68 17.22,2.24 24.88,4.3 6.33,1.68 16.05,4.38 21.35,7.65 2.8,1.68 6.04,3.83 8.1,6.44 7.8,9.71 6.33,12.23 -1.32,22.03 -4.57,5.98 -10.75,11.48 -16.35,16.62l-17.23 15.49c-8.54,6.91 -10.01,14.01 -1.62,22.41 3.98,3.92 7.37,5.6 10.16,5.88l2.36 0c5.74,-0.93 9.57,-7.38 12.81,-10.74 5.01,-4.94 10.75,-9.42 15.02,-14.93l9.13 -9.52c12.81,-12.79 16.49,-14.38 30.77,-0.19 8.54,8.49 28.42,35.38 39.61,35.38 7.37,0 15.47,-10.08 15.76,-17.27 0.15,-7.66 -10.16,-12.98 -15.31,-17.64 -6.19,-5.79 -13.11,-11.86 -18.85,-18.11 -1.03,-1.03 -1.03,-1.4 -2.06,-2.43l-5.89 -6.35c-1.92,-2.14 -5.45,-5.51 -5.45,-8.31 0,-15.3 21.2,-22.87 33.13,-25.95 8.83,-2.14 17.08,-2.33 25.33,-4.1 8.39,-1.78 13.25,-6.54 19.73,-10.36 3.09,-1.87 5.89,-3.55 8.98,-5.51l28.13 -16.9c10.74,-6.44 21.35,-12.97 31.21,-20.72 1.62,-1.12 2.8,-2.15 3.39,-4.2 -6.33,0.19 -12.22,4.48 -17.23,7.09 -6.18,3.18 -12.07,7.1 -18.11,10.55l-29.16 16.15c-6.18,3.08 -17.37,6.81 -26.35,6.81 1.76,-3.26 6.33,-5.32 9.42,-6.9 8.25,-4.39 25.47,-12.05 31.95,-17.93 2.36,-2.24 7.51,-4.01 10.6,-5.6l11.2 -5.6c3.97,-1.49 21.35,-5.41 21.94,-11.57 -7.96,-0.66 -8.1,-0.66 -16.64,2.33 -3.39,1.21 -6.19,2.33 -9.57,3.64 -4.86,1.78 -9.72,3.36 -13.26,6.54 -1.32,1.02 -3.97,1.12 -5.45,1.58 -5.89,1.96 -12.66,5.79 -18.25,8.68 -7.66,3.83 -14.43,6.26 -24.15,6.26 -3.24,0 -4.57,-0.75 -7.07,-1.31 0.59,-6.81 25.47,-14.47 30.48,-15.87 12.22,-3.36 22.68,-8.31 35.19,-11.48l18.85 -4.57c2.06,-0.56 4.12,-1.4 6.33,-1.59 -0.44,-1.77 -1.18,-2.61 -1.32,-4.39 -18.85,0 -55.07,15.87 -76.28,15.87 -4.42,0 -9.42,0 -12.81,-2.24 0.88,-3.55 3.09,-4.29 6.33,-5.51 11.64,-4.38 28.86,-5.5 41.38,-7.09 9.87,-1.21 24.59,-2.33 34.31,-2.33 0.15,-2.34 0.88,-3.36 0.88,-6.17 -5.89,0 -8.69,1.5 -13.69,2.15 -7.95,1.12 -37.11,4.02 -44.47,4.02 -8.1,0 -9.13,0 -16.79,-1.78 1.77,-2.43 10.31,-4.29 14.29,-5.13 10.01,-1.96 25.62,-1.5 36.96,-2.71 3.68,-0.47 16.34,-0.28 18.84,-1.12 2.21,-0.65 -0.44,-2.61 -4.86,-2.99l-23.41 -1.3c-2.35,0 -2.5,-0.38 -4.71,-0.47 -5.89,-0.09 -13.84,-0.09 -19.14,-0.75 -4.57,-0.56 -13.4,-1.86 -15.32,-4.48 3.24,-0.09 6.63,-0.93 10.16,-0.93l33.87 0c-0.59,-2.24 -0.88,-2.71 -2.65,-3.36 -4.27,-1.59 -33.28,-1.77 -35.63,-10.74 7.36,-3.45 32.39,2.52 39.61,4.95 3.53,1.21 5.89,1.77 9.27,-0.09 -0.44,-1.22 -1.91,-1.87 -3.09,-2.62l-11.34 -5.88c-1.47,-0.74 -2.35,-1.02 -3.97,-1.77 -9.28,-4.29 -26.66,-11.2 -33.87,-18.48 -2.65,-2.62 -3.54,-3.74 -5.01,-6.91 10.75,0.84 19.29,7 27.83,12.23 3.68,2.24 7.66,4.39 11.93,5.32 2.5,0.56 1.77,0.65 3.68,2.05l9.13 8.03c1.62,1.59 5.01,4.01 7.8,4.11l0 -4.39c-4.12,-1.12 -7.65,-9.71 -11.19,-12.7 -3.24,-2.8 -4.56,-2.7 -5.89,-5.88 -2.21,-4.85 -7.06,-9.42 -11.04,-12.88 -5.3,-4.67 -10.75,-9.8 -13.25,-16.61 -0.59,-1.4 -0.74,-3.74 -1.33,-4.86 4.86,1.12 12.37,10.55 16.2,14.66 0.88,1.02 1.03,1.4 1.91,2.42 2.95,3.18 5.3,6.17 8.4,9.25 1.62,1.58 2.79,2.8 4.41,4.38 1.62,1.68 3.24,2.8 5.16,4.11 0,-3.73 -1.77,-8.59 -2.8,-11.76 -3.68,-11.3 -10.01,-24.27 -10.01,-36.31 0,-1.5 0.44,-1.68 0.44,-3.08 4.12,2.7 16.79,35.19 17.96,38.92 0.89,2.52 1.03,5.23 1.92,7.47 0.73,2.15 2.5,4.2 4.86,4.76 0,-5.6 0.44,-9.61 0.44,-15.03 0,-2.89 0.44,-4.2 0.44,-7.47l0.88 -22.87c0.3,-3.26 0.3,-10.73 4.86,-11.1 0,2.89 0.89,6.16 1.18,8.86l0.15 19.33c0,1.77 0,3.64 0,5.32 -0.3,7 -1.47,16.43 -2.8,23.24 -1.18,5.69 -2.94,11.48 -3.39,17.36 2.07,-0.56 4.27,-4.2 5.6,-5.97 7.51,-10.08 12.96,-21.66 20.76,-31.55 3.54,-4.58 9.87,-13.07 16.35,-13.16 -0.15,7.84 -5.16,13.72 -9.28,18.95l-5.3 6.06c-1.33,1.22 -1.62,1.68 -2.65,3.08 -3.39,3.92 -8.25,7.47 -11.49,11.48 -2.5,3.18 -5.74,6.07 -7.36,9.81 -1.18,2.42 0,2.14 -0.88,3.92 1.76,0 2.94,0 4.41,-0.47 1.77,-0.47 6.78,-5.32 8.69,-6.72 7.81,-5.88 30.48,-23.24 38.88,-23.24 -1.77,7.56 -20.91,19.6 -25.92,23.52 -4.56,3.73 -9.28,7.28 -15.17,9.52 -7.65,2.89 -12.37,1.68 -14.43,10.64 10.16,-0.84 24.89,-13.16 34.17,-17.83 3.09,-1.49 5.44,-2.61 8.83,-4.01 4.12,-1.68 19.29,-7.56 21.94,-11.02 1.77,-2.05 4.57,-1.96 7.36,-1.96 1.92,0 2.21,1.87 2.21,3.92 -1.76,0.38 -5.89,3.27 -7.65,4.3 -2.8,1.59 -5.01,2.99 -7.81,4.67 -7.51,4.57 -15.17,8.96 -23.26,12.78 -5.6,2.71 -11.49,5.32 -17.38,7.29 -2.65,0.93 -6.77,2.05 -9.13,3.17 0,2.8 -0.44,3.92 -0.44,6.16 6.92,0 16.93,-4.39 21.94,-6.63 3.53,-1.49 6.18,-2.8 9.57,-4.57 9.57,-4.76 18.41,-10.46 27.98,-15.22 4.12,-2.14 15.46,-7.56 21.05,-7.56 0.89,0 3.54,2.06 3.54,2.71 0,1.96 -0.44,3.64 -0.89,5.23 -5.74,1.4 -13.69,6.72 -19.28,9.33l-20.18 8.96c-8.39,4.02 -17.37,7.19 -26.21,9.9 -1.91,0.65 -3.68,1.3 -5.59,1.86 -3.39,1.03 -7.81,2.71 -11.49,3.08 0.29,1.4 0.88,2.71 1.18,4.02 1.03,3.08 1.18,3.45 4.12,3.45 8.39,0 21.21,-6.81 27.68,-9.71l12.52 -6.44c9.28,-4.66 16.2,-8.3 26.36,-11.11 7.8,-2.14 10.6,-5.41 13.1,-5.78 5.3,-0.94 8.4,-3.55 10.75,-8.22 2.36,-4.57 3.24,-10.17 3.39,-15.96l0 -1.21c-0.15,-7 -1.47,-14.1 -3.09,-19.7 -0.89,-3.08 -1.62,-5.32 -2.65,-8.21 -0.59,-1.31 -1.18,-2.8 -1.77,-4.02l-5.6 -11.11c-1.47,-2.52 -2.79,-4.76 -4.41,-7.09 -1.77,-2.24 -3.24,-4.29 -5.01,-6.53l-5.3 -6.07c-1.03,-1.31 -1.33,-1.68 -2.5,-2.8 -1.18,-1.31 -1.92,-1.59 -3.1,-2.71 -10.16,-9.43 -21.49,-17.74 -35.19,-21.56 -17.82,-4.95 -34.75,-3.08 -51.83,3.45 -4.42,1.77 -8.98,3.55 -12.96,5.98l-12.37 7.09c-7.8,4.67 -15.02,10.08 -22.23,15.59 -16.94,12.69 -31.81,28.38 -43.44,46.02 -13.4,20.25 -14.87,35.75 -16.79,59.55 -0.15,1.96 0.15,4.11 0,6.07l-0.88 12.04c-0.15,2.06 0.15,4.48 0,6.54 -0.44,7.65 -0.89,15.59 -2.06,23.15 -2.36,16.05 -5.6,34.82 -19.74,44.06 -2.06,1.3 -6.18,3.45 -8.83,4.01 -2.65,0.47 -6.04,-2.52 -8.1,-3.83 -10.9,-7.37 -11.34,-8.58 -15.9,-22.4 -1.92,-5.51 -3.98,-14.28 -4.86,-20.72 -1.47,-11.02 -2.65,-23.9 -2.65,-35.29 0,-10.92 -0.89,-25.11 -2.51,-35.75 -4.71,-27.82 -17.67,-46.77 -36.37,-65.53 -1.32,-1.31 -1.76,-1.77 -3.24,-2.99l-24.88 -20.07c-10.9,-7.74 -15.9,-10.64 -27.24,-17.17 -3.98,-2.34 -8.69,-4.39 -13.25,-6.16 -11.05,-4.39 -21.5,-6.54 -31.22,-6.63l-1.33 0c-16.93,0.28 -32.69,6.81 -48.59,18.95l-9.13 8.03c-4.71,4.76 -8.98,9.89 -12.81,15.4l-8.39 14.47c-4.42,8.68 -8.69,21.09 -9.28,33.98l0 1.3 0 1.31z"/>
   <path fill="#FA0557" d="M373.72 226.65c4.57,1.02 5.6,1.77 12.81,-2.62l5.75 -3.54c7.21,-3.08 3.53,-2.8 9.12,-7.19 1.33,-1.03 1.92,-1.78 3.24,-2.8 1.48,-1.12 2.36,-1.87 3.69,-2.99 5.15,-4.2 25.76,-20.16 29.59,-21 -5.74,11.01 -28.86,27.91 -29.01,35.66 8.4,-0.19 7.37,-2.43 10.9,-5.79 3.68,-3.55 2.21,-0.47 5.6,-5.79 0.88,-1.4 1.62,-2.24 2.5,-3.36 1.47,-2.15 3.53,-4.11 5.6,-5.79 1.17,-0.84 1.76,-1.4 2.94,-2.33 1.18,-0.93 2.06,-1.68 3.24,-2.61 5.3,-4.86 7.95,-5.79 6.18,-9.15 -1.17,-2.52 -2.94,-4.48 -5.44,-5.98 -3.69,-2.24 -4.86,-3.54 -12.81,2.62l-7.51 6.25c-5.31,4.2 -10.31,7.94 -15.76,11.95 -5.3,4.01 -10.31,7.75 -15.61,11.76l-11.63 9.06c-0.89,0.74 -1.03,0.74 -1.92,1.58 -1.17,0.84 -1.17,0.66 -1.47,2.06z"/>
   <path fill="#FA0557" d="M12.81 128.26c0.88,3.73 0.44,6.16 4.86,8.87 2.65,1.58 10.31,4.48 13.84,6.25l51.83 24.18c4.13,-2.8 6.04,-4.48 6.04,-10.64 -1.77,-0.38 -3.09,-1.03 -5.01,-1.59 -15.31,-4.39 -14.28,-1.03 -34.89,-11.3 -6.48,-3.26 -20.77,-11.66 -25.92,-13.72 -3.98,-1.58 -6.48,-2.42 -10.75,-2.05z"/>
   <path fill="#FA0557" d="M430.56 157.38c0,18.39 14.14,4.48 30.78,-2.24l25.91 -12.04c3.83,-1.96 13.84,-6.81 17.67,-7.75 0,-1.49 1.33,-7.46 1.77,-8.4 -6.63,0 -16.93,6.72 -22.97,9.99 -10.46,5.6 -20.76,10.83 -32.1,14.66 -3.39,1.12 -6.63,2.05 -10.31,2.89 -2.06,0.47 -3.83,0.75 -5.6,1.12 -3.68,0.56 -5.15,0 -5.15,1.77z"/>
   <path fill="#FA0557" d="M146.22 227.95c-1.77,-7.65 -12.37,-9.8 -21.65,-18.01l-30.33 -24.27c-4.42,-3.55 -8.98,-6.63 -15.31,-7.1 0.14,6.82 1.76,5.7 5.89,8.59 6.92,4.85 19.88,16.24 28.12,22.5 1.62,1.21 2.8,2.14 4.27,3.26 1.33,1.03 2.5,2.06 3.83,3.18 5.74,5.04 16.2,11.85 25.18,11.85z"/>
   <path fill="#FA0557" d="M72.74 179.88c3.09,0 10.6,-7.28 1.47,-11.2 -2.94,-1.22 -9.42,-2.62 -16.78,-5.79l-15.32 -7c-6.03,-2.52 -8.98,-4.76 -16.05,-6.44 0,9.89 6.48,9.99 11.05,12.6l15.9 8.4c3.98,1.96 16.49,9.43 19.73,9.43z"/>
   <path fill="#FA0557" d="M440.57 172.41c2.95,12.51 11.49,5.23 19.73,1.12 6.93,-3.45 11.49,-4.76 16.64,-7.65l9.13 -5.42c1.18,-0.65 5.6,-2.98 6.19,-3.82l2.06 -7.19c-2.21,0.56 -4.42,1.77 -6.48,2.71l-40.35 17.36c-2.35,0.93 -4.71,1.87 -6.92,2.89z"/>
   <path fill="#FA0557" d="M72.74 187.35c0,5.41 4.71,6.72 8.84,10.45 3.09,2.8 6.18,6.07 9.13,9.06 2.65,2.8 6.33,5.97 8.68,8.87 6.78,8.02 1.92,4.2 11.64,6.44 0,-3.64 -1.33,-4.48 -2.65,-6.63 -2.36,-3.83 -2.65,-0.66 -9.57,-8.87 -0.89,-1.03 -0.89,-1.49 -1.92,-2.43 -6.18,-5.78 -5.15,-4.01 -11.19,-12.23 -3.53,-4.57 -6.18,-6.81 -12.07,-6.81 -0.59,1.87 -0.89,0.75 -0.89,2.15z"/>
   <path fill="#FA0557" d="M49.77 180.35c0,4.38 4.12,10.54 11.04,10.54 3.24,0 6.63,-4.2 6.63,-7.46 0,-2.52 -13.25,-4.48 -17.67,-4.48l0 1.4z"/>
   <path fill="#FA0557" d="M452.5 183.43c0.44,1.96 1.62,4.57 1.77,6.62 5,0.38 5.3,1.4 11.48,-1.77 5.16,-2.71 4.86,-3.73 4.86,-6.63 0,-1.12 -1.18,-1.68 -1.76,-2.7 -4.72,1.12 -11.49,1.21 -16.35,4.48z"/>
   <path fill="#FA0557" d="M65.23 196.59c0,3.27 2.51,4.85 3.98,6.07 0.88,0.65 1.18,0.93 2.06,1.58 2.06,1.59 6.33,4.58 8.98,5.14 -0.44,-4.95 -4.56,-11.39 -8.39,-14.1 -1.92,-1.4 -3.24,-1.59 -5.3,-2.61 -0.59,0.93 -1.33,2.52 -1.33,3.92z"/>
   <path fill="#FA0557" d="M439.69 209.38c1.47,-0.28 14.14,-8.4 14.14,-10.08l0 -5.79c-1.33,0 -2.51,0.18 -3.24,0.28 -4.13,0.75 -2.95,1.87 -8.1,7.37 -0.89,0.94 -0.89,1.22 -1.77,2.15 -2.36,2.61 -1.03,1.77 -1.03,6.07z"/>
  </g>
 </g>
</svg>
